<?xml version="1.0" encoding="utf-8"?>
<!-- Generator: Adobe Illustrator 17.0.0, SVG Export Plug-In . SVG Version: 6.00 Build 0)  -->
<!DOCTYPE svg PUBLIC "-//W3C//DTD SVG 1.1//EN" "http://www.w3.org/Graphics/SVG/1.1/DTD/svg11.dtd">
<svg version="1.1" id="Layer_1" xmlns="http://www.w3.org/2000/svg" xmlns:xlink="http://www.w3.org/1999/xlink" x="0px" y="0px"
	 width="612px" height="612px" viewBox="0 0 612 612" enable-background="new 0 0 612 612" xml:space="preserve">
<polygon fill="none" stroke="#000000" stroke-width="1.976" points="125.405,123.236 268.138,123.236 268.138,246.77 
	343.489,246.77 343.489,235.177 381.891,235.177 381.891,271.403 602.149,271.403 602.149,488.764 509.409,488.764 509.409,422.106 
	459.418,409.791 387.687,409.791 387.687,439.496 261.618,439.496 261.618,443.842 218.146,443.842 218.146,448.916 
	177.572,448.916 177.572,443.842 134.824,443.842 134.824,438.048 9.48,438.048 9.48,356.897 65.994,356.897 65.994,266.333 
	94.976,266.333 94.976,246.045 125.407,246.045 "/>
<g>
	<line fill="none" stroke="#000000" stroke-width="0.494" x1="142.978" y1="205.458" x2="125.638" y2="205.458"/>
	<line fill="none" stroke="#000000" stroke-width="0.494" x1="142.978" y1="207.012" x2="125.638" y2="207.012"/>
	<line fill="none" stroke="#000000" stroke-width="0.494" x1="142.978" y1="208.593" x2="125.638" y2="208.593"/>
	<line fill="none" stroke="#000000" stroke-width="0.494" x1="142.978" y1="210.12" x2="125.638" y2="210.12"/>
</g>
<g>
	<line fill="none" stroke="#000000" stroke-width="0.494" x1="142.978" y1="211.564" x2="125.638" y2="211.564"/>
	<line fill="none" stroke="#000000" stroke-width="0.494" x1="142.978" y1="213.115" x2="125.638" y2="213.115"/>
	<line fill="none" stroke="#000000" stroke-width="0.494" x1="142.978" y1="214.698" x2="125.638" y2="214.698"/>
	<line fill="none" stroke="#000000" stroke-width="0.494" x1="142.978" y1="216.222" x2="125.638" y2="216.222"/>
</g>
<g>
	<line fill="none" stroke="#000000" stroke-width="0.494" x1="125.228" y1="368.118" x2="109.156" y2="368.118"/>
	<line fill="none" stroke="#000000" stroke-width="0.494" x1="125.228" y1="369.669" x2="109.156" y2="369.669"/>
	<line fill="none" stroke="#000000" stroke-width="0.494" x1="125.228" y1="371.253" x2="109.156" y2="371.253"/>
	<line fill="none" stroke="#000000" stroke-width="0.494" x1="125.228" y1="372.778" x2="109.156" y2="372.778"/>
</g>
<g>
	<line fill="none" stroke="#000000" stroke-width="0.494" x1="125.228" y1="374.222" x2="109.156" y2="374.222"/>
	<line fill="none" stroke="#000000" stroke-width="0.494" x1="125.228" y1="375.773" x2="109.156" y2="375.773"/>
	<line fill="none" stroke="#000000" stroke-width="0.494" x1="125.228" y1="377.356" x2="109.156" y2="377.356"/>
	<line fill="none" stroke="#000000" stroke-width="0.494" x1="125.228" y1="378.88" x2="109.156" y2="378.88"/>
</g>
<g>
	<line fill="none" stroke="#000000" stroke-width="0.494" x1="286.98" y1="367.753" x2="269.64" y2="367.753"/>
	<line fill="none" stroke="#000000" stroke-width="0.494" x1="286.98" y1="369.306" x2="269.64" y2="369.306"/>
	<line fill="none" stroke="#000000" stroke-width="0.494" x1="286.98" y1="370.889" x2="269.64" y2="370.889"/>
	<line fill="none" stroke="#000000" stroke-width="0.494" x1="286.98" y1="372.415" x2="269.64" y2="372.415"/>
</g>
<g>
	<line fill="none" stroke="#000000" stroke-width="0.494" x1="286.98" y1="373.859" x2="269.64" y2="373.859"/>
	<line fill="none" stroke="#000000" stroke-width="0.494" x1="286.98" y1="375.41" x2="269.64" y2="375.41"/>
	<line fill="none" stroke="#000000" stroke-width="0.494" x1="286.98" y1="376.993" x2="269.64" y2="376.993"/>
	<line fill="none" stroke="#000000" stroke-width="0.494" x1="286.98" y1="378.519" x2="269.64" y2="378.519"/>
</g>
<g>
	<line fill="none" stroke="#000000" stroke-width="0.494" x1="566.558" y1="462.576" x2="549.22" y2="462.576"/>
	<line fill="none" stroke="#000000" stroke-width="0.494" x1="566.558" y1="464.132" x2="549.22" y2="464.132"/>
	<line fill="none" stroke="#000000" stroke-width="0.494" x1="566.558" y1="465.711" x2="549.22" y2="465.711"/>
	<line fill="none" stroke="#000000" stroke-width="0.494" x1="566.558" y1="467.238" x2="549.22" y2="467.238"/>
</g>
<g>
	<line fill="none" stroke="#000000" stroke-width="0.494" x1="566.558" y1="468.68" x2="549.22" y2="468.68"/>
	<line fill="none" stroke="#000000" stroke-width="0.494" x1="566.558" y1="470.235" x2="549.22" y2="470.235"/>
	<line fill="none" stroke="#000000" stroke-width="0.494" x1="566.558" y1="471.815" x2="549.22" y2="471.815"/>
	<line fill="none" stroke="#000000" stroke-width="0.494" x1="566.558" y1="473.342" x2="549.22" y2="473.342"/>
</g>
<g>
	<line fill="none" stroke="#000000" stroke-width="0.494" x1="474.996" y1="284.885" x2="455.703" y2="284.885"/>
	<line fill="none" stroke="#000000" stroke-width="0.494" x1="474.996" y1="286.439" x2="455.703" y2="286.439"/>
	<line fill="none" stroke="#000000" stroke-width="0.494" x1="474.996" y1="288.022" x2="455.703" y2="288.022"/>
	<line fill="none" stroke="#000000" stroke-width="0.494" x1="474.996" y1="289.548" x2="455.703" y2="289.548"/>
</g>
<g>
	<line fill="none" stroke="#000000" stroke-width="0.494" x1="474.996" y1="290.991" x2="455.703" y2="290.991"/>
	<line fill="none" stroke="#000000" stroke-width="0.494" x1="474.996" y1="292.542" x2="455.703" y2="292.542"/>
	<line fill="none" stroke="#000000" stroke-width="0.494" x1="474.996" y1="294.126" x2="455.703" y2="294.126"/>
	<line fill="none" stroke="#000000" stroke-width="0.494" x1="474.996" y1="295.649" x2="455.703" y2="295.649"/>
</g>
<g>
	<line fill="none" stroke="#000000" stroke-width="0.494" x1="439.163" y1="370.387" x2="419.773" y2="367.257"/>
	<line fill="none" stroke="#000000" stroke-width="0.494" x1="438.914" y1="371.919" x2="419.526" y2="368.79"/>
	<line fill="none" stroke="#000000" stroke-width="0.494" x1="438.662" y1="373.483" x2="419.27" y2="370.352"/>
	<line fill="none" stroke="#000000" stroke-width="0.494" x1="438.419" y1="374.987" x2="419.029" y2="371.858"/>
</g>
<g>
	<line fill="none" stroke="#000000" stroke-width="0.494" x1="438.191" y1="376.413" x2="418.799" y2="373.283"/>
	<line fill="none" stroke="#000000" stroke-width="0.494" x1="437.943" y1="377.947" x2="418.552" y2="374.817"/>
	<line fill="none" stroke="#000000" stroke-width="0.494" x1="437.691" y1="379.507" x2="418.299" y2="376.379"/>
	<line fill="none" stroke="#000000" stroke-width="0.494" x1="437.448" y1="381.013" x2="418.057" y2="377.883"/>
</g>
<g>
	<line fill="none" stroke="#000000" stroke-width="0.741" x1="268.864" y1="205.458" x2="252.611" y2="205.458"/>
	<line fill="none" stroke="#000000" stroke-width="0.741" x1="268.864" y1="207.012" x2="252.611" y2="207.012"/>
	<line fill="none" stroke="#000000" stroke-width="0.741" x1="268.864" y1="208.593" x2="252.611" y2="208.593"/>
	<line fill="none" stroke="#000000" stroke-width="0.741" x1="268.864" y1="210.12" x2="252.611" y2="210.12"/>
</g>
<g>
	<line fill="none" stroke="#000000" stroke-width="0.741" x1="268.864" y1="211.564" x2="252.611" y2="211.564"/>
	<line fill="none" stroke="#000000" stroke-width="0.741" x1="268.864" y1="213.115" x2="252.611" y2="213.115"/>
	<line fill="none" stroke="#000000" stroke-width="0.741" x1="268.864" y1="214.698" x2="252.611" y2="214.698"/>
	<line fill="none" stroke="#000000" stroke-width="0.741" x1="268.864" y1="216.222" x2="252.611" y2="216.222"/>
</g>
<g>
	<line fill="none" stroke="#000000" stroke-width="0.494" x1="357.878" y1="235.862" x2="357.878" y2="260.359"/>
	<line fill="none" stroke="#000000" stroke-width="0.494" x1="359.432" y1="235.862" x2="359.432" y2="260.359"/>
	<line fill="none" stroke="#000000" stroke-width="0.494" x1="361.013" y1="235.862" x2="361.013" y2="260.359"/>
	<line fill="none" stroke="#000000" stroke-width="0.494" x1="362.54" y1="235.862" x2="362.54" y2="260.359"/>
</g>
<g>
	<line fill="none" stroke="#000000" stroke-width="0.494" x1="363.982" y1="235.862" x2="363.982" y2="260.359"/>
	<line fill="none" stroke="#000000" stroke-width="0.494" x1="365.535" y1="235.862" x2="365.535" y2="260.359"/>
	<line fill="none" stroke="#000000" stroke-width="0.494" x1="367.117" y1="235.862" x2="367.117" y2="260.359"/>
	<line fill="none" stroke="#000000" stroke-width="0.494" x1="368.643" y1="235.862" x2="368.643" y2="260.359"/>
</g>
<polyline fill="none" stroke="#000000" stroke-width="0.988" points="189.889,136.641 189.889,219.6 143.158,219.6 143.158,197.5 
	125.407,197.5 "/>
<polyline fill="none" stroke="#000000" stroke-width="0.988" points="189.528,187.72 205.467,187.72 205.467,137.002 "/>
<polyline fill="none" stroke="#000000" stroke-width="0.988" points="252.199,197.139 252.199,219.963 203.657,219.963 
	203.657,196.777 220.319,196.777 267.053,196.777 "/>
<line fill="none" stroke="#000000" stroke-width="0.988" x1="139.172" y1="197.5" x2="190.252" y2="197.5"/>
<path fill="none" stroke="#000000" stroke-width="0.494" d="M127.613,162.001h5.071c0,0,15.215-7.609,26.808-7.609
	c11.592,0,28.257,8.331,28.257,8.331h2.536"/>
<path fill="none" stroke="#000000" stroke-width="0.494" d="M127.613,165.986h5.071c0,0,15.215-7.609,26.808-7.609
	c11.592,0,28.257,8.333,28.257,8.333h2.536"/>
<path fill="none" stroke="#000000" stroke-width="0.494" d="M126.493,170.332h5.071c0,0,15.215-7.607,26.808-7.607
	c11.592,0,28.257,8.331,28.257,8.331h2.536"/>
<path fill="none" stroke="#000000" stroke-width="0.494" d="M205.467,173.23h3.623c0,0,4.346-18.477,26.808-18.477
	c22.46,0,28.256,18.477,28.256,18.477h2.898"/>
<path fill="none" stroke="#000000" stroke-width="0.494" d="M205.467,183.374h6.883c0,0,1.087-22.823,23.549-22.823
	c22.46,0,24.995,22.823,24.995,22.823h6.16"/>
<path fill="none" stroke="#000000" stroke-width="0.494" d="M205.467,185.546h11.231c0,0,1.811-19.56,19.201-19.56
	c17.387,0,20.648,19.56,20.648,19.56h10.507"/>
<path fill="none" stroke="#000000" stroke-width="0.494" d="M217.147,182.649h6.972c0,0,0.731-10.868,11.78-10.868
	c11.048,0,12.953,10.868,12.953,10.868h6.52"/>
<rect x="144.607" y="233.728" fill="none" stroke="#000000" stroke-width="0.988" width="107.592" height="154.689"/>
<rect x="269.227" y="263.072" fill="none" stroke="#000000" stroke-width="0.988" width="57.238" height="124.981"/>
<line fill="none" stroke="#000000" stroke-width="0.988" x1="566.646" y1="488.044" x2="566.646" y2="271.044"/>
<polyline fill="none" stroke="#000000" stroke-width="0.988" points="548.896,488.044 548.896,406.532 509.951,406.532 
	509.951,423.559 "/>
<polyline fill="none" stroke="#000000" stroke-width="0.988" points="566.823,327.919 510.858,327.919 510.858,388.78 
	449.636,388.78 449.636,380.811 461.953,310.168 474.994,310.168 474.994,271.042 "/>
<polyline fill="none" stroke="#000000" stroke-width="0.988" points="455.069,271.405 455.069,307.996 451.447,307.996 
	436.232,385.883 "/>
<polyline fill="none" stroke="#000000" stroke-width="0.988" points="441.665,356.175 421.378,356.175 415.22,388.419 
	384.79,388.419 384.79,270.681 "/>
<polyline fill="none" stroke="#000000" stroke-width="0.988" points="384.79,388.419 339.144,388.419 339.144,260.537 
	381.53,260.537 "/>
<line fill="none" stroke="#000000" stroke-width="0.988" x1="338.783" y1="296.403" x2="385.152" y2="296.403"/>
<line fill="none" stroke="#000000" stroke-width="0.988" x1="338.783" y1="318.863" x2="385.152" y2="318.863"/>
<line fill="none" stroke="#000000" stroke-width="1.0041" x1="339.144" y1="357.264" x2="384.791" y2="357.264"/>
<line fill="none" stroke="#000000" stroke-width="0.988" x1="566.646" y1="345.671" x2="602.874" y2="345.671"/>
<line fill="none" stroke="#000000" stroke-width="0.988" x1="566.646" y1="389.143" x2="602.874" y2="389.143"/>
<line fill="none" stroke="#000000" stroke-width="0.988" x1="566.646" y1="405.445" x2="602.874" y2="405.445"/>
<line fill="none" stroke="#000000" stroke-width="0.988" x1="566.646" y1="447.468" x2="602.874" y2="447.468"/>
<line fill="none" stroke="#000000" stroke-width="0.988" x1="510.495" y1="447.468" x2="548.536" y2="447.468"/>
<line fill="none" stroke="#000000" stroke-width="0.988" x1="567.004" y1="371.764" x2="510.497" y2="381.535"/>
<polyline fill="none" stroke="#000000" stroke-width="0.988" points="494.921,388.792 494.921,336.252 510.86,336.252 "/>
<line fill="none" stroke="#000000" stroke-width="0.988" x1="310.168" y1="263.797" x2="310.168" y2="355.099"/>
<line fill="none" stroke="#000000" stroke-width="0.988" x1="326.107" y1="355.453" x2="269.232" y2="355.453"/>
<line fill="none" stroke="#000000" stroke-width="0.988" x1="309.805" y1="326.834" x2="326.47" y2="326.834"/>
<line fill="none" stroke="#000000" stroke-width="0.988" x1="316.328" y1="355.281" x2="316.328" y2="387.695"/>
<line fill="none" stroke="#000000" stroke-width="0.988" x1="286.984" y1="355.281" x2="286.984" y2="387.695"/>
<line fill="none" stroke="#000000" stroke-width="0.988" x1="269.232" y1="336.255" x2="309.805" y2="336.255"/>
<polyline fill="none" stroke="#000000" stroke-width="0.988" points="386.607,409.796 243.149,409.796 243.149,443.848 "/>
<line fill="none" stroke="#000000" stroke-width="0.988" x1="290.606" y1="409.796" x2="290.606" y2="438.413"/>
<polyline fill="none" stroke="#000000" stroke-width="0.988" points="186.998,447.473 186.998,407.621 9.126,407.621 "/>
<polyline fill="none" stroke="#000000" stroke-width="0.988" points="9.851,388.058 125.414,388.058 125.414,244.963 "/>
<line fill="none" stroke="#000000" stroke-width="0.988" x1="95.407" y1="266.901" x2="125.475" y2="266.901"/>
<line fill="none" stroke="#000000" stroke-width="0.988" x1="66.002" y1="310.173" x2="125.052" y2="310.173"/>
<line fill="none" stroke="#000000" stroke-width="0.988" x1="66.003" y1="355.099" x2="125.053" y2="355.099"/>
<line fill="none" stroke="#000000" stroke-width="0.988" x1="108.751" y1="355.099" x2="108.751" y2="388.425"/>
<line fill="none" stroke="#000000" stroke-width="0.988" x1="79.769" y1="355.099" x2="79.769" y2="388.425"/>
<polyline fill="none" stroke="#000000" stroke-width="0.988" points="68.901,355.099 68.901,368.498 41.731,380.091 "/>
<line fill="none" stroke="#000000" stroke-width="0.988" x1="52.599" y1="356.905" x2="52.599" y2="375.745"/>
<line fill="none" stroke="#000000" stroke-width="0.988" x1="53.323" y1="407.263" x2="53.323" y2="438.056"/>
<line fill="none" stroke="#000000" stroke-width="0.988" x1="91.724" y1="407.263" x2="91.724" y2="438.056"/>
<line fill="none" stroke="#000000" stroke-width="0.988" x1="133.747" y1="407.263" x2="133.747" y2="438.056"/>
<line fill="none" stroke="#000000" stroke-width="0.988" x1="176.856" y1="407.263" x2="176.856" y2="443.853"/>
<line fill="none" stroke="#000000" stroke-width="0.988" x1="155.481" y1="322.855" x2="155.481" y2="388.425"/>
<line fill="none" stroke="#000000" stroke-width="0.988" x1="241.338" y1="322.855" x2="241.338" y2="388.425"/>
<polyline fill="none" stroke="#000000" stroke-width="0.988" points="172.146,388.786 172.146,351.474 241.338,351.474 "/>
<line fill="none" stroke="#000000" stroke-width="0.988" x1="197.865" y1="351.835" x2="197.865" y2="388.425"/>
<g>
	<line fill="none" stroke="#000000" stroke-width="0.494" x1="19.702" y1="388.195" x2="19.702" y2="407.527"/>
	<line fill="none" stroke="#000000" stroke-width="0.494" x1="21.257" y1="388.195" x2="21.257" y2="407.527"/>
	<line fill="none" stroke="#000000" stroke-width="0.494" x1="22.838" y1="388.195" x2="22.838" y2="407.527"/>
	<line fill="none" stroke="#000000" stroke-width="0.494" x1="24.363" y1="388.195" x2="24.363" y2="407.527"/>
</g>
<g>
	<line fill="none" stroke="#000000" stroke-width="0.494" x1="25.807" y1="388.195" x2="25.807" y2="407.527"/>
	<line fill="none" stroke="#000000" stroke-width="0.494" x1="27.36" y1="388.195" x2="27.36" y2="407.527"/>
	<line fill="none" stroke="#000000" stroke-width="0.494" x1="28.942" y1="388.195" x2="28.942" y2="407.527"/>
	<line fill="none" stroke="#000000" stroke-width="0.494" x1="30.467" y1="388.195" x2="30.467" y2="407.527"/>
</g>
<polyline fill="none" stroke="#000000" stroke-width="0.988" points="242.6,425.544 231.009,425.544 231.009,410.874 
	243.143,410.874 "/>
<polyline fill="none" stroke="#000000" stroke-width="0.988" points="71.518,437.592 71.518,425.911 91.352,418.574 "/>
<line fill="none" stroke="#000000" stroke-width="0.988" x1="552.155" y1="374.484" x2="552.155" y2="328.099"/>
<line fill="none" stroke="#000000" stroke-width="0.988" x1="511.129" y1="344.401" x2="551.884" y2="344.401"/>
<line fill="none" stroke="#000000" stroke-width="0.988" x1="526.072" y1="328.114" x2="526.072" y2="344.401"/>
<line fill="none" stroke="#000000" stroke-width="0.988" x1="551.884" y1="354.998" x2="566.557" y2="354.998"/>
<line fill="none" stroke="#000000" stroke-width="0.988" x1="219.957" y1="219.963" x2="219.957" y2="196.777"/>
<line fill="none" stroke="#000000" stroke-width="0.988" x1="161.994" y1="219.963" x2="161.994" y2="197.683"/>
<line fill="none" stroke="#000000" stroke-width="0.988" x1="125.802" y1="136.641" x2="269.62" y2="136.641"/>
<path fill="none" stroke="#000000" stroke-width="0.494" d="M127.613,149.32h5.071c0,0,15.215-7.607,26.808-7.607
	c11.592,0,28.257,8.333,28.257,8.333h2.536"/>
<path fill="none" stroke="#000000" stroke-width="0.494" d="M127.613,153.669h5.071c0,0,15.215-7.609,26.808-7.609
	c11.592,0,28.257,8.333,28.257,8.333h2.536"/>
<path fill="none" stroke="#000000" stroke-width="0.494" d="M127.613,157.653h5.071c0,0,15.215-7.607,26.808-7.607
	c11.592,0,28.257,8.331,28.257,8.331h2.536"/>
<g enable-background="new    ">
	<path d="M437.863,196.777v-2.033l1.502-1.917c1.94-2.472,3.534-4.528,3.534-6.677c0-1.201-0.67-2.056-1.917-2.056
		c-0.947,0-1.71,0.416-2.265,0.762l-0.531-2.356c0.693-0.438,1.987-0.924,3.35-0.924c3.281,0,4.344,2.195,4.344,4.344
		c0,2.818-1.756,5.082-3.488,7.092l-0.901,1.062v0.047h4.598v2.656H437.863z"/>
	<path d="M448.212,188.877c0-1.248-0.069-2.334-0.093-3.396h2.61l0.139,1.294h0.047c0.601-0.901,1.57-1.479,2.749-1.479
		c2.148,0,3.003,1.709,3.003,4.228v7.254h-3.026v-7.069c0-0.97-0.23-1.871-1.108-1.871c-0.509,0-0.925,0.347-1.133,1.017
		c-0.092,0.23-0.161,0.601-0.161,1.039v6.885h-3.026V188.877z"/>
	<path d="M466.992,180.791v12.637c0,1.086,0.047,2.31,0.093,3.35h-2.61l-0.162-1.271h-0.046c-0.416,0.785-1.316,1.455-2.356,1.455
		c-2.402,0-3.512-2.656-3.512-5.821c0-3.928,1.71-5.845,3.627-5.845c0.994,0,1.617,0.485,1.895,1.132h0.046v-5.637H466.992z
		 M463.966,189.823c0-0.207,0-0.438-0.022-0.67c-0.116-0.692-0.485-1.316-1.086-1.316c-1.062,0-1.455,1.548-1.455,3.373
		c0,2.148,0.577,3.28,1.432,3.28c0.37,0,0.809-0.208,1.04-0.993c0.069-0.162,0.092-0.416,0.092-0.693V189.823z"/>
	<path d="M473.067,181.207h6.769v2.633h-3.742v3.997h3.512v2.519h-3.512v6.422h-3.026V181.207z"/>
	<path d="M481.775,180.791h3.026v15.986h-3.026V180.791z"/>
	<path d="M495.221,191.095c0,4.712-2.61,5.867-4.32,5.867c-2.703,0-4.32-2.125-4.32-5.798c0-4.066,2.126-5.868,4.366-5.868
		C493.604,185.296,495.221,187.537,495.221,191.095z M489.584,191.095c0,1.94,0.3,3.558,1.386,3.558
		c0.971,0,1.225-1.895,1.225-3.558c0-1.548-0.254-3.512-1.271-3.512C489.814,187.583,489.584,189.547,489.584,191.095z"/>
	<path d="M505.177,191.095c0,4.712-2.61,5.867-4.32,5.867c-2.703,0-4.32-2.125-4.32-5.798c0-4.066,2.126-5.868,4.366-5.868
		C503.56,185.296,505.177,187.537,505.177,191.095z M499.54,191.095c0,1.94,0.3,3.558,1.386,3.558c0.971,0,1.225-1.895,1.225-3.558
		c0-1.548-0.254-3.512-1.271-3.512C499.771,187.583,499.54,189.547,499.54,191.095z"/>
	<path d="M506.862,188.877c0-1.133-0.046-2.356-0.092-3.396h2.633l0.162,1.641h0.069c0.508-1.201,1.409-1.825,2.241-1.825
		c0.3,0,0.462,0,0.646,0.046v3.003c-0.185-0.046-0.393-0.046-0.646-0.046c-0.647,0-1.502,0.439-1.849,1.617
		c-0.069,0.254-0.115,0.646-0.115,1.132v5.729h-3.05V188.877z"/>
</g>
<g>
	<rect x="339.331" y="309.584" width="9.232" height="9.232"/>
	<g>
		<path fill="#FFFFFF" d="M342.7,314.331c0.017,2.461,0.975,2.974,1.884,2.974c0.561,0,1.008-0.132,1.321-0.298l0.215,0.925
			c-0.447,0.248-1.124,0.381-1.768,0.381c-1.899,0-2.89-1.553-2.89-4.014c0-2.594,1.089-4.213,2.692-4.213
			c1.62,0,2.28,1.719,2.28,3.519c0,0.314-0.017,0.528-0.032,0.726H342.7z M345.211,313.39c0.015-1.602-0.578-2.313-1.188-2.313
			c-0.827,0-1.255,1.221-1.306,2.313H345.211z"/>
	</g>
</g>
<g>
	<g>
		<path stroke="#000000" stroke-width="0.1157" stroke-miterlimit="10" d="M86.758,360.624c-1.551,0-2.411,0.801-2.411,2.426v16.809
			c0,1.517,0.776,2.318,2.318,2.318h16.88c1.54,0,2.318-0.758,2.318-2.318V363.05c0-1.581-0.778-2.426-2.374-2.426
			C103.49,360.624,86.75,360.624,86.758,360.624z"/>
	</g>
	<g>
		<g>
			<path fill="#FFFFFF" d="M95.114,366.29c0.67,0,1.212-0.554,1.212-1.212c0-0.675-0.541-1.22-1.212-1.22
				c-0.675,0-1.203,0.546-1.203,1.22C93.911,365.735,94.439,366.29,95.114,366.29z"/>
			<path fill="#FFFFFF" d="M95.114,365.078"/>
		</g>
		<g>
			<path fill="#FFFFFF" d="M94.931,373.968v4.226c0,0.75-1.134,0.75-1.134,0v-4.226h-1.515l1.611-5.623h-0.249l-0.956,3.203
				c-0.223,0.703-1.177,0.413-0.965-0.333l1.063-3.48c0.112-0.397,0.617-1.098,1.487-1.098h0.797l0,0h0.864
				c0.862,0,1.364,0.7,1.491,1.098l1.063,3.48c0.213,0.745-0.743,1.051-0.965,0.327l-0.952-3.197H96.29l1.639,5.623h-1.515v4.226
				c0,0.75-1.139,0.75-1.139,0v-4.226H94.931z"/>
		</g>
	</g>
</g>
<g>
	<g>
		<path stroke="#000000" stroke-width="0.1157" stroke-miterlimit="10" d="M293.753,360.629c-1.545,0-2.411,0.795-2.411,2.417
			v16.818c0,1.51,0.78,2.312,2.318,2.312h16.884c1.543,0,2.314-0.752,2.314-2.312v-16.818c0-1.581-0.771-2.417-2.37-2.417
			C310.488,360.629,293.746,360.622,293.753,360.629z"/>
	</g>
	<g>
		<g>
			<path fill="#FFFFFF" d="M300.81,366.621c-0.836,0-1.523,0.715-1.523,1.588v3.758c0,0.722,1.055,0.722,1.055,0v-3.44h0.249v9.487
				c0,0.978,1.386,0.956,1.386,0v-5.552h0.251v5.552c0,0.956,1.405,0.978,1.405,0v-9.487h0.232v3.44c0,0.722,1.051,0.722,1.051,0
				v-3.73c0-0.816-0.627-1.616-1.553-1.616H300.81z"/>
		</g>
		<g>
			<path fill="#FFFFFF" d="M302.103,366.285c0.657,0,1.203-0.546,1.203-1.205c0-0.673-0.546-1.212-1.203-1.212
				c-0.677,0-1.222,0.539-1.222,1.212C300.881,365.74,301.427,366.285,302.103,366.285z"/>
			<path fill="#FFFFFF" d="M302.103,365.08"/>
		</g>
	</g>
</g>
<g enable-background="new    ">
	<path d="M154.359,180.016c-0.209,0.1-0.616,0.177-1.122,0.177c-1.892,0-2.794-1.562-2.794-3.664c0-2.794,1.551-3.884,2.993-3.884
		c0.506,0,0.858,0.1,1.001,0.198l-0.242,1.21c-0.165-0.076-0.352-0.143-0.671-0.143c-0.814,0-1.551,0.704-1.551,2.541
		c0,1.771,0.671,2.465,1.551,2.465c0.242,0,0.517-0.056,0.693-0.11L154.359,180.016z"/>
	<path d="M155.084,172.513h1.441v2.795h0.022c0.121-0.188,0.286-0.342,0.462-0.463c0.209-0.12,0.462-0.187,0.726-0.187
		c0.99,0,1.375,0.836,1.375,2.2v3.268h-1.441v-3.268c0-0.528-0.099-0.99-0.528-0.99c-0.242,0-0.451,0.144-0.561,0.506
		c-0.022,0.089-0.055,0.286-0.055,0.407v3.345h-1.441V172.513z"/>
	<path d="M164.05,177.42c0,2.244-1.243,2.794-2.057,2.794c-1.287,0-2.058-1.012-2.058-2.762c0-1.936,1.012-2.794,2.08-2.794
		C163.28,174.659,164.05,175.726,164.05,177.42z M161.365,177.42c0,0.924,0.143,1.694,0.66,1.694c0.462,0,0.583-0.902,0.583-1.694
		c0-0.737-0.121-1.673-0.605-1.673C161.476,175.748,161.365,176.683,161.365,177.42z"/>
	<path d="M166.305,173.317c0.011,0.462-0.319,0.78-0.759,0.78c-0.396,0-0.726-0.318-0.715-0.78
		c-0.011-0.484,0.341-0.781,0.737-0.781C165.986,172.536,166.305,172.833,166.305,173.317z M164.863,180.126v-5.38h1.441v5.38
		H164.863z"/>
	<path d="M167.305,176.364c0-0.539-0.022-1.122-0.044-1.617h1.254l0.077,0.781h0.033c0.242-0.572,0.671-0.869,1.067-0.869
		c0.143,0,0.22,0,0.308,0.022v1.43c-0.088-0.021-0.187-0.021-0.308-0.021c-0.308,0-0.715,0.209-0.88,0.77
		c-0.033,0.121-0.055,0.309-0.055,0.539v2.729h-1.452V176.364z"/>
</g>
<g enable-background="new    ">
	<path d="M176.817,288.923l-0.33,1.694h-1.397l1.606-7.415h1.727l1.441,7.415h-1.397l-0.319-1.694H176.817z M178.017,287.801
		l-0.242-1.551c-0.077-0.451-0.176-1.188-0.242-1.684H177.5c-0.077,0.495-0.187,1.265-0.264,1.694l-0.275,1.54H178.017z"/>
	<path d="M184.485,288.978c0,0.572,0.022,1.134,0.044,1.64h-1.243l-0.077-0.572h-0.022c-0.253,0.363-0.693,0.66-1.243,0.66
		c-1.023,0-1.441-0.759-1.441-2.211v-3.257h1.452v3.103c0,0.704,0.132,1.155,0.539,1.155c0.242,0,0.396-0.188,0.462-0.363
		c0.055-0.11,0.088-0.274,0.088-0.462v-3.433h1.441V288.978z"/>
	<path d="M189.423,283.004v6.018c0,0.518,0.022,1.101,0.044,1.596h-1.243l-0.077-0.605h-0.022c-0.198,0.374-0.627,0.693-1.122,0.693
		c-1.144,0-1.672-1.265-1.672-2.772c0-1.87,0.814-2.783,1.728-2.783c0.473,0,0.77,0.231,0.902,0.539h0.022v-2.685H189.423z
		 M187.982,287.306c0-0.099,0-0.209-0.011-0.319c-0.055-0.33-0.231-0.627-0.517-0.627c-0.506,0-0.693,0.737-0.693,1.606
		c0,1.023,0.275,1.562,0.682,1.562c0.176,0,0.385-0.1,0.495-0.474c0.033-0.077,0.044-0.197,0.044-0.33V287.306z"/>
	<path d="M191.876,283.808c0.011,0.462-0.319,0.78-0.759,0.78c-0.396,0-0.726-0.318-0.715-0.78
		c-0.011-0.484,0.341-0.781,0.737-0.781C191.557,283.027,191.876,283.324,191.876,283.808z M190.435,290.618v-5.38h1.441v5.38
		H190.435z"/>
	<path d="M194.582,283.786v1.452h1.056v1.023h-1.056v2.453c0,0.627,0.264,0.781,0.55,0.781c0.143,0,0.253-0.011,0.374-0.033
		l0.011,1.122c-0.198,0.056-0.495,0.1-0.88,0.1c-0.418,0-0.781-0.1-1.034-0.342c-0.297-0.286-0.462-0.692-0.462-1.54v-2.541h-0.638
		v-1.023h0.638v-1.111L194.582,283.786z"/>
	<path d="M200.17,287.912c0,2.244-1.243,2.794-2.057,2.794c-1.287,0-2.058-1.012-2.058-2.762c0-1.936,1.012-2.794,2.08-2.794
		C199.4,285.15,200.17,286.217,200.17,287.912z M197.485,287.912c0,0.924,0.143,1.694,0.66,1.694c0.462,0,0.583-0.902,0.583-1.694
		c0-0.737-0.121-1.673-0.605-1.673C197.596,286.239,197.485,287.174,197.485,287.912z"/>
	<path d="M200.973,286.855c0-0.539-0.022-1.122-0.044-1.617h1.254l0.077,0.781h0.033c0.242-0.572,0.671-0.869,1.067-0.869
		c0.143,0,0.22,0,0.308,0.022v1.43c-0.088-0.021-0.187-0.021-0.308-0.021c-0.308,0-0.715,0.209-0.88,0.77
		c-0.033,0.121-0.055,0.309-0.055,0.539v2.729h-1.452V286.855z"/>
	<path d="M205.659,283.808c0.011,0.462-0.319,0.78-0.759,0.78c-0.396,0-0.726-0.318-0.715-0.78
		c-0.011-0.484,0.341-0.781,0.737-0.781C205.34,283.027,205.659,283.324,205.659,283.808z M204.217,290.618v-5.38h1.441v5.38
		H204.217z"/>
	<path d="M210.609,288.978c0,0.572,0.022,1.134,0.044,1.64h-1.243l-0.077-0.572h-0.022c-0.253,0.363-0.693,0.66-1.243,0.66
		c-1.023,0-1.441-0.759-1.441-2.211v-3.257h1.452v3.103c0,0.704,0.132,1.155,0.539,1.155c0.242,0,0.396-0.188,0.462-0.363
		c0.055-0.11,0.088-0.274,0.088-0.462v-3.433h1.441V288.978z"/>
	<path d="M211.642,286.855c0-0.594-0.033-1.111-0.044-1.617h1.254l0.066,0.627h0.022c0.275-0.407,0.726-0.715,1.287-0.715
		c0.605,0,0.99,0.275,1.177,0.727h0.022c0.132-0.21,0.33-0.407,0.539-0.54c0.22-0.12,0.484-0.187,0.759-0.187
		c0.957,0,1.386,0.759,1.386,2.058v3.41h-1.43v-3.168c0-0.616-0.066-1.111-0.506-1.111c-0.253,0-0.44,0.176-0.539,0.495
		c-0.022,0.076-0.044,0.23-0.044,0.374v3.41h-1.43v-3.378c0-0.385-0.044-0.901-0.495-0.901c-0.22,0-0.44,0.165-0.539,0.483
		c-0.033,0.1-0.055,0.253-0.055,0.407v3.389h-1.43V286.855z"/>
</g>
<g enable-background="new    ">
	<path d="M188.543,303.817l-1.43-7.415h0.88l0.627,3.575c0.154,0.936,0.275,1.761,0.363,2.674h0.044
		c0.088-0.936,0.264-1.738,0.44-2.685l0.682-3.564h0.726l0.682,3.487c0.165,0.88,0.33,1.728,0.429,2.762h0.033
		c0.121-1.067,0.253-1.87,0.396-2.718l0.616-3.531h0.825l-1.441,7.415h-0.825l-0.715-3.608c-0.143-0.781-0.286-1.617-0.374-2.432
		h-0.022c-0.11,0.836-0.231,1.64-0.407,2.465l-0.737,3.575H188.543z"/>
	<path d="M194.439,303.817v-0.55l0.605-0.825c0.847-1.178,1.859-2.52,1.859-3.861c0-0.793-0.352-1.276-1.023-1.276
		c-0.517,0-0.847,0.274-1.034,0.396l-0.209-0.638c0.253-0.209,0.748-0.484,1.397-0.484c1.188,0,1.705,0.88,1.705,1.958
		c0,1.343-0.88,2.641-1.76,3.851l-0.484,0.66v0.022h2.387v0.748H194.439z"/>
	<path d="M200.39,297.524h-0.022l-1.188,0.683l-0.165-0.66l1.507-0.881h0.704v7.151h-0.836V297.524z"/>
	<path d="M204.625,297.524h-0.022l-1.188,0.683l-0.165-0.66l1.507-0.881h0.704v7.151h-0.836V297.524z"/>
</g>
<g enable-background="new    ">
	<path d="M88.566,291.559c-0.319,0.132-1.001,0.265-1.541,0.265c-0.847,0-1.485-0.242-1.98-0.737
		c-0.638-0.616-0.979-1.717-0.958-2.992c0.033-2.696,1.573-3.818,3.146-3.818c0.561,0,0.979,0.11,1.21,0.221l-0.253,1.243
		c-0.209-0.11-0.484-0.165-0.847-0.165c-0.979,0-1.76,0.671-1.76,2.607c0,1.782,0.693,2.42,1.364,2.42
		c0.132,0,0.231-0.011,0.286-0.033v-1.793h-0.66v-1.177h1.992V291.559z"/>
	<path d="M93.45,290.117c0,0.572,0.022,1.134,0.044,1.64h-1.243l-0.077-0.572h-0.022c-0.253,0.363-0.693,0.66-1.243,0.66
		c-1.023,0-1.441-0.759-1.441-2.211v-3.257h1.452v3.103c0,0.704,0.132,1.155,0.539,1.155c0.242,0,0.396-0.188,0.462-0.363
		c0.055-0.11,0.088-0.274,0.088-0.462v-3.433h1.441V290.117z"/>
	<path d="M95.924,284.947c0.011,0.462-0.319,0.78-0.759,0.78c-0.396,0-0.726-0.318-0.715-0.78c-0.011-0.484,0.341-0.781,0.737-0.781
		C95.605,284.166,95.924,284.463,95.924,284.947z M94.483,291.757v-5.38h1.441v5.38H94.483z"/>
	<path d="M98.63,284.925v1.452h1.056v1.023H98.63v2.453c0,0.627,0.264,0.781,0.55,0.781c0.143,0,0.253-0.011,0.374-0.033
		l0.011,1.122c-0.198,0.056-0.495,0.1-0.88,0.1c-0.418,0-0.781-0.1-1.034-0.342c-0.297-0.286-0.462-0.692-0.462-1.54V287.4h-0.638
		v-1.023h0.638v-1.111L98.63,284.925z"/>
	<path d="M102.767,291.757l-0.077-0.528h-0.022c-0.297,0.418-0.715,0.616-1.188,0.616c-0.814,0-1.419-0.682-1.419-1.639
		c0-1.408,1.243-1.992,2.464-2.003v-0.121c0-0.418-0.253-0.726-0.759-0.726c-0.429,0-0.781,0.109-1.1,0.308l-0.264-0.968
		c0.297-0.176,0.924-0.407,1.672-0.407c1.639,0,1.903,1.145,1.903,2.233v2.002c0,0.43,0.022,0.869,0.088,1.232H102.767z
		 M102.568,289.139c-0.484,0.011-1.144,0.165-1.144,0.913c0,0.539,0.297,0.737,0.517,0.737c0.231,0,0.495-0.144,0.594-0.463
		c0.022-0.076,0.033-0.165,0.033-0.253V289.139z"/>
	<path d="M104.988,287.994c0-0.539-0.022-1.122-0.044-1.617h1.254l0.077,0.781h0.033c0.242-0.572,0.671-0.869,1.067-0.869
		c0.143,0,0.22,0,0.308,0.022v1.43c-0.088-0.021-0.187-0.021-0.308-0.021c-0.308,0-0.715,0.209-0.88,0.77
		c-0.033,0.121-0.055,0.309-0.055,0.539v2.729h-1.452V287.994z"/>
</g>
<g enable-background="new    ">
	<path d="M84.787,327.745c0.363-0.088,0.891-0.144,1.463-0.144c0.936,0,1.584,0.22,2.058,0.66c0.638,0.572,0.968,1.552,0.968,2.992
		c0,1.496-0.385,2.563-1.034,3.136c-0.495,0.484-1.232,0.715-2.267,0.715c-0.451,0-0.902-0.044-1.188-0.077V327.745z
		 M86.228,333.905c0.066,0.022,0.176,0.022,0.253,0.022c0.693,0,1.298-0.683,1.298-2.729c0-1.519-0.396-2.442-1.265-2.442
		c-0.099,0-0.198,0-0.286,0.033V333.905z"/>
	<path d="M92.542,335.05l-0.077-0.528h-0.022c-0.297,0.418-0.715,0.616-1.188,0.616c-0.814,0-1.419-0.682-1.419-1.639
		c0-1.408,1.243-1.992,2.464-2.003v-0.121c0-0.418-0.253-0.726-0.759-0.726c-0.429,0-0.781,0.109-1.1,0.308l-0.264-0.968
		c0.297-0.176,0.924-0.407,1.672-0.407c1.639,0,1.903,1.145,1.903,2.233v2.002c0,0.43,0.022,0.869,0.088,1.232H92.542z
		 M92.344,332.432c-0.484,0.011-1.144,0.165-1.144,0.913c0,0.539,0.297,0.737,0.517,0.737c0.231,0,0.495-0.144,0.594-0.463
		c0.022-0.076,0.033-0.165,0.033-0.253V332.432z"/>
	<path d="M94.774,331.287c0-0.594-0.033-1.111-0.044-1.617h1.243l0.066,0.616h0.022c0.286-0.429,0.748-0.704,1.309-0.704
		c1.023,0,1.43,0.814,1.43,2.014v3.454h-1.441v-3.366c0-0.462-0.11-0.892-0.528-0.892c-0.242,0-0.44,0.165-0.539,0.484
		c-0.044,0.11-0.077,0.286-0.077,0.495v3.278h-1.441V331.287z"/>
	<path d="M102.793,334.962c-0.143,0.065-0.506,0.154-0.913,0.154c-1.364,0-2.255-0.946-2.255-2.707c0-1.661,0.979-2.816,2.464-2.816
		c0.341,0,0.649,0.077,0.792,0.144l-0.187,1.133c-0.121-0.044-0.297-0.099-0.539-0.099c-0.693,0-1.101,0.66-1.101,1.595
		c0,0.979,0.407,1.573,1.079,1.573c0.209,0,0.385-0.033,0.539-0.109L102.793,334.962z"/>
	<path d="M104.564,332.871c0.022,0.837,0.506,1.145,1.145,1.145c0.407,0,0.77-0.088,1.023-0.176l0.198,1.034
		c-0.375,0.143-0.936,0.242-1.485,0.242c-1.463,0-2.267-0.969-2.267-2.651c0-1.805,0.936-2.883,2.157-2.883
		c1.155,0,1.826,0.913,1.826,2.541c0,0.386-0.011,0.595-0.044,0.748H104.564z M105.852,331.859c0-0.693-0.176-1.232-0.605-1.232
		c-0.473,0-0.66,0.693-0.671,1.232H105.852z"/>
</g>
<g enable-background="new    ">
	<path d="M23.532,374.483l-1.43-7.415h0.88l0.627,3.575c0.154,0.936,0.275,1.761,0.363,2.674h0.044
		c0.088-0.936,0.264-1.738,0.44-2.685l0.682-3.564h0.726l0.682,3.487c0.165,0.88,0.33,1.728,0.429,2.762h0.033
		c0.121-1.067,0.253-1.87,0.396-2.718l0.616-3.531h0.825l-1.441,7.415h-0.825l-0.715-3.608c-0.143-0.781-0.286-1.617-0.374-2.432
		h-0.022c-0.11,0.836-0.231,1.64-0.407,2.465l-0.737,3.575H23.532z"/>
	<path d="M29.427,374.483v-0.55l0.605-0.825c0.847-1.178,1.859-2.52,1.859-3.861c0-0.793-0.352-1.276-1.023-1.276
		c-0.517,0-0.847,0.274-1.034,0.396l-0.209-0.638c0.253-0.209,0.748-0.484,1.397-0.484c1.188,0,1.705,0.88,1.705,1.958
		c0,1.343-0.88,2.641-1.76,3.851l-0.484,0.66v0.022h2.387v0.748H29.427z"/>
	<path d="M33.662,374.483v-0.55l0.605-0.825c0.847-1.178,1.859-2.52,1.859-3.861c0-0.793-0.352-1.276-1.023-1.276
		c-0.517,0-0.847,0.274-1.034,0.396l-0.209-0.638c0.253-0.209,0.748-0.484,1.397-0.484c1.188,0,1.705,0.88,1.705,1.958
		c0,1.343-0.88,2.641-1.76,3.851l-0.484,0.66v0.022h2.387v0.748H33.662z"/>
	<path d="M39.613,368.19h-0.022l-1.188,0.683l-0.165-0.66l1.507-0.881h0.704v7.151h-0.836V368.19z"/>
</g>
<g enable-background="new    ">
	<path d="M23.168,425.384l-1.43-7.415h0.88l0.627,3.575c0.154,0.936,0.275,1.761,0.363,2.674h0.044
		c0.088-0.936,0.264-1.738,0.44-2.685l0.682-3.564H25.5l0.682,3.487c0.165,0.88,0.33,1.728,0.429,2.762h0.033
		c0.121-1.067,0.253-1.87,0.396-2.718l0.616-3.531h0.825l-1.441,7.415h-0.825l-0.715-3.608c-0.143-0.781-0.286-1.617-0.374-2.432
		h-0.022c-0.11,0.836-0.231,1.64-0.407,2.465l-0.737,3.575H23.168z"/>
	<path d="M29.064,425.384v-0.55l0.605-0.825c0.847-1.178,1.859-2.52,1.859-3.861c0-0.793-0.352-1.276-1.023-1.276
		c-0.517,0-0.847,0.274-1.034,0.396l-0.209-0.638c0.253-0.209,0.748-0.484,1.397-0.484c1.188,0,1.705,0.88,1.705,1.958
		c0,1.343-0.88,2.641-1.76,3.851l-0.484,0.66v0.022h2.387v0.748H29.064z"/>
	<path d="M33.299,425.384v-0.55l0.605-0.825c0.847-1.178,1.859-2.52,1.859-3.861c0-0.793-0.352-1.276-1.023-1.276
		c-0.517,0-0.847,0.274-1.034,0.396l-0.209-0.638c0.253-0.209,0.748-0.484,1.397-0.484c1.188,0,1.705,0.88,1.705,1.958
		c0,1.343-0.88,2.641-1.76,3.851l-0.484,0.66v0.022h2.387v0.748H33.299z"/>
	<path d="M37.677,424.471c0.22,0.132,0.605,0.297,1.034,0.297c0.737,0,1.232-0.539,1.232-1.43c0-0.936-0.583-1.475-1.441-1.475
		h-0.198v-0.638h0.165c0.506-0.012,1.287-0.396,1.287-1.276c0-0.715-0.385-1.101-0.946-1.101c-0.352,0-0.66,0.176-0.891,0.341
		l-0.187-0.638c0.264-0.209,0.748-0.407,1.287-0.407c1.012,0,1.584,0.727,1.584,1.65c0,0.715-0.374,1.342-1.067,1.672v0.022
		c0.638,0.176,1.254,0.748,1.254,1.87c0,1.166-0.748,2.112-2.046,2.112c-0.462,0-0.968-0.132-1.254-0.33L37.677,424.471z"/>
</g>
<g enable-background="new    ">
	<path d="M104.135,425.384l-1.43-7.415h0.88l0.627,3.575c0.154,0.936,0.275,1.761,0.363,2.674h0.044
		c0.088-0.936,0.264-1.738,0.44-2.685l0.682-3.564h0.726l0.682,3.487c0.165,0.88,0.33,1.728,0.429,2.762h0.033
		c0.121-1.067,0.253-1.87,0.396-2.718l0.616-3.531h0.825l-1.441,7.415h-0.825l-0.715-3.608c-0.143-0.781-0.286-1.617-0.374-2.432
		h-0.022c-0.11,0.836-0.231,1.64-0.407,2.465l-0.737,3.575H104.135z"/>
	<path d="M110.031,425.384v-0.55l0.605-0.825c0.847-1.178,1.859-2.52,1.859-3.861c0-0.793-0.352-1.276-1.023-1.276
		c-0.517,0-0.847,0.274-1.034,0.396l-0.209-0.638c0.253-0.209,0.748-0.484,1.397-0.484c1.188,0,1.705,0.88,1.705,1.958
		c0,1.343-0.88,2.641-1.76,3.851l-0.484,0.66v0.022h2.387v0.748H110.031z"/>
	<path d="M114.266,425.384v-0.55l0.605-0.825c0.847-1.178,1.859-2.52,1.859-3.861c0-0.793-0.352-1.276-1.023-1.276
		c-0.517,0-0.847,0.274-1.034,0.396l-0.209-0.638c0.253-0.209,0.748-0.484,1.397-0.484c1.188,0,1.705,0.88,1.705,1.958
		c0,1.343-0.88,2.641-1.76,3.851l-0.484,0.66v0.022h2.387v0.748H114.266z"/>
	<path d="M121.812,418.98h-1.925l-0.297,1.903c0.088-0.021,0.165-0.021,0.264-0.021c0.385,0,0.979,0.165,1.364,0.539
		c0.374,0.374,0.594,0.902,0.594,1.628c0,1.419-0.891,2.442-2.167,2.442c-0.429,0-0.924-0.121-1.21-0.308l0.187-0.683
		c0.22,0.132,0.605,0.286,1.001,0.286c0.726,0,1.354-0.561,1.354-1.65c0-1.133-0.693-1.606-1.618-1.606
		c-0.264,0-0.429,0.012-0.561,0.033l0.451-3.312h2.563V418.98z"/>
</g>
<g enable-background="new    ">
	<path d="M147.969,429.729l-1.43-7.415h0.88l0.627,3.575c0.154,0.936,0.275,1.761,0.363,2.674h0.044
		c0.088-0.936,0.264-1.738,0.44-2.685l0.682-3.564h0.726l0.682,3.487c0.165,0.88,0.33,1.728,0.429,2.762h0.033
		c0.121-1.067,0.253-1.87,0.396-2.718l0.616-3.531h0.825l-1.441,7.415h-0.825l-0.715-3.608c-0.143-0.781-0.286-1.617-0.374-2.432
		h-0.022c-0.11,0.836-0.231,1.64-0.407,2.465l-0.737,3.575H147.969z"/>
	<path d="M153.865,429.729v-0.55l0.605-0.825c0.847-1.178,1.859-2.52,1.859-3.861c0-0.793-0.352-1.276-1.023-1.276
		c-0.517,0-0.847,0.274-1.034,0.396l-0.209-0.638c0.253-0.209,0.748-0.484,1.397-0.484c1.188,0,1.705,0.88,1.705,1.958
		c0,1.343-0.88,2.641-1.76,3.851l-0.484,0.66v0.022h2.387v0.748H153.865z"/>
	<path d="M158.1,429.729v-0.55l0.605-0.825c0.847-1.178,1.859-2.52,1.859-3.861c0-0.793-0.352-1.276-1.023-1.276
		c-0.517,0-0.847,0.274-1.034,0.396l-0.209-0.638c0.253-0.209,0.748-0.484,1.397-0.484c1.188,0,1.705,0.88,1.705,1.958
		c0,1.343-0.88,2.641-1.76,3.851l-0.484,0.66v0.022h2.387v0.748H158.1z"/>
	<path d="M165.492,423.205c-0.143,0.012-0.297,0.033-0.506,0.077c-1.188,0.286-1.661,1.475-1.837,2.574h0.033
		c0.275-0.406,0.671-0.682,1.21-0.682c0.913,0,1.541,0.836,1.541,2.2c0,1.354-0.616,2.442-1.76,2.442
		c-1.243,0-1.871-1.265-1.871-2.904c0-1.386,0.363-2.465,0.924-3.224c0.429-0.604,1.111-1.001,1.727-1.133
		c0.231-0.044,0.418-0.056,0.539-0.066V423.205z M165.085,427.441c0-1.078-0.374-1.617-0.957-1.617c-0.352,0-0.715,0.242-0.924,0.77
		c-0.033,0.077-0.066,0.221-0.066,0.43c0.011,1.463,0.462,2.134,1.034,2.134C164.656,429.157,165.085,428.685,165.085,427.441z"/>
</g>
<g enable-background="new    ">
	<path d="M259.185,427.192l-1.43-7.415h0.88l0.627,3.575c0.154,0.936,0.275,1.761,0.363,2.674h0.044
		c0.088-0.936,0.264-1.738,0.44-2.685l0.682-3.564h0.726l0.682,3.487c0.165,0.88,0.33,1.728,0.429,2.762h0.033
		c0.121-1.067,0.253-1.87,0.396-2.718l0.616-3.531h0.825l-1.441,7.415h-0.825l-0.715-3.608c-0.143-0.781-0.286-1.617-0.374-2.432
		h-0.022c-0.11,0.836-0.231,1.64-0.407,2.465l-0.737,3.575H259.185z"/>
	<path d="M265.081,427.192v-0.55l0.605-0.825c0.847-1.178,1.859-2.52,1.859-3.861c0-0.793-0.352-1.276-1.023-1.276
		c-0.517,0-0.847,0.274-1.034,0.396l-0.209-0.638c0.253-0.209,0.748-0.484,1.397-0.484c1.188,0,1.705,0.88,1.705,1.958
		c0,1.343-0.88,2.641-1.76,3.851l-0.484,0.66v0.022h2.387v0.748H265.081z"/>
	<path d="M269.458,426.279c0.22,0.132,0.605,0.297,1.034,0.297c0.737,0,1.232-0.539,1.232-1.43c0-0.936-0.583-1.475-1.441-1.475
		h-0.198v-0.638h0.165c0.506-0.012,1.287-0.396,1.287-1.276c0-0.715-0.385-1.101-0.946-1.101c-0.352,0-0.66,0.176-0.891,0.341
		l-0.187-0.638c0.264-0.209,0.748-0.407,1.287-0.407c1.012,0,1.584,0.727,1.584,1.65c0,0.715-0.374,1.342-1.067,1.672v0.022
		c0.638,0.176,1.254,0.748,1.254,1.87c0,1.166-0.748,2.112-2.046,2.112c-0.462,0-0.968-0.132-1.254-0.33L269.458,426.279z"/>
	<path d="M277.137,423.605c0,2.607-0.825,3.675-1.859,3.675c-1.111,0-1.782-1.32-1.782-3.652c0-2.409,0.715-3.675,1.881-3.675
		C276.532,419.953,277.137,421.328,277.137,423.605z M274.342,423.617c0,1.727,0.297,2.938,1.001,2.938
		c0.671,0,0.946-1.222,0.946-2.938c0-1.673-0.275-2.938-0.957-2.938S274.342,421.9,274.342,423.617z"/>
</g>
<g enable-background="new    ">
	<path d="M354.461,375.39l-1.43-7.415h0.88l0.627,3.575c0.154,0.936,0.275,1.761,0.363,2.674h0.044
		c0.088-0.936,0.264-1.738,0.439-2.685l0.683-3.564h0.726l0.683,3.487c0.165,0.88,0.33,1.728,0.429,2.762h0.033
		c0.121-1.067,0.253-1.87,0.396-2.718l0.615-3.531h0.825l-1.44,7.415h-0.825l-0.716-3.608c-0.143-0.781-0.286-1.617-0.374-2.432
		h-0.021c-0.11,0.836-0.231,1.64-0.407,2.465l-0.737,3.575H354.461z"/>
	<path d="M360.356,375.39v-0.55l0.605-0.825c0.847-1.178,1.859-2.52,1.859-3.861c0-0.793-0.353-1.276-1.023-1.276
		c-0.517,0-0.847,0.274-1.034,0.396l-0.209-0.638c0.253-0.209,0.748-0.484,1.397-0.484c1.188,0,1.705,0.88,1.705,1.958
		c0,1.343-0.88,2.641-1.761,3.851l-0.483,0.66v0.022h2.387v0.748H360.356z"/>
	<path d="M368.178,371.803c0,2.607-0.825,3.675-1.859,3.675c-1.11,0-1.782-1.32-1.782-3.652c0-2.409,0.716-3.675,1.882-3.675
		C367.573,368.15,368.178,369.525,368.178,371.803z M365.384,371.814c0,1.727,0.297,2.938,1.001,2.938
		c0.671,0,0.946-1.222,0.946-2.938c0-1.673-0.275-2.938-0.957-2.938C365.691,368.877,365.384,370.098,365.384,371.814z"/>
	<path d="M370.543,369.097h-0.022l-1.188,0.683l-0.165-0.66l1.508-0.881h0.704v7.151h-0.836V369.097z"/>
</g>
<g enable-background="new    ">
	<path d="M354.461,339.708l-1.43-7.415h0.88l0.627,3.575c0.154,0.936,0.275,1.761,0.363,2.674h0.044
		c0.088-0.936,0.264-1.738,0.439-2.685l0.683-3.564h0.726l0.683,3.487c0.165,0.88,0.33,1.728,0.429,2.762h0.033
		c0.121-1.067,0.253-1.87,0.396-2.718l0.615-3.531h0.825l-1.44,7.415h-0.825l-0.716-3.608c-0.143-0.781-0.286-1.617-0.374-2.432
		h-0.021c-0.11,0.836-0.231,1.64-0.407,2.465l-0.737,3.575H354.461z"/>
	<path d="M360.356,339.708v-0.55l0.605-0.825c0.847-1.178,1.859-2.52,1.859-3.861c0-0.793-0.353-1.276-1.023-1.276
		c-0.517,0-0.847,0.274-1.034,0.396l-0.209-0.638c0.253-0.209,0.748-0.484,1.397-0.484c1.188,0,1.705,0.88,1.705,1.958
		c0,1.343-0.88,2.641-1.761,3.851l-0.483,0.66v0.022h2.387v0.748H360.356z"/>
	<path d="M368.178,336.121c0,2.607-0.825,3.675-1.859,3.675c-1.11,0-1.782-1.32-1.782-3.652c0-2.409,0.716-3.675,1.882-3.675
		C367.573,332.469,368.178,333.844,368.178,336.121z M365.384,336.133c0,1.727,0.297,2.938,1.001,2.938
		c0.671,0,0.946-1.222,0.946-2.938c0-1.673-0.275-2.938-0.957-2.938C365.691,333.195,365.384,334.416,365.384,336.133z"/>
	<path d="M368.826,339.708v-0.55l0.605-0.825c0.847-1.178,1.859-2.52,1.859-3.861c0-0.793-0.353-1.276-1.023-1.276
		c-0.517,0-0.847,0.274-1.034,0.396l-0.209-0.638c0.253-0.209,0.748-0.484,1.397-0.484c1.188,0,1.705,0.88,1.705,1.958
		c0,1.343-0.88,2.641-1.761,3.851l-0.483,0.66v0.022h2.387v0.748H368.826z"/>
</g>
<g enable-background="new    ">
	<path d="M498.338,303.572c-0.04-0.845-0.106-1.993-0.08-2.943h-0.039c-0.158,0.95-0.396,2.046-0.567,2.732l-0.766,3.181h-1.228
		l-0.739-3.128c-0.172-0.713-0.409-1.821-0.541-2.785h-0.04c-0.026,0.964-0.079,2.086-0.132,2.97l-0.145,3.089h-1.492l0.647-8.896
		h1.821l0.713,3.221c0.25,1.122,0.475,2.112,0.633,3.115h0.026c0.132-0.99,0.33-1.993,0.567-3.115l0.7-3.221h1.821l0.541,8.896
		h-1.544L498.338,303.572z"/>
	<path d="M502.588,304.074c0.026,1.003,0.607,1.373,1.373,1.373c0.488,0,0.924-0.106,1.228-0.212l0.237,1.241
		c-0.449,0.171-1.122,0.29-1.782,0.29c-1.755,0-2.719-1.161-2.719-3.181c0-2.165,1.122-3.458,2.587-3.458
		c1.386,0,2.191,1.096,2.191,3.049c0,0.462-0.014,0.713-0.053,0.897H502.588z M504.132,302.859c0-0.831-0.211-1.478-0.726-1.478
		c-0.567,0-0.792,0.831-0.805,1.478H504.132z"/>
	<path d="M511.366,297.554v7.22c0,0.62,0.026,1.32,0.053,1.914h-1.492l-0.092-0.726h-0.026c-0.238,0.448-0.753,0.831-1.347,0.831
		c-1.373,0-2.006-1.518-2.006-3.326c0-2.243,0.977-3.339,2.072-3.339c0.567,0,0.924,0.277,1.082,0.646h0.026v-3.221H511.366z
		 M509.637,302.715c0-0.119,0-0.251-0.014-0.383c-0.065-0.396-0.276-0.753-0.62-0.753c-0.607,0-0.831,0.885-0.831,1.928
		c0,1.228,0.33,1.874,0.818,1.874c0.211,0,0.462-0.119,0.594-0.567c0.039-0.093,0.053-0.237,0.053-0.396V302.715z"/>
	<path d="M514.31,298.518c0.014,0.554-0.383,0.937-0.911,0.937c-0.475,0-0.871-0.383-0.857-0.937
		c-0.014-0.581,0.409-0.938,0.884-0.938C513.927,297.58,514.31,297.937,514.31,298.518z M512.58,306.688v-6.454h1.729v6.454H512.58z
		"/>
	<path d="M518.414,306.688l-0.092-0.634h-0.026c-0.356,0.502-0.858,0.739-1.426,0.739c-0.977,0-1.702-0.818-1.702-1.967
		c0-1.689,1.491-2.389,2.956-2.402v-0.145c0-0.502-0.304-0.871-0.911-0.871c-0.515,0-0.937,0.132-1.319,0.369l-0.316-1.161
		c0.355-0.211,1.108-0.488,2.006-0.488c1.967,0,2.283,1.372,2.283,2.679v2.402c0,0.515,0.026,1.043,0.105,1.479H518.414z
		 M518.177,303.546c-0.581,0.014-1.373,0.198-1.373,1.096c0,0.646,0.356,0.885,0.621,0.885c0.277,0,0.594-0.172,0.713-0.555
		c0.026-0.093,0.039-0.198,0.039-0.304V303.546z"/>
	<path d="M527.614,306.556c-0.251,0.118-0.739,0.211-1.346,0.211c-2.271,0-3.353-1.874-3.353-4.396c0-3.353,1.86-4.659,3.59-4.659
		c0.607,0,1.029,0.119,1.201,0.238l-0.291,1.451c-0.197-0.092-0.422-0.171-0.805-0.171c-0.977,0-1.861,0.845-1.861,3.049
		c0,2.125,0.806,2.956,1.861,2.956c0.29,0,0.62-0.065,0.831-0.132L527.614,306.556z"/>
	<path d="M529.779,304.074c0.026,1.003,0.607,1.373,1.373,1.373c0.488,0,0.924-0.106,1.228-0.212l0.237,1.241
		c-0.449,0.171-1.122,0.29-1.782,0.29c-1.755,0-2.719-1.161-2.719-3.181c0-2.165,1.122-3.458,2.587-3.458
		c1.386,0,2.191,1.096,2.191,3.049c0,0.462-0.014,0.713-0.053,0.897H529.779z M531.323,302.859c0-0.831-0.211-1.478-0.726-1.478
		c-0.567,0-0.792,0.831-0.805,1.478H531.323z"/>
	<path d="M533.871,302.174c0-0.713-0.039-1.333-0.053-1.94h1.492l0.079,0.739h0.026c0.343-0.515,0.897-0.845,1.57-0.845
		c1.228,0,1.716,0.977,1.716,2.415v4.145h-1.729v-4.039c0-0.554-0.133-1.069-0.634-1.069c-0.29,0-0.528,0.198-0.646,0.581
		c-0.053,0.132-0.093,0.344-0.093,0.594v3.934h-1.729V302.174z"/>
	<path d="M541.949,298.491v1.742h1.268v1.228h-1.268v2.943c0,0.752,0.317,0.937,0.66,0.937c0.172,0,0.304-0.013,0.449-0.039
		l0.013,1.346c-0.237,0.066-0.594,0.119-1.056,0.119c-0.502,0-0.938-0.119-1.241-0.409c-0.355-0.343-0.554-0.831-0.554-1.848v-3.049
		h-0.766v-1.228h0.766V298.9L541.949,298.491z"/>
	<path d="M545.382,304.074c0.026,1.003,0.606,1.373,1.372,1.373c0.488,0,0.924-0.106,1.228-0.212l0.238,1.241
		c-0.449,0.171-1.122,0.29-1.782,0.29c-1.756,0-2.719-1.161-2.719-3.181c0-2.165,1.122-3.458,2.587-3.458
		c1.386,0,2.19,1.096,2.19,3.049c0,0.462-0.013,0.713-0.053,0.897H545.382z M546.926,302.859c0-0.831-0.211-1.478-0.726-1.478
		c-0.568,0-0.792,0.831-0.806,1.478H546.926z"/>
	<path d="M549.46,302.174c0-0.647-0.026-1.347-0.053-1.94h1.505l0.093,0.937h0.039c0.291-0.686,0.806-1.042,1.28-1.042
		c0.172,0,0.265,0,0.37,0.026v1.716c-0.105-0.026-0.225-0.026-0.37-0.026c-0.369,0-0.857,0.251-1.056,0.924
		c-0.039,0.146-0.065,0.369-0.065,0.646v3.273h-1.743V302.174z"/>
</g>
<g enable-background="new    ">
	<path d="M579.012,314.168v-0.55l0.604-0.825c0.847-1.178,1.859-2.52,1.859-3.861c0-0.793-0.353-1.276-1.022-1.276
		c-0.518,0-0.848,0.274-1.035,0.396l-0.209-0.638c0.254-0.209,0.748-0.484,1.397-0.484c1.188,0,1.705,0.88,1.705,1.958
		c0,1.343-0.88,2.641-1.761,3.851l-0.483,0.66v0.022h2.388v0.748H579.012z"/>
	<path d="M584.963,307.875h-0.022l-1.188,0.683l-0.165-0.66l1.507-0.881h0.705v7.151h-0.836V307.875z"/>
	<path d="M587.48,314.168v-0.55l0.605-0.825c0.848-1.178,1.859-2.52,1.859-3.861c0-0.793-0.352-1.276-1.023-1.276
		c-0.517,0-0.847,0.274-1.033,0.396l-0.209-0.638c0.252-0.209,0.748-0.484,1.396-0.484c1.188,0,1.705,0.88,1.705,1.958
		c0,1.343-0.88,2.641-1.76,3.851l-0.484,0.66v0.022h2.387v0.748H587.48z"/>
</g>
<g enable-background="new    ">
	<path d="M579.012,369.051v-0.55l0.604-0.825c0.847-1.178,1.859-2.52,1.859-3.861c0-0.793-0.353-1.276-1.022-1.276
		c-0.518,0-0.848,0.274-1.035,0.396l-0.209-0.638c0.254-0.209,0.748-0.484,1.397-0.484c1.188,0,1.705,0.88,1.705,1.958
		c0,1.343-0.88,2.641-1.761,3.851l-0.483,0.66v0.022h2.388v0.748H579.012z"/>
	<path d="M584.963,362.758h-0.022l-1.188,0.683l-0.165-0.66l1.507-0.881h0.705v7.151h-0.836V362.758z"/>
	<path d="M589.197,362.758h-0.021l-1.189,0.683l-0.164-0.66l1.507-0.881h0.704v7.151h-0.836V362.758z"/>
</g>
<g enable-background="new    ">
	<path d="M579.012,430.997v-0.55l0.604-0.825c0.847-1.178,1.859-2.52,1.859-3.861c0-0.793-0.353-1.276-1.022-1.276
		c-0.518,0-0.848,0.274-1.035,0.396l-0.209-0.638c0.254-0.209,0.748-0.484,1.397-0.484c1.188,0,1.705,0.88,1.705,1.958
		c0,1.343-0.88,2.641-1.761,3.851l-0.483,0.66v0.022h2.388v0.748H579.012z"/>
	<path d="M586.832,427.41c0,2.607-0.824,3.675-1.859,3.675c-1.11,0-1.781-1.32-1.781-3.652c0-2.409,0.715-3.675,1.881-3.675
		C586.228,423.758,586.832,425.133,586.832,427.41z M584.038,427.422c0,1.727,0.298,2.938,1.001,2.938
		c0.672,0,0.946-1.222,0.946-2.938c0-1.673-0.274-2.938-0.957-2.938S584.038,425.705,584.038,427.422z"/>
	<path d="M587.866,430.359c0.187,0,0.341-0.022,0.528-0.066c0.363-0.088,0.715-0.286,0.979-0.562
		c0.396-0.439,0.715-1.089,0.836-2.035h-0.033c-0.264,0.342-0.638,0.605-1.154,0.605c-0.892,0-1.562-0.825-1.562-2.123
		c0-1.31,0.704-2.421,1.805-2.421c1.221,0,1.793,1.287,1.793,2.872c0,1.408-0.352,2.519-0.946,3.311
		c-0.418,0.572-1.022,0.946-1.65,1.09c-0.231,0.044-0.418,0.055-0.594,0.055V430.359z M588.295,426.102
		c0,1.056,0.396,1.562,0.969,1.562c0.352,0,0.703-0.242,0.88-0.639c0.044-0.121,0.065-0.22,0.065-0.462
		c0-1.496-0.429-2.146-0.99-2.146C588.79,424.418,588.295,424.88,588.295,426.102z"/>
</g>
<g enable-background="new    ">
	<path d="M579.012,470.123v-0.55l0.604-0.825c0.847-1.178,1.859-2.52,1.859-3.861c0-0.793-0.353-1.276-1.022-1.276
		c-0.518,0-0.848,0.274-1.035,0.396l-0.209-0.638c0.254-0.209,0.748-0.484,1.397-0.484c1.188,0,1.705,0.88,1.705,1.958
		c0,1.343-0.88,2.641-1.761,3.851l-0.483,0.66v0.022h2.388v0.748H579.012z"/>
	<path d="M586.832,466.536c0,2.607-0.824,3.675-1.859,3.675c-1.11,0-1.781-1.32-1.781-3.652c0-2.409,0.715-3.675,1.881-3.675
		C586.228,462.884,586.832,464.259,586.832,466.536z M584.038,466.548c0,1.727,0.298,2.938,1.001,2.938
		c0.672,0,0.946-1.222,0.946-2.938c0-1.673-0.274-2.938-0.957-2.938S584.038,464.831,584.038,466.548z"/>
	<path d="M587.438,468.374c0-1.001,0.594-1.64,1.177-2.047l-0.011-0.021c-0.595-0.407-0.936-1.034-0.936-1.64
		c0-1.1,0.781-1.782,1.672-1.782c1.023,0,1.529,0.858,1.529,1.684c0,0.627-0.297,1.232-0.957,1.683v0.033
		c0.66,0.44,1.145,1.09,1.145,1.947c0,1.111-0.737,1.98-1.838,1.98C588.031,470.211,587.438,469.265,587.438,468.374z
		 M590.221,468.286c0-0.825-0.474-1.287-1.023-1.65c-0.572,0.352-0.924,0.968-0.924,1.595c0,0.804,0.363,1.354,0.979,1.354
		C589.78,469.584,590.221,469.177,590.221,468.286z M588.482,464.611c0,0.726,0.439,1.089,0.88,1.375
		c0.429-0.308,0.715-0.781,0.715-1.32c0-0.692-0.286-1.155-0.803-1.155C588.801,463.511,588.482,463.962,588.482,464.611z"/>
</g>
<g enable-background="new    ">
	<path d="M525.215,430.997v-0.55l0.604-0.825c0.848-1.178,1.859-2.52,1.859-3.861c0-0.793-0.352-1.276-1.022-1.276
		c-0.518,0-0.848,0.274-1.034,0.396l-0.209-0.638c0.253-0.209,0.748-0.484,1.396-0.484c1.188,0,1.705,0.88,1.705,1.958
		c0,1.343-0.88,2.641-1.76,3.851l-0.484,0.66v0.022h2.388v0.748H525.215z"/>
	<path d="M533.036,427.41c0,2.607-0.825,3.675-1.859,3.675c-1.111,0-1.782-1.32-1.782-3.652c0-2.409,0.715-3.675,1.881-3.675
		C532.431,423.758,533.036,425.133,533.036,427.41z M530.241,427.422c0,1.727,0.298,2.938,1.002,2.938
		c0.671,0,0.945-1.222,0.945-2.938c0-1.673-0.274-2.938-0.957-2.938C530.55,424.484,530.241,425.705,530.241,427.422z"/>
	<path d="M536.842,424.473c-0.143,0.012-0.297,0.033-0.506,0.077c-1.188,0.286-1.661,1.475-1.838,2.574h0.033
		c0.275-0.406,0.671-0.682,1.21-0.682c0.913,0,1.541,0.836,1.541,2.2c0,1.354-0.616,2.442-1.761,2.442
		c-1.243,0-1.87-1.265-1.87-2.904c0-1.386,0.363-2.465,0.924-3.224c0.43-0.604,1.111-1.001,1.728-1.133
		c0.231-0.044,0.418-0.056,0.539-0.066V424.473z M536.435,428.709c0-1.078-0.374-1.617-0.957-1.617c-0.352,0-0.715,0.242-0.924,0.77
		c-0.033,0.077-0.066,0.221-0.066,0.43c0.011,1.463,0.462,2.134,1.034,2.134C536.006,430.425,536.435,429.952,536.435,428.709z"/>
</g>
<g enable-background="new    ">
	<path d="M525.215,364.432v-0.55l0.604-0.825c0.848-1.178,1.859-2.52,1.859-3.861c0-0.793-0.352-1.276-1.022-1.276
		c-0.518,0-0.848,0.274-1.034,0.396l-0.209-0.638c0.253-0.209,0.748-0.484,1.396-0.484c1.188,0,1.705,0.88,1.705,1.958
		c0,1.343-0.88,2.641-1.76,3.851l-0.484,0.66v0.022h2.388v0.748H525.215z"/>
	<path d="M533.036,360.845c0,2.607-0.825,3.675-1.859,3.675c-1.111,0-1.782-1.32-1.782-3.652c0-2.409,0.715-3.675,1.881-3.675
		C532.431,357.192,533.036,358.567,533.036,360.845z M530.241,360.856c0,1.727,0.298,2.938,1.002,2.938
		c0.671,0,0.945-1.222,0.945-2.938c0-1.673-0.274-2.938-0.957-2.938C530.55,357.919,530.241,359.14,530.241,360.856z"/>
	<path d="M533.827,363.519c0.221,0.132,0.605,0.297,1.034,0.297c0.737,0,1.232-0.539,1.232-1.43c0-0.936-0.583-1.475-1.441-1.475
		h-0.198v-0.638h0.165c0.507-0.012,1.287-0.396,1.287-1.276c0-0.715-0.385-1.101-0.945-1.101c-0.353,0-0.66,0.176-0.892,0.341
		l-0.187-0.638c0.264-0.209,0.748-0.407,1.287-0.407c1.012,0,1.584,0.727,1.584,1.65c0,0.715-0.374,1.342-1.067,1.672v0.022
		c0.638,0.176,1.254,0.748,1.254,1.87c0,1.166-0.748,2.112-2.046,2.112c-0.462,0-0.968-0.132-1.254-0.33L533.827,363.519z"/>
</g>
<g enable-background="new    ">
	<path d="M525.215,470.123v-0.55l0.604-0.825c0.848-1.178,1.859-2.52,1.859-3.861c0-0.793-0.352-1.276-1.022-1.276
		c-0.518,0-0.848,0.274-1.034,0.396l-0.209-0.638c0.253-0.209,0.748-0.484,1.396-0.484c1.188,0,1.705,0.88,1.705,1.958
		c0,1.343-0.88,2.641-1.76,3.851l-0.484,0.66v0.022h2.388v0.748H525.215z"/>
	<path d="M533.036,466.536c0,2.607-0.825,3.675-1.859,3.675c-1.111,0-1.782-1.32-1.782-3.652c0-2.409,0.715-3.675,1.881-3.675
		C532.431,462.884,533.036,464.259,533.036,466.536z M530.241,466.548c0,1.727,0.298,2.938,1.002,2.938
		c0.671,0,0.945-1.222,0.945-2.938c0-1.673-0.274-2.938-0.957-2.938C530.55,463.61,530.241,464.831,530.241,466.548z"/>
	<path d="M537.183,462.972v0.507l-2.311,6.645h-0.824l2.266-6.381v-0.022h-2.574v-0.748H537.183z"/>
</g>
<g enable-background="new    ">
	<path d="M354.461,312.174l-1.43-7.415h0.88l0.627,3.575c0.154,0.936,0.275,1.761,0.363,2.674h0.044
		c0.088-0.936,0.264-1.738,0.439-2.685l0.683-3.564h0.726l0.683,3.487c0.165,0.88,0.33,1.728,0.429,2.762h0.033
		c0.121-1.067,0.253-1.87,0.396-2.718l0.615-3.531h0.825l-1.44,7.415h-0.825l-0.716-3.608c-0.143-0.781-0.286-1.617-0.374-2.431
		h-0.021c-0.11,0.835-0.231,1.639-0.407,2.464l-0.737,3.575H354.461z"/>
	<path d="M360.356,312.174v-0.55l0.605-0.825c0.847-1.178,1.859-2.52,1.859-3.861c0-0.792-0.353-1.276-1.023-1.276
		c-0.517,0-0.847,0.274-1.034,0.396l-0.209-0.638c0.253-0.209,0.748-0.484,1.397-0.484c1.188,0,1.705,0.88,1.705,1.958
		c0,1.343-0.88,2.641-1.761,3.851l-0.483,0.66v0.022h2.387v0.748H360.356z"/>
	<path d="M368.178,308.587c0,2.607-0.825,3.675-1.859,3.675c-1.11,0-1.782-1.32-1.782-3.652c0-2.409,0.716-3.674,1.882-3.674
		C367.573,304.935,368.178,306.31,368.178,308.587z M365.384,308.599c0,1.727,0.297,2.938,1.001,2.938
		c0.671,0,0.946-1.222,0.946-2.938c0-1.673-0.275-2.937-0.957-2.937C365.691,305.662,365.384,306.882,365.384,308.599z"/>
	<path d="M368.97,311.261c0.22,0.132,0.604,0.297,1.034,0.297c0.736,0,1.231-0.539,1.231-1.43c0-0.936-0.583-1.475-1.44-1.475
		h-0.198v-0.638h0.165c0.506-0.012,1.287-0.396,1.287-1.276c0-0.714-0.385-1.1-0.946-1.1c-0.352,0-0.66,0.176-0.891,0.341
		l-0.188-0.638c0.264-0.209,0.748-0.407,1.287-0.407c1.013,0,1.584,0.727,1.584,1.65c0,0.715-0.374,1.342-1.066,1.672v0.022
		c0.638,0.176,1.254,0.748,1.254,1.87c0,1.166-0.748,2.112-2.047,2.112c-0.462,0-0.968-0.132-1.254-0.33L368.97,311.261z"/>
</g>
<g enable-background="new    ">
	<path d="M354.461,282.288l-1.43-7.415h0.88l0.627,3.575c0.154,0.936,0.275,1.761,0.363,2.674h0.044
		c0.088-0.936,0.264-1.738,0.439-2.685l0.683-3.564h0.726l0.683,3.487c0.165,0.88,0.33,1.728,0.429,2.762h0.033
		c0.121-1.067,0.253-1.87,0.396-2.718l0.615-3.531h0.825l-1.44,7.415h-0.825l-0.716-3.608c-0.143-0.781-0.286-1.617-0.374-2.432
		h-0.021c-0.11,0.836-0.231,1.64-0.407,2.465l-0.737,3.575H354.461z"/>
	<path d="M360.356,282.288v-0.55l0.605-0.825c0.847-1.178,1.859-2.52,1.859-3.861c0-0.793-0.353-1.276-1.023-1.276
		c-0.517,0-0.847,0.274-1.034,0.396l-0.209-0.638c0.253-0.209,0.748-0.484,1.397-0.484c1.188,0,1.705,0.88,1.705,1.958
		c0,1.343-0.88,2.641-1.761,3.851l-0.483,0.66v0.022h2.387v0.748H360.356z"/>
	<path d="M368.178,278.701c0,2.607-0.825,3.675-1.859,3.675c-1.11,0-1.782-1.32-1.782-3.652c0-2.409,0.716-3.675,1.882-3.675
		C367.573,275.048,368.178,276.423,368.178,278.701z M365.384,278.712c0,1.727,0.297,2.938,1.001,2.938
		c0.671,0,0.946-1.222,0.946-2.938c0-1.673-0.275-2.938-0.957-2.938C365.691,275.775,365.384,276.996,365.384,278.712z"/>
	<path d="M371.049,282.288v-1.97h-2.376v-0.571l2.321-4.61h0.824v4.489h0.781v0.692h-0.781v1.97H371.049z M371.049,279.625v-2.024
		c0-0.495,0.033-0.936,0.065-1.408h-0.044c-0.241,0.572-0.396,0.913-0.604,1.354l-0.99,2.057v0.022H371.049z"/>
</g>
<g enable-background="new    ">
	<path d="M279.75,292.293c0.44-0.1,1.012-0.144,1.639-0.144c0.693,0,1.364,0.088,1.881,0.528c0.396,0.33,0.561,0.825,0.561,1.342
		c0,0.66-0.341,1.299-1.078,1.617v0.044c0.858,0.242,1.32,0.958,1.32,1.771c0,0.616-0.198,1.089-0.55,1.452
		c-0.44,0.484-1.188,0.748-2.431,0.748c-0.55,0-1.012-0.032-1.342-0.077V292.293z M281.191,295.231h0.308
		c0.517,0,0.913-0.44,0.913-1.046c0-0.539-0.253-0.957-0.847-0.957c-0.154,0-0.286,0.011-0.374,0.044V295.231z M281.191,298.52
		c0.088,0.021,0.187,0.021,0.319,0.021c0.583,0,1.067-0.352,1.067-1.11c0-0.737-0.506-1.122-1.078-1.134h-0.308V298.52z"/>
	<path d="M284.931,291.985h1.441v7.613h-1.441V291.985z"/>
	<path d="M289.815,299.598l-0.077-0.528h-0.022c-0.297,0.418-0.715,0.616-1.188,0.616c-0.814,0-1.419-0.682-1.419-1.639
		c0-1.408,1.243-1.992,2.464-2.003v-0.121c0-0.418-0.253-0.726-0.759-0.726c-0.429,0-0.781,0.109-1.1,0.308l-0.264-0.968
		c0.297-0.176,0.924-0.407,1.672-0.407c1.639,0,1.903,1.145,1.903,2.233v2.002c0,0.43,0.022,0.869,0.088,1.232H289.815z
		 M289.617,296.98c-0.484,0.011-1.144,0.165-1.144,0.913c0,0.539,0.297,0.737,0.517,0.737c0.231,0,0.495-0.144,0.594-0.463
		c0.022-0.076,0.033-0.165,0.033-0.253V296.98z"/>
	<path d="M295.029,299.51c-0.143,0.065-0.506,0.154-0.913,0.154c-1.364,0-2.255-0.946-2.255-2.707c0-1.661,0.979-2.816,2.464-2.816
		c0.341,0,0.649,0.077,0.792,0.144l-0.187,1.133c-0.121-0.044-0.297-0.099-0.539-0.099c-0.693,0-1.101,0.66-1.101,1.595
		c0,0.979,0.407,1.573,1.079,1.573c0.209,0,0.385-0.033,0.539-0.109L295.029,299.51z"/>
	<path d="M297.031,296.573h0.022c0.099-0.308,0.176-0.528,0.275-0.748l0.693-1.606h1.551l-1.298,2.256l1.375,3.124h-1.606
		l-0.77-2.211l-0.242,0.462v1.749h-1.441v-7.613h1.441V296.573z"/>
</g>
<g enable-background="new    ">
	<path d="M282.808,305.493c0.44-0.1,1.012-0.144,1.639-0.144c0.693,0,1.364,0.088,1.881,0.528c0.396,0.33,0.561,0.825,0.561,1.342
		c0,0.66-0.341,1.299-1.078,1.617v0.044c0.858,0.242,1.32,0.958,1.32,1.771c0,0.616-0.198,1.089-0.55,1.452
		c-0.44,0.484-1.188,0.748-2.431,0.748c-0.55,0-1.012-0.032-1.342-0.077V305.493z M284.249,308.431h0.308
		c0.517,0,0.913-0.44,0.913-1.046c0-0.539-0.253-0.957-0.847-0.957c-0.154,0-0.286,0.011-0.374,0.044V308.431z M284.249,311.72
		c0.088,0.021,0.187,0.021,0.319,0.021c0.583,0,1.067-0.352,1.067-1.11c0-0.737-0.506-1.122-1.078-1.134h-0.308V311.72z"/>
	<path d="M291.917,310.092c0,2.244-1.243,2.794-2.057,2.794c-1.287,0-2.058-1.012-2.058-2.762c0-1.936,1.012-2.794,2.08-2.794
		C291.146,307.33,291.917,308.397,291.917,310.092z M289.232,310.092c0,0.924,0.143,1.694,0.66,1.694
		c0.462,0,0.583-0.902,0.583-1.694c0-0.737-0.121-1.673-0.605-1.673C289.342,308.419,289.232,309.354,289.232,310.092z"/>
	<path d="M293.698,307.418l0.33,0.957c0.11,0.319,0.198,0.639,0.264,0.902h0.022c0.077-0.275,0.165-0.605,0.253-0.902l0.319-0.957
		h1.452l-1.221,2.641l1.243,2.739h-1.573l-0.363-1.012c-0.099-0.275-0.187-0.551-0.264-0.825h-0.022
		c-0.066,0.274-0.165,0.55-0.242,0.825l-0.33,1.012h-1.441l1.199-2.674l-1.188-2.706H293.698z"/>
</g>
<g enable-background="new    ">
	<path d="M177.493,373.578l-1.43-7.415h0.88l0.627,3.575c0.154,0.936,0.275,1.761,0.363,2.674h0.044
		c0.088-0.936,0.264-1.738,0.44-2.685l0.682-3.564h0.726l0.682,3.487c0.165,0.88,0.33,1.728,0.429,2.762h0.033
		c0.121-1.067,0.253-1.87,0.396-2.718l0.616-3.531h0.825l-1.441,7.415h-0.825l-0.715-3.608c-0.143-0.781-0.286-1.617-0.374-2.432
		h-0.022c-0.11,0.836-0.231,1.64-0.407,2.465l-0.737,3.575H177.493z"/>
	<path d="M183.388,373.578v-0.55l0.605-0.825c0.847-1.178,1.859-2.52,1.859-3.861c0-0.793-0.352-1.276-1.023-1.276
		c-0.517,0-0.847,0.274-1.034,0.396l-0.209-0.638c0.253-0.209,0.748-0.484,1.397-0.484c1.188,0,1.705,0.88,1.705,1.958
		c0,1.343-0.88,2.641-1.76,3.851l-0.484,0.66v0.022h2.387v0.748H183.388z"/>
	<path d="M187.623,373.578v-0.55l0.605-0.825c0.847-1.178,1.859-2.52,1.859-3.861c0-0.793-0.352-1.276-1.023-1.276
		c-0.517,0-0.847,0.274-1.034,0.396l-0.209-0.638c0.253-0.209,0.748-0.484,1.397-0.484c1.188,0,1.705,0.88,1.705,1.958
		c0,1.343-0.88,2.641-1.76,3.851l-0.484,0.66v0.022h2.387v0.748H187.623z"/>
	<path d="M191.814,371.829c0-1.001,0.594-1.64,1.177-2.047l-0.011-0.021c-0.594-0.407-0.935-1.034-0.935-1.64
		c0-1.1,0.781-1.782,1.672-1.782c1.023,0,1.529,0.858,1.529,1.684c0,0.627-0.297,1.232-0.958,1.683v0.033
		c0.66,0.44,1.145,1.09,1.145,1.947c0,1.111-0.737,1.98-1.837,1.98C192.408,373.666,191.814,372.72,191.814,371.829z
		 M194.597,371.741c0-0.825-0.473-1.287-1.023-1.65c-0.572,0.352-0.924,0.968-0.924,1.595c0,0.804,0.363,1.354,0.979,1.354
		C194.157,373.039,194.597,372.632,194.597,371.741z M192.859,368.066c0,0.726,0.44,1.089,0.88,1.375
		c0.429-0.308,0.715-0.781,0.715-1.32c0-0.692-0.286-1.155-0.803-1.155C193.178,366.966,192.859,367.417,192.859,368.066z"/>
</g>
<g enable-background="new    ">
	<path d="M204.483,373.578l-1.43-7.415h0.88l0.627,3.575c0.154,0.936,0.275,1.761,0.363,2.674h0.044
		c0.088-0.936,0.264-1.738,0.44-2.685l0.682-3.564h0.726l0.682,3.487c0.165,0.88,0.33,1.728,0.429,2.762h0.033
		c0.121-1.067,0.253-1.87,0.396-2.718l0.616-3.531h0.825l-1.441,7.415h-0.825l-0.715-3.608c-0.143-0.781-0.286-1.617-0.374-2.432
		h-0.022c-0.11,0.836-0.231,1.64-0.407,2.465l-0.737,3.575H204.483z"/>
	<path d="M210.378,373.578v-0.55l0.605-0.825c0.847-1.178,1.859-2.52,1.859-3.861c0-0.793-0.352-1.276-1.023-1.276
		c-0.517,0-0.847,0.274-1.034,0.396l-0.209-0.638c0.253-0.209,0.748-0.484,1.397-0.484c1.188,0,1.705,0.88,1.705,1.958
		c0,1.343-0.88,2.641-1.76,3.851l-0.484,0.66v0.022h2.387v0.748H210.378z"/>
	<path d="M214.613,373.578v-0.55l0.605-0.825c0.847-1.178,1.859-2.52,1.859-3.861c0-0.793-0.352-1.276-1.023-1.276
		c-0.517,0-0.847,0.274-1.034,0.396l-0.209-0.638c0.253-0.209,0.748-0.484,1.397-0.484c1.188,0,1.705,0.88,1.705,1.958
		c0,1.343-0.88,2.641-1.76,3.851l-0.484,0.66v0.022h2.387v0.748H214.613z"/>
	<path d="M219.233,372.94c0.187,0,0.341-0.022,0.528-0.066c0.363-0.088,0.715-0.286,0.979-0.562
		c0.396-0.439,0.715-1.089,0.836-2.035h-0.033c-0.264,0.342-0.638,0.605-1.155,0.605c-0.891,0-1.562-0.825-1.562-2.123
		c0-1.31,0.704-2.421,1.804-2.421c1.221,0,1.793,1.287,1.793,2.872c0,1.408-0.352,2.519-0.946,3.311
		c-0.418,0.572-1.023,0.946-1.65,1.09c-0.231,0.044-0.418,0.055-0.594,0.055V372.94z M219.662,368.683
		c0,1.056,0.396,1.562,0.968,1.562c0.352,0,0.704-0.242,0.88-0.639c0.044-0.121,0.066-0.22,0.066-0.462
		c0-1.496-0.429-2.146-0.99-2.146C220.157,366.999,219.662,367.461,219.662,368.683z"/>
</g>
<g enable-background="new    ">
	<path d="M282.007,349.488l-1.43-7.415h0.88l0.627,3.575c0.154,0.936,0.275,1.761,0.363,2.674h0.044
		c0.088-0.936,0.264-1.738,0.44-2.685l0.682-3.564h0.726l0.682,3.487c0.165,0.88,0.33,1.728,0.429,2.762h0.033
		c0.121-1.067,0.253-1.87,0.396-2.718l0.616-3.531h0.825l-1.441,7.415h-0.825l-0.715-3.608c-0.143-0.781-0.286-1.617-0.374-2.432
		h-0.022c-0.11,0.836-0.231,1.64-0.407,2.465l-0.737,3.575H282.007z"/>
	<path d="M287.903,349.488v-0.55l0.605-0.825c0.847-1.178,1.859-2.52,1.859-3.861c0-0.793-0.352-1.276-1.023-1.276
		c-0.517,0-0.847,0.274-1.034,0.396l-0.209-0.638c0.253-0.209,0.748-0.484,1.397-0.484c1.188,0,1.705,0.88,1.705,1.958
		c0,1.343-0.88,2.641-1.76,3.851l-0.484,0.66v0.022h2.387v0.748H287.903z"/>
	<path d="M295.724,345.901c0,2.607-0.825,3.675-1.859,3.675c-1.111,0-1.782-1.32-1.782-3.652c0-2.409,0.715-3.675,1.881-3.675
		C295.119,342.249,295.724,343.624,295.724,345.901z M292.93,345.913c0,1.727,0.297,2.938,1.001,2.938
		c0.671,0,0.946-1.222,0.946-2.938c0-1.673-0.275-2.938-0.957-2.938S292.93,344.196,292.93,345.913z"/>
	<path d="M296.329,347.739c0-1.001,0.594-1.64,1.177-2.047l-0.011-0.021c-0.594-0.407-0.935-1.034-0.935-1.64
		c0-1.1,0.781-1.782,1.672-1.782c1.023,0,1.529,0.858,1.529,1.684c0,0.627-0.297,1.232-0.958,1.683v0.033
		c0.66,0.44,1.145,1.09,1.145,1.947c0,1.111-0.737,1.98-1.837,1.98C296.923,349.576,296.329,348.63,296.329,347.739z
		 M299.112,347.651c0-0.825-0.473-1.287-1.023-1.65c-0.572,0.352-0.924,0.968-0.924,1.595c0,0.804,0.363,1.354,0.979,1.354
		C298.672,348.949,299.112,348.542,299.112,347.651z M297.374,343.977c0,0.726,0.44,1.089,0.88,1.375
		c0.429-0.308,0.715-0.781,0.715-1.32c0-0.692-0.286-1.155-0.803-1.155C297.693,342.876,297.374,343.327,297.374,343.977z"/>
</g>
<g enable-background="new    ">
	<path d="M324.277,426.287l-1.43-7.415h0.88l0.627,3.575c0.154,0.936,0.275,1.761,0.363,2.674h0.044
		c0.088-0.936,0.264-1.738,0.439-2.685l0.683-3.564h0.726l0.683,3.487c0.165,0.88,0.33,1.728,0.429,2.762h0.033
		c0.121-1.067,0.253-1.87,0.396-2.718l0.615-3.531h0.825l-1.44,7.415h-0.825l-0.716-3.608c-0.143-0.781-0.286-1.617-0.374-2.432
		h-0.021c-0.11,0.836-0.231,1.64-0.407,2.465l-0.737,3.575H324.277z"/>
	<path d="M330.173,426.287v-0.55l0.605-0.825c0.847-1.178,1.859-2.52,1.859-3.861c0-0.793-0.353-1.276-1.023-1.276
		c-0.517,0-0.847,0.274-1.034,0.396l-0.209-0.638c0.253-0.209,0.748-0.484,1.397-0.484c1.188,0,1.705,0.88,1.705,1.958
		c0,1.343-0.88,2.641-1.761,3.851l-0.483,0.66v0.022h2.387v0.748H330.173z"/>
	<path d="M334.551,425.374c0.221,0.132,0.605,0.297,1.034,0.297c0.737,0,1.232-0.539,1.232-1.43c0-0.936-0.583-1.475-1.441-1.475
		h-0.198v-0.638h0.165c0.507-0.012,1.287-0.396,1.287-1.276c0-0.715-0.385-1.101-0.945-1.101c-0.353,0-0.66,0.176-0.892,0.341
		l-0.187-0.638c0.264-0.209,0.748-0.407,1.287-0.407c1.012,0,1.584,0.727,1.584,1.65c0,0.715-0.374,1.342-1.067,1.672v0.022
		c0.638,0.176,1.254,0.748,1.254,1.87c0,1.166-0.748,2.112-2.046,2.112c-0.462,0-0.968-0.132-1.254-0.33L334.551,425.374z"/>
	<path d="M338.643,426.287v-0.55l0.605-0.825c0.847-1.178,1.859-2.52,1.859-3.861c0-0.793-0.353-1.276-1.023-1.276
		c-0.517,0-0.847,0.274-1.034,0.396l-0.209-0.638c0.253-0.209,0.748-0.484,1.397-0.484c1.188,0,1.705,0.88,1.705,1.958
		c0,1.343-0.88,2.641-1.761,3.851l-0.483,0.66v0.022h2.387v0.748H338.643z"/>
	<path d="M345.804,424.064l-0.495,2.223h-0.813l1.693-7.415h0.936l1.65,7.415h-0.836l-0.495-2.223H345.804z M347.333,423.383
		l-0.385-1.882c-0.11-0.527-0.209-1.144-0.297-1.693h-0.044c-0.089,0.561-0.198,1.198-0.298,1.693l-0.385,1.882H347.333z"/>
	<path d="M351.777,423.086v0.66h-2.409v-0.66H351.777z"/>
	<path d="M357.256,423.097c-0.056-0.979-0.11-2.068-0.077-2.904h-0.044c-0.165,0.825-0.363,1.705-0.595,2.574l-0.913,3.477h-0.539
		l-0.869-3.334c-0.242-0.945-0.462-1.858-0.604-2.717h-0.033c0,0.869-0.044,1.903-0.088,2.959l-0.144,3.136h-0.759l0.44-7.415h0.913
		l0.869,3.389c0.253,0.979,0.439,1.705,0.594,2.552h0.033c0.143-0.847,0.308-1.551,0.55-2.552l0.836-3.389h0.946l0.429,7.415h-0.792
		L357.256,423.097z"/>
</g>
<g enable-background="new    ">
	<path d="M497.515,366.167v-0.55l0.604-0.825c0.848-1.178,1.859-2.52,1.859-3.861c0-0.793-0.352-1.276-1.022-1.276
		c-0.518,0-0.848,0.274-1.034,0.396l-0.209-0.638c0.253-0.209,0.748-0.484,1.396-0.484c1.188,0,1.705,0.88,1.705,1.958
		c0,1.343-0.88,2.641-1.76,3.851l-0.484,0.66v0.022h2.388v0.748H497.515z"/>
	<path d="M505.336,362.58c0,2.607-0.825,3.675-1.859,3.675c-1.111,0-1.782-1.32-1.782-3.652c0-2.409,0.715-3.675,1.881-3.675
		C504.73,358.928,505.336,360.303,505.336,362.58z M502.541,362.592c0,1.727,0.298,2.938,1.002,2.938
		c0.671,0,0.945-1.222,0.945-2.938c0-1.673-0.274-2.938-0.957-2.938C502.85,359.654,502.541,360.875,502.541,362.592z"/>
	<path d="M507.7,359.874h-0.021l-1.188,0.683l-0.165-0.66l1.507-0.881h0.704v7.151H507.7V359.874z"/>
</g>
<g enable-background="new    ">
	<path d="M226.502,144.564c0.44-0.1,1.012-0.144,1.639-0.144c0.693,0,1.364,0.088,1.881,0.528c0.396,0.33,0.561,0.825,0.561,1.342
		c0,0.66-0.341,1.299-1.078,1.617v0.044c0.858,0.242,1.32,0.958,1.32,1.771c0,0.616-0.198,1.089-0.55,1.452
		c-0.44,0.484-1.188,0.748-2.431,0.748c-0.55,0-1.012-0.032-1.342-0.077V144.564z M227.943,147.501h0.308
		c0.517,0,0.913-0.44,0.913-1.046c0-0.539-0.253-0.957-0.847-0.957c-0.154,0-0.286,0.011-0.374,0.044V147.501z M227.943,150.791
		c0.088,0.021,0.187,0.021,0.319,0.021c0.583,0,1.067-0.352,1.067-1.11c0-0.737-0.506-1.122-1.078-1.134h-0.308V150.791z"/>
	<path d="M234.093,151.869l-0.077-0.528h-0.022c-0.297,0.418-0.715,0.616-1.188,0.616c-0.814,0-1.419-0.682-1.419-1.639
		c0-1.408,1.243-1.992,2.464-2.003v-0.121c0-0.418-0.253-0.726-0.759-0.726c-0.429,0-0.781,0.109-1.1,0.308l-0.264-0.968
		c0.297-0.176,0.924-0.407,1.672-0.407c1.639,0,1.903,1.145,1.903,2.233v2.002c0,0.43,0.022,0.869,0.088,1.232H234.093z
		 M233.895,149.25c-0.484,0.011-1.144,0.165-1.144,0.913c0,0.539,0.297,0.737,0.517,0.737c0.231,0,0.495-0.144,0.594-0.463
		c0.022-0.076,0.033-0.165,0.033-0.253V149.25z"/>
	<path d="M236.325,148.106c0-0.594-0.033-1.111-0.044-1.617h1.243l0.066,0.616h0.022c0.286-0.429,0.748-0.704,1.309-0.704
		c1.023,0,1.43,0.814,1.43,2.014v3.454h-1.441v-3.366c0-0.462-0.11-0.892-0.528-0.892c-0.242,0-0.44,0.165-0.539,0.484
		c-0.044,0.11-0.077,0.286-0.077,0.495v3.278h-1.441V148.106z"/>
	<path d="M245.269,144.255v6.018c0,0.518,0.022,1.101,0.044,1.596h-1.243l-0.077-0.605h-0.022c-0.198,0.374-0.627,0.693-1.122,0.693
		c-1.144,0-1.672-1.265-1.672-2.772c0-1.87,0.814-2.783,1.728-2.783c0.473,0,0.77,0.231,0.902,0.539h0.022v-2.685H245.269z
		 M243.827,148.557c0-0.099,0-0.209-0.011-0.319c-0.055-0.33-0.231-0.627-0.517-0.627c-0.506,0-0.693,0.737-0.693,1.606
		c0,1.023,0.275,1.562,0.682,1.562c0.176,0,0.385-0.1,0.495-0.474c0.033-0.077,0.044-0.197,0.044-0.33V148.557z"/>
</g>
</svg>
