<?xml version="1.0" encoding="utf-8"?>
<!-- Generator: Adobe Illustrator 17.0.0, SVG Export Plug-In . SVG Version: 6.00 Build 0)  -->
<!DOCTYPE svg PUBLIC "-//W3C//DTD SVG 1.1//EN" "http://www.w3.org/Graphics/SVG/1.1/DTD/svg11.dtd">
<svg version="1.1" id="Layer_1" xmlns="http://www.w3.org/2000/svg" xmlns:xlink="http://www.w3.org/1999/xlink" x="0px" y="0px"
	 width="612px" height="612px" viewBox="0 0 612 612" enable-background="new 0 0 612 612" xml:space="preserve">
<rect x="349.941" y="523.75" width="19.767" height="13.176"/>
<rect x="127.998" y="109.94" fill="none" stroke="#000000" stroke-width="1.8772" width="356.004" height="420.647"/>
<polyline fill="none" stroke="#000000" stroke-width="0.9386" points="223.753,109.803 223.753,256.958 219.363,261.348 
	255.235,319.916 222.29,374.827 224.486,384.342 224.486,528.572 "/>
<polyline fill="none" stroke="#000000" stroke-width="0.9386" points="254.513,478.417 254.513,469.999 225.231,469.999 "/>
<polyline fill="none" stroke="#000000" stroke-width="0.9386" points="247.196,469.421 247.196,444.005 258.908,444.005 "/>
<polyline fill="none" stroke="#000000" stroke-width="0.9386" points="224.498,383.606 348.588,383.606 348.588,444.739 
	265.13,444.739 265.13,384.159 "/>
<line fill="none" stroke="#000000" stroke-width="0.9386" x1="266.227" y1="530.761" x2="266.227" y2="474.023"/>
<line fill="none" stroke="#000000" stroke-width="0.9858" x1="306.587" y1="530.761" x2="306.587" y2="468.166"/>
<polyline fill="none" stroke="#000000" stroke-width="0.9386" points="278.306,475.49 278.306,468.536 329.555,468.536 
	329.555,529.298 "/>
<polyline fill="none" stroke="#000000" stroke-width="0.9386" points="329.555,468.536 347.491,468.536 347.491,529.659 "/>
<polyline fill="none" stroke="#000000" stroke-width="0.9386" points="372.018,530.032 372.018,381.047 483.301,381.047 "/>
<polyline fill="none" stroke="#000000" stroke-width="0.9386" points="379.703,380.453 379.703,365.672 475.241,365.672 
	475.241,380.587 "/>
<polyline fill="none" stroke="#000000" stroke-width="0.9386" points="370.553,358.351 443.034,358.351 443.034,322.478 
	418.505,322.478 "/>
<polyline fill="none" stroke="#000000" stroke-width="0.9386" points="371.376,295.756 388.487,295.756 388.487,349.201 
	371.285,349.201 371.285,278.918 482.291,278.918 "/>
<line fill="none" stroke="#000000" stroke-width="0.9386" x1="371.289" y1="111.268" x2="371.289" y2="278.918"/>
<path fill="none" stroke="#000000" stroke-width="0.9386" d="M359.941,147.266"/>
<path fill="none" stroke="#000000" stroke-width="0.9386" d="M347.862,136.16"/>
<path fill="none" stroke="#000000" stroke-width="0.9386" d="M347.862,111.631"/>
<rect x="306.866" y="153.728" fill="none" stroke="#000000" stroke-width="0.9386" width="41.727" height="20.498"/>
<polyline fill="none" stroke="#000000" stroke-width="0.9386" points="223.753,256.958 348.593,257.324 348.593,194.729 
	306.496,194.729 306.496,256.227 "/>
<line fill="none" stroke="#000000" stroke-width="0.9386" x1="265.404" y1="257.324" x2="265.5" y2="199.857"/>
<polyline fill="none" stroke="#000000" stroke-width="0.9386" points="253.421,203.881 253.421,196.191 223.86,196.191 
	223.86,170.936 306.496,170.936 "/>
<line fill="none" stroke="#000000" stroke-width="0.9386" x1="246.83" y1="171.299" x2="246.83" y2="195.826"/>
<polyline fill="none" stroke="#000000" stroke-width="0.9386" points="277.214,204.244 277.214,196.191 306.496,196.191 "/>
<polyline fill="none" stroke="#000000" stroke-width="0.9386" points="286.27,257.598 272.452,282.218 277.207,290.269 
	296.245,280.386 301.002,286.974 281.236,298.32 301.002,286.974 311.982,287.337 330.284,300.152 311.982,287.337 316.74,280.018 
	348.54,298.32 348.54,256.59 "/>
<polyline fill="none" stroke="#000000" stroke-width="0.9386" points="348.588,383.606 348.588,342.245 306.857,366.771 
	277.575,348.474 272.815,357.254 288.192,383.611 "/>
<polyline fill="none" stroke="#000000" stroke-width="0.9386" points="281.967,342.615 307.223,355.791 331.016,341.516 "/>
<line fill="none" stroke="#000000" stroke-width="0.3506" stroke-miterlimit="10" x1="370.869" y1="136.665" x2="360.549" y2="136.665"/>
<line fill="none" stroke="#000000" stroke-width="0.3506" stroke-miterlimit="10" x1="370.869" y1="138.176" x2="360.549" y2="138.176"/>
<line fill="none" stroke="#000000" stroke-width="0.3506" stroke-miterlimit="10" x1="370.869" y1="139.803" x2="360.549" y2="139.803"/>
<line fill="none" stroke="#000000" stroke-width="0.3506" stroke-miterlimit="10" x1="370.869" y1="141.375" x2="360.549" y2="141.375"/>
<line fill="none" stroke="#000000" stroke-width="0.3506" stroke-miterlimit="10" x1="370.869" y1="143.002" x2="360.549" y2="143.002"/>
<line fill="none" stroke="#000000" stroke-width="0.3506" stroke-miterlimit="10" x1="370.869" y1="144.455" x2="360.549" y2="144.455"/>
<line fill="none" stroke="#000000" stroke-width="0.3506" stroke-miterlimit="10" x1="370.869" y1="146.085" x2="360.549" y2="146.085"/>
<rect x="306.541" y="110.973" fill="none" stroke="#000000" stroke-width="0.9386" stroke-miterlimit="10" width="42.23" height="26.457"/>
<line fill="none" stroke="#000000" stroke-width="0.9386" x1="359.329" y1="130.838" x2="359.329" y2="147.266"/>
<path fill="none" stroke="#000000" stroke-width="0.4778" d="M386.719,129.149"/>
<line fill="none" stroke="#000000" stroke-width="0.1785" stroke-miterlimit="10" x1="391.049" y1="122.216" x2="386.956" y2="122.216"/>
<line fill="none" stroke="#000000" stroke-width="0.1785" stroke-miterlimit="10" x1="391.049" y1="123.203" x2="386.956" y2="123.203"/>
<line fill="none" stroke="#000000" stroke-width="0.1785" stroke-miterlimit="10" x1="391.049" y1="124.268" x2="386.956" y2="124.268"/>
<line fill="none" stroke="#000000" stroke-width="0.1785" stroke-miterlimit="10" x1="391.049" y1="125.292" x2="386.956" y2="125.292"/>
<line fill="none" stroke="#000000" stroke-width="0.1785" stroke-miterlimit="10" x1="391.049" y1="126.357" x2="386.956" y2="126.357"/>
<line fill="none" stroke="#000000" stroke-width="0.1785" stroke-miterlimit="10" x1="391.049" y1="127.307" x2="386.956" y2="127.307"/>
<line fill="none" stroke="#000000" stroke-width="0.1785" stroke-miterlimit="10" x1="391.049" y1="128.375" x2="386.956" y2="128.375"/>
<line fill="none" stroke="#000000" stroke-width="0.4778" x1="386.476" y1="118.404" x2="386.476" y2="129.149"/>
<polyline fill="none" stroke="#000000" stroke-width="0.9386" points="391.83,117.577 391.83,129.659 371.787,129.659 "/>
<rect x="344.551" y="482.837" fill="#FFFFFF" width="6.641" height="6.72"/>
<line fill="none" stroke="#000000" stroke-width="0.4693" x1="371.239" y1="499.907" x2="348.191" y2="499.907"/>
<line fill="none" stroke="#000000" stroke-width="0.4693" x1="371.239" y1="503.047" x2="348.191" y2="503.047"/>
<line fill="none" stroke="#000000" stroke-width="0.4693" x1="371.239" y1="506.241" x2="348.191" y2="506.241"/>
<line fill="none" stroke="#000000" stroke-width="0.4693" x1="371.239" y1="509.322" x2="348.191" y2="509.322"/>
<rect x="350.307" y="103.154" width="19.766" height="13.178"/>
<g enable-background="new    ">
	<path d="M205.136,41.957h6.437v27.662h8.5v5.454h-14.937V41.957z"/>
	<path d="M240.515,62.986c0,10.023-5.552,12.479-9.188,12.479c-5.749,0-9.188-4.52-9.188-12.332c0-8.647,4.521-12.479,9.286-12.479
		C237.075,50.654,240.515,55.42,240.515,62.986z M228.526,62.986c0,4.127,0.639,7.566,2.948,7.566c2.063,0,2.604-4.028,2.604-7.566
		c0-3.292-0.541-7.468-2.702-7.468C229.018,55.519,228.526,59.694,228.526,62.986z"/>
	<path d="M248.576,51.047l1.277,10.367c0.344,2.604,0.639,5.012,0.835,7.271h0.147c0.393-2.26,0.885-4.913,1.327-7.173l2.113-10.466
		h4.962l2.063,10.22c0.492,2.702,0.934,5.061,1.229,7.419h0.147c0.147-2.26,0.442-4.766,0.835-7.37l1.474-10.269h6.338
		l-6.191,24.026h-5.454l-1.818-8.401c-0.492-2.212-0.934-4.767-1.229-7.518h-0.098c-0.295,2.801-0.835,5.306-1.376,7.566
		l-2.063,8.353h-5.503l-5.896-24.026H248.576z"/>
	<path d="M278.649,65.345c0.098,3.734,2.26,5.11,5.11,5.11c1.818,0,3.439-0.394,4.569-0.786l0.884,4.618
		c-1.67,0.639-4.176,1.081-6.633,1.081c-6.535,0-10.122-4.324-10.122-11.841c0-8.059,4.176-12.873,9.63-12.873
		c5.159,0,8.156,4.078,8.156,11.35c0,1.72-0.049,2.653-0.196,3.341H278.649z M284.398,60.824c0-3.095-0.786-5.503-2.702-5.503
		c-2.113,0-2.948,3.096-2.998,5.503H284.398z"/>
	<path d="M293.834,58.27c0-2.407-0.098-5.012-0.196-7.223h5.601l0.344,3.488h0.147c1.081-2.555,2.997-3.881,4.766-3.881
		c0.639,0,0.982,0,1.375,0.098v6.388c-0.393-0.099-0.835-0.099-1.375-0.099c-1.376,0-3.194,0.934-3.931,3.439
		c-0.147,0.541-0.246,1.376-0.246,2.407v12.186h-6.486V58.27z"/>
	<path d="M316.732,41.957h6.437v27.662h8.5v5.454h-14.937V41.957z"/>
	<path d="M339.926,65.345c0.099,3.734,2.261,5.11,5.11,5.11c1.817,0,3.439-0.394,4.569-0.786l0.884,4.618
		c-1.67,0.639-4.176,1.081-6.633,1.081c-6.534,0-10.121-4.324-10.121-11.841c0-8.059,4.176-12.873,9.63-12.873
		c5.159,0,8.156,4.078,8.156,11.35c0,1.72-0.049,2.653-0.196,3.341H339.926z M345.675,60.824c0-3.095-0.786-5.503-2.702-5.503
		c-2.113,0-2.948,3.096-2.997,5.503H345.675z"/>
	<path d="M359.631,51.047l1.818,10.711c0.344,2.162,0.688,4.324,1.031,6.731h0.099c0.295-2.457,0.59-4.471,0.934-6.731l1.867-10.711
		h6.338l-6.437,24.026h-5.945l-6.534-24.026H359.631z"/>
	<path d="M378.894,65.345c0.099,3.734,2.261,5.11,5.11,5.11c1.817,0,3.439-0.394,4.569-0.786l0.884,4.618
		c-1.67,0.639-4.176,1.081-6.633,1.081c-6.534,0-10.121-4.324-10.121-11.841c0-8.059,4.176-12.873,9.63-12.873
		c5.159,0,8.156,4.078,8.156,11.35c0,1.72-0.049,2.653-0.196,3.341H378.894z M384.643,60.824c0-3.095-0.786-5.503-2.702-5.503
		c-2.113,0-2.948,3.096-2.997,5.503H384.643z"/>
	<path d="M394.128,41.073h6.437v34h-6.437V41.073z"/>
</g>
<rect x="328.799" y="467.794" width="19.712" height="19.638"/>
<g>
	<path fill="#FFFFFF" d="M335.993,477.894c0.037,5.233,2.082,6.325,4.022,6.325c1.197,0,2.153-0.283,2.822-0.635l0.457,1.97
		c-0.953,0.526-2.397,0.809-3.775,0.809c-4.054,0-6.17-3.304-6.17-8.537c0-5.521,2.326-8.962,5.749-8.962
		c3.458,0,4.867,3.656,4.867,7.486c0,0.667-0.036,1.124-0.069,1.545h-7.903V477.894z M341.354,475.892
		c0.032-3.409-1.234-4.922-2.537-4.922c-1.766,0-2.678,2.6-2.788,4.922H341.354z"/>
</g>
<g>
	<path stroke="#000000" stroke-width="0.0466" stroke-miterlimit="10" d="M319.437,155.511c-1.325,0-2.066,0.688-2.066,2.079v14.413
		c0,1.298,0.667,1.979,1.99,1.979h14.469c1.326,0,1.99-0.644,1.99-1.979V157.59c0-1.355-0.665-2.079-2.038-2.079
		C333.783,155.511,319.428,155.504,319.437,155.511z"/>
</g>
<g>
	<g>
		<path fill="#FFFFFF" d="M325.495,160.655c-0.717,0-1.312,0.612-1.312,1.357v3.217c0,0.622,0.905,0.622,0.905,0v-2.943h0.215v8.133
			c0,0.839,1.191,0.816,1.191,0v-4.756h0.21v4.756c0,0.816,1.202,0.839,1.202,0v-8.133h0.21v2.943c0,0.626,0.898,0.626,0.898,0
			v-3.195c0-0.695-0.537-1.38-1.337-1.38h-2.182V160.655z"/>
	</g>
	<g>
		<path fill="#FFFFFF" d="M326.601,160.367c0.564,0,1.038-0.473,1.038-1.038c0-0.576-0.473-1.042-1.038-1.042
			c-0.576,0-1.049,0.466-1.049,1.042C325.552,159.894,326.025,160.367,326.601,160.367z"/>
		<path fill="#FFFFFF" d="M326.601,159.329"/>
	</g>
</g>
<g>
	<path stroke="#000000" stroke-width="0.0466" stroke-miterlimit="10" d="M310.764,480.101c-1.33,0-2.066,0.681-2.066,2.077v14.415
		c0,1.296,0.665,1.979,1.99,1.979h14.47c1.321,0,1.99-0.651,1.99-1.979v-14.415c0-1.362-0.67-2.077-2.038-2.077
		C325.111,480.101,310.76,480.095,310.764,480.101z"/>
</g>
<g>
	<g>
		<path fill="#FFFFFF" d="M317.926,484.951c0.576,0,1.037-0.466,1.037-1.031c0-0.576-0.461-1.042-1.037-1.042
			s-1.031,0.466-1.031,1.042C316.895,484.484,317.35,484.951,317.926,484.951z"/>
		<path fill="#FFFFFF" d="M317.926,483.92"/>
	</g>
	<g>
		<path fill="#FFFFFF" d="M317.771,491.532v3.631c0,0.649-0.971,0.649-0.971,0v-3.631h-1.3l1.382-4.815h-0.217l-0.816,2.751
			c-0.19,0.601-1.008,0.345-0.83-0.283l0.91-2.996c0.1-0.336,0.53-0.937,1.28-0.937h0.686l0,0h0.736c0.74,0,1.17,0.601,1.28,0.937
			l0.914,2.996c0.178,0.628-0.64,0.898-0.832,0.27l-0.818-2.738h-0.238l1.408,4.815h-1.298v3.631c0,0.649-0.98,0.649-0.98,0v-3.631
			H317.771z"/>
	</g>
</g>
<g enable-background="new    ">
	<path d="M260.245,138.276h-3.956v5.922h4.494v1.568h-6.296V129.99h6.016v1.568h-4.213v5.196h3.956V138.276z"/>
	<path d="M269.746,138.136c0,5.548-1.756,7.818-3.956,7.818c-2.364,0-3.792-2.809-3.792-7.771c0-5.126,1.521-7.817,4.003-7.817
		C268.458,130.365,269.746,133.291,269.746,138.136z M263.8,138.159c0,3.675,0.632,6.25,2.13,6.25c1.428,0,2.013-2.599,2.013-6.25
		c0-3.558-0.585-6.25-2.036-6.25S263.8,134.508,263.8,138.159z"/>
	<path d="M278.169,132.144h-4.096l-0.632,4.05c0.187-0.047,0.351-0.047,0.562-0.047c0.819,0,2.083,0.351,2.903,1.146
		c0.795,0.796,1.264,1.92,1.264,3.465c0,3.02-1.896,5.196-4.611,5.196c-0.913,0-1.966-0.258-2.575-0.655l0.398-1.451
		c0.468,0.28,1.288,0.608,2.13,0.608c1.545,0,2.879-1.194,2.879-3.512c0-2.41-1.475-3.417-3.441-3.417
		c-0.562,0-0.913,0.023-1.194,0.07l0.96-7.046h5.454V132.144z"/>
</g>
<g enable-background="new    ">
	<path d="M278.789,328.424c-0.492,0.258-1.264,0.422-2.247,0.422c-3.09,0-5.29-2.481-5.29-7.842c0-6.226,3.09-8.216,5.571-8.216
		c0.96,0,1.639,0.188,1.966,0.398l-0.398,1.521c-0.375-0.164-0.772-0.328-1.592-0.328c-1.685,0-3.651,1.639-3.651,6.46
		c0,4.822,1.779,6.414,3.698,6.414c0.679,0,1.288-0.164,1.662-0.352L278.789,328.424z"/>
	<path d="M287.025,323.041c0,4.377-2.037,5.852-3.769,5.852c-2.036,0-3.675-1.85-3.675-5.828c0-4.144,1.849-5.876,3.792-5.876
		C285.387,317.188,287.025,319.085,287.025,323.041z M281.384,323.041c0,1.872,0.328,4.424,1.966,4.424
		c1.545,0,1.849-2.669,1.849-4.424c0-1.732-0.304-4.401-1.896-4.401C281.688,318.64,281.384,321.309,281.384,323.041z"/>
	<path d="M295.824,325.615c0,1.264,0.07,2.247,0.093,3.09h-1.568l-0.117-1.193h-0.047c-0.351,0.562-1.217,1.381-2.435,1.381
		c-1.989,0-2.762-1.545-2.762-4.354v-7.163h1.802v6.905c0,1.779,0.281,3.09,1.521,3.09c1.053,0,1.521-0.983,1.615-1.498
		c0.07-0.305,0.093-0.655,0.093-1.03v-7.467h1.803V325.615z"/>
	<path d="M298.325,320.302c0-0.96-0.07-2.083-0.094-2.926h1.615l0.093,1.779h0.047c0.375-1.077,1.334-1.967,2.388-1.967
		c0.141,0,0.257,0.023,0.375,0.023v1.85c-0.117-0.023-0.234-0.023-0.375-0.023c-1.147,0-1.99,1.054-2.177,2.364
		c-0.047,0.304-0.07,0.655-0.07,1.029v6.273h-1.802V320.302z"/>
	<path d="M306.913,314.38v2.996h2.177v1.381h-2.177v6.718c0,1.475,0.538,1.873,1.193,1.873c0.281,0,0.515-0.023,0.726-0.07
		l0.07,1.381c-0.328,0.117-0.749,0.188-1.334,0.188c-0.702,0-1.334-0.188-1.779-0.679c-0.445-0.516-0.679-1.288-0.679-2.855v-6.555
		h-1.381v-1.381h1.381v-2.481L306.913,314.38z"/>
	<path d="M311.85,317.376l1.498,6.507c0.211,0.89,0.327,1.639,0.468,2.341h0.047c0.117-0.632,0.305-1.498,0.491-2.317l1.335-6.53
		h1.778l-1.849,7.279c-0.702,2.856-1.475,5.595-2.809,7.304c-0.796,1.006-1.639,1.545-2.037,1.731l-0.655-1.545
		c0.515-0.28,1.077-0.772,1.592-1.428c0.468-0.585,0.843-1.357,1.03-1.896c0.093-0.281,0.116-0.398,0.116-0.562
		c0-0.141,0-0.281-0.046-0.422l-2.856-10.463H311.85z"/>
	<path d="M323.27,328.705l-0.117-1.193h-0.07c-0.491,0.865-1.287,1.381-2.247,1.381c-1.521,0-2.691-1.288-2.691-3.23
		c0-2.832,2.271-4.096,4.821-4.119v-0.352c0-1.521-0.374-2.575-1.802-2.575c-0.702,0-1.334,0.234-1.873,0.586l-0.397-1.265
		c0.468-0.351,1.521-0.749,2.645-0.749c2.271,0,3.254,1.498,3.254,4.05v4.892c0,0.866,0,1.85,0.117,2.575H323.27z M323.012,322.854
		c-0.936,0-3.112,0.164-3.112,2.621c0,1.475,0.749,2.014,1.381,2.014c0.796,0,1.475-0.586,1.685-1.709
		c0.047-0.211,0.047-0.445,0.047-0.632V322.854z"/>
	<path d="M327.293,320.302c0-0.96-0.07-2.083-0.094-2.926h1.615l0.094,1.779h0.047c0.374-1.077,1.334-1.967,2.388-1.967
		c0.14,0,0.257,0.023,0.374,0.023v1.85c-0.117-0.023-0.234-0.023-0.374-0.023c-1.147,0-1.99,1.054-2.177,2.364
		c-0.047,0.304-0.07,0.655-0.07,1.029v6.273h-1.803V320.302z"/>
	<path d="M339.604,312.508v13.482c0,0.772,0.07,2.06,0.094,2.715h-1.545l-0.117-1.428h-0.07c-0.374,0.819-1.17,1.615-2.364,1.615
		c-1.919,0-3.3-2.083-3.3-5.805c0-4.026,1.661-5.899,3.417-5.899c0.819,0,1.615,0.398,2.06,1.358h0.047v-6.039H339.604z
		 M337.824,321.683c0-0.233,0-0.491-0.023-0.749c-0.116-1.17-0.819-2.2-1.685-2.2c-1.498,0-2.014,2.084-2.014,4.354
		c0,2.387,0.608,4.307,1.92,4.307c0.562,0,1.334-0.305,1.731-1.943c0.047-0.21,0.07-0.468,0.07-0.749V321.683z"/>
</g>
<g enable-background="new    ">
	<path d="M238.647,226.403h-3.956v5.922h4.494v1.568h-6.296v-15.776h6.016v1.568h-4.213v5.196h3.956V226.403z"/>
	<path d="M248.148,226.263c0,5.548-1.756,7.818-3.956,7.818c-2.364,0-3.792-2.809-3.792-7.771c0-5.126,1.521-7.817,4.003-7.817
		C246.86,218.492,248.148,221.418,248.148,226.263z M242.203,226.286c0,3.675,0.632,6.25,2.13,6.25c1.428,0,2.013-2.599,2.013-6.25
		c0-3.558-0.585-6.25-2.036-6.25S242.203,222.635,242.203,226.286z"/>
	<path d="M249.432,230.172c0-2.13,1.264-3.487,2.505-4.354l-0.023-0.047c-1.264-0.866-1.99-2.2-1.99-3.487
		c0-2.341,1.662-3.792,3.558-3.792c2.177,0,3.254,1.825,3.254,3.581c0,1.334-0.632,2.621-2.037,3.581v0.07
		c1.404,0.937,2.435,2.317,2.435,4.143c0,2.364-1.568,4.214-3.909,4.214C250.696,234.081,249.432,232.067,249.432,230.172z
		 M255.354,229.984c0-1.755-1.006-2.738-2.177-3.511c-1.217,0.749-1.966,2.06-1.966,3.394c0,1.709,0.772,2.88,2.083,2.88
		C254.418,232.747,255.354,231.881,255.354,229.984z M251.656,222.167c0,1.545,0.937,2.317,1.873,2.926
		c0.913-0.655,1.521-1.662,1.521-2.809c0-1.476-0.608-2.458-1.708-2.458C252.334,219.826,251.656,220.786,251.656,222.167z"/>
</g>
<g enable-background="new    ">
	<path d="M282.206,226.403h-3.956v5.922h4.494v1.568h-6.296v-15.776h6.016v1.568h-4.213v5.196h3.956V226.403z"/>
	<path d="M291.707,226.263c0,5.548-1.756,7.818-3.956,7.818c-2.364,0-3.792-2.809-3.792-7.771c0-5.126,1.521-7.817,4.003-7.817
		C290.419,218.492,291.707,221.418,291.707,226.263z M285.761,226.286c0,3.675,0.632,6.25,2.13,6.25c1.428,0,2.013-2.599,2.013-6.25
		c0-3.558-0.585-6.25-2.036-6.25S285.761,222.635,285.761,226.286z"/>
	<path d="M293.904,232.536c0.398,0,0.726-0.047,1.124-0.141c0.772-0.188,1.521-0.608,2.083-1.193
		c0.843-0.937,1.521-2.317,1.779-4.331h-0.07c-0.562,0.726-1.358,1.288-2.458,1.288c-1.896,0-3.324-1.756-3.324-4.518
		c0-2.786,1.498-5.149,3.839-5.149c2.598,0,3.815,2.738,3.815,6.108c0,2.996-0.749,5.36-2.013,7.046
		c-0.89,1.217-2.177,2.013-3.511,2.317c-0.491,0.094-0.889,0.117-1.264,0.117V232.536z M294.816,223.478
		c0,2.247,0.843,3.323,2.06,3.323c0.749,0,1.498-0.515,1.873-1.357c0.094-0.257,0.14-0.468,0.14-0.982
		c0-3.184-0.913-4.564-2.106-4.564C295.87,219.896,294.816,220.879,294.816,223.478z"/>
</g>
<g enable-background="new    ">
	<path d="M321.741,226.403h-3.956v5.922h4.494v1.568h-6.297v-15.776h6.016v1.568h-4.213v5.196h3.956V226.403z"/>
	<path d="M327.262,220.505h-0.047l-2.527,1.451l-0.352-1.404l3.207-1.873h1.498v15.215h-1.779V220.505z"/>
	<path d="M340.25,226.263c0,5.548-1.756,7.818-3.956,7.818c-2.364,0-3.792-2.809-3.792-7.771c0-5.126,1.521-7.817,4.003-7.817
		C338.963,218.492,340.25,221.418,340.25,226.263z M334.305,226.286c0,3.675,0.632,6.25,2.13,6.25c1.428,0,2.013-2.599,2.013-6.25
		c0-3.558-0.585-6.25-2.036-6.25S334.305,222.635,334.305,226.286z"/>
</g>
<g enable-background="new    ">
	<path d="M422.303,189.787c0.866-0.188,2.037-0.305,3.207-0.305c1.826,0,3.254,0.258,4.283,1.218
		c0.937,0.818,1.358,2.13,1.358,3.464c0,1.709-0.516,2.902-1.335,3.792c-0.982,1.029-2.574,1.498-3.838,1.498
		c-0.211,0-0.422,0-0.609,0v5.875h-3.066V189.787z M425.369,196.949c0.141,0.047,0.305,0.047,0.492,0.047
		c1.545,0,2.247-1.1,2.247-2.574c0-1.382-0.562-2.458-1.99-2.458c-0.28,0-0.562,0.047-0.749,0.117V196.949z"/>
	<path d="M440.581,199.571c0,4.774-2.646,5.945-4.378,5.945c-2.738,0-4.377-2.153-4.377-5.875c0-4.12,2.153-5.945,4.424-5.945
		C438.942,193.696,440.581,195.966,440.581,199.571z M434.869,199.571c0,1.966,0.305,3.604,1.404,3.604
		c0.983,0,1.241-1.92,1.241-3.604c0-1.568-0.258-3.559-1.288-3.559C435.104,196.013,434.869,198.003,434.869,199.571z"/>
	<path d="M450.666,199.571c0,4.774-2.645,5.945-4.377,5.945c-2.738,0-4.377-2.153-4.377-5.875c0-4.12,2.153-5.945,4.424-5.945
		C449.027,193.696,450.666,195.966,450.666,199.571z M444.955,199.571c0,1.966,0.304,3.604,1.404,3.604
		c0.983,0,1.24-1.92,1.24-3.604c0-1.568-0.257-3.559-1.287-3.559C445.188,196.013,444.955,198.003,444.955,199.571z"/>
	<path d="M452.396,189.132h3.066v16.197h-3.066V189.132z"/>
</g>
<g enable-background="new    ">
	<path d="M407.061,339.551h-2.971v4.447h3.375v1.178h-4.729v-11.848h4.518v1.178h-3.164v3.902h2.971V339.551z"/>
	<path d="M411.206,335.121h-0.035l-1.898,1.09l-0.264-1.055l2.408-1.406h1.125v11.426h-1.336V335.121z"/>
	<path d="M415.229,345.176v-0.879l0.967-1.318c1.354-1.881,2.971-4.025,2.971-6.17c0-1.266-0.562-2.039-1.635-2.039
		c-0.826,0-1.354,0.439-1.652,0.633l-0.334-1.02c0.404-0.334,1.195-0.773,2.232-0.773c1.898,0,2.725,1.406,2.725,3.129
		c0,2.145-1.406,4.219-2.812,6.152l-0.773,1.055v0.035h3.814v1.195H415.229z"/>
</g>
<g enable-background="new    ">
	<path d="M455.38,330.767h-2.971v4.447h3.375v1.178h-4.729v-11.848h4.518v1.178h-3.164v3.902h2.971V330.767z"/>
	<path d="M459.525,326.337h-0.035l-1.898,1.09l-0.264-1.055l2.408-1.406h1.125v11.426h-1.336V326.337z"/>
	<path d="M463.776,334.933c0.352,0.211,0.967,0.475,1.652,0.475c1.178,0,1.969-0.861,1.969-2.285c0-1.494-0.932-2.355-2.303-2.355
		h-0.316v-1.02h0.264c0.809-0.018,2.057-0.633,2.057-2.039c0-1.143-0.615-1.758-1.512-1.758c-0.562,0-1.055,0.281-1.424,0.545
		l-0.299-1.02c0.422-0.334,1.195-0.65,2.057-0.65c1.617,0,2.531,1.16,2.531,2.637c0,1.143-0.598,2.145-1.705,2.672v0.035
		c1.02,0.281,2.004,1.195,2.004,2.988c0,1.863-1.195,3.375-3.27,3.375c-0.738,0-1.547-0.211-2.004-0.527L463.776,334.933z"/>
</g>
<g enable-background="new    ">
	<path d="M401.935,285.187c0.545-0.141,1.195-0.229,1.969-0.229c1.09,0,2.004,0.264,2.619,0.879c0.58,0.562,0.879,1.424,0.879,2.443
		c0,1.09-0.264,1.828-0.721,2.426c-0.65,0.879-1.74,1.318-2.795,1.318c-0.229,0-0.404,0-0.598-0.018v4.852h-1.354V285.187z
		 M403.288,290.864c0.158,0.035,0.299,0.053,0.527,0.053c1.336,0,2.232-0.879,2.232-2.549c0-1.213-0.51-2.303-2.004-2.303
		c-0.316,0-0.58,0.035-0.756,0.088V290.864z"/>
	<path d="M413.621,292.604c0,3.287-1.529,4.395-2.83,4.395c-1.529,0-2.76-1.389-2.76-4.377c0-3.111,1.389-4.412,2.848-4.412
		C412.391,288.21,413.621,289.634,413.621,292.604z M409.385,292.604c0,1.406,0.246,3.322,1.477,3.322
		c1.16,0,1.389-2.004,1.389-3.322c0-1.301-0.229-3.305-1.424-3.305C409.613,289.3,409.385,291.304,409.385,292.604z"/>
	<path d="M420.351,292.604c0,3.287-1.529,4.395-2.83,4.395c-1.529,0-2.76-1.389-2.76-4.377c0-3.111,1.389-4.412,2.848-4.412
		C419.12,288.21,420.351,289.634,420.351,292.604z M416.114,292.604c0,1.406,0.246,3.322,1.477,3.322
		c1.16,0,1.389-2.004,1.389-3.322c0-1.301-0.229-3.305-1.424-3.305C416.343,289.3,416.114,291.304,416.114,292.604z"/>
	<path d="M421.859,284.694h1.354v12.164h-1.354V284.694z"/>
	<path d="M428.079,285.011h1.354v10.705h3.34v1.143h-4.693V285.011z"/>
	<path d="M438.958,292.604c0,3.287-1.529,4.395-2.83,4.395c-1.529,0-2.76-1.389-2.76-4.377c0-3.111,1.389-4.412,2.848-4.412
		C437.728,288.21,438.958,289.634,438.958,292.604z M434.722,292.604c0,1.406,0.246,3.322,1.477,3.322
		c1.16,0,1.389-2.004,1.389-3.322c0-1.301-0.229-3.305-1.424-3.305C434.95,289.3,434.722,291.304,434.722,292.604z"/>
	<path d="M444.615,296.647c-0.299,0.176-0.809,0.316-1.406,0.316c-1.863,0-3.111-1.494-3.111-4.307c0-2.443,1.23-4.43,3.357-4.43
		c0.457,0,0.949,0.123,1.195,0.264l-0.264,1.107c-0.176-0.088-0.527-0.229-0.967-0.229c-1.354,0-1.969,1.617-1.969,3.287
		c0,1.986,0.756,3.182,2.004,3.182c0.369,0,0.668-0.088,0.984-0.229L444.615,296.647z"/>
	<path d="M447.108,292.306h0.035c0.158-0.334,0.299-0.668,0.457-0.949l1.688-3.006h1.459l-2.25,3.586l2.443,4.922h-1.512
		l-1.846-4.008l-0.475,0.791v3.217h-1.354v-12.164h1.354V292.306z"/>
	<path d="M452.678,292.728c0.018,2.602,1.037,3.164,2.021,3.164c0.58,0,1.072-0.141,1.406-0.334l0.211,1.002
		c-0.475,0.264-1.195,0.404-1.863,0.404c-2.039,0-3.094-1.67-3.094-4.271c0-2.76,1.16-4.482,2.865-4.482
		c1.74,0,2.426,1.828,2.426,3.762c0,0.316,0,0.545-0.018,0.756H452.678z M455.35,291.726c0.035-1.705-0.615-2.461-1.266-2.461
		c-0.879,0-1.336,1.301-1.389,2.461H455.35z"/>
	<path d="M458.09,290.548c0-0.721-0.053-1.564-0.07-2.197h1.213l0.07,1.336h0.035c0.281-0.809,1.002-1.477,1.793-1.477
		c0.105,0,0.193,0.018,0.281,0.018v1.389c-0.088-0.018-0.176-0.018-0.281-0.018c-0.861,0-1.494,0.791-1.635,1.775
		c-0.035,0.229-0.053,0.492-0.053,0.773v4.711h-1.354V290.548z"/>
</g>
<g enable-background="new    ">
	<path d="M414.436,302.757c0.58-0.158,1.283-0.229,1.951-0.229c1.178,0,2.057,0.246,2.672,0.844c0.58,0.598,0.826,1.389,0.826,2.32
		c0,1.512-0.703,2.497-1.898,3.042v0.035c0.879,0.264,1.336,1.107,1.6,2.654c0.264,1.635,0.51,2.637,0.668,3.006h-1.371
		c-0.176-0.352-0.404-1.477-0.633-2.936c-0.264-1.617-0.773-2.232-1.934-2.232h-0.527v5.168h-1.354V302.757z M415.789,308.225h0.562
		c1.301,0,2.162-0.949,2.162-2.374c0-1.371-0.562-2.215-2.021-2.232c-0.264,0-0.527,0.018-0.703,0.07V308.225z"/>
	<path d="M426.737,310.176c0,3.287-1.529,4.395-2.83,4.395c-1.529,0-2.76-1.389-2.76-4.377c0-3.111,1.389-4.413,2.848-4.413
		C425.507,305.781,426.737,307.205,426.737,310.176z M422.501,310.176c0,1.406,0.246,3.322,1.477,3.322
		c1.16,0,1.389-2.004,1.389-3.322c0-1.301-0.229-3.305-1.424-3.305C422.729,306.871,422.501,308.875,422.501,310.176z"/>
	<path d="M433.467,310.176c0,3.287-1.529,4.395-2.83,4.395c-1.529,0-2.76-1.389-2.76-4.377c0-3.111,1.389-4.413,2.848-4.413
		C432.236,305.781,433.467,307.205,433.467,310.176z M429.23,310.176c0,1.406,0.246,3.322,1.477,3.322
		c1.16,0,1.389-2.004,1.389-3.322c0-1.301-0.229-3.305-1.424-3.305C429.459,306.871,429.23,308.875,429.23,310.176z"/>
	<path d="M434.976,308.119c0-1.002-0.053-1.512-0.07-2.198h1.178l0.07,1.055h0.035c0.369-0.686,1.02-1.196,1.916-1.196
		c0.791,0,1.459,0.387,1.775,1.301h0.035c0.229-0.422,0.527-0.756,0.844-0.967c0.334-0.229,0.738-0.334,1.178-0.334
		c1.143,0,2.039,0.844,2.039,3.006v5.643h-1.336v-5.326c0-1.107-0.158-2.18-1.195-2.18c-0.562,0-1.055,0.475-1.248,1.266
		c-0.035,0.229-0.053,0.492-0.053,0.773v5.467h-1.336v-5.572c0-0.949-0.176-1.934-1.178-1.934c-0.545,0-1.107,0.475-1.266,1.371
		c-0.035,0.229-0.053,0.475-0.053,0.738v5.396h-1.336V308.119z"/>
	<path d="M445.641,313.023c0.299,0.193,0.826,0.439,1.371,0.439c0.773,0,1.248-0.475,1.248-1.23c0-0.65-0.229-1.09-1.09-1.67
		c-1.107-0.721-1.705-1.441-1.705-2.426c0-1.371,1.02-2.356,2.338-2.356c0.668,0,1.178,0.229,1.529,0.439l-0.369,1.02
		c-0.316-0.211-0.686-0.369-1.125-0.369c-0.738,0-1.107,0.527-1.107,1.072c0,0.58,0.211,0.896,1.055,1.477
		c0.984,0.633,1.758,1.406,1.758,2.584c0,1.705-1.16,2.531-2.549,2.531c-0.633,0-1.318-0.193-1.688-0.492L445.641,313.023z"/>
</g>
<g enable-background="new    ">
	<path d="M237.909,414.249h-3.956v5.922h4.494v1.568h-6.296v-15.776h6.016v1.568h-4.213v5.196h3.956V414.249z"/>
	<path d="M239.779,421.739v-1.17l1.288-1.756c1.802-2.505,3.956-5.36,3.956-8.216c0-1.686-0.749-2.716-2.177-2.716
		c-1.1,0-1.802,0.586-2.2,0.843l-0.445-1.357c0.538-0.444,1.592-1.029,2.973-1.029c2.528,0,3.628,1.872,3.628,4.166
		c0,2.855-1.873,5.618-3.745,8.192l-1.03,1.404v0.047h5.079v1.592H239.779z"/>
	<path d="M252.439,408.351h-0.047l-2.528,1.451l-0.351-1.404l3.207-1.873h1.498v15.215h-1.779V408.351z"/>
</g>
<g enable-background="new    ">
	<path d="M303.437,413.089h-3.956v5.922h4.494v1.568h-6.296v-15.776h6.016v1.568h-4.213v5.196h3.956V413.089z"/>
	<path d="M305.306,420.579v-1.17l1.288-1.756c1.802-2.505,3.955-5.36,3.955-8.216c0-1.686-0.749-2.716-2.177-2.716
		c-1.1,0-1.802,0.586-2.2,0.843l-0.445-1.357c0.538-0.444,1.592-1.029,2.973-1.029c2.527,0,3.628,1.872,3.628,4.166
		c0,2.855-1.873,5.618-3.745,8.192l-1.03,1.404v0.047h5.079v1.592H305.306z"/>
	<path d="M314.619,418.637c0.468,0.28,1.287,0.632,2.2,0.632c1.568,0,2.621-1.147,2.621-3.043c0-1.99-1.24-3.137-3.066-3.137h-0.421
		v-1.357h0.352c1.076-0.023,2.738-0.843,2.738-2.716c0-1.521-0.819-2.34-2.013-2.34c-0.749,0-1.405,0.374-1.896,0.726l-0.397-1.358
		c0.562-0.444,1.592-0.865,2.738-0.865c2.153,0,3.371,1.544,3.371,3.511c0,1.521-0.796,2.855-2.271,3.558v0.047
		c1.357,0.375,2.668,1.592,2.668,3.979c0,2.48-1.592,4.494-4.354,4.494c-0.983,0-2.06-0.281-2.669-0.702L314.619,418.637z"/>
</g>
<g enable-background="new    ">
	<path d="M239.014,496.549h-3.956v5.922h4.494v1.568h-6.296v-15.776h6.016v1.568h-4.213v5.196h3.956V496.549z"/>
	<path d="M240.883,504.039v-1.17l1.288-1.756c1.802-2.505,3.956-5.36,3.956-8.216c0-1.686-0.749-2.716-2.177-2.716
		c-1.1,0-1.802,0.586-2.2,0.843l-0.445-1.357c0.538-0.444,1.592-1.029,2.973-1.029c2.528,0,3.628,1.872,3.628,4.166
		c0,2.855-1.873,5.618-3.745,8.192l-1.03,1.404v0.047h5.079v1.592H240.883z"/>
	<path d="M257.523,496.408c0,5.548-1.756,7.818-3.956,7.818c-2.364,0-3.792-2.809-3.792-7.771c0-5.126,1.521-7.817,4.003-7.817
		C256.235,488.638,257.523,491.563,257.523,496.408z M251.578,496.432c0,3.675,0.632,6.25,2.13,6.25c1.428,0,2.013-2.599,2.013-6.25
		c0-3.558-0.585-6.25-2.036-6.25S251.578,492.78,251.578,496.432z"/>
</g>
<g enable-background="new    ">
	<path d="M280.3,496.549h-3.956v5.922h4.494v1.568h-6.296v-15.776h6.016v1.568h-4.213v5.196h3.956V496.549z"/>
	<path d="M285.821,490.65h-0.047l-2.528,1.451l-0.351-1.404l3.207-1.873h1.498v15.215h-1.779V490.65z"/>
	<path d="M291.998,502.682c0.398,0,0.726-0.047,1.124-0.141c0.772-0.188,1.521-0.608,2.083-1.193
		c0.843-0.937,1.521-2.317,1.779-4.331h-0.07c-0.562,0.726-1.358,1.288-2.458,1.288c-1.896,0-3.324-1.756-3.324-4.518
		c0-2.786,1.498-5.149,3.839-5.149c2.598,0,3.815,2.738,3.815,6.108c0,2.996-0.749,5.36-2.013,7.046
		c-0.89,1.217-2.177,2.013-3.511,2.317c-0.491,0.094-0.889,0.117-1.264,0.117V502.682z M292.91,493.623
		c0,2.247,0.843,3.323,2.06,3.323c0.749,0,1.498-0.515,1.873-1.357c0.094-0.257,0.14-0.468,0.14-0.982
		c0-3.184-0.913-4.564-2.106-4.564C293.964,490.042,292.91,491.024,292.91,493.623z"/>
</g>
<g enable-background="new    ">
	<path d="M418.791,440.592h-3.605v4.261h4.073v2.668h-7.14v-15.776h6.858v2.669h-3.792v3.628h3.605V440.592z"/>
	<path d="M426.185,447.521l-0.164-1.123h-0.047c-0.632,0.889-1.521,1.311-2.527,1.311c-1.732,0-3.02-1.451-3.02-3.488
		c0-2.996,2.645-4.236,5.243-4.26v-0.258c0-0.889-0.539-1.545-1.615-1.545c-0.913,0-1.662,0.234-2.341,0.656l-0.562-2.061
		c0.632-0.374,1.966-0.865,3.558-0.865c3.487,0,4.05,2.434,4.05,4.751v4.261c0,0.912,0.046,1.849,0.187,2.621H426.185z
		 M425.764,441.949c-1.03,0.023-2.435,0.352-2.435,1.943c0,1.146,0.632,1.568,1.1,1.568c0.492,0,1.054-0.305,1.265-0.983
		c0.047-0.164,0.07-0.351,0.07-0.538V441.949z"/>
	<path d="M430.839,444.759c0.445,0.28,1.288,0.608,2.061,0.608c0.796,0,1.24-0.352,1.24-1.03c0-0.585-0.328-0.959-1.334-1.545
		c-1.873-1.053-2.317-2.247-2.317-3.3c0-2.061,1.475-3.604,3.769-3.604c0.96,0,1.709,0.233,2.317,0.515l-0.539,2.247
		c-0.444-0.258-0.982-0.469-1.591-0.469c-0.772,0-1.147,0.469-1.147,0.983s0.258,0.796,1.334,1.428
		c1.686,0.96,2.317,2.153,2.317,3.465c0,2.341-1.685,3.604-4.049,3.604c-0.96,0-2.084-0.258-2.622-0.655L430.839,444.759z"/>
	<path d="M442.119,432.984v3.09h2.247v2.177h-2.247v5.22c0,1.335,0.562,1.662,1.17,1.662c0.305,0,0.539-0.023,0.796-0.07
		l0.023,2.388c-0.421,0.117-1.053,0.211-1.872,0.211c-0.89,0-1.662-0.211-2.2-0.726c-0.632-0.608-0.983-1.475-0.983-3.277v-5.407
		h-1.357v-2.177h1.357v-2.364L442.119,432.984z"/>
</g>
<g enable-background="new    ">
	<path d="M419.798,470.499c-0.679,0.28-2.13,0.562-3.277,0.562c-1.802,0-3.16-0.516-4.213-1.568
		c-1.357-1.311-2.083-3.651-2.037-6.367c0.07-5.734,3.348-8.122,6.695-8.122c1.193,0,2.083,0.234,2.574,0.469l-0.538,2.645
		c-0.445-0.234-1.03-0.351-1.803-0.351c-2.083,0-3.745,1.428-3.745,5.547c0,3.792,1.475,5.149,2.902,5.149
		c0.281,0,0.492-0.023,0.609-0.07v-3.815h-1.405v-2.504h4.237V470.499z"/>
	<path d="M423.914,459.474l1.123,5.945c0.117,0.679,0.211,1.312,0.305,1.92h0.047c0.094-0.585,0.187-1.241,0.28-1.873l0.96-5.992
		h2.996l-2.341,8.825c-0.562,2.153-1.311,4.377-2.551,5.852c-0.96,1.123-2.131,1.661-2.599,1.802l-0.937-2.645
		c0.539-0.188,1.054-0.538,1.521-0.96c0.422-0.397,0.749-0.866,0.96-1.357c0.094-0.211,0.164-0.328,0.164-0.491
		c0-0.141-0.047-0.281-0.094-0.422l-3.137-10.604H423.914z"/>
	<path d="M430.723,462.915c0-1.265-0.07-2.364-0.094-3.441h2.668l0.141,1.335h0.047c0.585-0.866,1.545-1.521,2.738-1.521
		c1.288,0,2.107,0.585,2.505,1.544h0.047c0.281-0.444,0.702-0.865,1.147-1.146c0.468-0.258,1.029-0.397,1.614-0.397
		c2.037,0,2.949,1.614,2.949,4.377v7.256h-3.043v-6.741c0-1.311-0.14-2.364-1.076-2.364c-0.538,0-0.937,0.375-1.147,1.054
		c-0.046,0.164-0.093,0.491-0.093,0.796v7.256h-3.043v-7.186c0-0.819-0.094-1.92-1.054-1.92c-0.468,0-0.937,0.352-1.146,1.03
		c-0.07,0.21-0.117,0.538-0.117,0.866v7.209h-3.043V462.915z"/>
</g>
</svg>
