<?xml version="1.0" encoding="utf-8"?>
<!-- Generator: Adobe Illustrator 17.0.0, SVG Export Plug-In . SVG Version: 6.00 Build 0)  -->
<!DOCTYPE svg PUBLIC "-//W3C//DTD SVG 1.1//EN" "http://www.w3.org/Graphics/SVG/1.1/DTD/svg11.dtd">
<svg version="1.1" id="Layer_1" xmlns="http://www.w3.org/2000/svg" xmlns:xlink="http://www.w3.org/1999/xlink" x="0px" y="0px"
	 width="612px" height="612px" viewBox="0 0 612 612" enable-background="new 0 0 612 612" xml:space="preserve">
<polygon fill="none" stroke="#000000" stroke-width="1.976" stroke-linejoin="round" stroke-miterlimit="10" points="
	603.682,213.256 603.682,433.601 509.694,433.601 509.694,352.06 387.073,352.06 387.073,383.805 261.963,383.805 261.963,389.406 
	216.524,389.406 216.524,393.763 176.689,393.763 176.689,388.162 132.495,388.162 132.495,381.936 8.007,381.936 8.007,299.775 
	141.831,299.775 141.831,178.399 250.135,178.399 250.135,299.775 324.829,299.775 324.829,190.849 344.125,190.849 
	344.125,179.022 381.471,179.022 381.471,213.256 "/>
<polyline fill="none" stroke="#000000" stroke-width="0.988" stroke-linejoin="round" stroke-miterlimit="10" points="
	566.025,432.975 566.025,263.052 603.993,263.052 "/>
<line fill="none" stroke="#000000" stroke-width="0.988" stroke-linejoin="round" stroke-miterlimit="10" x1="566.025" y1="309.425" x2="603.06" y2="309.425"/>
<line fill="none" stroke="#000000" stroke-width="0.988" stroke-linejoin="round" stroke-miterlimit="10" x1="566.025" y1="351.905" x2="603.06" y2="351.905"/>
<line fill="none" stroke="#000000" stroke-width="0.988" stroke-linejoin="round" stroke-miterlimit="10" x1="566.025" y1="392.363" x2="603.06" y2="392.363"/>
<polyline fill="none" stroke="#000000" stroke-width="0.988" stroke-linejoin="round" stroke-miterlimit="10" points="
	510.472,351.905 547.507,351.905 547.507,432.82 "/>
<line fill="none" stroke="#000000" stroke-width="0.988" stroke-linejoin="round" stroke-miterlimit="10" x1="510.472" y1="392.363" x2="547.507" y2="392.363"/>
<polyline fill="none" stroke="#000000" stroke-width="0.988" stroke-linejoin="round" stroke-miterlimit="10" points="
	580.654,213.881 580.654,254.962 548.701,254.962 548.701,259.111 474.631,259.111 474.631,213.673 "/>
<polyline fill="none" stroke="#000000" stroke-width="0.988" stroke-linejoin="round" stroke-miterlimit="10" points="
	455.127,213.466 455.127,290.025 447.868,324.882 447.868,332.352 510.526,332.352 510.526,324.674 551.607,316.374 551.607,272.39 
	455.128,272.181 "/>
<line fill="none" stroke="#000000" stroke-width="0.988" stroke-linejoin="round" stroke-miterlimit="10" x1="511.149" y1="213.465" x2="511.149" y2="258.904"/>
<line fill="none" stroke="#000000" stroke-width="0.988" stroke-linejoin="round" stroke-miterlimit="10" x1="548.806" y1="214.088" x2="548.806" y2="254.962"/>
<line fill="none" stroke="#000000" stroke-width="0.988" stroke-linejoin="round" stroke-miterlimit="10" x1="565.196" y1="214.088" x2="565.196" y2="254.962"/>
<polyline fill="none" stroke="#000000" stroke-width="0.988" stroke-linejoin="round" stroke-miterlimit="10" points="
	510.159,272.233 510.159,288.882 510.159,324.674 "/>
<polyline fill="none" stroke="#000000" stroke-width="0.988" stroke-linejoin="round" stroke-miterlimit="10" points="
	525.41,272.388 525.41,288.882 510.159,288.882 "/>
<polyline fill="none" stroke="#000000" stroke-width="0.988" stroke-linejoin="round" stroke-miterlimit="10" points="
	453.207,299.464 420.685,299.464 414.461,331.987 "/>
<polyline fill="none" stroke="#000000" stroke-width="0.988" stroke-linejoin="round" stroke-miterlimit="10" points="
	437.645,332.299 339.768,332.299 339.768,205.583 380.226,205.583 "/>
<polyline fill="none" stroke="#000000" stroke-width="0.988" stroke-linejoin="round" stroke-miterlimit="10" points="
	381.471,212.221 381.471,299.778 386.451,299.778 386.451,332.145 "/>
<line fill="none" stroke="#000000" stroke-width="0.988" stroke-linejoin="round" stroke-miterlimit="10" x1="339.56" y1="299.724" x2="381.471" y2="299.724"/>
<line fill="none" stroke="#000000" stroke-width="0.988" stroke-linejoin="round" stroke-miterlimit="10" x1="339.56" y1="263.467" x2="381.471" y2="263.467"/>
<line fill="none" stroke="#000000" stroke-width="0.988" stroke-linejoin="round" stroke-miterlimit="10" x1="339.56" y1="242.305" x2="381.471" y2="242.305"/>
<polyline fill="none" stroke="#000000" stroke-width="0.988" stroke-linejoin="round" stroke-miterlimit="10" points="
	325.033,297.494 325.033,332.972 78.342,332.972 78.342,314.712 69.836,314.712 41.41,324.05 41.41,331.103 8.214,331.103 "/>
<line fill="none" stroke="#000000" stroke-width="0.988" stroke-linejoin="round" stroke-miterlimit="10" x1="51.332" y1="300.189" x2="51.332" y2="320.679"/>
<line fill="none" stroke="#000000" stroke-width="0.988" stroke-linejoin="round" stroke-miterlimit="10" x1="69.175" y1="299.359" x2="69.175" y2="314.716"/>
<line fill="none" stroke="#000000" stroke-width="0.988" stroke-linejoin="round" stroke-miterlimit="10" x1="107.56" y1="299.15" x2="107.56" y2="332.764"/>
<line fill="none" stroke="#000000" stroke-width="0.988" stroke-linejoin="round" stroke-miterlimit="10" x1="125.611" y1="299.15" x2="125.611" y2="332.764"/>
<line fill="none" stroke="#000000" stroke-width="0.988" stroke-linejoin="round" stroke-miterlimit="10" x1="142.417" y1="299.15" x2="142.417" y2="332.764"/>
<line fill="none" stroke="#000000" stroke-width="0.988" stroke-linejoin="round" stroke-miterlimit="10" x1="250.55" y1="299.15" x2="250.55" y2="332.764"/>
<line fill="none" stroke="#000000" stroke-width="0.988" stroke-linejoin="round" stroke-miterlimit="10" x1="269.431" y1="299.15" x2="269.431" y2="332.764"/>
<line fill="none" stroke="#000000" stroke-width="0.988" stroke-linejoin="round" stroke-miterlimit="10" x1="286.651" y1="299.15" x2="286.651" y2="332.764"/>
<line fill="none" stroke="#000000" stroke-width="0.988" stroke-linejoin="round" stroke-miterlimit="10" x1="316.528" y1="299.15" x2="316.528" y2="332.764"/>
<polyline fill="none" stroke="#000000" stroke-width="0.988" stroke-linejoin="round" stroke-miterlimit="10" points="
	386.864,351.43 90.996,351.43 90.996,362.222 70.663,370.106 70.663,381.725 "/>
<line fill="none" stroke="#000000" stroke-width="0.988" stroke-linejoin="round" stroke-miterlimit="10" x1="91.373" y1="360.356" x2="91.373" y2="381.725"/>
<line fill="none" stroke="#000000" stroke-width="0.988" stroke-linejoin="round" stroke-miterlimit="10" x1="133.077" y1="351.017" x2="133.077" y2="382.763"/>
<line fill="none" stroke="#000000" stroke-width="0.988" stroke-linejoin="round" stroke-miterlimit="10" x1="156.107" y1="351.642" x2="156.107" y2="388.364"/>
<line fill="none" stroke="#000000" stroke-width="0.988" stroke-linejoin="round" stroke-miterlimit="10" x1="217.217" y1="351.642" x2="217.217" y2="388.364"/>
<line fill="none" stroke="#000000" stroke-width="0.988" stroke-linejoin="round" stroke-miterlimit="10" x1="261.338" y1="383.595" x2="261.338" y2="351.229"/>
<line fill="none" stroke="#000000" stroke-width="0.988" stroke-linejoin="round" stroke-miterlimit="10" x1="303.871" y1="383.595" x2="303.871" y2="351.229"/>
<line fill="none" stroke="#000000" stroke-width="0.988" stroke-linejoin="round" stroke-miterlimit="10" x1="344.12" y1="383.595" x2="344.12" y2="351.229"/>
<polyline fill="none" stroke="#000000" stroke-width="0.988" stroke-linejoin="round" stroke-miterlimit="10" points="
	51.955,381.109 51.955,350.818 8.799,350.818 "/>
<line fill="none" stroke="#000000" stroke-width="0.494" x1="357.181" y1="179.496" x2="357.181" y2="205.476"/>
<line fill="none" stroke="#000000" stroke-width="0.494" x1="358.962" y1="179.496" x2="358.962" y2="205.476"/>
<line fill="none" stroke="#000000" stroke-width="0.494" x1="360.773" y1="179.496" x2="360.773" y2="205.476"/>
<line fill="none" stroke="#000000" stroke-width="0.494" x1="362.52" y1="179.496" x2="362.52" y2="205.476"/>
<line fill="none" stroke="#000000" stroke-width="0.494" x1="364.174" y1="179.496" x2="364.174" y2="205.476"/>
<line fill="none" stroke="#000000" stroke-width="0.494" x1="365.953" y1="179.496" x2="365.953" y2="205.476"/>
<line fill="none" stroke="#000000" stroke-width="0.494" x1="367.765" y1="179.496" x2="367.765" y2="205.476"/>
<line fill="none" stroke="#000000" stroke-width="0.494" x1="369.512" y1="179.496" x2="369.512" y2="205.476"/>
<line fill="none" stroke="#000000" stroke-width="0.494" x1="286.237" y1="313.609" x2="269.182" y2="313.609"/>
<line fill="none" stroke="#000000" stroke-width="0.494" x1="286.237" y1="315.39" x2="269.182" y2="315.39"/>
<line fill="none" stroke="#000000" stroke-width="0.494" x1="286.237" y1="317.201" x2="269.182" y2="317.201"/>
<line fill="none" stroke="#000000" stroke-width="0.494" x1="286.237" y1="318.948" x2="269.182" y2="318.948"/>
<line fill="none" stroke="#000000" stroke-width="0.494" x1="286.237" y1="320.602" x2="269.182" y2="320.602"/>
<line fill="none" stroke="#000000" stroke-width="0.494" x1="286.237" y1="322.38" x2="269.182" y2="322.38"/>
<line fill="none" stroke="#000000" stroke-width="0.494" x1="286.237" y1="324.193" x2="269.182" y2="324.193"/>
<line fill="none" stroke="#000000" stroke-width="0.494" x1="286.237" y1="325.94" x2="269.182" y2="325.94"/>
<line fill="none" stroke="#000000" stroke-width="0.494" x1="125.196" y1="313.609" x2="108.141" y2="313.609"/>
<line fill="none" stroke="#000000" stroke-width="0.494" x1="125.196" y1="315.39" x2="108.141" y2="315.39"/>
<line fill="none" stroke="#000000" stroke-width="0.494" x1="125.196" y1="317.201" x2="108.141" y2="317.201"/>
<line fill="none" stroke="#000000" stroke-width="0.494" x1="125.196" y1="318.948" x2="108.141" y2="318.948"/>
<line fill="none" stroke="#000000" stroke-width="0.494" x1="125.196" y1="320.602" x2="108.141" y2="320.602"/>
<line fill="none" stroke="#000000" stroke-width="0.494" x1="125.196" y1="322.38" x2="108.141" y2="322.38"/>
<line fill="none" stroke="#000000" stroke-width="0.494" x1="125.196" y1="324.193" x2="108.141" y2="324.193"/>
<line fill="none" stroke="#000000" stroke-width="0.494" x1="125.196" y1="325.94" x2="108.141" y2="325.94"/>
<line fill="none" stroke="#000000" stroke-width="0.494" x1="20.873" y1="331.061" x2="20.873" y2="350.296"/>
<line fill="none" stroke="#000000" stroke-width="0.494" x1="22.653" y1="331.061" x2="22.653" y2="350.296"/>
<line fill="none" stroke="#000000" stroke-width="0.494" x1="24.464" y1="331.061" x2="24.464" y2="350.296"/>
<line fill="none" stroke="#000000" stroke-width="0.494" x1="26.211" y1="331.061" x2="26.211" y2="350.296"/>
<line fill="none" stroke="#000000" stroke-width="0.494" x1="27.865" y1="331.061" x2="27.865" y2="350.296"/>
<line fill="none" stroke="#000000" stroke-width="0.494" x1="29.644" y1="331.061" x2="29.644" y2="350.296"/>
<line fill="none" stroke="#000000" stroke-width="0.494" x1="31.455" y1="331.061" x2="31.455" y2="350.296"/>
<line fill="none" stroke="#000000" stroke-width="0.494" x1="33.203" y1="331.061" x2="33.203" y2="350.296"/>
<polyline fill="none" stroke="#000000" stroke-width="0.988" stroke-linejoin="round" stroke-miterlimit="10" points="
	178.244,332.765 178.244,317.516 217.458,317.516 217.458,332.765 "/>
<line fill="none" stroke="#000000" stroke-width="0.494" x1="416.941" y1="318.866" x2="447.477" y2="324.456"/>
<line fill="none" stroke="#000000" stroke-width="0.494" x1="417.261" y1="317.115" x2="447.799" y2="322.705"/>
<line fill="none" stroke="#000000" stroke-width="0.494" x1="417.589" y1="315.333" x2="448.124" y2="320.922"/>
<line fill="none" stroke="#000000" stroke-width="0.494" x1="417.902" y1="313.616" x2="448.439" y2="319.204"/>
<line fill="none" stroke="#000000" stroke-width="0.494" x1="418.201" y1="311.989" x2="448.737" y2="317.578"/>
<line fill="none" stroke="#000000" stroke-width="0.494" x1="418.519" y1="310.239" x2="449.057" y2="315.828"/>
<line fill="none" stroke="#000000" stroke-width="0.494" x1="418.846" y1="308.456" x2="449.384" y2="314.046"/>
<line fill="none" stroke="#000000" stroke-width="0.494" x1="419.161" y1="306.739" x2="449.697" y2="312.326"/>
<line fill="none" stroke="#000000" stroke-width="0.494" x1="474.294" y1="228.076" x2="455.061" y2="228.076"/>
<line fill="none" stroke="#000000" stroke-width="0.494" x1="474.294" y1="229.855" x2="455.061" y2="229.855"/>
<line fill="none" stroke="#000000" stroke-width="0.494" x1="474.294" y1="231.667" x2="455.061" y2="231.667"/>
<line fill="none" stroke="#000000" stroke-width="0.494" x1="474.294" y1="233.414" x2="455.061" y2="233.414"/>
<line fill="none" stroke="#000000" stroke-width="0.494" x1="474.294" y1="235.067" x2="455.061" y2="235.067"/>
<line fill="none" stroke="#000000" stroke-width="0.494" x1="474.294" y1="236.847" x2="455.061" y2="236.847"/>
<line fill="none" stroke="#000000" stroke-width="0.494" x1="474.294" y1="238.658" x2="455.061" y2="238.658"/>
<line fill="none" stroke="#000000" stroke-width="0.494" x1="474.294" y1="240.405" x2="455.061" y2="240.405"/>
<path fill="none" stroke="#000000" stroke-width="0.494" stroke-linejoin="round" stroke-miterlimit="10" d="M142.661,297.702
	l11.205,4.566l0.621-32.783c0,0,23.861,6.846,42.535,6.846c18.672,0,44.4-7.468,44.4-7.468v34.441l8.714-3.112"/>
<polyline fill="none" stroke="#000000" stroke-width="0.988" stroke-linejoin="round" stroke-miterlimit="10" points="
	143.661,351.229 143.661,357.04 133.08,357.04 "/>
<line fill="none" stroke="#000000" stroke-width="0.494" x1="565.715" y1="404.487" x2="547.826" y2="404.487"/>
<line fill="none" stroke="#000000" stroke-width="0.494" x1="565.715" y1="406.267" x2="547.826" y2="406.267"/>
<line fill="none" stroke="#000000" stroke-width="0.494" x1="565.715" y1="408.079" x2="547.826" y2="408.079"/>
<line fill="none" stroke="#000000" stroke-width="0.494" x1="565.715" y1="409.824" x2="547.826" y2="409.824"/>
<line fill="none" stroke="#000000" stroke-width="0.494" x1="565.715" y1="411.477" x2="547.826" y2="411.477"/>
<line fill="none" stroke="#000000" stroke-width="0.494" x1="565.715" y1="413.258" x2="547.826" y2="413.258"/>
<line fill="none" stroke="#000000" stroke-width="0.494" x1="565.715" y1="415.07" x2="547.826" y2="415.07"/>
<line fill="none" stroke="#000000" stroke-width="0.494" x1="565.715" y1="416.814" x2="547.826" y2="416.814"/>
<g enable-background="new    ">
	<path d="M30.801,239.024c0.688,0.397,1.641,0.662,2.566,0.662c1.667,0,2.593-1.032,2.593-2.487c0-1.905-1.456-2.726-3.228-2.726
		h-0.477v-2.54H32.6c1.27-0.026,2.91-0.556,2.91-2.223c0-1.243-0.793-1.984-2.011-1.984c-0.767,0-1.535,0.291-2.169,0.688
		l-0.45-2.619c0.714-0.45,2.117-0.9,3.545-0.9c3.016,0,4.524,1.958,4.524,4.154c0,1.72-0.953,3.148-2.461,3.863v0.053
		c1.667,0.556,2.937,2.037,2.937,4.365c0,2.62-2.011,5.187-5.742,5.187c-1.402,0-2.619-0.344-3.387-0.768L30.801,239.024z"/>
	<path d="M42.125,233.256c0-1.297-0.053-2.699-0.105-3.89h3.016l0.185,1.879h0.08c0.582-1.376,1.614-2.091,2.566-2.091
		c0.344,0,0.529,0,0.741,0.054v3.439c-0.211-0.053-0.45-0.053-0.741-0.053c-0.741,0-1.72,0.502-2.117,1.852
		c-0.079,0.291-0.132,0.741-0.132,1.297v6.562h-3.493V233.256z"/>
	<path d="M59.218,223.996v14.473c0,1.244,0.053,2.646,0.106,3.837h-2.99l-0.186-1.455h-0.053c-0.476,0.899-1.508,1.667-2.699,1.667
		c-2.752,0-4.022-3.043-4.022-6.668c0-4.498,1.958-6.694,4.154-6.694c1.138,0,1.852,0.556,2.169,1.297h0.053v-6.456H59.218z
		 M55.752,234.341c0-0.238,0-0.503-0.027-0.768c-0.132-0.794-0.555-1.508-1.243-1.508c-1.217,0-1.667,1.772-1.667,3.862
		c0,2.461,0.662,3.758,1.64,3.758c0.423,0,0.926-0.238,1.191-1.138c0.079-0.186,0.106-0.477,0.106-0.794V234.341z"/>
	<path d="M66.177,224.472h7.752v3.017h-4.287v4.577h4.022v2.884h-4.022v7.355h-3.466V224.472z"/>
	<path d="M76.153,223.996h3.466v18.31h-3.466V223.996z"/>
	<path d="M91.552,235.796c0,5.397-2.99,6.721-4.948,6.721c-3.096,0-4.948-2.435-4.948-6.642c0-4.656,2.435-6.721,5.001-6.721
		C89.7,229.155,91.552,231.721,91.552,235.796z M85.096,235.796c0,2.223,0.344,4.074,1.587,4.074c1.111,0,1.402-2.169,1.402-4.074
		c0-1.772-0.291-4.021-1.455-4.021C85.361,231.775,85.096,234.024,85.096,235.796z"/>
	<path d="M102.956,235.796c0,5.397-2.99,6.721-4.948,6.721c-3.095,0-4.948-2.435-4.948-6.642c0-4.656,2.435-6.721,5.001-6.721
		C101.104,229.155,102.956,231.721,102.956,235.796z M96.5,235.796c0,2.223,0.344,4.074,1.587,4.074
		c1.111,0,1.402-2.169,1.402-4.074c0-1.772-0.291-4.021-1.455-4.021C96.765,231.775,96.5,234.024,96.5,235.796z"/>
	<path d="M104.888,233.256c0-1.297-0.053-2.699-0.105-3.89h3.016l0.185,1.879h0.08c0.582-1.376,1.614-2.091,2.566-2.091
		c0.344,0,0.529,0,0.741,0.054v3.439c-0.211-0.053-0.45-0.053-0.741-0.053c-0.741,0-1.72,0.502-2.117,1.852
		c-0.079,0.291-0.132,0.741-0.132,1.297v6.562h-3.493V233.256z"/>
</g>
<rect x="339.444" y="252.928" width="10.575" height="10.575"/>
<g>
	<path fill="#FFFFFF" d="M343.303,258.365c0.02,2.819,1.117,3.406,2.158,3.406c0.642,0,1.154-0.151,1.513-0.341l0.246,1.059
		c-0.512,0.284-1.287,0.437-2.025,0.437c-2.175,0-3.31-1.779-3.31-4.598c0-2.972,1.248-4.826,3.083-4.826
		c1.856,0,2.611,1.969,2.611,4.031c0,0.359-0.02,0.605-0.037,0.832H343.303z M346.18,257.287c0.017-1.835-0.662-2.649-1.361-2.649
		c-0.948,0-1.437,1.399-1.496,2.649H346.18z"/>
</g>
<g>
	<path stroke="#000000" stroke-width="0.1157" stroke-miterlimit="10" d="M291.955,305.057c-1.779,0-2.768,0.918-2.768,2.778v19.259
		c0,1.732,0.893,2.646,2.66,2.646h19.34c1.762,0,2.655-0.864,2.655-2.646v-19.259c0-1.811-0.893-2.778-2.722-2.778
		C311.121,305.057,291.941,305.052,291.955,305.057z"/>
</g>
<g>
	<g>
		<path fill="#FFFFFF" d="M300.042,311.928c-0.965,0-1.75,0.819-1.75,1.814v4.304c0,0.824,1.206,0.824,1.206,0v-3.933h0.286v10.865
			c0,1.12,1.592,1.093,1.592,0v-6.359h0.283v6.359c0,1.093,1.607,1.12,1.607,0v-10.865h0.273v3.933c0,0.834,1.201,0.834,1.201,0
			v-4.275c0-0.925-0.719-1.843-1.782-1.843H300.042z"/>
	</g>
	<g>
		<path fill="#FFFFFF" d="M301.521,311.547c0.751,0,1.373-0.625,1.373-1.381c0-0.773-0.623-1.398-1.373-1.398
			c-0.773,0-1.398,0.625-1.398,1.398C300.123,310.921,300.748,311.547,301.521,311.547z"/>
		<path fill="#FFFFFF" d="M301.521,310.166"/>
	</g>
</g>
<g>
	<path stroke="#000000" stroke-width="0.1157" stroke-miterlimit="10" d="M83.496,305.057c-1.774,0-2.761,0.918-2.761,2.778v19.259
		c0,1.732,0.891,2.646,2.655,2.646h19.338c1.764,0,2.658-0.864,2.658-2.646v-19.259c0-1.811-0.893-2.778-2.719-2.778
		C102.666,305.057,83.488,305.052,83.496,305.057z"/>
</g>
<g>
	<g>
		<path fill="#FFFFFF" d="M93.07,311.547c0.768,0,1.385-0.625,1.385-1.381c0-0.773-0.618-1.398-1.385-1.398
			c-0.77,0-1.385,0.625-1.385,1.398C91.684,310.921,92.3,311.547,93.07,311.547z"/>
		<path fill="#FFFFFF" d="M93.07,310.166"/>
	</g>
	<g>
		<path fill="#FFFFFF" d="M92.858,320.337v4.853c0,0.861-1.299,0.861-1.299,0v-4.853h-1.732l1.843-6.435h-0.286l-1.093,3.679
			c-0.258,0.802-1.346,0.465-1.107-0.391l1.218-3.994c0.13-0.448,0.706-1.253,1.701-1.253h0.918l0,0h0.987
			c0.987,0,1.563,0.805,1.71,1.253l1.218,3.994c0.239,0.856-0.854,1.211-1.11,0.374l-1.09-3.662h-0.322l1.88,6.435h-1.732v4.853
			c0,0.861-1.312,0.861-1.312,0v-4.853H92.858z"/>
	</g>
</g>
<g enable-background="new    ">
	<path d="M350.778,228.315l-1.639-8.495h1.009l0.719,4.097c0.176,1.071,0.314,2.017,0.415,3.062h0.051
		c0.101-1.071,0.303-1.991,0.504-3.075l0.781-4.084h0.832l0.781,3.995c0.189,1.009,0.379,1.979,0.492,3.164h0.038
		c0.139-1.223,0.289-2.143,0.453-3.113l0.706-4.046h0.945l-1.651,8.495h-0.945l-0.819-4.134c-0.163-0.896-0.327-1.853-0.429-2.786
		h-0.024c-0.126,0.958-0.265,1.879-0.467,2.823l-0.845,4.097H350.778z"/>
	<path d="M357.695,227.269c0.252,0.151,0.693,0.34,1.185,0.34c0.845,0,1.412-0.617,1.412-1.639c0-1.071-0.668-1.688-1.651-1.688
		h-0.227v-0.731h0.188c0.58-0.012,1.475-0.453,1.475-1.462c0-0.819-0.44-1.26-1.084-1.26c-0.403,0-0.756,0.201-1.021,0.391
		l-0.214-0.731c0.302-0.239,0.856-0.466,1.475-0.466c1.159,0,1.814,0.832,1.814,1.891c0,0.819-0.429,1.537-1.223,1.915v0.025
		c0.731,0.202,1.437,0.857,1.437,2.143c0,1.336-0.856,2.42-2.344,2.42c-0.529,0-1.109-0.151-1.437-0.378L357.695,227.269z"/>
	<path d="M366.491,224.207c0,2.986-0.945,4.209-2.13,4.209c-1.273,0-2.042-1.513-2.042-4.185c0-2.76,0.819-4.209,2.155-4.209
		C365.798,220.022,366.491,221.597,366.491,224.207z M363.29,224.218c0,1.979,0.34,3.365,1.146,3.365
		c0.77,0,1.084-1.398,1.084-3.365c0-1.915-0.314-3.364-1.096-3.364C363.643,220.854,363.29,222.252,363.29,224.218z"/>
	<path d="M369.779,228.315v-2.256h-2.722v-0.655l2.659-5.281h0.945v5.143h0.895v0.794h-0.895v2.256H369.779z M369.779,225.265
		v-2.319c0-0.567,0.038-1.071,0.076-1.613h-0.051c-0.277,0.655-0.454,1.046-0.693,1.55l-1.134,2.357v0.025H369.779z"/>
</g>
<g enable-background="new    ">
	<path d="M487.088,240.963c0.252,0.151,0.693,0.34,1.185,0.34c0.845,0,1.412-0.617,1.412-1.639c0-1.071-0.668-1.688-1.651-1.688
		h-0.227v-0.731h0.188c0.58-0.012,1.475-0.453,1.475-1.462c0-0.819-0.44-1.26-1.084-1.26c-0.403,0-0.756,0.201-1.021,0.391
		l-0.214-0.731c0.302-0.239,0.856-0.466,1.475-0.466c1.159,0,1.814,0.832,1.814,1.891c0,0.819-0.429,1.537-1.223,1.915v0.025
		c0.731,0.202,1.437,0.857,1.437,2.143c0,1.336-0.856,2.42-2.344,2.42c-0.529,0-1.109-0.151-1.437-0.378L487.088,240.963z"/>
	<path d="M493.741,234.8h-0.025l-1.361,0.781l-0.188-0.757l1.727-1.008h0.807v8.192h-0.958V234.8z"/>
	<path d="M500.634,233.817v0.58l-2.646,7.612h-0.945l2.596-7.311v-0.024h-2.949v-0.857H500.634z"/>
</g>
<g enable-background="new    ">
	<path d="M523.81,240.963c0.252,0.151,0.692,0.34,1.185,0.34c0.844,0,1.412-0.617,1.412-1.639c0-1.071-0.668-1.688-1.651-1.688
		h-0.228v-0.731h0.189c0.58-0.012,1.475-0.453,1.475-1.462c0-0.819-0.441-1.26-1.084-1.26c-0.403,0-0.756,0.201-1.021,0.391
		l-0.213-0.731c0.302-0.239,0.856-0.466,1.475-0.466c1.158,0,1.814,0.832,1.814,1.891c0,0.819-0.429,1.537-1.223,1.915v0.025
		c0.73,0.202,1.437,0.857,1.437,2.143c0,1.336-0.856,2.42-2.345,2.42c-0.529,0-1.108-0.151-1.436-0.378L523.81,240.963z"/>
	<path d="M530.463,234.8h-0.025l-1.361,0.781l-0.189-0.757l1.728-1.008h0.807v8.192h-0.958V234.8z"/>
	<path d="M537.141,234.674h-2.205l-0.341,2.18c0.101-0.024,0.189-0.024,0.303-0.024c0.44,0,1.122,0.188,1.563,0.617
		c0.428,0.429,0.68,1.033,0.68,1.865c0,1.626-1.021,2.798-2.482,2.798c-0.492,0-1.059-0.139-1.387-0.353l0.215-0.781
		c0.252,0.151,0.693,0.327,1.146,0.327c0.832,0,1.551-0.643,1.551-1.891c0-1.298-0.795-1.84-1.854-1.84
		c-0.303,0-0.491,0.013-0.643,0.038l0.517-3.794h2.937V234.674z"/>
</g>
<g enable-background="new    ">
	<path d="M559.087,243.682c0.151-0.252,0.34-0.693,0.34-1.185c0-0.844-0.617-1.412-1.639-1.412c-1.071,0-1.688,0.668-1.688,1.651
		v0.227h-0.731v-0.189c-0.012-0.58-0.453-1.475-1.462-1.475c-0.819,0-1.26,0.441-1.26,1.084c0,0.403,0.201,0.756,0.391,1.021
		l-0.731,0.214c-0.239-0.302-0.466-0.857-0.466-1.475c0-1.159,0.832-1.815,1.891-1.815c0.819,0,1.537,0.429,1.915,1.223h0.025
		c0.202-0.731,0.857-1.437,2.143-1.437c1.336,0,2.42,0.857,2.42,2.344c0,0.529-0.151,1.109-0.378,1.437L559.087,243.682z"/>
	<path d="M552.924,237.028v0.025l0.781,1.361l-0.757,0.189l-1.008-1.727v-0.807h8.192v0.958H552.924z"/>
	<path d="M560.133,231.598h-2.256v2.722h-0.655l-5.281-2.659v-0.945h5.143v-0.895h0.794v0.895h2.256V231.598z M557.083,231.598
		h-2.319c-0.567,0-1.071-0.038-1.613-0.076v0.05c0.655,0.277,1.046,0.454,1.55,0.693l2.357,1.134h0.025V231.598z"/>
</g>
<g enable-background="new    ">
	<path d="M576.203,243.678c0.151-0.252,0.34-0.693,0.34-1.185c0-0.844-0.617-1.412-1.639-1.412c-1.071,0-1.688,0.668-1.688,1.651
		v0.227h-0.731v-0.189c-0.012-0.58-0.453-1.475-1.462-1.475c-0.819,0-1.26,0.441-1.26,1.084c0,0.403,0.201,0.756,0.391,1.021
		l-0.731,0.214c-0.239-0.302-0.466-0.857-0.466-1.475c0-1.159,0.832-1.815,1.891-1.815c0.819,0,1.537,0.429,1.915,1.223h0.025
		c0.202-0.731,0.857-1.437,2.143-1.437c1.336,0,2.42,0.857,2.42,2.344c0,0.529-0.151,1.109-0.378,1.437L576.203,243.678z"/>
	<path d="M570.04,237.024v0.025l0.781,1.361l-0.757,0.189l-1.008-1.727v-0.807h8.192v0.958H570.04z"/>
	<path d="M576.203,233.976c0.151-0.252,0.34-0.693,0.34-1.185c0-0.844-0.617-1.412-1.639-1.412c-1.071,0-1.688,0.668-1.688,1.651
		v0.227h-0.731v-0.189c-0.012-0.58-0.453-1.475-1.462-1.475c-0.819,0-1.26,0.441-1.26,1.084c0,0.403,0.201,0.756,0.391,1.021
		l-0.731,0.214c-0.239-0.302-0.466-0.857-0.466-1.475c0-1.159,0.832-1.815,1.891-1.815c0.819,0,1.537,0.429,1.915,1.223h0.025
		c0.202-0.731,0.857-1.437,2.143-1.437c1.336,0,2.42,0.857,2.42,2.345c0,0.529-0.151,1.109-0.378,1.437L576.203,233.976z"/>
</g>
<g enable-background="new    ">
	<path d="M585.744,240.963c0.252,0.151,0.693,0.34,1.185,0.34c0.845,0,1.412-0.617,1.412-1.639c0-1.071-0.668-1.688-1.651-1.688
		h-0.227v-0.731h0.188c0.58-0.012,1.475-0.453,1.475-1.462c0-0.819-0.44-1.26-1.084-1.26c-0.403,0-0.756,0.201-1.021,0.391
		l-0.214-0.731c0.302-0.239,0.856-0.466,1.475-0.466c1.159,0,1.814,0.832,1.814,1.891c0,0.819-0.429,1.537-1.223,1.915v0.025
		c0.731,0.202,1.437,0.857,1.437,2.143c0,1.336-0.856,2.42-2.344,2.42c-0.529,0-1.109-0.151-1.437-0.378L585.744,240.963z"/>
	<path d="M592.397,234.8h-0.025l-1.361,0.781l-0.188-0.757l1.727-1.008h0.807v8.192h-0.958V234.8z"/>
	<path d="M595.282,242.009v-0.63l0.693-0.945c0.97-1.349,2.13-2.887,2.13-4.424c0-0.908-0.403-1.462-1.173-1.462
		c-0.592,0-0.97,0.314-1.185,0.453l-0.239-0.73c0.29-0.24,0.857-0.555,1.601-0.555c1.361,0,1.954,1.008,1.954,2.243
		c0,1.538-1.009,3.024-2.017,4.411l-0.555,0.757v0.024h2.734v0.857H595.282z"/>
</g>
<g enable-background="new    ">
	<path d="M578.273,290.446c0.252,0.151,0.693,0.34,1.185,0.34c0.845,0,1.412-0.617,1.412-1.639c0-1.071-0.668-1.688-1.651-1.688
		h-0.227v-0.731h0.188c0.58-0.012,1.475-0.453,1.475-1.462c0-0.819-0.44-1.26-1.084-1.26c-0.403,0-0.756,0.201-1.021,0.391
		l-0.214-0.731c0.302-0.239,0.856-0.466,1.475-0.466c1.159,0,1.814,0.832,1.814,1.891c0,0.819-0.429,1.537-1.223,1.915v0.025
		c0.731,0.202,1.437,0.857,1.437,2.143c0,1.336-0.856,2.42-2.344,2.42c-0.529,0-1.109-0.151-1.437-0.378L578.273,290.446z"/>
	<path d="M584.927,284.283h-0.025l-1.361,0.781l-0.188-0.757l1.727-1.008h0.807v8.192h-0.958V284.283z"/>
	<path d="M589.777,284.283h-0.025l-1.361,0.781l-0.188-0.757l1.727-1.008h0.807v8.192h-0.958V284.283z"/>
</g>
<g enable-background="new    ">
	<path d="M578.273,332.772c0.252,0.151,0.693,0.34,1.185,0.34c0.845,0,1.412-0.617,1.412-1.639c0-1.071-0.668-1.688-1.651-1.688
		h-0.227v-0.731h0.188c0.58-0.012,1.475-0.453,1.475-1.462c0-0.819-0.44-1.26-1.084-1.26c-0.403,0-0.756,0.201-1.021,0.391
		l-0.214-0.731c0.302-0.239,0.856-0.466,1.475-0.466c1.159,0,1.814,0.832,1.814,1.891c0,0.819-0.429,1.537-1.223,1.915v0.025
		c0.731,0.202,1.437,0.857,1.437,2.143c0,1.336-0.856,2.42-2.344,2.42c-0.529,0-1.109-0.151-1.437-0.378L578.273,332.772z"/>
	<path d="M584.927,326.609h-0.025l-1.361,0.781l-0.188-0.757l1.727-1.008h0.807v8.192h-0.958V326.609z"/>
	<path d="M591.92,329.71c0,2.986-0.945,4.209-2.13,4.209c-1.273,0-2.042-1.513-2.042-4.185c0-2.76,0.819-4.209,2.155-4.209
		C591.227,325.525,591.92,327.101,591.92,329.71z M588.719,329.722c0,1.979,0.34,3.365,1.146,3.365c0.77,0,1.084-1.398,1.084-3.365
		c0-1.915-0.314-3.364-1.096-3.364C589.071,326.357,588.719,327.756,588.719,329.722z"/>
</g>
<g enable-background="new    ">
	<path d="M578.273,375.099c0.252,0.151,0.693,0.34,1.185,0.34c0.845,0,1.412-0.617,1.412-1.639c0-1.071-0.668-1.688-1.651-1.688
		h-0.227v-0.731h0.188c0.58-0.012,1.475-0.453,1.475-1.462c0-0.819-0.44-1.26-1.084-1.26c-0.403,0-0.756,0.201-1.021,0.391
		l-0.214-0.731c0.302-0.239,0.856-0.466,1.475-0.466c1.159,0,1.814,0.832,1.814,1.891c0,0.819-0.429,1.537-1.223,1.915v0.025
		c0.731,0.202,1.437,0.857,1.437,2.143c0,1.336-0.856,2.42-2.344,2.42c-0.529,0-1.109-0.151-1.437-0.378L578.273,375.099z"/>
	<path d="M587.069,372.036c0,2.986-0.945,4.209-2.13,4.209c-1.273,0-2.042-1.513-2.042-4.185c0-2.76,0.819-4.209,2.155-4.209
		C586.376,367.852,587.069,369.427,587.069,372.036z M583.868,372.048c0,1.979,0.34,3.365,1.146,3.365
		c0.77,0,1.084-1.398,1.084-3.365c0-1.915-0.314-3.364-1.096-3.364C584.221,368.684,583.868,370.082,583.868,372.048z"/>
	<path d="M588.252,375.413c0.215,0,0.392-0.024,0.605-0.075c0.416-0.101,0.819-0.328,1.122-0.643
		c0.453-0.504,0.819-1.248,0.957-2.332h-0.037c-0.303,0.391-0.731,0.693-1.323,0.693c-1.021,0-1.79-0.945-1.79-2.433
		c0-1.5,0.807-2.772,2.067-2.772c1.398,0,2.054,1.475,2.054,3.289c0,1.613-0.403,2.887-1.084,3.794
		c-0.479,0.655-1.172,1.084-1.891,1.248c-0.265,0.05-0.479,0.062-0.681,0.062V375.413z M588.744,370.536
		c0,1.21,0.453,1.789,1.109,1.789c0.403,0,0.807-0.277,1.008-0.73c0.051-0.139,0.075-0.252,0.075-0.529
		c0-1.714-0.491-2.458-1.134-2.458C589.312,368.607,588.744,369.137,588.744,370.536z"/>
</g>
<g enable-background="new    ">
	<path d="M522.255,375.099c0.252,0.151,0.693,0.34,1.185,0.34c0.845,0,1.412-0.617,1.412-1.639c0-1.071-0.668-1.688-1.651-1.688
		h-0.227v-0.731h0.188c0.58-0.012,1.475-0.453,1.475-1.462c0-0.819-0.44-1.26-1.084-1.26c-0.403,0-0.756,0.201-1.021,0.391
		l-0.214-0.731c0.302-0.239,0.856-0.466,1.475-0.466c1.159,0,1.814,0.832,1.814,1.891c0,0.819-0.429,1.537-1.223,1.915v0.025
		c0.731,0.202,1.437,0.857,1.437,2.143c0,1.336-0.856,2.42-2.344,2.42c-0.529,0-1.109-0.151-1.437-0.378L522.255,375.099z"/>
	<path d="M531.051,372.036c0,2.986-0.945,4.209-2.13,4.209c-1.273,0-2.042-1.513-2.042-4.185c0-2.76,0.819-4.209,2.155-4.209
		C530.357,367.852,531.051,369.427,531.051,372.036z M527.85,372.048c0,1.979,0.34,3.365,1.146,3.365
		c0.77,0,1.084-1.398,1.084-3.365c0-1.915-0.314-3.364-1.096-3.364C528.202,368.684,527.85,370.082,527.85,372.048z"/>
	<path d="M535.41,368.671c-0.164,0.013-0.341,0.037-0.58,0.088c-1.361,0.327-1.903,1.688-2.104,2.949h0.038
		c0.314-0.467,0.769-0.781,1.386-0.781c1.046,0,1.765,0.958,1.765,2.521c0,1.551-0.706,2.798-2.017,2.798
		c-1.424,0-2.143-1.449-2.143-3.327c0-1.588,0.416-2.823,1.059-3.693c0.491-0.692,1.273-1.146,1.979-1.298
		c0.265-0.05,0.479-0.062,0.618-0.075V368.671z M534.943,373.523c0-1.235-0.429-1.854-1.097-1.854c-0.403,0-0.818,0.277-1.059,0.883
		c-0.037,0.088-0.075,0.252-0.075,0.491c0.013,1.677,0.529,2.445,1.185,2.445C534.452,375.489,534.943,374.947,534.943,373.523z"/>
</g>
<g enable-background="new    ">
	<path d="M522.255,306.008c0.252,0.151,0.693,0.34,1.185,0.34c0.845,0,1.412-0.617,1.412-1.639c0-1.071-0.668-1.688-1.651-1.688
		h-0.227v-0.731h0.188c0.58-0.012,1.475-0.453,1.475-1.462c0-0.819-0.44-1.26-1.084-1.26c-0.403,0-0.756,0.201-1.021,0.391
		l-0.214-0.731c0.302-0.239,0.856-0.466,1.475-0.466c1.159,0,1.814,0.832,1.814,1.891c0,0.819-0.429,1.537-1.223,1.915v0.025
		c0.731,0.202,1.437,0.857,1.437,2.143c0,1.336-0.856,2.419-2.344,2.419c-0.529,0-1.109-0.15-1.437-0.377L522.255,306.008z"/>
	<path d="M531.051,302.946c0,2.986-0.945,4.208-2.13,4.208c-1.273,0-2.042-1.512-2.042-4.184c0-2.76,0.819-4.209,2.155-4.209
		C530.357,298.761,531.051,300.336,531.051,302.946z M527.85,302.958c0,1.979,0.34,3.365,1.146,3.365
		c0.77,0,1.084-1.398,1.084-3.365c0-1.915-0.314-3.364-1.096-3.364C528.202,299.593,527.85,300.992,527.85,302.958z"/>
	<path d="M531.957,306.008c0.252,0.151,0.692,0.34,1.185,0.34c0.844,0,1.411-0.617,1.411-1.639c0-1.071-0.668-1.688-1.651-1.688
		h-0.227v-0.731h0.189c0.579-0.012,1.475-0.453,1.475-1.462c0-0.819-0.441-1.26-1.084-1.26c-0.403,0-0.757,0.201-1.021,0.391
		l-0.214-0.731c0.303-0.239,0.857-0.466,1.475-0.466c1.159,0,1.815,0.832,1.815,1.891c0,0.819-0.429,1.537-1.223,1.915v0.025
		c0.73,0.202,1.437,0.857,1.437,2.143c0,1.336-0.857,2.419-2.345,2.419c-0.529,0-1.108-0.15-1.437-0.377L531.957,306.008z"/>
</g>
<g enable-background="new    ">
	<path d="M578.273,415.244c0.252,0.151,0.693,0.34,1.185,0.34c0.845,0,1.412-0.617,1.412-1.639c0-1.071-0.668-1.688-1.651-1.688
		h-0.227v-0.731h0.188c0.58-0.012,1.475-0.453,1.475-1.462c0-0.819-0.44-1.26-1.084-1.26c-0.403,0-0.756,0.201-1.021,0.391
		l-0.214-0.731c0.302-0.239,0.856-0.466,1.475-0.466c1.159,0,1.814,0.832,1.814,1.891c0,0.819-0.429,1.537-1.223,1.915v0.025
		c0.731,0.202,1.437,0.857,1.437,2.143c0,1.336-0.856,2.42-2.344,2.42c-0.529,0-1.109-0.151-1.437-0.378L578.273,415.244z"/>
	<path d="M587.069,412.182c0,2.986-0.945,4.209-2.13,4.209c-1.273,0-2.042-1.513-2.042-4.185c0-2.76,0.819-4.209,2.155-4.209
		C586.376,407.997,587.069,409.572,587.069,412.182z M583.868,412.193c0,1.979,0.34,3.365,1.146,3.365
		c0.77,0,1.084-1.398,1.084-3.365c0-1.915-0.314-3.364-1.096-3.364C584.221,408.829,583.868,410.228,583.868,412.193z"/>
	<path d="M587.761,414.286c0-1.147,0.681-1.878,1.349-2.345l-0.013-0.024c-0.681-0.467-1.071-1.186-1.071-1.879
		c0-1.26,0.895-2.041,1.916-2.041c1.172,0,1.752,0.982,1.752,1.928c0,0.719-0.341,1.412-1.097,1.929v0.038
		c0.756,0.504,1.311,1.247,1.311,2.23c0,1.273-0.844,2.269-2.104,2.269C588.441,416.391,587.761,415.307,587.761,414.286z
		 M590.949,414.186c0-0.945-0.542-1.475-1.172-1.891c-0.655,0.403-1.059,1.108-1.059,1.827c0,0.92,0.416,1.551,1.122,1.551
		C590.445,415.673,590.949,415.206,590.949,414.186z M588.958,409.976c0,0.832,0.504,1.248,1.009,1.575
		c0.491-0.353,0.819-0.895,0.819-1.513c0-0.794-0.328-1.323-0.921-1.323C589.323,408.715,588.958,409.231,588.958,409.976z"/>
</g>
<g enable-background="new    ">
	<path d="M522.255,415.244c0.252,0.151,0.693,0.34,1.185,0.34c0.845,0,1.412-0.617,1.412-1.639c0-1.071-0.668-1.688-1.651-1.688
		h-0.227v-0.731h0.188c0.58-0.012,1.475-0.453,1.475-1.462c0-0.819-0.44-1.26-1.084-1.26c-0.403,0-0.756,0.201-1.021,0.391
		l-0.214-0.731c0.302-0.239,0.856-0.466,1.475-0.466c1.159,0,1.814,0.832,1.814,1.891c0,0.819-0.429,1.537-1.223,1.915v0.025
		c0.731,0.202,1.437,0.857,1.437,2.143c0,1.336-0.856,2.42-2.344,2.42c-0.529,0-1.109-0.151-1.437-0.378L522.255,415.244z"/>
	<path d="M531.051,412.182c0,2.986-0.945,4.209-2.13,4.209c-1.273,0-2.042-1.513-2.042-4.185c0-2.76,0.819-4.209,2.155-4.209
		C530.357,407.997,531.051,409.572,531.051,412.182z M527.85,412.193c0,1.979,0.34,3.365,1.146,3.365
		c0.77,0,1.084-1.398,1.084-3.365c0-1.915-0.314-3.364-1.096-3.364C528.202,408.829,527.85,410.228,527.85,412.193z"/>
	<path d="M535.801,408.098v0.58l-2.646,7.612h-0.945l2.596-7.311v-0.024h-2.949v-0.857H535.801z"/>
</g>
<g enable-background="new    ">
	<path d="M350.778,285.58l-1.639-8.495h1.009l0.719,4.097c0.176,1.071,0.314,2.017,0.415,3.062h0.051
		c0.101-1.071,0.303-1.991,0.504-3.075l0.781-4.084h0.832l0.781,3.995c0.189,1.009,0.379,1.979,0.492,3.164h0.038
		c0.139-1.223,0.289-2.143,0.453-3.113l0.706-4.046h0.945l-1.651,8.495h-0.945l-0.819-4.134c-0.163-0.896-0.327-1.853-0.429-2.786
		h-0.024c-0.126,0.958-0.265,1.879-0.467,2.823l-0.845,4.097H350.778z"/>
	<path d="M357.695,284.534c0.252,0.151,0.693,0.34,1.185,0.34c0.845,0,1.412-0.617,1.412-1.639c0-1.071-0.668-1.688-1.651-1.688
		h-0.227v-0.731h0.188c0.58-0.012,1.475-0.453,1.475-1.462c0-0.819-0.44-1.26-1.084-1.26c-0.403,0-0.756,0.201-1.021,0.391
		l-0.214-0.731c0.302-0.239,0.856-0.466,1.475-0.466c1.159,0,1.814,0.832,1.814,1.891c0,0.819-0.429,1.537-1.223,1.915v0.025
		c0.731,0.202,1.437,0.857,1.437,2.143c0,1.336-0.856,2.42-2.344,2.42c-0.529,0-1.109-0.151-1.437-0.378L357.695,284.534z"/>
	<path d="M366.491,281.471c0,2.986-0.945,4.209-2.13,4.209c-1.273,0-2.042-1.513-2.042-4.185c0-2.76,0.819-4.209,2.155-4.209
		C365.798,277.287,366.491,278.862,366.491,281.471z M363.29,281.483c0,1.979,0.34,3.365,1.146,3.365
		c0.77,0,1.084-1.398,1.084-3.365c0-1.915-0.314-3.364-1.096-3.364C363.643,278.119,363.29,279.517,363.29,281.483z"/>
	<path d="M367.233,285.58v-0.63l0.693-0.945c0.971-1.349,2.13-2.887,2.13-4.424c0-0.908-0.403-1.462-1.172-1.462
		c-0.593,0-0.971,0.314-1.185,0.453l-0.239-0.73c0.289-0.24,0.856-0.555,1.601-0.555c1.361,0,1.953,1.008,1.953,2.243
		c0,1.538-1.008,3.024-2.017,4.411l-0.555,0.757v0.024h2.735v0.857H367.233z"/>
</g>
<g enable-background="new    ">
	<path d="M350.778,320.125l-1.639-8.494h1.009l0.719,4.096c0.176,1.072,0.314,2.018,0.415,3.062h0.051
		c0.101-1.07,0.303-1.99,0.504-3.074l0.781-4.084h0.832l0.781,3.994c0.189,1.01,0.379,1.98,0.492,3.164h0.038
		c0.139-1.223,0.289-2.143,0.453-3.113l0.706-4.045h0.945l-1.651,8.494h-0.945l-0.819-4.133c-0.163-0.896-0.327-1.854-0.429-2.787
		h-0.024c-0.126,0.959-0.265,1.879-0.467,2.824l-0.845,4.096H350.778z"/>
	<path d="M357.695,319.08c0.252,0.15,0.693,0.34,1.185,0.34c0.845,0,1.412-0.617,1.412-1.639c0-1.072-0.668-1.689-1.651-1.689
		h-0.227v-0.73h0.188c0.58-0.012,1.475-0.453,1.475-1.463c0-0.818-0.44-1.26-1.084-1.26c-0.403,0-0.756,0.201-1.021,0.391
		l-0.214-0.73c0.302-0.24,0.856-0.467,1.475-0.467c1.159,0,1.814,0.832,1.814,1.891c0,0.82-0.429,1.537-1.223,1.916v0.025
		c0.731,0.201,1.437,0.857,1.437,2.143c0,1.336-0.856,2.42-2.344,2.42c-0.529,0-1.109-0.152-1.437-0.379L357.695,319.08z"/>
	<path d="M366.491,316.018c0,2.986-0.945,4.209-2.13,4.209c-1.273,0-2.042-1.514-2.042-4.186c0-2.76,0.819-4.209,2.155-4.209
		C365.798,311.832,366.491,313.408,366.491,316.018z M363.29,316.029c0,1.979,0.34,3.365,1.146,3.365
		c0.77,0,1.084-1.398,1.084-3.365c0-1.916-0.314-3.365-1.096-3.365C363.643,312.664,363.29,314.062,363.29,316.029z"/>
	<path d="M369.2,312.916h-0.025l-1.361,0.781l-0.189-0.756l1.727-1.008h0.807v8.191H369.2V312.916z"/>
</g>
<g enable-background="new    ">
	<path d="M356.069,369.919l-1.639-8.495h1.009l0.719,4.097c0.176,1.071,0.314,2.017,0.415,3.062h0.051
		c0.101-1.071,0.303-1.991,0.504-3.075l0.781-4.084h0.832l0.781,3.995c0.189,1.009,0.379,1.979,0.492,3.164h0.038
		c0.139-1.223,0.289-2.143,0.453-3.113l0.706-4.046h0.945l-1.651,8.495h-0.945l-0.819-4.134c-0.163-0.896-0.327-1.853-0.429-2.786
		h-0.024c-0.126,0.958-0.265,1.879-0.467,2.823l-0.845,4.097H356.069z"/>
	<path d="M362.986,368.873c0.252,0.151,0.693,0.34,1.185,0.34c0.845,0,1.412-0.617,1.412-1.639c0-1.071-0.668-1.688-1.651-1.688
		h-0.227v-0.731h0.188c0.58-0.012,1.475-0.453,1.475-1.462c0-0.819-0.44-1.26-1.084-1.26c-0.403,0-0.756,0.201-1.021,0.391
		l-0.214-0.731c0.302-0.239,0.856-0.466,1.475-0.466c1.159,0,1.814,0.832,1.814,1.891c0,0.819-0.429,1.537-1.223,1.915v0.025
		c0.731,0.202,1.437,0.857,1.437,2.143c0,1.336-0.856,2.42-2.344,2.42c-0.529,0-1.109-0.151-1.437-0.378L362.986,368.873z"/>
	<path d="M367.674,369.919v-0.63l0.693-0.945c0.97-1.349,2.13-2.887,2.13-4.424c0-0.908-0.403-1.462-1.173-1.462
		c-0.592,0-0.97,0.314-1.185,0.453l-0.239-0.73c0.29-0.24,0.857-0.555,1.601-0.555c1.361,0,1.954,1.008,1.954,2.243
		c0,1.538-1.009,3.024-2.017,4.411l-0.555,0.757v0.024h2.734v0.857H367.674z"/>
	<path d="M372.524,369.919v-0.63l0.693-0.945c0.971-1.349,2.13-2.887,2.13-4.424c0-0.908-0.403-1.462-1.172-1.462
		c-0.593,0-0.971,0.314-1.185,0.453l-0.239-0.73c0.289-0.24,0.856-0.555,1.601-0.555c1.361,0,1.953,1.008,1.953,2.243
		c0,1.538-1.008,3.024-2.017,4.411l-0.555,0.757v0.024h2.735v0.857H372.524z"/>
</g>
<g enable-background="new    ">
	<path d="M314.363,369.919l-1.639-8.495h1.009l0.719,4.097c0.176,1.071,0.314,2.017,0.415,3.062h0.051
		c0.101-1.071,0.303-1.991,0.504-3.075l0.781-4.084h0.832l0.781,3.995c0.189,1.009,0.379,1.979,0.492,3.164h0.038
		c0.139-1.223,0.289-2.143,0.453-3.113l0.706-4.046h0.945l-1.651,8.495h-0.945l-0.819-4.134c-0.163-0.896-0.327-1.853-0.429-2.786
		h-0.024c-0.126,0.958-0.265,1.879-0.467,2.823l-0.845,4.097H314.363z"/>
	<path d="M321.28,368.873c0.252,0.151,0.693,0.34,1.185,0.34c0.845,0,1.412-0.617,1.412-1.639c0-1.071-0.668-1.688-1.651-1.688
		h-0.227v-0.731h0.188c0.58-0.012,1.475-0.453,1.475-1.462c0-0.819-0.44-1.26-1.084-1.26c-0.403,0-0.756,0.201-1.021,0.391
		l-0.214-0.731c0.302-0.239,0.856-0.466,1.475-0.466c1.159,0,1.814,0.832,1.814,1.891c0,0.819-0.429,1.537-1.223,1.915v0.025
		c0.731,0.202,1.437,0.857,1.437,2.143c0,1.336-0.856,2.42-2.344,2.42c-0.529,0-1.109-0.151-1.437-0.378L321.28,368.873z"/>
	<path d="M325.968,369.919v-0.63l0.693-0.945c0.97-1.349,2.13-2.887,2.13-4.424c0-0.908-0.403-1.462-1.173-1.462
		c-0.592,0-0.97,0.314-1.185,0.453l-0.239-0.73c0.29-0.24,0.857-0.555,1.601-0.555c1.361,0,1.954,1.008,1.954,2.243
		c0,1.538-1.009,3.024-2.017,4.411l-0.555,0.757v0.024h2.734v0.857H325.968z"/>
	<path d="M332.785,362.71h-0.025l-1.361,0.781l-0.189-0.757l1.727-1.008h0.807v8.192h-0.957V362.71z"/>
</g>
<g enable-background="new    ">
	<path d="M274.839,369.919l-1.639-8.495h1.008l0.719,4.097c0.176,1.071,0.315,2.017,0.416,3.062h0.051
		c0.101-1.071,0.302-1.991,0.504-3.075l0.781-4.084h0.832l0.781,3.995c0.189,1.009,0.378,1.979,0.492,3.164h0.038
		c0.139-1.223,0.29-2.143,0.454-3.113l0.706-4.046h0.945l-1.651,8.495h-0.945l-0.819-4.134c-0.164-0.896-0.328-1.853-0.429-2.786
		h-0.025c-0.126,0.958-0.265,1.879-0.466,2.823l-0.845,4.097H274.839z"/>
	<path d="M281.756,368.873c0.252,0.151,0.693,0.34,1.185,0.34c0.844,0,1.412-0.617,1.412-1.639c0-1.071-0.668-1.688-1.651-1.688
		h-0.227v-0.731h0.189c0.58-0.012,1.475-0.453,1.475-1.462c0-0.819-0.441-1.26-1.084-1.26c-0.403,0-0.756,0.201-1.021,0.391
		l-0.214-0.731c0.302-0.239,0.857-0.466,1.475-0.466c1.159,0,1.815,0.832,1.815,1.891c0,0.819-0.429,1.537-1.223,1.915v0.025
		c0.731,0.202,1.437,0.857,1.437,2.143c0,1.336-0.857,2.42-2.344,2.42c-0.529,0-1.109-0.151-1.437-0.378L281.756,368.873z"/>
	<path d="M286.443,369.919v-0.63l0.693-0.945c0.97-1.349,2.13-2.887,2.13-4.424c0-0.908-0.403-1.462-1.172-1.462
		c-0.592,0-0.97,0.314-1.185,0.453l-0.239-0.73c0.29-0.24,0.857-0.555,1.601-0.555c1.361,0,1.954,1.008,1.954,2.243
		c0,1.538-1.008,3.024-2.017,4.411l-0.555,0.757v0.024h2.735v0.857H286.443z"/>
	<path d="M295.403,365.811c0,2.986-0.945,4.209-2.13,4.209c-1.273,0-2.042-1.513-2.042-4.185c0-2.76,0.819-4.209,2.155-4.209
		C294.709,361.626,295.403,363.201,295.403,365.811z M292.201,365.822c0,1.979,0.34,3.365,1.147,3.365
		c0.769,0,1.084-1.398,1.084-3.365c0-1.915-0.315-3.364-1.096-3.364C292.554,362.458,292.201,363.856,292.201,365.822z"/>
</g>
<g enable-background="new    ">
	<path d="M104.047,369.919l-1.639-8.495h1.008l0.719,4.097c0.176,1.071,0.315,2.017,0.416,3.062h0.051
		c0.101-1.071,0.302-1.991,0.504-3.075l0.781-4.084h0.832l0.781,3.995c0.189,1.009,0.378,1.979,0.492,3.164h0.038
		c0.139-1.223,0.29-2.143,0.454-3.113l0.706-4.046h0.945l-1.651,8.495h-0.945l-0.819-4.134c-0.164-0.896-0.328-1.853-0.429-2.786
		h-0.025c-0.126,0.958-0.265,1.879-0.466,2.823l-0.845,4.097H104.047z"/>
	<path d="M110.964,368.873c0.252,0.151,0.693,0.34,1.185,0.34c0.844,0,1.412-0.617,1.412-1.639c0-1.071-0.668-1.688-1.651-1.688
		h-0.227v-0.731h0.189c0.58-0.012,1.475-0.453,1.475-1.462c0-0.819-0.441-1.26-1.084-1.26c-0.403,0-0.756,0.201-1.021,0.391
		l-0.214-0.731c0.302-0.239,0.857-0.466,1.475-0.466c1.159,0,1.815,0.832,1.815,1.891c0,0.819-0.429,1.537-1.223,1.915v0.025
		c0.731,0.202,1.437,0.857,1.437,2.143c0,1.336-0.857,2.42-2.344,2.42c-0.529,0-1.109-0.151-1.437-0.378L110.964,368.873z"/>
	<path d="M117.617,362.71h-0.025l-1.361,0.781l-0.189-0.757l1.727-1.008h0.807v8.192h-0.958V362.71z"/>
	<path d="M124.119,362.445c-0.164,0.013-0.34,0.037-0.58,0.088c-1.361,0.327-1.903,1.688-2.105,2.949h0.038
		c0.315-0.467,0.769-0.781,1.386-0.781c1.046,0,1.765,0.958,1.765,2.521c0,1.551-0.706,2.798-2.017,2.798
		c-1.424,0-2.143-1.449-2.143-3.327c0-1.588,0.416-2.823,1.059-3.693c0.492-0.692,1.273-1.146,1.979-1.298
		c0.265-0.05,0.479-0.062,0.618-0.075V362.445z M123.653,367.298c0-1.235-0.428-1.854-1.097-1.854c-0.403,0-0.819,0.277-1.059,0.883
		c-0.038,0.088-0.076,0.252-0.076,0.491c0.013,1.677,0.529,2.445,1.185,2.445C123.161,369.264,123.653,368.722,123.653,367.298z"/>
</g>
<g enable-background="new    ">
	<path d="M21.263,369.919l-1.639-8.495h1.008l0.719,4.097c0.176,1.071,0.315,2.017,0.416,3.062h0.051
		c0.101-1.071,0.302-1.991,0.504-3.075l0.781-4.084h0.832l0.781,3.995c0.189,1.009,0.378,1.979,0.492,3.164h0.038
		c0.139-1.223,0.29-2.143,0.454-3.113l0.706-4.046h0.945l-1.651,8.495h-0.945l-0.819-4.134c-0.164-0.896-0.328-1.853-0.429-2.786
		h-0.025c-0.126,0.958-0.265,1.879-0.466,2.823l-0.845,4.097H21.263z"/>
	<path d="M28.18,368.873c0.252,0.151,0.693,0.34,1.185,0.34c0.844,0,1.412-0.617,1.412-1.639c0-1.071-0.668-1.688-1.651-1.688
		h-0.227v-0.731h0.189c0.58-0.012,1.475-0.453,1.475-1.462c0-0.819-0.441-1.26-1.084-1.26c-0.403,0-0.756,0.201-1.021,0.391
		l-0.214-0.731c0.302-0.239,0.857-0.466,1.475-0.466c1.159,0,1.815,0.832,1.815,1.891c0,0.819-0.429,1.537-1.223,1.915v0.025
		c0.731,0.202,1.437,0.857,1.437,2.143c0,1.336-0.857,2.42-2.344,2.42c-0.529,0-1.109-0.151-1.437-0.378L28.18,368.873z"/>
	<path d="M34.833,362.71h-0.025l-1.361,0.781l-0.189-0.757l1.727-1.008h0.807v8.192h-0.958V362.71z"/>
	<path d="M40.264,369.919v-2.256h-2.722v-0.655l2.659-5.281h0.945v5.143h0.895v0.794h-0.895v2.256H40.264z M40.264,366.869v-2.319
		c0-0.567,0.038-1.071,0.076-1.613h-0.05c-0.277,0.655-0.454,1.046-0.693,1.55l-1.134,2.357v0.025H40.264z"/>
</g>
<g enable-background="new    ">
	<path d="M21.263,317.946l-1.639-8.495h1.008l0.719,4.097c0.176,1.071,0.315,2.017,0.416,3.062h0.051
		c0.101-1.071,0.302-1.991,0.504-3.075l0.781-4.084h0.832l0.781,3.995c0.189,1.009,0.378,1.979,0.492,3.164h0.038
		c0.139-1.223,0.29-2.143,0.454-3.113l0.706-4.046h0.945l-1.651,8.495h-0.945l-0.819-4.134c-0.164-0.896-0.328-1.853-0.429-2.786
		h-0.025c-0.126,0.958-0.265,1.879-0.466,2.823l-0.845,4.097H21.263z"/>
	<path d="M28.18,316.9c0.252,0.151,0.693,0.34,1.185,0.34c0.844,0,1.412-0.617,1.412-1.639c0-1.071-0.668-1.688-1.651-1.688h-0.227
		v-0.731h0.189c0.58-0.012,1.475-0.453,1.475-1.462c0-0.819-0.441-1.26-1.084-1.26c-0.403,0-0.756,0.201-1.021,0.391l-0.214-0.731
		c0.302-0.239,0.857-0.466,1.475-0.466c1.159,0,1.815,0.832,1.815,1.891c0,0.819-0.429,1.537-1.223,1.915v0.025
		c0.731,0.202,1.437,0.857,1.437,2.143c0,1.336-0.857,2.42-2.344,2.42c-0.529,0-1.109-0.151-1.437-0.378L28.18,316.9z"/>
	<path d="M34.833,310.737h-0.025l-1.361,0.781l-0.189-0.757l1.727-1.008h0.807v8.192h-0.958V310.737z"/>
	<path d="M37.882,316.9c0.252,0.151,0.693,0.34,1.185,0.34c0.844,0,1.412-0.617,1.412-1.639c0-1.071-0.668-1.688-1.651-1.688H38.6
		v-0.731h0.189c0.58-0.012,1.475-0.453,1.475-1.462c0-0.819-0.441-1.26-1.084-1.26c-0.403,0-0.756,0.201-1.021,0.391l-0.214-0.731
		c0.302-0.239,0.857-0.466,1.475-0.466c1.159,0,1.815,0.832,1.815,1.891c0,0.819-0.429,1.537-1.223,1.915v0.025
		c0.731,0.202,1.437,0.857,1.437,2.143c0,1.336-0.857,2.42-2.344,2.42c-0.529,0-1.109-0.151-1.437-0.378L37.882,316.9z"/>
</g>
<g enable-background="new    ">
	<path d="M227.534,374.9l-1.639-8.496h1.008l0.719,4.098c0.176,1.07,0.315,2.016,0.416,3.062h0.051
		c0.101-1.072,0.302-1.992,0.504-3.076l0.781-4.084h0.832l0.781,3.996c0.189,1.008,0.378,1.979,0.492,3.164h0.038
		c0.139-1.223,0.29-2.143,0.454-3.113l0.706-4.047h0.945l-1.651,8.496h-0.945l-0.819-4.135c-0.164-0.895-0.328-1.852-0.429-2.785
		h-0.025c-0.126,0.957-0.265,1.879-0.466,2.822l-0.845,4.098H227.534z"/>
	<path d="M234.451,373.854c0.252,0.152,0.693,0.34,1.185,0.34c0.844,0,1.412-0.617,1.412-1.639c0-1.07-0.668-1.688-1.651-1.688
		h-0.227v-0.732h0.189c0.58-0.012,1.475-0.453,1.475-1.461c0-0.82-0.441-1.26-1.084-1.26c-0.403,0-0.756,0.201-1.021,0.391
		l-0.214-0.732c0.302-0.238,0.857-0.465,1.475-0.465c1.159,0,1.815,0.832,1.815,1.891c0,0.818-0.429,1.537-1.223,1.914v0.025
		c0.731,0.203,1.437,0.857,1.437,2.143c0,1.336-0.857,2.42-2.344,2.42c-0.529,0-1.109-0.15-1.437-0.377L234.451,373.854z"/>
	<path d="M241.104,367.691h-0.025l-1.361,0.781l-0.189-0.758l1.727-1.008h0.807v8.193h-0.958V367.691z"/>
	<path d="M244.43,374.168c0.214,0,0.391-0.023,0.605-0.074c0.416-0.102,0.819-0.328,1.122-0.643
		c0.454-0.504,0.819-1.248,0.958-2.332h-0.038c-0.302,0.391-0.731,0.693-1.323,0.693c-1.021,0-1.79-0.945-1.79-2.434
		c0-1.5,0.807-2.771,2.067-2.771c1.399,0,2.054,1.475,2.054,3.289c0,1.613-0.403,2.887-1.084,3.793
		c-0.479,0.656-1.172,1.084-1.891,1.248c-0.265,0.051-0.479,0.062-0.681,0.062V374.168z M244.922,369.291
		c0,1.211,0.454,1.789,1.109,1.789c0.403,0,0.807-0.277,1.008-0.73c0.05-0.139,0.076-0.252,0.076-0.529
		c0-1.713-0.492-2.457-1.135-2.457C245.489,367.363,244.922,367.893,244.922,369.291z"/>
</g>
<g enable-background="new    ">
	<path d="M166.742,374.9l-1.639-8.496h1.008l0.719,4.098c0.176,1.07,0.315,2.016,0.416,3.062h0.051
		c0.101-1.072,0.302-1.992,0.504-3.076l0.781-4.084h0.832l0.781,3.996c0.189,1.008,0.378,1.979,0.492,3.164h0.038
		c0.139-1.223,0.29-2.143,0.454-3.113l0.706-4.047h0.945l-1.651,8.496h-0.945l-0.819-4.135c-0.164-0.895-0.328-1.852-0.429-2.785
		h-0.025c-0.126,0.957-0.265,1.879-0.466,2.822l-0.845,4.098H166.742z"/>
	<path d="M173.659,373.854c0.252,0.152,0.693,0.34,1.185,0.34c0.844,0,1.412-0.617,1.412-1.639c0-1.07-0.668-1.688-1.651-1.688
		h-0.227v-0.732h0.189c0.58-0.012,1.475-0.453,1.475-1.461c0-0.82-0.441-1.26-1.084-1.26c-0.403,0-0.756,0.201-1.021,0.391
		l-0.214-0.732c0.302-0.238,0.857-0.465,1.475-0.465c1.159,0,1.815,0.832,1.815,1.891c0,0.818-0.429,1.537-1.223,1.914v0.025
		c0.731,0.203,1.437,0.857,1.437,2.143c0,1.336-0.857,2.42-2.344,2.42c-0.529,0-1.109-0.15-1.437-0.377L173.659,373.854z"/>
	<path d="M180.312,367.691h-0.025l-1.361,0.781l-0.189-0.758l1.727-1.008h0.807v8.193h-0.958V367.691z"/>
	<path d="M183.147,372.896c0-1.148,0.681-1.879,1.349-2.346l-0.013-0.023c-0.681-0.467-1.071-1.186-1.071-1.879
		c0-1.26,0.895-2.041,1.916-2.041c1.172,0,1.752,0.982,1.752,1.928c0,0.719-0.34,1.412-1.096,1.928v0.039
		c0.756,0.504,1.311,1.246,1.311,2.23c0,1.273-0.844,2.268-2.105,2.268C183.828,375,183.147,373.916,183.147,372.896z
		 M186.335,372.795c0-0.945-0.542-1.475-1.172-1.891c-0.656,0.404-1.059,1.109-1.059,1.828c0,0.92,0.416,1.551,1.122,1.551
		C185.832,374.283,186.335,373.816,186.335,372.795z M184.344,368.586c0,0.832,0.504,1.248,1.008,1.574
		c0.492-0.352,0.819-0.895,0.819-1.512c0-0.795-0.328-1.324-0.92-1.324C184.71,367.324,184.344,367.842,184.344,368.586z"/>
</g>
<g enable-background="new    ">
	<path d="M357.001,256.325l-1.639-8.495h1.009l0.719,4.097c0.176,1.071,0.314,2.017,0.415,3.062h0.051
		c0.101-1.071,0.303-1.991,0.504-3.075l0.781-4.084h0.832l0.781,3.995c0.189,1.009,0.379,1.979,0.492,3.164h0.038
		c0.139-1.223,0.289-2.143,0.453-3.113l0.706-4.046h0.945l-1.651,8.495h-0.945l-0.819-4.134c-0.163-0.896-0.327-1.853-0.429-2.786
		h-0.024c-0.126,0.958-0.265,1.879-0.467,2.823l-0.845,4.097H357.001z"/>
	<path d="M363.918,255.279c0.252,0.151,0.693,0.34,1.185,0.34c0.845,0,1.412-0.617,1.412-1.639c0-1.071-0.668-1.688-1.651-1.688
		h-0.227v-0.731h0.188c0.58-0.012,1.475-0.453,1.475-1.462c0-0.819-0.44-1.26-1.084-1.26c-0.403,0-0.756,0.201-1.021,0.391
		l-0.214-0.731c0.302-0.239,0.856-0.466,1.475-0.466c1.159,0,1.814,0.832,1.814,1.891c0,0.819-0.429,1.537-1.223,1.915v0.025
		c0.731,0.202,1.437,0.857,1.437,2.143c0,1.336-0.856,2.42-2.344,2.42c-0.529,0-1.109-0.151-1.437-0.378L363.918,255.279z"/>
	<path d="M372.714,252.216c0,2.986-0.945,4.209-2.13,4.209c-1.273,0-2.042-1.513-2.042-4.185c0-2.76,0.819-4.209,2.155-4.209
		C372.021,248.032,372.714,249.607,372.714,252.216z M369.513,252.228c0,1.979,0.34,3.365,1.146,3.365
		c0.77,0,1.084-1.398,1.084-3.365c0-1.915-0.314-3.364-1.096-3.364C369.865,248.864,369.513,250.262,369.513,252.228z"/>
	<path d="M373.62,255.279c0.252,0.151,0.693,0.34,1.185,0.34c0.845,0,1.412-0.617,1.412-1.639c0-1.071-0.668-1.688-1.651-1.688
		h-0.227v-0.731h0.188c0.58-0.012,1.475-0.453,1.475-1.462c0-0.819-0.44-1.26-1.084-1.26c-0.403,0-0.756,0.201-1.021,0.391
		l-0.214-0.731c0.302-0.239,0.856-0.466,1.475-0.466c1.159,0,1.814,0.832,1.814,1.891c0,0.819-0.429,1.537-1.223,1.915v0.025
		c0.731,0.202,1.437,0.857,1.437,2.143c0,1.336-0.856,2.42-2.344,2.42c-0.529,0-1.109-0.151-1.437-0.378L373.62,255.279z"/>
</g>
</svg>
