<svg xmlns="http://www.w3.org/2000/svg" viewBox="0 0 2286.45 1459.19"><defs><style>.cls-1,.cls-2,.cls-3,.cls-4,.cls-5{fill:none;stroke:#231f20;}.cls-1{stroke-width:7.9px;}.cls-2{stroke-width:1.98px;}.cls-3{stroke-width:2.96px;}.cls-4{stroke-width:3.95px;}.cls-5{stroke-width:4.02px;}.cls-6{fill:#fff;}.cls-7{font-size:84px;}.cls-11,.cls-13,.cls-17,.cls-19,.cls-20,.cls-7,.cls-9{fill:#231f20;}.cls-11,.cls-13,.cls-17,.cls-20,.cls-7{font-family:MyriadPro-BoldCond, Myriad Pro;}.cls-11,.cls-14,.cls-17,.cls-20,.cls-7{font-weight:700;}.cls-8{letter-spacing:0em;}.cls-10{stroke:#000;stroke-miterlimit:10;stroke-width:0.46px;}.cls-11,.cls-13,.cls-17,.cls-19{font-size:40px;}.cls-11{letter-spacing:0.01em;}.cls-12{letter-spacing:0em;}.cls-15{letter-spacing:-0.01em;}.cls-16,.cls-19{font-family:MyriadPro-Cond, Myriad Pro;}.cls-18{letter-spacing:0.01em;}.cls-20{font-size:48px;}.cls-21{letter-spacing:-0.01em;}.cls-22{letter-spacing:-0.01em;}.cls-23{letter-spacing:0em;}.cls-24{letter-spacing:-0.02em;}</style></defs><title>SW_Map2nd Floor</title><g id="_2nd_floor" data-name="2nd floor"><polygon class="cls-1" points="485.2 65 1004.23 65 1004.23 514.21 1278.23 514.21 1278.23 472.06 1417.88 472.06 1417.88 603.79 2218.81 603.79 2218.81 1394.19 1881.58 1394.19 1881.58 1151.8 1699.79 1107.02 1438.95 1107.02 1438.95 1215.03 980.52 1215.03 980.52 1230.84 822.44 1230.84 822.44 1249.29 674.9 1249.29 674.9 1230.84 519.45 1230.84 519.45 1209.77 63.65 1209.77 63.65 914.67 269.16 914.67 269.16 585.35 374.55 585.35 374.55 511.58 485.2 511.58 485.2 65"/><line class="cls-2" x1="549.1" y1="363.99" x2="486.05" y2="363.99"/><line class="cls-2" x1="549.1" y1="369.64" x2="486.05" y2="369.64"/><line class="cls-2" x1="549.1" y1="375.39" x2="486.05" y2="375.39"/><line class="cls-2" x1="549.1" y1="380.94" x2="486.05" y2="380.94"/><line class="cls-2" x1="549.1" y1="386.19" x2="486.05" y2="386.19"/><line class="cls-2" x1="549.1" y1="391.83" x2="486.05" y2="391.83"/><line class="cls-2" x1="549.1" y1="397.59" x2="486.05" y2="397.59"/><line class="cls-2" x1="549.1" y1="403.13" x2="486.05" y2="403.13"/><line class="cls-2" x1="484.55" y1="955.48" x2="426.11" y2="955.48"/><line class="cls-2" x1="484.55" y1="961.12" x2="426.11" y2="961.12"/><line class="cls-2" x1="484.55" y1="966.88" x2="426.11" y2="966.88"/><line class="cls-2" x1="484.55" y1="972.42" x2="426.11" y2="972.42"/><line class="cls-2" x1="484.55" y1="977.67" x2="426.11" y2="977.67"/><line class="cls-2" x1="484.55" y1="983.32" x2="426.11" y2="983.32"/><line class="cls-2" x1="484.55" y1="989.07" x2="426.11" y2="989.07"/><line class="cls-2" x1="484.55" y1="994.61" x2="426.11" y2="994.61"/><line class="cls-2" x1="1072.74" y1="954.15" x2="1009.69" y2="954.15"/><line class="cls-2" x1="1072.74" y1="959.8" x2="1009.69" y2="959.8"/><line class="cls-2" x1="1072.74" y1="965.56" x2="1009.69" y2="965.56"/><line class="cls-2" x1="1072.74" y1="971.1" x2="1009.69" y2="971.1"/><line class="cls-2" x1="1072.74" y1="976.35" x2="1009.69" y2="976.35"/><line class="cls-2" x1="1072.74" y1="981.99" x2="1009.69" y2="981.99"/><line class="cls-2" x1="1072.74" y1="987.75" x2="1009.69" y2="987.75"/><line class="cls-2" x1="1072.74" y1="993.3" x2="1009.69" y2="993.3"/><line class="cls-2" x1="2089.39" y1="1298.96" x2="2026.34" y2="1298.96"/><line class="cls-2" x1="2089.39" y1="1304.62" x2="2026.34" y2="1304.62"/><line class="cls-2" x1="2089.39" y1="1310.36" x2="2026.34" y2="1310.36"/><line class="cls-2" x1="2089.39" y1="1315.92" x2="2026.34" y2="1315.92"/><line class="cls-2" x1="2089.39" y1="1321.16" x2="2026.34" y2="1321.16"/><line class="cls-2" x1="2089.39" y1="1326.82" x2="2026.34" y2="1326.82"/><line class="cls-2" x1="2089.39" y1="1332.56" x2="2026.34" y2="1332.56"/><line class="cls-2" x1="2089.39" y1="1338.11" x2="2026.34" y2="1338.11"/><line class="cls-2" x1="1756.44" y1="652.82" x2="1686.28" y2="652.82"/><line class="cls-2" x1="1756.44" y1="658.46" x2="1686.28" y2="658.46"/><line class="cls-2" x1="1756.44" y1="664.22" x2="1686.28" y2="664.22"/><line class="cls-2" x1="1756.44" y1="669.77" x2="1686.28" y2="669.77"/><line class="cls-2" x1="1756.44" y1="675.02" x2="1686.28" y2="675.02"/><line class="cls-2" x1="1756.44" y1="680.66" x2="1686.28" y2="680.66"/><line class="cls-2" x1="1756.44" y1="686.42" x2="1686.28" y2="686.42"/><line class="cls-2" x1="1756.44" y1="691.96" x2="1686.28" y2="691.96"/><line class="cls-2" x1="1626.14" y1="963.73" x2="1555.63" y2="952.35"/><line class="cls-2" x1="1625.23" y1="969.3" x2="1554.73" y2="957.92"/><line class="cls-2" x1="1624.31" y1="974.99" x2="1553.8" y2="963.6"/><line class="cls-2" x1="1623.43" y1="980.46" x2="1552.92" y2="969.08"/><line class="cls-2" x1="1622.6" y1="985.64" x2="1552.09" y2="974.26"/><line class="cls-2" x1="1621.7" y1="991.22" x2="1551.19" y2="979.84"/><line class="cls-2" x1="1620.78" y1="996.89" x2="1550.27" y2="985.52"/><line class="cls-2" x1="1619.9" y1="1002.37" x2="1549.39" y2="990.99"/><line class="cls-3" x1="1006.87" y1="363.99" x2="947.77" y2="363.99"/><line class="cls-3" x1="1006.87" y1="369.64" x2="947.77" y2="369.64"/><line class="cls-3" x1="1006.87" y1="375.39" x2="947.77" y2="375.39"/><line class="cls-3" x1="1006.87" y1="380.94" x2="947.77" y2="380.94"/><line class="cls-3" x1="1006.87" y1="386.19" x2="947.77" y2="386.19"/><line class="cls-3" x1="1006.87" y1="391.83" x2="947.77" y2="391.83"/><line class="cls-3" x1="1006.87" y1="397.59" x2="947.77" y2="397.59"/><line class="cls-3" x1="1006.87" y1="403.13" x2="947.77" y2="403.13"/><line class="cls-2" x1="1330.56" y1="474.55" x2="1330.56" y2="563.63"/><line class="cls-2" x1="1336.2" y1="474.55" x2="1336.2" y2="563.63"/><line class="cls-2" x1="1341.95" y1="474.55" x2="1341.95" y2="563.63"/><line class="cls-2" x1="1347.51" y1="474.55" x2="1347.51" y2="563.63"/><line class="cls-2" x1="1352.75" y1="474.55" x2="1352.75" y2="563.63"/><line class="cls-2" x1="1358.4" y1="474.55" x2="1358.4" y2="563.63"/><line class="cls-2" x1="1364.15" y1="474.55" x2="1364.15" y2="563.63"/><line class="cls-2" x1="1369.7" y1="474.55" x2="1369.7" y2="563.63"/><polyline class="cls-4" points="719.69 113.75 719.69 415.41 549.75 415.41 549.75 335.05 485.2 335.05"/><polyline class="cls-4" points="718.37 299.49 776.33 299.49 776.33 115.06"/><polyline class="cls-4" points="946.27 333.74 946.27 416.73 769.75 416.73 769.75 332.42 830.34 332.42 1000.28 332.42"/><line class="cls-4" x1="535.26" y1="335.05" x2="721" y2="335.05"/><path class="cls-2" d="M493.23,206h18.44S567,178.3,609.15,178.3,711.9,208.59,711.9,208.59h9.22"/><path class="cls-2" d="M493.23,220.45h18.44s55.33-27.67,97.48-27.67,102.75,30.3,102.75,30.3h9.22"/><path class="cls-2" d="M489.16,236.26H507.6s55.33-27.66,97.48-27.66,102.75,30.29,102.75,30.29h9.22"/><path class="cls-2" d="M776.33,246.8h13.18s15.8-67.19,97.48-67.19S989.74,246.8,989.74,246.8h10.54"/><path class="cls-2" d="M776.33,283.68h25s4-83,85.63-83,90.89,83,90.89,83h22.4"/><path class="cls-2" d="M776.33,291.58h40.84s6.59-71.13,69.82-71.13,75.08,71.13,75.08,71.13h38.21"/><path class="cls-2" d="M818.81,281h25.35s2.66-39.52,42.84-39.52S934.09,281,934.09,281h23.71"/><rect class="cls-4" x="555.02" y="466.79" width="391.24" height="562.5"/><rect class="cls-4" x="1008.19" y="573.49" width="208.14" height="454.48"/><line class="cls-4" x1="2089.71" y1="1391.57" x2="2089.71" y2="602.48"/><polyline class="cls-4" points="2025.16 1391.57 2025.16 1095.17 1883.55 1095.17 1883.55 1157.08"/><polyline class="cls-4" points="2090.36 809.3 1886.85 809.3 1886.85 1030.61 1664.22 1030.61 1664.22 1001.64 1709.01 744.75 1756.43 744.75 1756.43 602.48"/><polyline class="cls-4" points="1683.98 603.8 1683.98 736.85 1670.81 736.85 1615.48 1020.08"/><polyline class="cls-4" points="1635.23 912.05 1561.46 912.05 1539.07 1029.3 1428.41 1029.3 1428.41 601.16"/><polyline class="cls-4" points="1428.41 1029.3 1262.43 1029.3 1262.43 564.28 1416.56 564.28"/><line class="cls-4" x1="1261.12" y1="694.7" x2="1429.73" y2="694.7"/><line class="cls-4" x1="1261.12" y1="776.37" x2="1429.73" y2="776.37"/><line class="cls-5" x1="1262.43" y1="916.01" x2="1428.42" y2="916.01"/><line class="cls-4" x1="2089.71" y1="873.85" x2="2221.45" y2="873.85"/><line class="cls-4" x1="2089.71" y1="1031.93" x2="2221.45" y2="1031.93"/><line class="cls-4" x1="2089.71" y1="1091.21" x2="2221.45" y2="1091.21"/><line class="cls-4" x1="2089.71" y1="1244.03" x2="2221.45" y2="1244.03"/><line class="cls-4" x1="1885.52" y1="1244.03" x2="2023.86" y2="1244.03"/><line class="cls-4" x1="2091.01" y1="968.74" x2="1885.53" y2="1004.27"/><polyline class="cls-4" points="1828.89 1030.66 1828.89 839.6 1886.85 839.6"/><line class="cls-4" x1="1157.06" y1="576.13" x2="1157.06" y2="908.14"/><line class="cls-4" x1="1215.02" y1="909.42" x2="1008.2" y2="909.42"/><line class="cls-4" x1="1155.74" y1="805.35" x2="1216.34" y2="805.35"/><line class="cls-4" x1="1179.46" y1="908.8" x2="1179.46" y2="1026.67"/><line class="cls-4" x1="1072.76" y1="908.8" x2="1072.76" y2="1026.67"/><line class="cls-4" x1="1008.2" y1="839.61" x2="1155.74" y2="839.61"/><polyline class="cls-4" points="1435.02 1107.03 913.36 1107.03 913.36 1230.86"/><line class="cls-4" x1="1085.93" y1="1107.03" x2="1085.93" y2="1211.1"/><polyline class="cls-4" points="709.17 1244.04 709.17 1099.13 62.36 1099.13"/><polyline class="cls-4" points="65 1027.99 485.23 1027.99 485.23 507.64"/><line class="cls-4" x1="376.12" y1="587.42" x2="485.45" y2="587.42"/><line class="cls-4" x1="269.19" y1="744.77" x2="483.92" y2="744.77"/><line class="cls-4" x1="269.19" y1="908.14" x2="483.92" y2="908.14"/><line class="cls-4" x1="424.64" y1="908.14" x2="424.64" y2="1029.32"/><line class="cls-4" x1="319.25" y1="908.14" x2="319.25" y2="1029.32"/><polyline class="cls-4" points="279.73 908.14 279.73 956.86 180.93 999.02"/><line class="cls-4" x1="220.45" y1="914.71" x2="220.45" y2="983.21"/><line class="cls-4" x1="223.08" y1="1097.82" x2="223.08" y2="1209.8"/><line class="cls-4" x1="362.72" y1="1097.82" x2="362.72" y2="1209.8"/><line class="cls-4" x1="515.53" y1="1097.82" x2="515.53" y2="1209.8"/><line class="cls-4" x1="672.29" y1="1097.82" x2="672.29" y2="1230.88"/><line class="cls-4" x1="594.57" y1="790.89" x2="594.57" y2="1029.32"/><line class="cls-4" x1="906.77" y1="790.89" x2="906.77" y2="1029.32"/><polyline class="cls-4" points="655.16 1030.64 655.16 894.96 906.77 894.96"/><line class="cls-4" x1="748.69" y1="896.27" x2="748.69" y2="1029.32"/><line class="cls-2" x1="100.82" y1="1028.49" x2="100.82" y2="1098.78"/><line class="cls-2" x1="106.48" y1="1028.49" x2="106.48" y2="1098.78"/><line class="cls-2" x1="112.23" y1="1028.49" x2="112.23" y2="1098.78"/><line class="cls-2" x1="117.77" y1="1028.49" x2="117.77" y2="1098.78"/><line class="cls-2" x1="123.02" y1="1028.49" x2="123.02" y2="1098.78"/><line class="cls-2" x1="128.67" y1="1028.49" x2="128.67" y2="1098.78"/><line class="cls-2" x1="134.42" y1="1028.49" x2="134.42" y2="1098.78"/><line class="cls-2" x1="139.97" y1="1028.49" x2="139.97" y2="1098.78"/><polyline class="cls-4" points="911.36 1164.3 869.21 1164.3 869.21 1110.96 913.34 1110.96"/><rect class="cls-6" x="717.16" y="306.57" width="16.19" height="20.75"/><rect class="cls-6" x="680" y="331.74" width="22.73" height="20.75"/><rect class="cls-6" x="578.24" y="331.74" width="22.72" height="20.75"/><rect class="cls-6" x="787.7" y="328.54" width="22.72" height="20.75"/><rect class="cls-6" x="880.56" y="328.54" width="22.73" height="20.75"/><rect class="cls-6" x="785.72" y="404.38" width="22.72" height="20.75"/><rect class="cls-6" x="583.18" y="404.38" width="22.72" height="20.75"/><rect class="cls-6" x="635.54" y="449.35" width="22.73" height="20.75"/><rect class="cls-6" x="838.08" y="449.35" width="22.73" height="20.75"/><rect class="cls-6" x="882.54" y="449.35" width="22.73" height="20.75"/><rect class="cls-6" x="535.28" y="975.45" width="22.73" height="20.74"/><rect class="cls-6" x="569.35" y="1025.08" width="22.72" height="20.75"/><rect class="cls-6" x="677.04" y="1025.08" width="22.72" height="20.75"/><rect class="cls-6" x="801.52" y="1025.08" width="22.73" height="20.75"/><rect class="cls-6" x="915.15" y="1025.08" width="22.72" height="20.75"/><rect class="cls-6" x="483.11" y="594.07" width="22.72" height="20.75"/><rect class="cls-6" x="483.11" y="757.09" width="22.72" height="20.76"/><rect class="cls-6" x="483.11" y="878.62" width="22.72" height="20.74"/><rect class="cls-6" x="393.48" y="1014.96" width="22.73" height="20.74"/><rect class="cls-6" x="325.31" y="1014.96" width="22.72" height="20.74"/><rect class="cls-6" x="232.44" y="961.61" width="22.72" height="20.75"/><rect class="cls-6" x="186.99" y="1087.09" width="22.72" height="20.74"/><rect class="cls-6" x="393.48" y="1087.09" width="22.73" height="20.74"/><rect class="cls-6" x="587.13" y="1090.05" width="22.72" height="20.75"/><rect class="cls-6" x="695.81" y="1192.8" width="22.72" height="20.75"/><rect class="cls-6" x="878.59" y="1153.28" width="22.73" height="20.74"/><rect class="cls-6" x="951.7" y="1092.03" width="22.72" height="20.74"/><rect class="cls-6" x="1027.78" y="1092.03" width="22.72" height="20.74"/><rect class="cls-6" x="1149.3" y="1092.03" width="22.73" height="20.74"/><rect class="cls-6" x="1301.45" y="1092.03" width="22.73" height="20.74"/><rect class="cls-6" x="1301.45" y="1020.89" width="22.73" height="20.75"/><rect class="cls-6" x="1797.43" y="1027.1" width="22.73" height="13.55"/><polygon class="cls-6" points="1683.08 912.21 1663.56 912.21 1663.56 891.46 1686.28 891.46 1683.08 912.21"/><polygon class="cls-6" points="1698.28 824.61 1678.76 824.61 1678.76 803.86 1701.48 803.86 1698.28 824.61"/><rect class="cls-6" x="1825.97" y="993.23" width="6.32" height="20.74"/><rect class="cls-6" x="1825.97" y="943.83" width="6.32" height="20.74"/><rect class="cls-6" x="1825.97" y="892.46" width="6.32" height="20.75"/><rect class="cls-6" x="2044.43" y="806.4" width="22.73" height="5.35"/><rect class="cls-6" x="2004.92" y="806.4" width="22.72" height="5.35"/><rect class="cls-6" x="1894.26" y="807.17" width="22.72" height="5.35"/><rect class="cls-6" x="1992.07" y="973.46" width="22.72" height="20.75"/><rect class="cls-6" x="2050.36" y="967.54" width="22.72" height="20.75"/><rect class="cls-6" x="2083.95" y="1003.11" width="22.72" height="20.74"/><rect class="cls-6" x="2087.25" y="654.35" width="5.09" height="20.74"/><rect class="cls-6" x="2080" y="1065.35" width="22.72" height="20.75"/><rect class="cls-6" x="2080" y="1217.5" width="22.72" height="20.75"/><rect class="cls-6" x="2015.78" y="1217.5" width="22.72" height="20.75"/><rect class="cls-6" x="2015.78" y="1251.1" width="22.72" height="20.75"/><rect class="cls-6" x="2080" y="1251.1" width="22.72" height="20.75"/><rect class="cls-6" x="1254.03" y="881.58" width="22.73" height="20.75"/><rect class="cls-6" x="1254.03" y="708.68" width="22.73" height="20.74"/><rect class="cls-6" x="1254.03" y="578.26" width="22.73" height="20.75"/><rect class="cls-6" x="1202.66" y="815.39" width="22.73" height="20.74"/><rect class="cls-6" x="1202.66" y="998.17" width="22.73" height="20.75"/><rect class="cls-6" x="1149.3" y="1018.92" width="22.73" height="20.75"/><rect class="cls-6" x="1080.14" y="1018.92" width="22.73" height="20.75"/><rect class="cls-6" x="988.77" y="812.42" width="22.72" height="20.75"/><rect class="cls-6" x="988.77" y="589.13" width="22.72" height="38.53"/><rect class="cls-6" x="1017.9" y="1018.92" width="45.45" height="20.75"/><rect class="cls-6" x="942.29" y="975.45" width="22.72" height="20.74"/><polyline class="cls-4" points="289.25 1208.11 289.25 1165.64 361.37 1138.96"/><rect class="cls-6" x="330.25" y="1136.49" width="22.73" height="20.75"/><rect class="cls-6" x="236.39" y="1091.04" width="109.67" height="20.75"/><rect class="cls-6" x="196.87" y="1021.89" width="109.67" height="20.74"/><line class="cls-4" x1="2037.02" y1="978.63" x2="2037.02" y2="809.96"/><line class="cls-4" x1="1887.83" y1="869.24" x2="2036.03" y2="869.24"/><line class="cls-4" x1="1942.17" y1="810.01" x2="1942.17" y2="869.24"/><line class="cls-4" x1="2036.03" y1="907.77" x2="2089.39" y2="907.77"/><line class="cls-4" x1="829.02" y1="416.73" x2="829.02" y2="332.42"/><line class="cls-4" x1="618.25" y1="416.73" x2="618.25" y2="335.71"/><line class="cls-4" x1="486.64" y1="113.74" x2="1009.62" y2="113.74"/><path class="cls-2" d="M493.23,159.85h18.44s55.33-27.66,97.48-27.66,102.75,30.3,102.75,30.3h9.22"/><path class="cls-2" d="M493.23,175.66h18.44S567,148,609.15,148,711.9,178.3,711.9,178.3h9.22"/><path class="cls-2" d="M493.23,190.15h18.44s55.33-27.66,97.48-27.66S711.9,192.78,711.9,192.78h9.22"/><text class="cls-7" transform="translate(1153.69 381.79)">2nd <tspan class="cls-8" x="125.16" y="0">F</tspan><tspan x="157.83" y="0">loor</tspan></text></g><g id="_1st_floor" data-name="1st floor"><rect class="cls-9" x="1263.11" y="742.63" width="33.57" height="33.57"/><path class="cls-6" d="M1275.36,759.89c.06,8.95,3.55,10.81,6.85,10.81a10.33,10.33,0,0,0,4.8-1.08l.78,3.36a14.1,14.1,0,0,1-6.43,1.39c-6.91,0-10.51-5.65-10.51-14.6,0-9.43,4-15.32,9.79-15.32s8.29,6.25,8.29,12.8c0,1.14-.06,1.92-.12,2.64Zm9.13-3.42c.05-5.82-2.1-8.41-4.32-8.41-3,0-4.56,4.44-4.75,8.41Z"/><path class="cls-10" d="M344.67,928.23c-5.64,0-8.77,2.91-8.77,8.82v61.12c0,5.52,2.82,8.43,8.43,8.43h61.38c5.6,0,8.43-2.76,8.43-8.43V937c0-5.75-2.83-8.82-8.63-8.82Z"/><path class="cls-6" d="M375,948.83a4.42,4.42,0,0,0,0-8.84,4.42,4.42,0,0,0,0,8.84Z"/><path class="cls-6" d="M374.38,976.75v15.37a2.06,2.06,0,0,1-4.12,0V976.75h-5.51l5.86-20.45h-.91L366.23,968c-.81,2.55-4.28,1.5-3.51-1.21l3.87-12.66a5.8,5.8,0,0,1,5.41-4h6a5.92,5.92,0,0,1,5.42,4l3.87,12.66c.77,2.71-2.7,3.82-3.51,1.19l-3.46-11.63h-1l6,20.45h-5.51v15.37a2.07,2.07,0,0,1-4.14,0V976.75Z"/><path class="cls-10" d="M1097.37,928.24c-5.62,0-8.77,2.89-8.77,8.79v61.16c0,5.49,2.84,8.41,8.43,8.41h61.39c5.61,0,8.41-2.73,8.41-8.41V937c0-5.75-2.8-8.79-8.62-8.79C1158.23,928.24,1097.35,928.22,1097.37,928.24Z"/><path class="cls-6" d="M1123,950a5.68,5.68,0,0,0-5.54,5.77v13.66a1.92,1.92,0,1,0,3.84,0V957h.91v34.5a2.52,2.52,0,1,0,5,0V971.28h.91v20.19a2.56,2.56,0,1,0,5.11,0V957h.84v12.51a1.91,1.91,0,1,0,3.82,0V955.91a5.78,5.78,0,0,0-5.65-5.87Z"/><path class="cls-6" d="M1127.74,948.82a4.39,4.39,0,1,0-4.45-4.38A4.41,4.41,0,0,0,1127.74,948.82Z"/><text class="cls-11" transform="translate(575.12 271.87)">C<tspan class="cls-12" x="16.04" y="0">hoir</tspan></text><text class="cls-13" transform="translate(665.67 673.66)"><tspan class="cls-14">Audi<tspan class="cls-15" x="63.2" y="0">t</tspan><tspan x="75.4" y="0">orium</tspan></tspan><tspan class="cls-16"><tspan x="43.12" y="48">W211</tspan></tspan></text><text class="cls-17" transform="translate(333.95 677.8)">Guitar</text><text class="cls-17" transform="translate(335.03 835.23)"><tspan class="cls-18">D</tspan><tspan x="19.92" y="0">ance</tspan></text><text class="cls-19" transform="translate(108.75 978.63)">W221</text><text class="cls-19" transform="translate(107.43 1163.72)">W223</text><text class="cls-19" transform="translate(401.85 1163.72)">W225</text><text class="cls-19" transform="translate(561.25 1179.52)">W226</text><text class="cls-19" transform="translate(965.67 1170.3)">W230</text><text class="cls-19" transform="translate(1312.13 981.92)">W201</text><text class="cls-19" transform="translate(1312.13 852.17)">W202</text><text class="cls-20" transform="translate(1819.02 732.09)">Media <tspan class="cls-21" x="110.73" y="0">C</tspan><tspan x="129.45" y="0">en</tspan><tspan class="cls-22" x="171.55" y="0">t</tspan><tspan class="cls-23" x="186.19" y="0">er</tspan></text><text class="cls-19" transform="translate(2133.39 759.3)">212</text><text class="cls-19" transform="translate(2133.39 958.87)">211</text><text class="cls-19" transform="translate(2133.39 1184.13)">209</text><text class="cls-19" transform="translate(2133.39 1326.4)">209</text><text class="cls-19" transform="translate(1937.77 1184.13)">206</text><text class="cls-19" transform="translate(1937.77 942.07)">203</text><text class="cls-19" transform="translate(1937.77 1326.4)">207</text><text class="cls-19" transform="translate(1312.13 752.05)">W203</text><text class="cls-19" transform="translate(1312.13 643.37)">W204</text><text class="cls-17" transform="translate(1044.13 706.31)">Black<tspan x="11.42" y="48">B</tspan><tspan class="cls-24" x="30.74" y="48">o</tspan><tspan x="47.38" y="48">x</tspan></text><text class="cls-19" transform="translate(668.61 975.33)">W228</text><text class="cls-19" transform="translate(766.75 975.33)">W229</text><text class="cls-19" transform="translate(1048.66 887.73)">W208</text><text class="cls-19" transform="translate(1202.37 1167)">W232 A-M</text><text class="cls-19" transform="translate(1837.04 948.39)">201</text><text class="cls-17" transform="translate(850.5 169.12)">Band</text></g></svg>