<svg xmlns="http://www.w3.org/2000/svg" viewBox="0 0 1151.72 871.5"><defs><style>.cls-1,.cls-11,.cls-18,.cls-26,.cls-28{fill:#231f20;}.cls-10,.cls-2,.cls-3,.cls-4,.cls-6,.cls-9{fill:none;}.cls-10,.cls-2,.cls-3,.cls-4,.cls-5,.cls-6,.cls-8,.cls-9{stroke:#231f20;}.cls-2{stroke-width:7.51px;}.cls-3,.cls-6{stroke-width:3.75px;}.cls-4{stroke-width:3.94px;}.cls-5,.cls-8{fill:#00aeef;}.cls-17,.cls-5,.cls-6,.cls-8{stroke-miterlimit:10;}.cls-5{stroke-width:1.4px;}.cls-7{fill:#fff;}.cls-8{stroke-width:0.71px;}.cls-9{stroke-width:1.91px;}.cls-10{stroke-width:1.88px;}.cls-11{font-size:84px;}.cls-11,.cls-26{font-family:MyriadPro-BoldCond, Myriad Pro;font-weight:700;}.cls-12{letter-spacing:0em;}.cls-13{letter-spacing:-0.01em;}.cls-14{letter-spacing:-0.01em;}.cls-15{letter-spacing:-0.01em;}.cls-16{letter-spacing:-0.01em;}.cls-17{stroke:#000;stroke-width:0.19px;}.cls-18,.cls-26{font-size:40px;}.cls-18,.cls-28{font-family:MyriadPro-Cond, Myriad Pro;}.cls-19{letter-spacing:-0.02em;}.cls-20{letter-spacing:0em;}.cls-21{letter-spacing:0.02em;}.cls-22{letter-spacing:0.01em;}.cls-23{letter-spacing:-0.01em;}.cls-24{letter-spacing:-0.01em;}.cls-25{letter-spacing:0em;}.cls-27{letter-spacing:-0.02em;}.cls-28{font-size:30.04px;}.cls-29{letter-spacing:-0.02em;}.cls-30{letter-spacing:-0.02em;}.cls-31{letter-spacing:0em;}.cls-32{letter-spacing:-0.01em;}.cls-33{letter-spacing:-0.01em;}</style></defs><title>SW_MapLower Level</title><g id="lower"><rect class="cls-1" x="851.54" y="783.98" width="33.79" height="22.52"/><rect class="cls-2" x="472.15" y="76.61" width="608.55" height="719.05"/><polyline class="cls-3" points="635.83 76.38 635.83 327.93 628.33 335.43 689.65 435.55 633.33 529.41 637.08 545.67 637.08 792.22"/><polyline class="cls-3" points="688.41 706.49 688.41 692.1 638.36 692.1"/><polyline class="cls-3" points="675.9 691.11 675.9 647.66 695.92 647.66"/><polyline class="cls-3" points="637.1 544.42 849.22 544.42 849.22 648.92 706.56 648.92 706.56 545.36"/><line class="cls-3" x1="708.43" y1="795.96" x2="708.43" y2="698.98"/><line class="cls-4" x1="777.43" y1="795.96" x2="777.43" y2="688.96"/><polyline class="cls-3" points="729.08 701.48 729.08 689.6 816.69 689.6 816.69 793.46"/><polyline class="cls-3" points="816.69 689.6 847.35 689.6 847.35 794.08"/><polyline class="cls-3" points="889.27 794.72 889.27 540.04 1079.5 540.04"/><polyline class="cls-3" points="902.41 539.03 902.41 513.76 1065.72 513.76 1065.72 539.26"/><polyline class="cls-3" points="886.77 501.25 1010.67 501.25 1010.67 439.93 968.74 439.93"/><polyline class="cls-3" points="888.18 394.25 917.43 394.25 917.43 485.6 888.02 485.6 888.02 365.46 1077.78 365.46"/><line class="cls-3" x1="888.03" y1="78.88" x2="888.03" y2="365.46"/><rect class="cls-3" x="777.9" y="151.46" width="71.33" height="35.04"/><polyline class="cls-3" points="564.53 328.55 849.23 328.55 849.23 221.55 777.27 221.55 777.27 326.68"/><line class="cls-3" x1="707.03" y1="328.55" x2="707.19" y2="230.32"/><polyline class="cls-3" points="686.54 237.19 686.54 224.05 636.01 224.05 636.01 180.88 777.27 180.88"/><line class="cls-3" x1="675.28" y1="181.5" x2="675.28" y2="223.42"/><polyline class="cls-3" points="727.22 237.81 727.22 224.05 777.27 224.05"/><polyline class="cls-3" points="742.7 329.02 719.08 371.1 727.2 384.87 759.75 367.97 767.88 379.23 734.09 398.63 767.88 379.23 786.65 379.85 817.93 401.76 786.65 379.85 794.78 367.34 849.14 398.63 849.14 327.3"/><polyline class="cls-3" points="849.22 544.42 849.22 473.71 777.89 515.64 727.83 484.36 719.7 499.37 745.98 544.42"/><polyline class="cls-3" points="735.34 474.35 778.51 496.87 819.18 472.47"/><line class="cls-3" x1="889.9" y1="663.93" x2="1078.87" y2="663.93"/><line class="cls-5" x1="887.31" y1="122.3" x2="869.67" y2="122.3"/><line class="cls-5" x1="887.31" y1="124.88" x2="869.67" y2="124.88"/><line class="cls-5" x1="887.31" y1="127.66" x2="869.67" y2="127.66"/><line class="cls-5" x1="887.31" y1="130.35" x2="869.67" y2="130.35"/><line class="cls-5" x1="887.31" y1="133.13" x2="869.67" y2="133.13"/><line class="cls-5" x1="887.31" y1="135.61" x2="869.67" y2="135.61"/><line class="cls-5" x1="887.31" y1="138.4" x2="869.67" y2="138.4"/><rect class="cls-6" x="777.35" y="78.38" width="72.19" height="45.23"/><rect class="cls-7" x="802.49" y="119.55" width="11.35" height="7.5"/><rect class="cls-7" x="835.75" y="147.83" width="11.35" height="7.5"/><rect class="cls-7" x="843.55" y="313.53" width="11.35" height="7.5"/><rect class="cls-7" x="883.15" y="168.48" width="11.36" height="9.38"/><rect class="cls-7" x="720.92" y="176.21" width="11.36" height="9.37"/><rect class="cls-7" x="883.15" y="274.53" width="11.36" height="9.38"/><rect class="cls-7" x="964.57" y="361.83" width="11.36" height="9.38"/><line class="cls-3" x1="867.58" y1="112.33" x2="867.58" y2="140.42"/><line class="cls-8" x1="921.81" y1="97.6" x2="914.81" y2="97.6"/><line class="cls-8" x1="921.81" y1="99.28" x2="914.81" y2="99.28"/><line class="cls-8" x1="921.81" y1="101.1" x2="914.81" y2="101.1"/><line class="cls-8" x1="921.81" y1="102.85" x2="914.81" y2="102.85"/><line class="cls-8" x1="921.81" y1="104.67" x2="914.81" y2="104.67"/><line class="cls-8" x1="921.81" y1="106.3" x2="914.81" y2="106.3"/><line class="cls-8" x1="921.81" y1="108.12" x2="914.81" y2="108.12"/><line class="cls-9" x1="913.99" y1="91.08" x2="913.99" y2="109.45"/><polyline class="cls-3" points="923.14 89.67 923.14 110.32 888.88 110.32"/><rect class="cls-7" x="993.2" y="508.96" width="11.35" height="9.37"/><rect class="cls-7" x="1050.22" y="536.88" width="11.36" height="9.38"/><rect class="cls-7" x="905.43" y="535.94" width="11.36" height="9.37"/><rect class="cls-7" x="882.91" y="630.98" width="11.36" height="19"/><rect class="cls-7" x="789.08" y="681.67" width="11.35" height="19"/><rect class="cls-7" x="798.43" y="643.24" width="19" height="11.36"/><rect class="cls-7" x="882.91" y="667.58" width="11.36" height="19"/><rect class="cls-7" x="842.32" y="714.04" width="11.35" height="11.49"/><rect class="cls-7" x="891.12" y="537.58" width="9.01" height="9.38"/><line class="cls-10" x1="887.94" y1="743.22" x2="848.54" y2="743.22"/><line class="cls-10" x1="887.94" y1="748.59" x2="848.54" y2="748.59"/><line class="cls-10" x1="887.94" y1="754.05" x2="848.54" y2="754.05"/><line class="cls-10" x1="887.94" y1="759.32" x2="848.54" y2="759.32"/><rect class="cls-1" x="852.16" y="65.01" width="33.79" height="22.53"/><rect class="cls-7" x="930.02" y="646.17" width="109" height="37"/><text class="cls-11" transform="translate(63.98 463.59)"><tspan class="cls-12">L</tspan><tspan class="cls-13" x="31.5" y="0">o</tspan><tspan class="cls-14" x="66.95" y="0">w</tspan><tspan x="117.52" y="0">er </tspan><tspan class="cls-12" x="190.76" y="0">L</tspan><tspan class="cls-15" x="222.26" y="0">e</tspan><tspan class="cls-16" x="256.87" y="0">v</tspan><tspan x="288.88" y="0">el</tspan></text></g><g id="_1st_floor" data-name="1st floor"><rect class="cls-1" x="815.4" y="688.33" width="33.7" height="33.57"/><path class="cls-7" d="M827.69,705.59c.06,8.95,3.56,10.81,6.87,10.81a10.4,10.4,0,0,0,4.82-1.09l.78,3.37a14.23,14.23,0,0,1-6.45,1.38c-6.93,0-10.55-5.65-10.55-14.59,0-9.44,4-15.32,9.83-15.32s8.32,6.25,8.32,12.8c0,1.14-.06,1.92-.12,2.64Zm9.16-3.42c.05-5.83-2.11-8.41-4.34-8.41-3,0-4.58,4.45-4.77,8.41Z"/><path class="cls-17" d="M799.39,154.51c-2.27,0-3.53,1.18-3.53,3.55V182.7c0,2.22,1.14,3.38,3.4,3.38H824c2.27,0,3.4-1.1,3.4-3.38V158.07c0-2.32-1.14-3.55-3.48-3.55C823.92,154.51,799.38,154.5,799.39,154.51Z"/><path class="cls-7" d="M809.75,163.3a2.3,2.3,0,0,0-2.24,2.32v5.5a.77.77,0,1,0,1.55,0v-5h.37V180a1,1,0,1,0,2,0v-8.13h.36V180a1,1,0,1,0,2.05,0v-13.9h.36v5a.77.77,0,1,0,1.54,0v-5.46a2.33,2.33,0,0,0-2.29-2.36Z"/><path class="cls-7" d="M811.64,162.81a1.78,1.78,0,1,0-1.79-1.77A1.79,1.79,0,0,0,811.64,162.81Z"/><path class="cls-17" d="M784.57,709.37c-2.27,0-3.53,1.16-3.53,3.55v24.64c0,2.21,1.14,3.38,3.4,3.38h24.73c2.26,0,3.4-1.11,3.4-3.38V712.92c0-2.33-1.14-3.55-3.48-3.55C809.09,709.37,784.56,709.35,784.57,709.37Z"/><path class="cls-7" d="M796.81,717.66a1.77,1.77,0,1,0-1.76-1.76A1.77,1.77,0,0,0,796.81,717.66Z"/><path class="cls-7" d="M796.54,728.91v6.21a.83.83,0,1,1-1.66,0v-6.21h-2.22l2.36-8.23h-.37l-1.39,4.7a.75.75,0,1,1-1.42-.48l1.55-5.12a2.36,2.36,0,0,1,2.19-1.6H798a2.39,2.39,0,0,1,2.19,1.6l1.56,5.12a.75.75,0,1,1-1.42.46l-1.4-4.68h-.41l2.41,8.23h-2.22v6.21a.84.84,0,0,1-1.68,0v-6.21Z"/><text class="cls-18" transform="translate(685.96 137.85)">E05</text><text class="cls-18" transform="translate(715.88 450.57)"><tspan class="cls-19">C</tspan><tspan class="cls-20" x="14.2" y="0">ou</tspan><tspan class="cls-21" x="45.44" y="0">r</tspan><tspan class="cls-22" x="56.32" y="0">t</tspan><tspan class="cls-23" x="66.92" y="0">y</tspan><tspan x="80.4" y="0">a</tspan><tspan class="cls-24" x="94.96" y="0">r</tspan><tspan class="cls-25" x="104.32" y="0">d</tspan></text><text class="cls-18" transform="translate(649.05 288.5)">E08</text><text class="cls-18" transform="translate(723.51 288.5)">E09</text><text class="cls-18" transform="translate(791.09 288.5)">E10</text><text class="cls-26" transform="translate(973.33 239.67)"><tspan class="cls-27">P</tspan><tspan x="17.44" y="0">ool</tspan></text><text class="cls-28" transform="translate(939.98 478.73)">E12</text><text class="cls-28" transform="translate(1022.58 463.71)">E13</text><text class="cls-28" transform="translate(939.45 396.13)"><tspan class="cls-29">P</tspan><tspan x="11.23" y="0">ool </tspan><tspan class="cls-30" x="44.69" y="0">L</tspan><tspan class="cls-31" x="54.54" y="0">oc</tspan><tspan class="cls-32" x="75.12" y="0">k</tspan><tspan x="85.3" y="0">er</tspan><tspan x="20.53" y="30.04">Rooms</tspan></text><text class="cls-18" transform="translate(647.79 609.6)">E21</text><text class="cls-18" transform="translate(759.8 607.62)">E23</text><text class="cls-18" transform="translate(649.67 750.29)">E20</text><text class="cls-18" transform="translate(720.25 750.29)">E19</text><text class="cls-26" transform="translate(955.5 653.67)">East<tspan class="cls-33" x="-1.64" y="40">G</tspan><tspan x="16.84" y="40">ym</tspan></text></g></svg>