<svg xmlns="http://www.w3.org/2000/svg" viewBox="0 0 2029 987.91"><defs><style>.cls-1,.cls-2,.cls-3,.cls-5{fill:none;stroke:#231f20;}.cls-1,.cls-2,.cls-5{stroke-linejoin:round;}.cls-1{stroke-width:7.9px;}.cls-2{stroke-width:3.95px;}.cls-3,.cls-5{stroke-width:1.98px;}.cls-4{fill:#fff;}.cls-6{font-size:84px;font-family:MyriadPro-BoldCond, Myriad Pro;font-weight:700;}.cls-11,.cls-6,.cls-9{fill:#231f20;}.cls-7{letter-spacing:0em;}.cls-8{letter-spacing:0em;}.cls-10{stroke:#000;stroke-miterlimit:10;stroke-width:0.46px;}.cls-11{font-size:40px;font-family:MyriadPro-Cond, Myriad Pro;}.cls-12{fill:#594fa1;}</style></defs><title>SW_Map-dots3rd Floor</title><g id="_3rd_floor" data-name="3rd floor"><polygon class="cls-1" points="1958.12 223.41 1958.12 922.91 1659.75 922.91 1659.75 664.05 1270.47 664.05 1270.47 764.83 873.3 764.83 873.3 782.61 729.05 782.61 729.05 796.44 602.59 796.44 602.59 778.66 462.29 778.66 462.29 758.9 67.09 758.9 67.09 498.07 491.93 498.07 491.93 112.75 835.75 112.75 835.75 498.07 1072.87 498.07 1072.87 152.27 1134.13 152.27 1134.13 114.72 1252.69 114.72 1252.69 223.41 1958.12 223.41"/><polyline class="cls-2" points="1838.57 920.93 1838.57 381.49 1959.11 381.49"/><line class="cls-2" x1="1838.57" y1="528.7" x2="1956.14" y2="528.7"/><line class="cls-2" x1="1838.57" y1="663.56" x2="1956.14" y2="663.56"/><line class="cls-2" x1="1838.57" y1="792" x2="1956.14" y2="792"/><polyline class="cls-2" points="1662.21 663.56 1779.79 663.56 1779.79 920.43"/><line class="cls-2" x1="1662.21" y1="792" x2="1779.79" y2="792"/><polyline class="cls-2" points="1885.02 225.39 1885.02 355.8 1783.58 355.8 1783.58 368.98 1548.43 368.98 1548.43 224.73"/><polyline class="cls-2" points="1486.52 224.07 1486.52 467.12 1463.47 577.77 1463.47 601.49 1662.39 601.49 1662.39 577.11 1792.8 550.76 1792.8 411.13 1486.52 410.47"/><line class="cls-2" x1="1664.36" y1="224.07" x2="1664.36" y2="368.32"/><line class="cls-2" x1="1783.91" y1="226.05" x2="1783.91" y2="355.8"/><line class="cls-2" x1="1835.94" y1="226.05" x2="1835.94" y2="355.8"/><polyline class="cls-2" points="1661.22 410.63 1661.22 463.49 1661.22 577.11"/><polyline class="cls-2" points="1709.64 411.12 1709.64 463.49 1661.22 463.49"/><polyline class="cls-2" points="1480.42 497.08 1377.18 497.08 1357.42 600.33"/><polyline class="cls-2" points="1431.02 601.32 1120.3 601.32 1120.3 199.04 1248.73 199.04"/><polyline class="cls-2" points="1252.69 220.12 1252.69 498.08 1268.5 498.08 1268.5 600.83"/><line class="cls-2" x1="1119.64" y1="497.9" x2="1252.69" y2="497.9"/><line class="cls-2" x1="1119.64" y1="382.8" x2="1252.69" y2="382.8"/><line class="cls-2" x1="1119.64" y1="315.62" x2="1252.69" y2="315.62"/><polyline class="cls-2" points="1073.52 490.83 1073.52 603.46 290.38 603.46 290.38 545.49 263.37 545.49 173.13 575.13 173.13 597.52 67.75 597.52"/><line class="cls-2" x1="204.63" y1="499.38" x2="204.63" y2="564.43"/><line class="cls-2" x1="261.27" y1="496.75" x2="261.27" y2="545.5"/><line class="cls-2" x1="383.13" y1="496.08" x2="383.13" y2="602.8"/><line class="cls-2" x1="440.43" y1="496.08" x2="440.43" y2="602.8"/><line class="cls-2" x1="493.79" y1="496.08" x2="493.79" y2="602.8"/><line class="cls-2" x1="837.07" y1="496.08" x2="837.07" y2="602.8"/><line class="cls-2" x1="897" y1="496.08" x2="897" y2="602.8"/><line class="cls-2" x1="951.67" y1="496.08" x2="951.67" y2="602.8"/><line class="cls-2" x1="1046.52" y1="496.08" x2="1046.52" y2="602.8"/><polyline class="cls-2" points="1269.81 662.05 330.55 662.05 330.55 696.31 266 721.34 266 758.23"/><line class="cls-2" x1="331.74" y1="690.39" x2="331.74" y2="758.23"/><line class="cls-2" x1="464.14" y1="660.74" x2="464.14" y2="761.52"/><line class="cls-2" x1="537.25" y1="662.73" x2="537.25" y2="779.3"/><line class="cls-2" x1="731.25" y1="662.73" x2="731.25" y2="779.3"/><line class="cls-2" x1="871.31" y1="764.16" x2="871.31" y2="661.41"/><line class="cls-2" x1="1006.34" y1="764.16" x2="1006.34" y2="661.41"/><line class="cls-2" x1="1134.11" y1="764.16" x2="1134.11" y2="661.41"/><polyline class="cls-2" points="206.61 756.27 206.61 660.11 69.6 660.11"/><line class="cls-3" x1="1175.58" y1="116.23" x2="1175.58" y2="198.71"/><line class="cls-3" x1="1181.23" y1="116.23" x2="1181.23" y2="198.71"/><line class="cls-3" x1="1186.98" y1="116.23" x2="1186.98" y2="198.71"/><line class="cls-3" x1="1192.53" y1="116.23" x2="1192.53" y2="198.71"/><line class="cls-3" x1="1197.78" y1="116.23" x2="1197.78" y2="198.71"/><line class="cls-3" x1="1203.43" y1="116.23" x2="1203.43" y2="198.71"/><line class="cls-3" x1="1209.18" y1="116.23" x2="1209.18" y2="198.71"/><line class="cls-3" x1="1214.72" y1="116.23" x2="1214.72" y2="198.71"/><line class="cls-3" x1="950.36" y1="541.99" x2="896.21" y2="541.99"/><line class="cls-3" x1="950.36" y1="547.64" x2="896.21" y2="547.64"/><line class="cls-3" x1="950.36" y1="553.39" x2="896.21" y2="553.39"/><line class="cls-3" x1="950.36" y1="558.94" x2="896.21" y2="558.94"/><line class="cls-3" x1="950.36" y1="564.19" x2="896.21" y2="564.19"/><line class="cls-3" x1="950.36" y1="569.83" x2="896.21" y2="569.83"/><line class="cls-3" x1="950.36" y1="575.58" x2="896.21" y2="575.58"/><line class="cls-3" x1="950.36" y1="581.13" x2="896.21" y2="581.13"/><line class="cls-3" x1="439.12" y1="541.99" x2="384.97" y2="541.99"/><line class="cls-3" x1="439.12" y1="547.64" x2="384.97" y2="547.64"/><line class="cls-3" x1="439.12" y1="553.39" x2="384.97" y2="553.39"/><line class="cls-3" x1="439.12" y1="558.94" x2="384.97" y2="558.94"/><line class="cls-3" x1="439.12" y1="564.19" x2="384.97" y2="564.19"/><line class="cls-3" x1="439.12" y1="569.83" x2="384.97" y2="569.83"/><line class="cls-3" x1="439.12" y1="575.58" x2="384.97" y2="575.58"/><line class="cls-3" x1="439.12" y1="581.13" x2="384.97" y2="581.13"/><line class="cls-3" x1="107.93" y1="597.39" x2="107.93" y2="658.45"/><line class="cls-3" x1="113.58" y1="597.39" x2="113.58" y2="658.45"/><line class="cls-3" x1="119.33" y1="597.39" x2="119.33" y2="658.45"/><line class="cls-3" x1="124.88" y1="597.39" x2="124.88" y2="658.45"/><line class="cls-3" x1="130.13" y1="597.39" x2="130.13" y2="658.45"/><line class="cls-3" x1="135.78" y1="597.39" x2="135.78" y2="658.45"/><line class="cls-3" x1="141.53" y1="597.39" x2="141.53" y2="658.45"/><line class="cls-3" x1="147.07" y1="597.39" x2="147.07" y2="658.45"/><polyline class="cls-2" points="607.52 602.8 607.52 554.39 732.01 554.39 732.01 602.8"/><line class="cls-3" x1="1365.29" y1="558.67" x2="1462.23" y2="576.42"/><line class="cls-3" x1="1366.31" y1="553.12" x2="1463.25" y2="570.86"/><line class="cls-3" x1="1367.35" y1="547.46" x2="1464.29" y2="565.2"/><line class="cls-3" x1="1368.34" y1="542.01" x2="1465.29" y2="559.75"/><line class="cls-3" x1="1369.29" y1="536.84" x2="1466.23" y2="554.58"/><line class="cls-3" x1="1370.3" y1="531.29" x2="1467.25" y2="549.03"/><line class="cls-3" x1="1371.34" y1="525.63" x2="1468.29" y2="543.37"/><line class="cls-3" x1="1372.34" y1="520.17" x2="1469.28" y2="537.91"/><line class="cls-3" x1="1547.36" y1="270.45" x2="1486.31" y2="270.45"/><line class="cls-3" x1="1547.36" y1="276.1" x2="1486.31" y2="276.1"/><line class="cls-3" x1="1547.36" y1="281.85" x2="1486.31" y2="281.85"/><line class="cls-3" x1="1547.36" y1="287.4" x2="1486.31" y2="287.4"/><line class="cls-3" x1="1547.36" y1="292.65" x2="1486.31" y2="292.65"/><line class="cls-3" x1="1547.36" y1="298.3" x2="1486.31" y2="298.3"/><line class="cls-3" x1="1547.36" y1="304.05" x2="1486.31" y2="304.05"/><line class="cls-3" x1="1547.36" y1="309.59" x2="1486.31" y2="309.59"/><rect class="cls-4" x="168.32" y="579.83" width="13.34" height="12.35"/><rect class="cls-4" x="217.23" y="552.16" width="13.34" height="12.35"/><rect class="cls-4" x="265.14" y="538.83" width="13.34" height="12.35"/><rect class="cls-4" x="297.25" y="596.62" width="13.34" height="12.35"/><rect class="cls-4" x="364.93" y="596.62" width="13.34" height="12.35"/><rect class="cls-4" x="447.93" y="596.62" width="13.34" height="12.35"/><rect class="cls-4" x="678.57" y="596.62" width="13.34" height="12.35"/><rect class="cls-4" x="868.61" y="596.62" width="13.34" height="12.35"/><rect class="cls-4" x="958.84" y="596.62" width="13.33" height="12.35"/><rect class="cls-4" x="1028" y="596.62" width="13.34" height="12.35"/><rect class="cls-4" x="1019.44" y="652.61" width="13.34" height="12.35"/><rect class="cls-4" x="1153.15" y="652.61" width="13.33" height="12.35"/><rect class="cls-4" x="1774.26" y="768.51" width="13.34" height="12.35"/><rect class="cls-4" x="1830.91" y="768.51" width="13.33" height="12.35"/><rect class="cls-4" x="1830.91" y="638.44" width="13.33" height="12.35"/><rect class="cls-4" x="1763.72" y="549.52" width="13.34" height="12.35"/><rect class="cls-4" x="1665.25" y="405.61" width="13.33" height="12.35"/><rect class="cls-4" x="1833.89" y="395.39" width="13.34" height="12.35"/><rect class="cls-4" x="1840.14" y="349.28" width="13.34" height="12.35"/><rect class="cls-4" x="1814.46" y="349.28" width="13.34" height="12.35"/><rect class="cls-4" x="1674.49" y="362.79" width="13.34" height="12.35"/><rect class="cls-4" x="1639.25" y="362.79" width="13.34" height="12.35"/><rect class="cls-4" x="1774.26" y="796.83" width="13.34" height="12.35"/><rect class="cls-4" x="1833.54" y="796.83" width="13.34" height="12.35"/><rect class="cls-4" x="1153.15" y="593.98" width="13.33" height="12.35"/><rect class="cls-4" x="1114.12" y="477.56" width="12.35" height="13.34"/><rect class="cls-4" x="1114.12" y="325.42" width="12.35" height="13.34"/><rect class="cls-4" x="1114.12" y="207.52" width="12.35" height="13.34"/><rect class="cls-4" x="1066.2" y="579.49" width="13.34" height="12.35"/><rect class="cls-4" x="883.75" y="652.61" width="13.34" height="12.35"/><rect class="cls-4" x="799.45" y="652.61" width="13.33" height="12.35"/><rect class="cls-4" x="661.78" y="652.61" width="13.34" height="12.35"/><rect class="cls-4" x="514.78" y="652.61" width="13.34" height="12.35"/><rect class="cls-4" x="479.87" y="652.61" width="13.34" height="12.35"/><rect class="cls-4" x="357.36" y="652.61" width="13.34" height="12.35"/><rect class="cls-4" x="182.81" y="651.94" width="13.34" height="12.35"/><rect class="cls-4" x="305.98" y="697.39" width="13.34" height="12.35"/><rect class="cls-4" x="513.63" y="596.62" width="21.73" height="12.35"/><rect class="cls-4" x="807.84" y="596.62" width="21.73" height="12.35"/><rect class="cls-4" x="393.59" y="597.61" width="38.54" height="12.35"/><rect class="cls-4" x="906.72" y="597.61" width="38.53" height="12.35"/><path class="cls-5" d="M494.56,491.49,530.13,506l2-104.07s75.75,21.73,135,21.73,141-23.71,141-23.71V509.27l27.66-9.88"/><polyline class="cls-2" points="497.74 661.41 497.74 679.86 464.14 679.86"/><line class="cls-3" x1="1837.59" y1="830.49" x2="1780.8" y2="830.49"/><line class="cls-3" x1="1837.59" y1="836.14" x2="1780.8" y2="836.14"/><line class="cls-3" x1="1837.59" y1="841.89" x2="1780.8" y2="841.89"/><line class="cls-3" x1="1837.59" y1="847.43" x2="1780.8" y2="847.43"/><line class="cls-3" x1="1837.59" y1="852.68" x2="1780.8" y2="852.68"/><line class="cls-3" x1="1837.59" y1="858.33" x2="1780.8" y2="858.33"/><line class="cls-3" x1="1837.59" y1="864.08" x2="1780.8" y2="864.08"/><line class="cls-3" x1="1837.59" y1="869.62" x2="1780.8" y2="869.62"/><text class="cls-6" transform="translate(1498.26 117.2)">3<tspan class="cls-7" x="35.78" y="0">r</tspan><tspan x="60.14" y="0">d </tspan><tspan class="cls-8" x="111.05" y="0">F</tspan><tspan x="143.72" y="0">loor</tspan></text></g><g id="_1st_floor" data-name="1st floor"><rect class="cls-9" x="1119.27" y="349.35" width="33.57" height="33.57"/><path class="cls-4" d="M1131.52,366.61c.06,8.95,3.55,10.81,6.85,10.81a10.33,10.33,0,0,0,4.8-1.08l.78,3.36a14.1,14.1,0,0,1-6.43,1.39c-6.91,0-10.51-5.65-10.51-14.6,0-9.43,4-15.32,9.79-15.32s8.29,6.25,8.29,12.8c0,1.14-.06,1.92-.12,2.64Zm9.13-3.42c.05-5.82-2.1-8.41-4.32-8.41-3,0-4.56,4.44-4.75,8.41Z"/><path class="cls-10" d="M968.51,514.84c-5.65,0-8.79,2.91-8.79,8.82V584.8c0,5.5,2.84,8.4,8.45,8.4h61.4c5.59,0,8.43-2.74,8.43-8.4V523.66c0-5.75-2.84-8.82-8.64-8.82C1029.36,514.84,968.46,514.82,968.51,514.84Z"/><path class="cls-4" d="M994.18,536.65a5.68,5.68,0,0,0-5.55,5.76v13.66a1.91,1.91,0,1,0,3.83,0V543.59h.91v34.49a2.53,2.53,0,1,0,5.05,0V557.89h.9v20.19a2.55,2.55,0,1,0,5.1,0V543.59h.87v12.48a1.91,1.91,0,1,0,3.81,0V542.5a5.78,5.78,0,0,0-5.66-5.85Z"/><path class="cls-4" d="M998.88,535.44a4.41,4.41,0,1,0-4.44-4.38A4.4,4.4,0,0,0,998.88,535.44Z"/><path class="cls-10" d="M306.73,514.84c-5.63,0-8.77,2.91-8.77,8.82V584.8c0,5.5,2.83,8.4,8.43,8.4h61.39c5.6,0,8.44-2.74,8.44-8.4V523.66c0-5.75-2.84-8.82-8.63-8.82C367.59,514.84,306.71,514.82,306.73,514.84Z"/><path class="cls-4" d="M337.13,535.44a4.41,4.41,0,1,0-4.4-4.38A4.4,4.4,0,0,0,337.13,535.44Z"/><path class="cls-4" d="M336.46,563.34v15.41a2.06,2.06,0,0,1-4.12,0V563.34h-5.5l5.85-20.43h-.91l-3.47,11.68c-.82,2.55-4.27,1.48-3.52-1.24l3.87-12.68a5.82,5.82,0,0,1,5.4-4h6a6,6,0,0,1,5.43,4l3.87,12.68c.76,2.72-2.71,3.84-3.52,1.19l-3.46-11.62h-1l6,20.43h-5.5v15.41a2.08,2.08,0,0,1-4.16,0V563.34Z"/><text class="cls-11" transform="translate(1149.25 271.21)">W304</text><text class="cls-11" transform="translate(1586.18 314.68)">317</text><text class="cls-11" transform="translate(1702.76 314.68)">315</text><text class="cls-11" transform="translate(1819.87 321.79) rotate(-90)">314</text><text class="cls-11" transform="translate(1874.21 321.79) rotate(-90)">313</text><text class="cls-11" transform="translate(1899.37 314.68)">312</text><text class="cls-11" transform="translate(1875.66 471.77)">311</text><text class="cls-11" transform="translate(1875.66 606.14)">310</text><text class="cls-11" transform="translate(1875.66 740.51)">309</text><text class="cls-11" transform="translate(1697.82 740.51)">306</text><text class="cls-11" transform="translate(1697.82 521.18)">303</text><text class="cls-11" transform="translate(1875.66 867.96)">308</text><text class="cls-11" transform="translate(1697.82 867.96)">307</text><text class="cls-11" transform="translate(1149.25 453)">W302</text><text class="cls-11" transform="translate(1149.25 562.67)">W301</text><text class="cls-11" transform="translate(1166.04 720.75)">W322</text><text class="cls-11" transform="translate(1033.65 720.75)">W321</text><text class="cls-11" transform="translate(908.17 720.75)">W320</text><text class="cls-11" transform="translate(365.97 720.75)">W316</text><text class="cls-11" transform="translate(103.17 720.75)">W314</text><text class="cls-11" transform="translate(103.17 555.76)">W313</text><text class="cls-11" transform="translate(758 736.56)">W319</text><text class="cls-11" transform="translate(565.01 736.56)">W318</text><text class="cls-11" transform="translate(1169 360.13)">W303</text></g><g id="Layer_6" data-name="Layer 6"><circle class="cls-12" cx="1142.75" cy="173.74" r="16.28"/><circle class="cls-12" cx="1095.14" cy="206.29" r="16.28"/><circle class="cls-12" cx="1095.14" cy="332.09" r="16.28"/><circle class="cls-12" cx="1095.14" cy="484.23" r="16.28"/><circle class="cls-12" cx="1095.14" cy="638.44" r="16.28"/><circle class="cls-12" cx="1026.11" cy="638.44" r="16.28"/><circle class="cls-12" cx="923.29" cy="596.62" r="16.28"/><circle class="cls-12" cx="890.42" cy="638.44" r="16.28"/><circle class="cls-12" cx="806.12" cy="638.44" r="16.28"/><circle class="cls-12" cx="668.45" cy="638.44" r="16.28"/><circle class="cls-12" cx="411.78" cy="608.98" r="16.28"/><circle class="cls-12" cx="349.51" cy="638.44" r="16.28"/><circle class="cls-12" cx="206.61" cy="625.25" r="16.28"/><circle class="cls-12" cx="155.62" cy="634.19" r="16.28"/><circle class="cls-12" cx="1159.02" cy="638.44" r="16.28"/><circle class="cls-12" cx="1447.3" cy="631.06" r="16.28"/><circle class="cls-12" cx="1809.2" cy="608.98" r="16.28"/><circle class="cls-12" cx="1809.18" cy="775.61" r="16.28"/><circle class="cls-12" cx="1809.18" cy="822.28" r="16.28"/><circle class="cls-12" cx="1681.16" cy="393.13" r="16.28"/><circle class="cls-12" cx="1516.84" cy="382.92" r="16.28"/></g></svg>