<svg xmlns="http://www.w3.org/2000/svg" viewBox="0 0 2191.08 1832.23"><defs><style>.cls-1,.cls-13,.cls-14,.cls-2,.cls-5,.cls-6,.cls-8{fill:none;stroke:#231f20;}.cls-1{stroke-width:7.51px;}.cls-2{stroke-width:3.75px;}.cls-3{fill:#fff;}.cls-11,.cls-20,.cls-22,.cls-4,.cls-42,.cls-45,.cls-57,.cls-62,.cls-66,.cls-70,.cls-9{fill:#231f20;}.cls-5{stroke-width:1.88px;}.cls-6{stroke-width:4px;}.cls-7{fill:#d1d3d4;}.cls-8{stroke-width:2px;}.cls-9{font-size:32.4px;}.cls-11,.cls-45,.cls-66,.cls-9{font-family:MyriadPro-Cond, Myriad Pro;}.cls-10{letter-spacing:0em;}.cls-11,.cls-42,.cls-57{font-size:36px;}.cls-12{letter-spacing:0.01em;}.cls-13{stroke-width:5.46px;}.cls-14{stroke-width:6.24px;}.cls-15,.cls-16,.cls-17,.cls-18,.cls-19{stroke:#000;stroke-miterlimit:10;}.cls-15{stroke-width:0.34px;}.cls-16{stroke-width:0.25px;}.cls-17{stroke-width:0.25px;}.cls-18{stroke-width:0.51px;}.cls-19{stroke-width:0.4px;}.cls-20{font-size:43.2px;}.cls-20,.cls-22,.cls-42,.cls-57,.cls-62,.cls-70{font-family:MyriadPro-BoldCond, Myriad Pro;font-weight:700;}.cls-21{letter-spacing:0.02em;}.cls-22,.cls-62{font-size:32.83px;}.cls-23{letter-spacing:-0.02em;}.cls-24{letter-spacing:0em;}.cls-25{letter-spacing:-0.01em;}.cls-26{letter-spacing:0em;}.cls-27{letter-spacing:0em;}.cls-28{letter-spacing:-0.01em;}.cls-29{letter-spacing:-0.07em;}.cls-30{letter-spacing:-0.02em;}.cls-31{letter-spacing:-0.01em;}.cls-32{letter-spacing:0.01em;}.cls-33{letter-spacing:-0.01em;}.cls-34{letter-spacing:-0.01em;}.cls-35{letter-spacing:-0.07em;}.cls-36{letter-spacing:-0.04em;}.cls-37{letter-spacing:0em;}.cls-38{letter-spacing:-0.01em;}.cls-39{letter-spacing:-0.01em;}.cls-40{letter-spacing:0.01em;}.cls-41{letter-spacing:-0.05em;}.cls-43{letter-spacing:0em;}.cls-44{letter-spacing:-0.01em;}.cls-45{font-size:27.03px;}.cls-46{letter-spacing:0em;}.cls-47{letter-spacing:0em;}.cls-48{letter-spacing:0em;}.cls-49{letter-spacing:-0.01em;}.cls-50{letter-spacing:0.01em;}.cls-51{letter-spacing:-0.02em;}.cls-52{letter-spacing:0em;}.cls-53{letter-spacing:0.02em;}.cls-54{letter-spacing:0.01em;}.cls-55{letter-spacing:-0.01em;}.cls-56{letter-spacing:-0.01em;}.cls-57{letter-spacing:-0.02em;}.cls-58{letter-spacing:0.01em;}.cls-59{letter-spacing:-0.01em;}.cls-60{letter-spacing:-0.02em;}.cls-61{letter-spacing:-0.01em;}.cls-62{letter-spacing:-0.03em;}.cls-63{letter-spacing:-0.02em;}.cls-64{letter-spacing:0.01em;}.cls-65{letter-spacing:-0.01em;}.cls-66{font-size:28.8px;}.cls-67{letter-spacing:-0.01em;}.cls-68{letter-spacing:0em;}.cls-69{letter-spacing:-0.01em;}.cls-70{font-size:75.6px;}.cls-71{letter-spacing:0em;}.cls-72{fill:#594fa1;}</style></defs><title>SW_Map-dots1st Floor</title><g id="_1st_floor" data-name="1st floor"><polyline class="cls-1" points="188.89 296.97 188.89 272.19 286.88 272.19 286.88 1154.09 324.04 1154.09 324.04 1191.26 296.45 1191.26 296.45 1403.58 137.64 1403.58 137.64 1473.41 155.09 1473.41 155.09 1525.22 168.61 1525.22 168.61 1597.87 454.69 1597.87 454.69 1608.57 558.32 1608.57 558.32 1618.14 652.93 1618.14 652.93 1608.01 755.98 1608.01 755.98 1597.31 1047.14 1597.31 1047.14 1522.97 1214.4 1522.97 1214.4 1533.68 1331.49 1558.35 1331.49 1716.04 2123.33 1716.14 2123.33 932.79 1368.14 932.79 1368.14 1207.61 1181.74 1207.61 1171.6 1155.8 1037.57 1155.8 1037.57 1120.32 982.38 1120.32 982.38 1025.71 1010.53 1025.71 1010.53 818.47 980.13 818.47 980.13 615.17 1012.23 615.17 1012.23 410.75 984.63 410.75 984.63 272.21 1029.68 272.21 1029.68 80.74 187.75 80.74 187.75 234.48 317.84 234.48"/><line class="cls-2" x1="189.45" y1="205.2" x2="375.86" y2="205.2"/><line class="cls-2" x1="303.21" y1="81.3" x2="303.21" y2="205.76"/><line class="cls-2" x1="289.13" y1="204.63" x2="289.13" y2="235.05"/><line class="cls-2" x1="354.45" y1="81.87" x2="354.45" y2="203.51"/><rect class="cls-2" x="376.98" y="204.63" width="143.61" height="29.85"/><rect class="cls-2" x="520.58" y="140.99" width="113.76" height="93.48"/><line class="cls-2" x1="518.9" y1="79.61" x2="518.9" y2="140.99"/><line class="cls-2" x1="634.34" y1="234.48" x2="1026.87" y2="234.48"/><polyline class="cls-2" points="816.8 80.17 816.8 98.19 823 98.19 869.74 132.54 869.74 232.79"/><rect class="cls-3" x="877.06" y="229.69" width="12.39" height="10.7"/><rect class="cls-4" x="593.68" y="65" width="30.41" height="20.28"/><rect class="cls-4" x="765.05" y="65" width="30.41" height="20.28"/><rect class="cls-4" x="820.25" y="65" width="30.41" height="20.28"/><rect class="cls-4" x="1019.3" y="237.94" width="20.27" height="30.41"/><rect class="cls-4" x="970.35" y="677.47" width="20.27" height="30.41"/><rect class="cls-4" x="995.36" y="1105.22" width="30.41" height="20.27"/><rect class="cls-4" x="1123.41" y="1144.27" width="30.41" height="20.27"/><rect class="cls-4" x="1523.03" y="917.6" width="30.41" height="20.27"/><rect class="cls-4" x="1873.3" y="917.52" width="30.41" height="20.27"/><rect class="cls-4" x="1873.65" y="1710.48" width="30.41" height="20.27"/><rect class="cls-4" x="1430" y="1710.48" width="30.41" height="20.27"/><rect class="cls-4" x="1149.65" y="1522.84" width="55.54" height="20.27"/><polyline class="cls-2" points="168.47 1523.92 478.25 1523.92 478.25 1122.43 730.93 1122.43 730.93 1230.13"/><rect class="cls-4" x="144.24" y="1486.95" width="20.27" height="30.41"/><rect class="cls-4" x="283.98" y="1306.04" width="20.28" height="30.41"/><rect class="cls-4" x="283.98" y="1262.38" width="20.28" height="30.41"/><rect class="cls-4" x="309.11" y="1157.33" width="20.27" height="30.41"/><rect class="cls-4" x="273.23" y="607.93" width="20.27" height="30.41"/><rect class="cls-4" x="273.74" y="234.77" width="20.27" height="34.13"/><rect class="cls-3" x="272.42" y="203.28" width="10.3" height="10.3"/><rect class="cls-3" x="301.21" y="190.24" width="4.2" height="10.3"/><rect class="cls-3" x="331.83" y="203.28" width="10.3" height="10.3"/><rect class="cls-3" x="363.96" y="203.28" width="10.3" height="10.3"/><rect class="cls-3" x="372.2" y="218.26" width="10.3" height="10.3"/><rect class="cls-3" x="598.77" y="136.27" width="10.29" height="10.3"/><rect class="cls-3" x="590.53" y="228.96" width="16.06" height="10.3"/><rect class="cls-3" x="742.12" y="228.96" width="16.06" height="10.3"/><rect class="cls-3" x="552.13" y="228.14" width="10.3" height="10.3"/><rect class="cls-3" x="291.46" y="203.28" width="10.3" height="8.33"/><polyline class="cls-2" points="984.44 272.4 806.59 272.4 806.59 411.64 841.19 411.64 841.19 438.42 808.65 458.6 808.65 567.77 841.61 587.95 841.61 613.5 807.42 613.5 807.42 669.93 978.37 669.93"/><line class="cls-2" x1="807.01" y1="310.31" x2="982.49" y2="310.31"/><line class="cls-2" x1="983.32" y1="410.82" x2="841.19" y2="410.82"/><line class="cls-2" x1="1011.33" y1="512.98" x2="807.83" y2="512.98"/><line class="cls-2" x1="981.67" y1="614.31" x2="841.61" y2="614.31"/><rect class="cls-3" x="825" y="267.09" width="12.39" height="10.7"/><rect class="cls-3" x="928.87" y="407.09" width="12.39" height="10.7"/><rect class="cls-3" x="835.62" y="420.74" width="12.39" height="10.7"/><rect class="cls-3" x="819.19" y="445" width="12.39" height="10.7"/><rect class="cls-3" x="928.87" y="508.18" width="12.39" height="10.7"/><rect class="cls-3" x="819.19" y="508.18" width="12.39" height="10.7"/><rect class="cls-3" x="819.19" y="571.86" width="12.39" height="10.7"/><rect class="cls-3" x="836.88" y="595.11" width="12.39" height="10.7"/><rect class="cls-3" x="817.42" y="407.6" width="12.39" height="10.7"/><polyline class="cls-2" points="978.98 717 809.67 717 809.67 817.58 842.52 817.58 842.52 845.88 808.15 865.6 808.15 974.77 842.52 996 842.52 1021.26 806.64 1021.26 806.64 1122.35 863.75 1122.35 863.75 1152.66 932.48 1152.66 932.48 1182.48 1036.6 1182.48 1036.6 1208.77 1105.34 1208.77 1105.34 1154.69"/><line class="cls-2" x1="1069.96" y1="1156.21" x2="1069.96" y2="1191.08"/><line class="cls-2" x1="1036.6" y1="1155.7" x2="1036.6" y2="1182.48"/><line class="cls-2" x1="863.75" y1="1122.34" x2="983.02" y2="1122.34"/><polyline class="cls-2" points="947.14 1122.34 947.14 1153.18 929.96 1153.18"/><line class="cls-2" x1="842.52" y1="1021.26" x2="981.51" y2="1021.26"/><line class="cls-2" x1="842.52" y1="845.88" x2="842.52" y2="995.99"/><line class="cls-2" x1="1011.84" y1="921.2" x2="843.03" y2="921.2"/><line class="cls-2" x1="980" y1="818.09" x2="842.52" y2="818.09"/><rect class="cls-3" x="818.69" y="665.87" width="12.39" height="10.7"/><rect class="cls-3" x="819.14" y="711.16" width="12.39" height="10.7"/><rect class="cls-3" x="819.14" y="813.25" width="12.39" height="10.7"/><rect class="cls-3" x="819.14" y="850.65" width="12.39" height="10.7"/><rect class="cls-3" x="835.82" y="829.42" width="12.39" height="10.7"/><rect class="cls-3" x="835.82" y="1003.29" width="12.39" height="10.7"/><rect class="cls-3" x="929.32" y="913.32" width="12.39" height="10.7"/><rect class="cls-3" x="819.14" y="978.52" width="12.39" height="10.7"/><rect class="cls-3" x="819.14" y="1015.92" width="12.39" height="10.7"/><rect class="cls-3" x="819.14" y="1117.01" width="12.39" height="10.7"/><rect class="cls-3" x="1083.48" y="1200.5" width="12.39" height="10.7"/><rect class="cls-3" x="856.04" y="1132.17" width="12.39" height="10.7"/><rect class="cls-3" x="937.92" y="1176.63" width="23.01" height="10.7"/><polyline class="cls-2" points="1166 1230.5 1253.44 1230.5 1253.44 1205.73"/><polyline class="cls-2" points="1368.17 1208.27 1368.17 1237.08 1509.69 1261.34 1517.78 1213.83 1517.78 933.82"/><line class="cls-2" x1="1368.68" y1="971.22" x2="1515.76" y2="971.22"/><polyline class="cls-2" points="1559.21 932.32 1559.21 1045.03 1867.01 1045.03 1867.01 932.32"/><line class="cls-2" x1="1638.06" y1="931.81" x2="1638.06" y2="1044.01"/><line class="cls-2" x1="1714.37" y1="931.81" x2="1714.37" y2="1044.01"/><line class="cls-2" x1="1790.19" y1="931.81" x2="1790.19" y2="1044.01"/><line class="cls-2" x1="1827.59" y1="931.81" x2="1827.59" y2="1044.01"/><rect class="cls-3" x="1235.61" y="1226.96" width="12.39" height="5.29"/><rect class="cls-3" x="1515.32" y="1190.8" width="12.39" height="10.7"/><rect class="cls-3" x="1513.81" y="1065.96" width="12.39" height="10.7"/><rect class="cls-3" x="1621.25" y="1040.18" width="12.39" height="10.7"/><rect class="cls-3" x="1696.05" y="1040.18" width="12.4" height="10.7"/><rect class="cls-3" x="1772.38" y="1040.18" width="12.38" height="10.7"/><rect class="cls-3" x="1849.7" y="1040.18" width="12.4" height="10.7"/><rect class="cls-3" x="1805.23" y="1040.18" width="12.39" height="10.7"/><rect class="cls-3" x="1513.09" y="953.25" width="12.39" height="10.7"/><line class="cls-5" x1="1908.75" y1="981.63" x2="1868.44" y2="981.63"/><line class="cls-5" x1="1908.75" y1="986.46" x2="1868.44" y2="986.46"/><line class="cls-5" x1="1908.75" y1="991.38" x2="1868.44" y2="991.38"/><line class="cls-5" x1="1908.75" y1="996.12" x2="1868.44" y2="996.12"/><line class="cls-5" x1="1908.75" y1="1000.61" x2="1868.44" y2="1000.61"/><line class="cls-5" x1="1908.75" y1="1005.44" x2="1868.44" y2="1005.44"/><line class="cls-5" x1="1908.75" y1="1010.35" x2="1868.44" y2="1010.35"/><line class="cls-5" x1="1908.75" y1="1015.1" x2="1868.44" y2="1015.1"/><line class="cls-5" x1="1189.31" y1="1209.38" x2="1189.31" y2="1229.98"/><line class="cls-5" x1="1194.14" y1="1209.38" x2="1194.14" y2="1229.98"/><line class="cls-5" x1="1199.05" y1="1209.38" x2="1199.05" y2="1229.98"/><line class="cls-5" x1="1203.8" y1="1209.38" x2="1203.8" y2="1229.98"/><line class="cls-5" x1="1208.29" y1="1209.38" x2="1208.29" y2="1229.98"/><line class="cls-5" x1="1213.11" y1="1209.38" x2="1213.11" y2="1229.98"/><line class="cls-5" x1="1218.04" y1="1209.38" x2="1218.04" y2="1229.98"/><line class="cls-5" x1="1222.77" y1="1209.38" x2="1222.77" y2="1229.98"/><line class="cls-5" x1="1057.86" y1="1210.1" x2="1057.86" y2="1259.21"/><line class="cls-5" x1="1062.69" y1="1210.1" x2="1062.69" y2="1259.21"/><line class="cls-5" x1="1067.6" y1="1210.1" x2="1067.6" y2="1259.21"/><line class="cls-5" x1="1072.35" y1="1210.1" x2="1072.35" y2="1259.21"/><line class="cls-5" x1="1076.84" y1="1210.1" x2="1076.84" y2="1259.21"/><line class="cls-5" x1="1057.86" y1="1483.55" x2="1057.86" y2="1522.35"/><line class="cls-5" x1="1062.69" y1="1483.55" x2="1062.69" y2="1522.35"/><line class="cls-5" x1="1067.6" y1="1483.55" x2="1067.6" y2="1522.35"/><line class="cls-5" x1="1072.35" y1="1483.55" x2="1072.35" y2="1522.35"/><line class="cls-5" x1="1076.84" y1="1483.55" x2="1076.84" y2="1522.35"/><line class="cls-5" x1="733.94" y1="1481.43" x2="733.94" y2="1520.24"/><line class="cls-5" x1="738.77" y1="1481.43" x2="738.77" y2="1520.24"/><line class="cls-5" x1="743.68" y1="1481.43" x2="743.68" y2="1520.24"/><line class="cls-5" x1="748.42" y1="1481.43" x2="748.42" y2="1520.24"/><line class="cls-5" x1="752.91" y1="1481.43" x2="752.91" y2="1520.24"/><line class="cls-5" x1="772.5" y1="1191.46" x2="733.7" y2="1191.46"/><line class="cls-5" x1="772.5" y1="1196.3" x2="733.7" y2="1196.3"/><line class="cls-5" x1="772.5" y1="1201.21" x2="733.7" y2="1201.21"/><line class="cls-5" x1="772.5" y1="1205.95" x2="733.7" y2="1205.95"/><line class="cls-5" x1="772.5" y1="1210.44" x2="733.7" y2="1210.44"/><line class="cls-5" x1="466.7" y1="1194.42" x2="438.46" y2="1194.42"/><line class="cls-5" x1="466.7" y1="1199.25" x2="438.46" y2="1199.25"/><line class="cls-5" x1="466.7" y1="1204.17" x2="438.46" y2="1204.17"/><line class="cls-5" x1="466.7" y1="1208.91" x2="438.46" y2="1208.91"/><line class="cls-5" x1="466.7" y1="1213.4" x2="438.46" y2="1213.4"/><line class="cls-5" x1="865.24" y1="1327.46" x2="850.14" y2="1327.46"/><line class="cls-5" x1="865.24" y1="1332.29" x2="850.14" y2="1332.29"/><line class="cls-5" x1="865.24" y1="1337.2" x2="850.14" y2="1337.2"/><line class="cls-5" x1="865.24" y1="1341.94" x2="850.14" y2="1341.94"/><line class="cls-5" x1="582.26" y1="1006.89" x2="565.6" y2="1006.89"/><line class="cls-5" x1="582.26" y1="1011.72" x2="565.6" y2="1011.72"/><line class="cls-5" x1="582.26" y1="1016.64" x2="565.6" y2="1016.64"/><line class="cls-5" x1="582.26" y1="1021.37" x2="565.6" y2="1021.37"/><line class="cls-5" x1="582.26" y1="1025.86" x2="565.6" y2="1025.86"/><line class="cls-5" x1="463.04" y1="785.92" x2="463.04" y2="769.27"/><line class="cls-5" x1="458.21" y1="785.92" x2="458.21" y2="769.27"/><line class="cls-5" x1="453.29" y1="785.92" x2="453.29" y2="769.27"/><line class="cls-5" x1="448.56" y1="785.92" x2="448.56" y2="769.27"/><line class="cls-5" x1="444.07" y1="785.92" x2="444.07" y2="769.27"/><line class="cls-5" x1="977.56" y1="1151.66" x2="977.56" y2="1181.83"/><line class="cls-5" x1="982.39" y1="1151.66" x2="982.39" y2="1181.83"/><line class="cls-5" x1="987.31" y1="1151.66" x2="987.31" y2="1181.83"/><line class="cls-5" x1="992.05" y1="1151.66" x2="992.05" y2="1181.83"/><line class="cls-5" x1="996.54" y1="1151.66" x2="996.54" y2="1181.83"/><line class="cls-5" x1="1001.37" y1="1151.66" x2="1001.37" y2="1181.83"/><line class="cls-5" x1="1006.28" y1="1151.66" x2="1006.28" y2="1181.83"/><line class="cls-5" x1="1011.03" y1="1151.66" x2="1011.03" y2="1181.83"/><line class="cls-2" x1="841.19" y1="438.42" x2="841.19" y2="587.95"/><polyline class="cls-5" points="769.5 312.18 774.22 312.18 774.22 271.63 805.79 271.63"/><line class="cls-5" x1="805.8" y1="276.46" x2="774.22" y2="276.46"/><line class="cls-5" x1="805.8" y1="281.37" x2="774.22" y2="281.37"/><line class="cls-5" x1="805.8" y1="286.11" x2="774.22" y2="286.11"/><line class="cls-5" x1="805.8" y1="290.6" x2="774.22" y2="290.6"/><line class="cls-5" x1="805.8" y1="295.43" x2="774.22" y2="295.43"/><line class="cls-5" x1="426.51" y1="272.89" x2="405.91" y2="272.89"/><line class="cls-5" x1="426.51" y1="277.72" x2="405.91" y2="277.72"/><line class="cls-5" x1="426.51" y1="282.64" x2="405.91" y2="282.64"/><line class="cls-5" x1="426.51" y1="287.38" x2="405.91" y2="287.38"/><line class="cls-5" x1="426.51" y1="291.87" x2="405.91" y2="291.87"/><polyline class="cls-2" points="1909.06 932.53 1909.06 1246.64 1909.06 1717.19"/><line class="cls-2" x1="1908.41" y1="1437.09" x2="2121.09" y2="1437.09"/><line class="cls-2" x1="1968.61" y1="1359.21" x2="2121.09" y2="1359.21"/><line class="cls-2" x1="2119.78" y1="1245.99" x2="1909.06" y2="1245.99"/><polyline class="cls-2" points="1908.4 1419.4 1968.61 1419.4 1968.61 1287.87 1909.06 1287.87"/><polygon class="cls-2" points="1865.86 1093.5 1865.86 1551.6 1558.29 1551.6 1558.29 1570.58 1464.7 1570.58 1464.7 1447.54 1517.05 1437.07 1557.63 1437.07 1557.63 1093.49 1865.86 1093.5"/><line class="cls-2" x1="1557.62" y1="1206.71" x2="1865.85" y2="1206.71"/><line class="cls-2" x1="1674.11" y1="1092.19" x2="1674.11" y2="1206.05"/><line class="cls-2" x1="1789.29" y1="1092.19" x2="1789.29" y2="1206.05"/><polyline class="cls-2" points="1865.85 1437.07 1557.63 1437.07 1557.63 1551.6"/><line class="cls-2" x1="1752.63" y1="1437.07" x2="1752.63" y2="1551.59"/><line class="cls-2" x1="1638.11" y1="1437.07" x2="1638.11" y2="1550.94"/><polyline class="cls-2" points="1867.16 1713.23 1867.16 1598.06 1557.61 1598.06 1557.61 1714.55"/><line class="cls-2" x1="1637.45" y1="1597.4" x2="1637.45" y2="1713.89"/><line class="cls-2" x1="1713.36" y1="1597.4" x2="1713.36" y2="1717.16"/><line class="cls-5" x1="1907.67" y1="1640.53" x2="1867.36" y2="1640.53"/><line class="cls-5" x1="1907.67" y1="1645.36" x2="1867.36" y2="1645.36"/><line class="cls-5" x1="1907.67" y1="1650.28" x2="1867.36" y2="1650.28"/><line class="cls-5" x1="1907.67" y1="1655.02" x2="1867.36" y2="1655.02"/><line class="cls-5" x1="1907.67" y1="1659.51" x2="1867.36" y2="1659.51"/><line class="cls-5" x1="1907.67" y1="1664.34" x2="1867.36" y2="1664.34"/><line class="cls-5" x1="1907.67" y1="1669.25" x2="1867.36" y2="1669.25"/><line class="cls-5" x1="1907.67" y1="1674" x2="1867.36" y2="1674"/><rect class="cls-3" x="1554.78" y="1228.18" width="12.4" height="15.28"/><rect class="cls-3" x="1554.78" y="1405.58" width="12.4" height="15.27"/><rect class="cls-3" x="1902.2" y="1057.7" width="12.39" height="15.28"/><rect class="cls-3" x="1902.85" y="1163.07" width="12.39" height="15.28"/><rect class="cls-3" x="1802.53" y="1086.54" width="12.39" height="10.7"/><rect class="cls-3" x="1562.35" y="1086.54" width="12.39" height="10.7"/><rect class="cls-3" x="1714.84" y="1086.54" width="12.39" height="10.7"/><rect class="cls-3" x="1903.51" y="1255.01" width="12.39" height="10.7"/><rect class="cls-3" x="2000.36" y="1354.48" width="12.39" height="10.7"/><rect class="cls-3" x="1903.51" y="1423.86" width="12.39" height="10.7"/><rect class="cls-3" x="1771.98" y="1542.98" width="12.38" height="10.69"/><rect class="cls-3" x="1715.69" y="1544.29" width="12.39" height="10.69"/><rect class="cls-3" x="1614.92" y="1544.29" width="12.38" height="10.69"/><rect class="cls-3" x="1537.69" y="1434.27" width="12.39" height="7.5"/><rect class="cls-3" x="1516.46" y="1434.27" width="11.92" height="7.5"/><rect class="cls-3" x="1458.51" y="1459.86" width="12.38" height="10.7"/><rect class="cls-3" x="1460.47" y="1506.99" width="12.38" height="10.7"/><rect class="cls-3" x="1460.47" y="1530.55" width="12.38" height="10.69"/><rect class="cls-3" x="1563.86" y="1592.71" width="12.39" height="10.7"/><rect class="cls-3" x="1807.96" y="1594.02" width="12.39" height="10.7"/><rect class="cls-3" x="1860.97" y="1628.05" width="12.39" height="10.7"/><line class="cls-2" x1="1831.78" y1="1715.9" x2="1831.78" y2="1613.55"/><line class="cls-2" x1="1525.83" y1="1603.5" x2="1482.46" y2="1603.5"/><line class="cls-2" x1="1462.75" y1="1603.5" x2="1462.75" y2="1715.8"/><polyline class="cls-2" points="1425.59 1715.8 1425.59 1453.7 1215.53 1490.31 1215.53 1532.54"/><polyline class="cls-2" points="1267.16 1544.92 1275.22 1503.83 1334.92 1515.65 1368.71 1513.96 1368.71 1668.27 1385.6 1668.27 1385.6 1460.47"/><line class="cls-2" x1="1333.23" y1="1558.45" x2="1333.23" y2="1515.65"/><line class="cls-2" x1="1385.04" y1="1569.15" x2="1424.46" y2="1569.15"/><line class="cls-2" x1="1333.79" y1="1544.94" x2="1368.71" y2="1544.94"/><line class="cls-2" x1="1333.79" y1="1569.15" x2="1368.71" y2="1569.15"/><line class="cls-2" x1="1333.79" y1="1597.31" x2="1368.71" y2="1597.31"/><line class="cls-2" x1="1333.79" y1="1636.17" x2="1368.71" y2="1636.17"/><line class="cls-2" x1="1333.79" y1="1668.26" x2="1368.71" y2="1668.26"/><line class="cls-2" x1="1386.43" y1="1623.77" x2="1424.46" y2="1623.77"/><line class="cls-2" x1="1385.6" y1="1668.27" x2="1385.6" y2="1717.27"/><line class="cls-2" x1="1557.33" y1="1483.9" x2="1464.29" y2="1483.9"/><line class="cls-2" x1="1514.76" y1="1436.96" x2="1514.76" y2="1483.49"/><line class="cls-2" x1="1533.37" y1="1436.96" x2="1533.37" y2="1484.61"/><line class="cls-2" x1="1465" y1="1523.68" x2="1555.82" y2="1523.68"/><polyline class="cls-2" points="1046.01 1523.26 751.62 1523.26 751.62 1531.28 480.04 1531.28"/><line class="cls-2" x1="479.19" y1="1608.99" x2="479.19" y2="1523.92"/><line class="cls-2" x1="657.44" y1="1607.73" x2="657.44" y2="1531.28"/><polyline class="cls-6" points="1083.61 1482.29 936.2 1482.29 936.2 1293.9 989 1293.9 989 1259.69 1035.46 1259.69 1035.46 1404.57 1047.28 1404.57 1047.28 1481.01"/><polyline class="cls-2" points="1035.46 1259.69 1076.43 1259.69 1089.52 1331.5 1069.77 1404.4 1047.38 1404.4"/><line class="cls-6" x1="936.62" y1="1320.51" x2="1033.77" y2="1320.51"/><line class="cls-6" x1="1046.81" y1="1384.89" x2="1075.29" y2="1384.89"/><line class="cls-2" x1="1035.46" y1="1404.57" x2="936.62" y2="1404.57"/><line class="cls-2" x1="988.15" y1="1293.48" x2="988.15" y2="1320.94"/><line class="cls-6" x1="1046.75" y1="1260.05" x2="1046.75" y2="1386.66"/><line class="cls-2" x1="963.65" y1="1522.4" x2="963.65" y2="1597.59"/><line class="cls-2" x1="855.1" y1="1522.4" x2="855.1" y2="1597.59"/><line class="cls-2" x1="753.74" y1="1522.4" x2="753.74" y2="1597.59"/><line class="cls-2" x1="358.82" y1="1524.94" x2="358.82" y2="1600.13"/><line class="cls-2" x1="266.32" y1="1524.94" x2="266.32" y2="1600.13"/><polyline class="cls-2" points="477.93 1484.4 563.25 1484.4 563.25 1453.56 727.55 1453.56 727.55 1480.59 904.52 1480.59 904.52 1339.1 867.78 1339.1 867.78 1188.73 774.01 1188.73 774.01 1479.32"/><polyline class="cls-2" points="774.85 1344.16 849.61 1344.16 849.61 1321.36 868.2 1321.36"/><line class="cls-2" x1="773.59" y1="1404.99" x2="904.52" y2="1404.99"/><line class="cls-2" x1="814.13" y1="1405.41" x2="814.13" y2="1478.9"/><polyline class="cls-2" points="774.01 1363.6 521.01 1363.6 521.01 1352.61 501.16 1352.61 501.16 1325.58 774.43 1325.58"/><line class="cls-2" x1="739.8" y1="1324.32" x2="739.8" y2="1361.49"/><line class="cls-2" x1="706.01" y1="1324.32" x2="706.01" y2="1361.49"/><line class="cls-2" x1="672.22" y1="1324.32" x2="672.22" y2="1361.49"/><line class="cls-2" x1="640.54" y1="1324.32" x2="640.54" y2="1361.49"/><line class="cls-2" x1="575.92" y1="1326.85" x2="575.92" y2="1364.02"/><line class="cls-2" x1="520.16" y1="1364.02" x2="520.16" y2="1326.85"/><line class="cls-2" x1="561.56" y1="1363.18" x2="561.56" y2="1453.56"/><line class="cls-2" x1="727.55" y1="1364.02" x2="727.55" y2="1453.56"/><polyline class="cls-2" points="773.59 1254.2 684.89 1254.2 672.64 1198.87 608.44 1198.87 608.44 1286.72 665.46 1286.72 665.46 1308.27 704.32 1308.27 704.32 1255.05"/><line class="cls-2" x1="684.89" y1="1254.2" x2="607.59" y2="1254.2"/><polyline class="cls-2" points="587.32 1325.58 587.32 1199.71 478.35 1199.71"/><line class="cls-2" x1="547.2" y1="1200.14" x2="547.2" y2="1323.89"/><line class="cls-2" x1="548.04" y1="1293.06" x2="587.32" y2="1293.06"/><line class="cls-2" x1="548.04" y1="1261.38" x2="587.32" y2="1261.38"/><line class="cls-2" x1="548.04" y1="1229.28" x2="587.32" y2="1229.28"/><polyline class="cls-2" points="507.92 1198.45 507.92 1252.93 524.39 1252.93 524.39 1302.35 546.35 1302.35"/><polygon class="cls-2" points="770.63 1088.63 770.63 652.33 441.61 652.33 441.61 1085.67 770.63 1088.63"/><rect class="cls-2" x="441.74" y="312.18" width="327.76" height="301.85"/><polyline class="cls-2" points="531.85 615.72 531.85 897.87 679.39 897.87 679.39 615.72"/><polyline class="cls-2" points="731.77 1085.39 731.77 1032.46 665.32 1032.46 665.32 1088.77"/><polyline class="cls-2" points="583.66 1085.96 583.66 1057.24 565.08 1057.24 565.08 1003.73"/><polyline class="cls-2" points="558.88 898.99 558.88 986.84 582.53 986.84 582.53 1032.46 626.46 1032.46 626.46 1015.56 662.5 1015.56"/><line class="cls-2" x1="496.37" y1="1010.49" x2="442.31" y2="1010.49"/><polyline class="cls-2" points="565.08 1031.9 481.16 1031.9 481.16 1087.08"/><line class="cls-2" x1="441.74" y1="893.35" x2="481.16" y2="893.35"/><polyline class="cls-2" points="442.3 861.82 482.85 861.82 496.93 871.39 498.06 893.35"/><line class="cls-2" x1="496.93" y1="784.66" x2="496.93" y2="853.37"/><line class="cls-2" x1="442.87" y1="824.08" x2="497.5" y2="824.08"/><polyline class="cls-2" points="443.43 767.77 484.54 767.77 484.54 785.79 441.18 785.79"/><line class="cls-2" x1="530.72" y1="695.68" x2="678.83" y2="695.68"/><polyline class="cls-2" points="774.43 274.61 713.61 274.61 713.61 312.39"/><polyline class="cls-2" points="670.67 312.18 670.67 273.18 536.78 273.18 536.78 312.74"/><line class="cls-2" x1="607.88" y1="273.03" x2="607.88" y2="312.74"/><polyline class="cls-2" points="503.69 311.68 503.69 274.09 441.4 274.09 441.4 312.95"/><line class="cls-2" x1="425.97" y1="270.5" x2="425.97" y2="432.69"/><polyline class="cls-2" points="405.7 271.35 405.7 619.8 309.82 619.8 309.82 602.91 287.44 602.91"/><line class="cls-2" x1="289.13" y1="462.26" x2="368.96" y2="462.26"/><polyline class="cls-2" points="405.7 424.24 368.54 424.24 368.54 512.52 405.28 512.52 405.7 309.36 287.86 309.36"/><polyline class="cls-2" points="403.59 294.58 358.4 294.58 358.4 269.66 287.44 269.66"/><polyline class="cls-2" points="288.29 641.34 401.48 641.34 401.48 1151.99 323.34 1151.99"/><line class="cls-2" x1="399.79" y1="1083.99" x2="286.59" y2="1083.99"/><line class="cls-2" x1="401.48" y1="895.19" x2="287.02" y2="895.19"/><line class="cls-2" x1="401.06" y1="805.64" x2="286.59" y2="805.64"/><line class="cls-2" x1="400.64" y1="729.62" x2="287.86" y2="729.62"/><polyline class="cls-2" points="323.76 1191.69 437.8 1191.69 437.8 1481.43 154.81 1481.43"/><line class="cls-2" x1="265.9" y1="1403.3" x2="265.9" y2="1480.59"/><line class="cls-2" x1="295.46" y1="1402.45" x2="436.54" y2="1402.45"/><line class="cls-2" x1="330.94" y1="1402.03" x2="330.94" y2="1481.86"/><line class="cls-2" x1="396.41" y1="1401.61" x2="396.41" y2="1481.01"/><line class="cls-2" x1="296.31" y1="1299.39" x2="437.38" y2="1299.39"/><line class="cls-2" x1="466.52" y1="1193.8" x2="466.52" y2="1298.97"/><line class="cls-5" x1="813.4" y1="1433.85" x2="774.78" y2="1433.85"/><line class="cls-5" x1="813.4" y1="1438.68" x2="774.78" y2="1438.68"/><line class="cls-5" x1="813.4" y1="1443.59" x2="774.78" y2="1443.59"/><line class="cls-5" x1="813.4" y1="1448.34" x2="774.78" y2="1448.34"/><line class="cls-5" x1="813.4" y1="1452.82" x2="774.78" y2="1452.82"/><line class="cls-5" x1="813.4" y1="1457.65" x2="774.78" y2="1457.65"/><line class="cls-5" x1="813.4" y1="1462.58" x2="774.78" y2="1462.58"/><line class="cls-5" x1="813.4" y1="1467.32" x2="774.78" y2="1467.32"/><line class="cls-5" x1="1179.3" y1="1419.96" x2="1140.69" y2="1419.96"/><line class="cls-5" x1="1179.3" y1="1424.79" x2="1140.69" y2="1424.79"/><line class="cls-5" x1="1179.3" y1="1429.71" x2="1140.69" y2="1429.71"/><line class="cls-5" x1="1179.3" y1="1434.45" x2="1140.69" y2="1434.45"/><line class="cls-5" x1="1179.3" y1="1438.94" x2="1140.69" y2="1438.94"/><line class="cls-5" x1="1179.3" y1="1443.77" x2="1140.69" y2="1443.77"/><line class="cls-5" x1="1179.3" y1="1448.69" x2="1140.69" y2="1448.69"/><line class="cls-5" x1="1179.3" y1="1453.43" x2="1140.69" y2="1453.43"/><line class="cls-5" x1="184.35" y1="1481.95" x2="184.35" y2="1523.54"/><line class="cls-5" x1="189.18" y1="1481.95" x2="189.18" y2="1523.54"/><line class="cls-5" x1="194.09" y1="1481.95" x2="194.09" y2="1523.54"/><line class="cls-5" x1="198.84" y1="1481.95" x2="198.84" y2="1523.54"/><line class="cls-5" x1="203.32" y1="1481.95" x2="203.32" y2="1523.54"/><line class="cls-5" x1="208.16" y1="1481.95" x2="208.16" y2="1523.54"/><line class="cls-5" x1="213.07" y1="1481.95" x2="213.07" y2="1523.54"/><line class="cls-5" x1="217.81" y1="1481.95" x2="217.81" y2="1523.54"/><line class="cls-5" x1="437.49" y1="1428.35" x2="397.18" y2="1428.35"/><line class="cls-5" x1="437.49" y1="1433.19" x2="397.18" y2="1433.19"/><line class="cls-5" x1="437.49" y1="1438.11" x2="397.18" y2="1438.11"/><line class="cls-5" x1="437.49" y1="1442.85" x2="397.18" y2="1442.85"/><line class="cls-5" x1="437.49" y1="1447.33" x2="397.18" y2="1447.33"/><line class="cls-5" x1="437.49" y1="1452.16" x2="397.18" y2="1452.16"/><line class="cls-5" x1="437.49" y1="1457.08" x2="397.18" y2="1457.08"/><line class="cls-5" x1="437.49" y1="1461.82" x2="397.18" y2="1461.82"/><line class="cls-5" x1="507.6" y1="1224.35" x2="477.43" y2="1224.35"/><line class="cls-5" x1="507.6" y1="1229.18" x2="477.43" y2="1229.18"/><line class="cls-5" x1="507.6" y1="1234.1" x2="477.43" y2="1234.1"/><line class="cls-5" x1="507.6" y1="1238.84" x2="477.43" y2="1238.84"/><line class="cls-5" x1="507.6" y1="1243.33" x2="477.43" y2="1243.33"/><line class="cls-5" x1="507.6" y1="1248.16" x2="477.43" y2="1248.16"/><line class="cls-5" x1="507.6" y1="1253.07" x2="477.43" y2="1253.07"/><line class="cls-5" x1="507.6" y1="1257.82" x2="477.43" y2="1257.82"/><line class="cls-5" x1="769.79" y1="1038.09" x2="732.97" y2="1038.09"/><line class="cls-5" x1="769.79" y1="1042.92" x2="732.97" y2="1042.92"/><line class="cls-5" x1="769.79" y1="1047.83" x2="732.97" y2="1047.83"/><line class="cls-5" x1="769.79" y1="1052.58" x2="732.97" y2="1052.58"/><line class="cls-5" x1="769.79" y1="1057.06" x2="732.97" y2="1057.06"/><line class="cls-5" x1="769.79" y1="1061.89" x2="732.97" y2="1061.89"/><line class="cls-5" x1="769.79" y1="1066.81" x2="732.97" y2="1066.81"/><line class="cls-5" x1="769.79" y1="1071.55" x2="732.97" y2="1071.55"/><line class="cls-5" x1="480.57" y1="1035.97" x2="441.95" y2="1035.97"/><line class="cls-5" x1="480.57" y1="1040.8" x2="441.95" y2="1040.8"/><line class="cls-5" x1="480.57" y1="1045.72" x2="441.95" y2="1045.72"/><line class="cls-5" x1="480.57" y1="1050.46" x2="441.95" y2="1050.46"/><line class="cls-5" x1="480.57" y1="1054.95" x2="441.95" y2="1054.95"/><line class="cls-5" x1="480.57" y1="1059.78" x2="441.95" y2="1059.78"/><line class="cls-5" x1="480.57" y1="1064.7" x2="441.95" y2="1064.7"/><line class="cls-5" x1="480.57" y1="1069.44" x2="441.95" y2="1069.44"/><line class="cls-5" x1="479" y1="1122.63" x2="479" y2="1150.87"/><line class="cls-5" x1="483.83" y1="1122.63" x2="483.83" y2="1150.87"/><line class="cls-5" x1="488.75" y1="1122.63" x2="488.75" y2="1150.87"/><line class="cls-5" x1="493.48" y1="1122.63" x2="493.48" y2="1150.87"/><line class="cls-5" x1="497.97" y1="1122.63" x2="497.97" y2="1150.87"/><line class="cls-5" x1="711.72" y1="1137.42" x2="711.72" y2="1165.65"/><line class="cls-5" x1="716.55" y1="1137.42" x2="716.55" y2="1165.65"/><line class="cls-5" x1="721.48" y1="1137.42" x2="721.48" y2="1165.65"/><line class="cls-5" x1="726.21" y1="1137.42" x2="726.21" y2="1165.65"/><line class="cls-5" x1="730.7" y1="1137.42" x2="730.7" y2="1165.65"/><line class="cls-5" x1="661.98" y1="1033.15" x2="661.98" y2="1016.49"/><line class="cls-5" x1="657.15" y1="1033.15" x2="657.15" y2="1016.49"/><line class="cls-5" x1="652.23" y1="1033.15" x2="652.23" y2="1016.49"/><line class="cls-5" x1="647.49" y1="1033.15" x2="647.49" y2="1016.49"/><line class="cls-5" x1="643" y1="1033.15" x2="643" y2="1016.49"/><line class="cls-5" x1="475.29" y1="911.51" x2="475.29" y2="894.85"/><line class="cls-5" x1="470.46" y1="911.51" x2="470.46" y2="894.85"/><line class="cls-5" x1="465.54" y1="911.51" x2="465.54" y2="894.85"/><line class="cls-5" x1="460.8" y1="911.51" x2="460.8" y2="894.85"/><line class="cls-5" x1="456.31" y1="911.51" x2="456.31" y2="894.85"/><line class="cls-2" x1="619.84" y1="1032.88" x2="667.15" y2="1032.88"/><line class="cls-5" x1="723.85" y1="613.28" x2="723.85" y2="650.78"/><line class="cls-5" x1="728.69" y1="613.28" x2="728.69" y2="650.78"/><line class="cls-5" x1="733.6" y1="613.28" x2="733.6" y2="650.78"/><line class="cls-5" x1="738.34" y1="613.28" x2="738.34" y2="650.78"/><line class="cls-5" x1="742.83" y1="613.28" x2="742.83" y2="650.78"/><line class="cls-5" x1="747.66" y1="613.28" x2="747.66" y2="650.78"/><line class="cls-5" x1="752.58" y1="613.28" x2="752.58" y2="650.78"/><line class="cls-5" x1="757.32" y1="613.28" x2="757.32" y2="650.78"/><line class="cls-5" x1="465.36" y1="613.28" x2="465.36" y2="650.78"/><line class="cls-5" x1="470.19" y1="613.28" x2="470.19" y2="650.78"/><line class="cls-5" x1="475.11" y1="613.28" x2="475.11" y2="650.78"/><line class="cls-5" x1="479.85" y1="613.28" x2="479.85" y2="650.78"/><line class="cls-5" x1="484.34" y1="613.28" x2="484.34" y2="650.78"/><line class="cls-5" x1="489.17" y1="613.28" x2="489.17" y2="650.78"/><line class="cls-5" x1="494.09" y1="613.28" x2="494.09" y2="650.78"/><line class="cls-5" x1="498.83" y1="613.28" x2="498.83" y2="650.78"/><rect class="cls-3" x="376.34" y="289" width="10.3" height="10.3"/><rect class="cls-3" x="399.99" y="401.63" width="10.3" height="10.3"/><rect class="cls-3" x="399.99" y="518.21" width="10.3" height="10.3"/><rect class="cls-3" x="396.62" y="657.31" width="10.3" height="10.3"/><rect class="cls-3" x="526.28" y="628.59" width="10.3" height="10.3"/><rect class="cls-3" x="673.69" y="629.86" width="10.3" height="10.3"/><rect class="cls-3" x="396.62" y="737.84" width="10.3" height="10.3"/><rect class="cls-3" x="396.62" y="815.56" width="10.3" height="10.3"/><rect class="cls-3" x="396.62" y="969.86" width="10.3" height="10.3"/><rect class="cls-3" x="396.62" y="1066.17" width="10.3" height="10.3"/><rect class="cls-3" x="396.62" y="1104.46" width="10.3" height="10.3"/><rect class="cls-3" x="432.66" y="1283.54" width="10.3" height="10.3"/><rect class="cls-3" x="432.66" y="1306.07" width="10.3" height="10.3"/><rect class="cls-3" x="381.4" y="1475.58" width="10.3" height="10.29"/><rect class="cls-3" x="334.66" y="1475.58" width="10.3" height="10.29"/><rect class="cls-3" x="292.99" y="1475.58" width="10.3" height="10.29"/><rect class="cls-3" x="246.81" y="1475.58" width="10.3" height="10.29"/><rect class="cls-3" x="246.25" y="1518.38" width="10.29" height="10.3"/><rect class="cls-3" x="297.49" y="1518.38" width="10.3" height="10.3"/><rect class="cls-3" x="372.4" y="1518.38" width="10.3" height="10.3"/><rect class="cls-3" x="504.74" y="1525.7" width="10.3" height="10.3"/><rect class="cls-3" x="637.65" y="1525.71" width="10.29" height="10.29"/><rect class="cls-3" x="736.2" y="1526.83" width="10.3" height="10.29"/><rect class="cls-3" x="762.1" y="1517.83" width="10.3" height="10.29"/><rect class="cls-3" x="923.17" y="1518.38" width="10.3" height="10.3"/><rect class="cls-3" x="972.73" y="1518.94" width="10.3" height="10.3"/><rect class="cls-3" x="946.82" y="1476.13" width="10.3" height="10.3"/><rect class="cls-3" x="898.39" y="1464.87" width="10.3" height="10.29"/><polygon class="cls-3" points="1266.86 1489.73 1256.56 1489.73 1256.56 1481.22 1266.86 1479.44 1266.86 1489.73"/><rect class="cls-3" x="1278.53" y="1499.79" width="10.3" height="10.29"/><rect class="cls-3" x="1362.43" y="1524.01" width="10.31" height="10.3"/><rect class="cls-3" x="1362.43" y="1555.54" width="10.31" height="10.3"/><rect class="cls-3" x="1362.43" y="1583.14" width="10.31" height="10.29"/><rect class="cls-3" x="1362.43" y="1602.86" width="10.31" height="10.29"/><rect class="cls-3" x="1419.88" y="1627.63" width="10.3" height="10.29"/><rect class="cls-3" x="1371.45" y="1664.79" width="10.3" height="10.3"/><rect class="cls-3" x="1380.45" y="1573.01" width="10.3" height="10.29"/><polygon class="cls-3" points="1416.1 1463.83 1405.8 1463.83 1405.8 1455.24 1416.1 1453.53 1416.1 1463.83"/><rect class="cls-3" x="1562.92" y="1431.09" width="10.3" height="10.3"/><rect class="cls-3" x="411.25" y="1475.58" width="20.44" height="10.29"/><rect class="cls-3" x="436.6" y="292.38" width="10.3" height="10.3"/><rect class="cls-3" x="497.42" y="283.65" width="10.3" height="10.3"/><rect class="cls-3" x="511.5" y="306.46" width="18.18" height="10.3"/><rect class="cls-3" x="684.95" y="305.9" width="19.31" height="10.3"/><rect class="cls-3" x="511.5" y="610" width="18.18" height="10.3"/><rect class="cls-3" x="505.29" y="647.17" width="18.18" height="10.3"/><rect class="cls-3" x="684.95" y="609.44" width="19.31" height="10.3"/><rect class="cls-3" x="709.73" y="283.65" width="10.3" height="10.3"/><line class="cls-2" x1="882.71" y1="1403.56" x2="882.71" y2="1480.15"/><line class="cls-2" x1="882.14" y1="1432.85" x2="905.23" y2="1432.85"/><line class="cls-2" x1="882.14" y1="1459.88" x2="905.23" y2="1459.88"/><rect class="cls-3" x="898.39" y="1444.6" width="10.3" height="10.29"/><rect class="cls-3" x="898.39" y="1413.06" width="10.3" height="10.3"/><rect class="cls-3" x="883.75" y="1332.53" width="10.3" height="10.3"/><rect class="cls-3" x="861.79" y="1323.23" width="10.3" height="10.3"/><rect class="cls-3" x="867.69" y="1475.87" width="10.3" height="10.3"/><rect class="cls-3" x="819.12" y="1475.87" width="10.3" height="10.3"/><rect class="cls-3" x="757.46" y="1475.87" width="10.3" height="10.3"/><rect class="cls-3" x="675.52" y="1448.42" width="10.3" height="10.3"/><rect class="cls-3" x="619.34" y="1448.42" width="10.3" height="10.3"/><rect class="cls-3" x="566.12" y="1448.42" width="10.3" height="10.3"/><rect class="cls-3" x="472.78" y="1397.73" width="10.3" height="10.29"/><rect class="cls-3" x="472.78" y="1314.1" width="10.3" height="10.3"/><rect class="cls-3" x="523.04" y="1323.47" width="10.3" height="4.61"/><rect class="cls-3" x="521.35" y="1278.2" width="10.3" height="10.3"/><rect class="cls-3" x="521.35" y="1258.34" width="10.3" height="10.3"/><rect class="cls-3" x="584.41" y="1215.26" width="5.52" height="10.3"/><rect class="cls-3" x="584.41" y="1247.36" width="5.52" height="10.3"/><rect class="cls-3" x="584.41" y="1280.31" width="5.52" height="10.3"/><rect class="cls-3" x="584.41" y="1295.94" width="5.52" height="22.41"/><rect class="cls-3" x="591.47" y="1323.09" width="10.3" height="4.61"/><rect class="cls-3" x="657.78" y="1323.09" width="10.3" height="4.61"/><rect class="cls-3" x="676.79" y="1323.09" width="10.29" height="4.61"/><rect class="cls-3" x="725.35" y="1323.09" width="10.3" height="4.61"/><rect class="cls-3" x="743.09" y="1323.09" width="10.3" height="4.61"/><rect class="cls-3" x="743.09" y="1249.9" width="10.3" height="6.54"/><rect class="cls-3" x="771.61" y="1311.57" width="8.25" height="10.29"/><rect class="cls-3" x="769.56" y="1240.46" width="10.3" height="10.3"/><rect class="cls-3" x="735.92" y="1082.64" width="10.3" height="10.3"/><rect class="cls-3" x="674.25" y="1082.64" width="10.3" height="10.3"/><rect class="cls-3" x="649.75" y="1082.64" width="10.3" height="10.3"/><rect class="cls-3" x="611.31" y="1082.64" width="10.3" height="10.3"/><rect class="cls-3" x="509.1" y="1082.64" width="10.3" height="10.3"/><rect class="cls-3" x="446.59" y="1082.64" width="25.93" height="10.3"/><rect class="cls-3" x="701.48" y="1266.37" width="5.32" height="10.3"/><rect class="cls-3" x="678.9" y="1239.34" width="10.3" height="10.3"/><rect class="cls-3" x="783.64" y="1475.87" width="21.7" height="10.3"/><polyline class="cls-2" points="767.25 1009.65 671.8 1009.65 671.8 898.99 750.36 898.99 750.36 931.51 770.21 931.51"/><polyline class="cls-2" points="672.22 931.51 733.04 931.51 733.04 1008.8"/><polyline class="cls-2" points="730.93 989.8 703.89 989.8 703.89 1008.38"/><line class="cls-2" x1="671.37" y1="967.83" x2="699.67" y2="967.83"/><line class="cls-2" x1="700.52" y1="931.93" x2="700.52" y2="988.53"/><rect class="cls-3" x="629.9" y="1028.15" width="10.3" height="10.3"/><rect class="cls-3" x="711.42" y="1004.5" width="10.3" height="10.3"/><rect class="cls-3" x="695.37" y="955.08" width="10.3" height="10.3"/><rect class="cls-3" x="667.49" y="914.11" width="10.3" height="10.3"/><rect class="cls-3" x="666.65" y="935.65" width="10.3" height="10.3"/><rect class="cls-3" x="682.7" y="963.53" width="10.3" height="10.3"/><rect class="cls-3" x="673.13" y="678.14" width="10.3" height="12.83"/><rect class="cls-3" x="767.32" y="914.25" width="10.3" height="12.83"/><rect class="cls-3" x="688.33" y="643.79" width="10.3" height="12.83"/><rect class="cls-7" x="598.94" y="1281.85" width="142.79" height="36.69"/><polygon class="cls-3" points="1223.53 1507.96 1213.24 1507.96 1213.24 1499.45 1223.53 1497.66 1223.53 1507.96"/><line class="cls-8" x1="1930.78" y1="1206.37" x2="1930.78" y2="986.71"/><line class="cls-8" x1="1945.18" y1="1206.37" x2="1945.18" y2="986.71"/><line class="cls-8" x1="1959.58" y1="1206.37" x2="1959.58" y2="986.71"/><g id="Extras"><text class="cls-9" transform="translate(1077.2 1359.07) rotate(-90)"><tspan class="cls-10">S</tspan><tspan x="11.57" y="0">tage</tspan></text><text class="cls-11" transform="translate(1086.64 1399.86)"><tspan class="cls-12">R</tspan><tspan x="14.98" y="0">amp</tspan></text><g id="tag"><path class="cls-4" d="M1061.35,1400.83a6.48,6.48,0,1,1,5.17-7.55A6.47,6.47,0,0,1,1061.35,1400.83Z"/><line class="cls-13" x1="1085.32" y1="1389.67" x2="1061.89" y2="1394.15"/></g><g id="tag-2" data-name="tag"><circle class="cls-4" cx="1262.21" cy="1499.64" r="7.4"/><line class="cls-14" x1="1262.21" y1="1464.82" x2="1262.21" y2="1497.63"/></g><g id="tag-3" data-name="tag"><circle class="cls-4" cx="1410.34" cy="1475.33" r="7.4"/><line class="cls-14" x1="1410.34" y1="1423.22" x2="1410.34" y2="1473.31"/></g></g><rect class="cls-4" x="934.44" y="1280.71" width="39.28" height="39.28"/><path class="cls-3" d="M948.77,1300.91c.07,10.47,4.15,12.65,8,12.65a12.08,12.08,0,0,0,5.62-1.27l.91,3.94a16.56,16.56,0,0,1-7.52,1.62c-8.08,0-12.29-6.61-12.29-17.08,0-11,4.64-17.93,11.45-17.93s9.7,7.31,9.7,15c0,1.34-.07,2.25-.14,3.09Zm10.68-4c.07-6.82-2.46-9.84-5.05-9.84-3.52,0-5.34,5.2-5.56,9.84Z"/><rect class="cls-4" x="1829.65" y="1597.42" width="39.28" height="39.28"/><path class="cls-3" d="M1844,1617.63c.07,10.47,4.15,12.65,8,12.65a12.08,12.08,0,0,0,5.62-1.27l.91,3.94a16.54,16.54,0,0,1-7.52,1.62c-8.08,0-12.29-6.61-12.29-17.07,0-11,4.63-17.93,11.45-17.93s9.7,7.31,9.7,15c0,1.33-.07,2.25-.14,3.09Zm10.69-4c.06-6.82-2.46-9.84-5.06-9.84-3.52,0-5.34,5.2-5.56,9.84Z"/><g id="Possible_Bathroom" data-name="Possible Bathroom"><path class="cls-15" d="M343.91,1414.94c-3.75,0-5.83,1.92-5.83,5.86v40.78c0,3.67,1.88,5.61,5.61,5.61h40.94c3.74,0,5.62-1.85,5.62-5.61V1420.8c0-3.83-1.89-5.86-5.76-5.86C384.49,1414.94,343.9,1414.92,343.91,1414.94Z"/><path class="cls-3" d="M364.17,1428.66a2.94,2.94,0,1,0-2.92-2.92A2.94,2.94,0,0,0,364.17,1428.66Z"/><path class="cls-3" d="M363.74,1447.28v10.26a1.37,1.37,0,1,1-2.75,0v-10.26h-3.66l3.9-13.63h-.62l-2.32,7.78a1.24,1.24,0,1,1-2.34-.81l2.58-8.47a3.88,3.88,0,0,1,3.6-2.64h4a4,4,0,0,1,3.62,2.64l2.58,8.47a1.25,1.25,0,1,1-2.36.78l-2.3-7.75H367l4,13.63h-3.66v10.26a1.39,1.39,0,0,1-2.77,0v-10.26Z"/></g><path class="cls-16" d="M855.36,270.94c-2.72,0-4.25,1.4-4.25,4.26v29.53c0,2.65,1.38,4.05,4.1,4.05H885c2.73,0,4.09-1.33,4.09-4.05V275.2c0-2.78-1.36-4.26-4.18-4.26C884.87,270.94,855.34,270.93,855.36,270.94Z"/><path class="cls-3" d="M867.8,281.48a2.74,2.74,0,0,0-2.69,2.78v6.59a.93.93,0,1,0,1.85,0v-6h.44v16.66a1.22,1.22,0,1,0,2.45,0v-9.74h.45v9.74a1.24,1.24,0,1,0,2.47,0V284.82h.41v6a.93.93,0,1,0,1.85,0v-6.54a2.79,2.79,0,0,0-2.73-2.83Z"/><path class="cls-3" d="M870.08,280.89a2.13,2.13,0,1,0-2.15-2.12A2.14,2.14,0,0,0,870.08,280.89Z"/><path class="cls-17" d="M469.46,274.54c-2.74,0-4.26,1.41-4.26,4.28v29.66c0,2.66,1.38,4.07,4.09,4.07h29.77c2.72,0,4.09-1.34,4.09-4.07V278.82c0-2.79-1.36-4.28-4.19-4.28Z"/><path class="cls-3" d="M484.19,284.52a2.13,2.13,0,1,0-2.13-2.12A2.13,2.13,0,0,0,484.19,284.52Z"/><path class="cls-3" d="M483.87,298.06v7.46a1,1,0,1,1-2,0v-7.46h-2.67l2.85-9.9h-.45l-1.67,5.65a.91.91,0,1,1-1.71-.58l1.88-6.16a2.81,2.81,0,0,1,2.62-1.93h2.93a2.86,2.86,0,0,1,2.62,1.93l1.88,6.16a.9.9,0,1,1-1.7.56l-1.69-5.63h-.49l2.9,9.9h-2.67v7.46a1,1,0,0,1-2,0v-7.46Z"/><path class="cls-15" d="M828,1418.54c-3.76,0-5.85,1.92-5.85,5.87v40.77c0,3.68,1.89,5.61,5.63,5.61h40.93c3.73,0,5.62-1.84,5.62-5.61v-40.77c0-3.83-1.89-5.87-5.76-5.87C868.6,1418.54,828,1418.52,828,1418.54Z"/><path class="cls-3" d="M845.14,1433.07a3.79,3.79,0,0,0-3.7,3.86V1446a1.28,1.28,0,1,0,2.55,0v-8.33h.6v23a1.69,1.69,0,1,0,3.37,0v-13.45h.61v13.45a1.7,1.7,0,1,0,3.4,0v-23h.58V1446a1.27,1.27,0,1,0,2.54,0v-9a3.85,3.85,0,0,0-3.77-3.91Z"/><path class="cls-3" d="M848.26,1432.26a2.94,2.94,0,1,0-3-2.92A2.95,2.95,0,0,0,848.26,1432.26Z"/><path class="cls-18" d="M1480.4,1488.25c-5.62,0-8.77,2.9-8.77,8.83v61.17c0,5.48,2.82,8.38,8.44,8.38h61.38c5.64,0,8.44-2.74,8.44-8.38v-61.17c0-5.76-2.8-8.83-8.63-8.83C1541.27,1488.25,1480.38,1488.23,1480.4,1488.25Z"/><rect class="cls-3" x="1508.56" y="1500.53" width="4.99" height="53.42"/><path class="cls-3" d="M1492.7,1508.83a4.41,4.41,0,1,0-4.37-4.37A4.39,4.39,0,0,0,1492.7,1508.83Z"/><path class="cls-3" d="M1492,1536.77v15.39a2.06,2.06,0,0,1-4.13,0v-15.39h-5.49l5.87-20.44h-.92l-3.47,11.68c-.79,2.56-4.3,1.5-3.5-1.19l3.85-12.71a5.89,5.89,0,0,1,5.41-4h6.05a6,6,0,0,1,5.43,4l3.88,12.71c.76,2.69-2.71,3.8-3.53,1.17l-3.47-11.65h-1l6,20.44h-5.51v15.39a2.08,2.08,0,0,1-4.15,0v-15.39Z"/><path class="cls-3" d="M1524.11,1510.05a5.7,5.7,0,0,0-5.56,5.78v13.66a1.91,1.91,0,1,0,3.82,0V1517h.9v34.48a2.53,2.53,0,1,0,5,0v-20.18h.92v20.18a2.54,2.54,0,1,0,5.07,0V1517h.9v12.46a1.9,1.9,0,1,0,3.8,0v-13.57a5.77,5.77,0,0,0-5.65-5.87Z"/><path class="cls-3" d="M1528.79,1508.83a4.41,4.41,0,1,0-4.43-4.37A4.42,4.42,0,0,0,1528.79,1508.83Z"/><path class="cls-19" d="M1852.35,958.9c4.4,0,6.82,2.26,6.82,6.86v47.57c0,4.28-2.19,6.53-6.55,6.53h-47.76c-4.38,0-6.57-2.13-6.57-6.53V965.76c0-4.47,2.19-6.86,6.71-6.86C1805,958.9,1852.4,958.88,1852.35,958.9Z"/><rect class="cls-3" x="1826.59" y="968.46" width="3.86" height="41.55"/><path class="cls-3" d="M1842.79,974.92a3.43,3.43,0,1,1,3.42-3.41A3.42,3.42,0,0,1,1842.79,974.92Z"/><path class="cls-3" d="M1843.31,996.63v12a1.6,1.6,0,1,0,3.21,0v-12h4.27l-4.53-15.88h.69l2.71,9.06a1.46,1.46,0,1,0,2.75-.94l-3-9.87a4.52,4.52,0,0,0-4.2-3.09h-4.71a4.58,4.58,0,0,0-4.2,3.09l-3,9.87c-.6,2.1,2.08,3,2.72.91l2.71-9h.8l-4.64,15.88h4.27v12a1.61,1.61,0,1,0,3.23,0v-12Z"/><path class="cls-3" d="M1818.38,975.87a4.42,4.42,0,0,1,4.31,4.49V991a1.48,1.48,0,1,1-3,0v-9.71H1819v26.84a2,2,0,1,1-3.93,0V992.39h-.72v15.71a2,2,0,1,1-4,0V981.26h-.67V991a1.49,1.49,0,1,1-3,0V980.43a4.5,4.5,0,0,1,4.39-4.56Z"/><path class="cls-3" d="M1814.73,974.92a3.43,3.43,0,1,1,3.47-3.41A3.44,3.44,0,0,1,1814.73,974.92Z"/><text class="cls-11" transform="translate(1799.79 1162.28)">E115</text><text class="cls-11" transform="translate(216.39 151.71)">N145</text><text class="cls-20" transform="translate(304.78 151.71)">A<tspan class="cls-21" x="19.79" y="0">r</tspan><tspan x="33.26" y="0">t</tspan></text><text class="cls-11" transform="translate(399.29 151.71)">N144</text><text class="cls-22" transform="translate(547.73 467.09)"><tspan class="cls-23">W</tspan><tspan class="cls-24" x="21.57" y="0">est </tspan><tspan class="cls-25" x="61.39" y="0">G</tspan><tspan x="76.56" y="0">ym</tspan></text><text class="cls-11" transform="translate(545.94 194.82)">N142</text><text class="cls-11" transform="translate(315.89 390.23)">N148</text><text class="cls-11" transform="translate(315.89 550.17)">N149</text><text class="cls-11" transform="translate(315.89 698)">N150</text><text class="cls-11" transform="translate(315.89 779.94)">N151</text><text class="cls-11" transform="translate(315.89 863.57)">N152</text><text class="cls-11" transform="translate(315.89 1000.2)">N153</text><text class="cls-11" transform="translate(315.89 1127.98)">N154</text><text class="cls-11" transform="translate(497.51 1070.53)">N103</text><text class="cls-11" transform="translate(595.5 1070.53)">N102</text><text class="cls-11" transform="translate(670.68 1068)">N101</text><text class="cls-11" transform="translate(472.17 968.32)">N104</text><text class="cls-11" transform="translate(587.05 968.32)">N113</text><text class="cls-9" transform="translate(456.75 686.17)"><tspan class="cls-26">G<tspan class="cls-27" x="14.22" y="0">irl</tspan><tspan class="cls-28" x="34.41" y="0">s</tspan><tspan class="cls-29" x="43.51" y="0">’</tspan></tspan><tspan class="cls-30" x="-10.89" y="32.4">L</tspan><tspan x="-0.26" y="32.4">oc</tspan><tspan class="cls-31" x="21.93" y="32.4">k</tspan><tspan x="32.92" y="32.4">er </tspan><tspan x="-5.62" y="64.8">Room</tspan></text><text class="cls-9" transform="translate(698.67 722.17)"><tspan class="cls-32">B</tspan><tspan class="cls-33" x="13.74" y="0">o</tspan><tspan x="25.92" y="0">y</tspan><tspan class="cls-34" x="37.13" y="0">s</tspan><tspan class="cls-35" x="46.23" y="0">’</tspan><tspan class="cls-30" x="-9.53" y="32.4">L</tspan><tspan x="1.1" y="32.4">oc</tspan><tspan class="cls-31" x="23.29" y="32.4">k</tspan><tspan x="34.28" y="32.4">er </tspan><tspan x="-4.26" y="64.8">Room</tspan></text><text class="cls-11" transform="translate(173.95 1450.66)">W114</text><text class="cls-11" transform="translate(331.92 1360.28)">W109</text><text class="cls-11" transform="translate(331.92 1263.13)">W108</text><text class="cls-11" transform="translate(189.16 1570.62)">W115</text><text class="cls-11" transform="translate(282.08 1570.62)">W116</text><text class="cls-11" transform="translate(388.51 1570.62)">W117</text><text class="cls-11" transform="translate(540.56 1583.29)">W118</text><text class="cls-11" transform="translate(675.72 1579.07)">W119</text><text class="cls-11" transform="translate(773.72 1572.31)">W124</text><text class="cls-11" transform="translate(879.31 1572.31)">W125</text><text class="cls-11" transform="translate(970.54 1572.31)">W126</text><text class="cls-11" transform="translate(957.87 1454.05)">W101</text><text class="cls-11" transform="translate(957.87 1371.26)">W102</text><text class="cls-11" transform="translate(788.92 1279.18)">W106</text><text class="cls-11" transform="translate(821.87 1391.54)">W105</text><text class="cls-11" transform="translate(611.53 1416.88)">W120</text><text class="cls-11" transform="translate(489.88 1420.25)">W111</text><text class="cls-11" transform="translate(668.13 166.07)"><tspan class="cls-36">W</tspan><tspan class="cls-37" x="22.21" y="0">eig</tspan><tspan class="cls-38" x="56.27" y="0">h</tspan><tspan x="70.63" y="0">t Room</tspan></text><text class="cls-11" transform="translate(905.56 166.07)">N140</text><text class="cls-11" transform="translate(863.59 366.18)">N137</text><text class="cls-11" transform="translate(896.44 475.35)">N136</text><text class="cls-11" transform="translate(896.44 575.93)">N135</text><text class="cls-11" transform="translate(831.23 652.25)"><tspan class="cls-39">A</tspan><tspan x="15.23" y="0">thletic </tspan><tspan class="cls-40" x="91.26" y="0">D</tspan><tspan x="107.49" y="0">i</tspan><tspan class="cls-41" x="114.12" y="0">r</tspan><tspan x="121.1" y="0">.</tspan></text><text class="cls-11" transform="translate(902.51 880.28)">N132</text><text class="cls-11" transform="translate(867.87 780.16)">N133</text><text class="cls-11" transform="translate(902.51 975.72)">N131</text><text class="cls-11" transform="translate(865.1 1079.33)">N130</text><text class="cls-42" transform="translate(1401.53 1102.07)"><tspan class="cls-43">K</tspan><tspan x="16.67" y="0">i</tspan><tspan class="cls-44" x="24.7" y="0">t</tspan><tspan x="35.68" y="0">chen</tspan></text><text class="cls-45" transform="translate(1433.6 964.09)">110</text><text class="cls-11" transform="translate(1572.51 995.4)">E124</text><text class="cls-11" transform="translate(1648.32 995.4)">E122</text><text class="cls-11" transform="translate(1724.64 995.4)">E120</text><text class="cls-11" transform="translate(1591.79 1162.28)">E119</text><text class="cls-11" transform="translate(1572.65 1504.68)">E102</text><text class="cls-20" transform="translate(1130.33 1349.31)"><tspan class="cls-46">M</tspan><tspan x="27.69" y="0">ain </tspan><tspan class="cls-47" x="82.21" y="0">A</tspan><tspan class="cls-48" x="101.82" y="0">trium</tspan></text><text class="cls-11" transform="translate(570.49 1513.29)"><tspan class="cls-49">T</tspan><tspan x="12.28" y="0">he </tspan><tspan class="cls-50" x="45.58" y="0">G</tspan><tspan x="61.45" y="0">a</tspan><tspan class="cls-38" x="74.55" y="0">r</tspan><tspan x="83.27" y="0">ages</tspan></text><text class="cls-11" transform="translate(1662.26 1323.63)"><tspan class="cls-51">C</tspan><tspan class="cls-52" x="12.78" y="0">ou</tspan><tspan class="cls-53" x="40.9" y="0">r</tspan><tspan class="cls-54" x="50.69" y="0">t</tspan><tspan class="cls-55" x="60.23" y="0">y</tspan><tspan x="72.36" y="0">a</tspan><tspan class="cls-56" x="85.46" y="0">r</tspan><tspan x="93.89" y="0">d</tspan></text><text class="cls-57" transform="translate(2008.82 1085.31)">P<tspan class="cls-37" x="15.7" y="0">ool</tspan><tspan class="cls-58"><tspan x="-20.7" y="43.2">S</tspan><tspan class="cls-52" x="-6.19" y="43.2">e</tspan><tspan class="cls-59" x="8.89" y="43.2">a</tspan><tspan class="cls-37" x="23.72" y="43.2">ting</tspan></tspan></text><text class="cls-11" transform="translate(555.09 1161.44)"><tspan class="cls-49">T</tspan><tspan x="12.28" y="0">he </tspan><tspan class="cls-60" x="45.58" y="0">C</tspan><tspan class="cls-61" x="58.36" y="0">o</tspan><tspan class="cls-49" x="71.89" y="0">v</tspan><tspan x="83.92" y="0">e</tspan></text><text class="cls-11" transform="translate(1670.64 1504.68)">E104</text><text class="cls-11" transform="translate(1783.27 1504.68)">E106</text><text class="cls-11" transform="translate(2016.42 1406.69)">E110</text><text class="cls-11" transform="translate(2016.42 1314.33)">E112</text><text class="cls-11" transform="translate(1570.4 1670.25)">E103</text><text class="cls-11" transform="translate(1488.74 1670.25)">E101</text><text class="cls-11" transform="translate(1649.24 1670.25)">E105</text><text class="cls-11" transform="translate(1742.72 1670.25)">E107</text><text class="cls-11" transform="translate(1706.21 1162.28)">E117</text><text class="cls-62" transform="translate(609.92 1307.45) scale(1 0.85)">C<tspan class="cls-63" x="12.15" y="0">ounseling</tspan></text><text class="cls-11" transform="translate(1195.81 1457.39)">Main <tspan class="cls-58" x="61.52" y="0">O</tspan><tspan class="cls-52" x="77.9" y="0">ffi</tspan><tspan class="cls-44" x="101.12" y="0">c</tspan><tspan x="111.78" y="0">e</tspan></text><text class="cls-11" transform="translate(1330.64 1416.63)"><tspan class="cls-51">C</tspan><tspan class="cls-52" x="12.78" y="0">ommuni</tspan><tspan class="cls-64" x="106.74" y="0">t</tspan><tspan x="116.28" y="0">y </tspan><tspan class="cls-65" x="134.39" y="0">E</tspan><tspan x="146.63" y="0">d</tspan></text><text class="cls-66" transform="translate(1471.2 1472.44)"><tspan class="cls-67">C</tspan><tspan x="10.45" y="0">a</tspan><tspan class="cls-68" x="20.94" y="0">f</tspan><tspan x="27.42" y="0">e</tspan></text><text class="cls-11" transform="translate(764.08 1458.36) rotate(-90)">W121</text><text class="cls-42" transform="translate(1367.53 1289.2)"><tspan class="cls-43">C</tspan><tspan class="cls-37" x="14.36" y="0">a</tspan><tspan class="cls-69" x="29.56" y="0">f</tspan><tspan x="39.56" y="0">e</tspan><tspan class="cls-38" x="54.65" y="0">t</tspan><tspan x="65.63" y="0">eria</tspan></text><g id="Entrances"><path class="cls-4" d="M1052.08,241.16a21.66,21.66,0,0,1,4.79-.47c3.06,0,5.18.72,6.73,2.16,2.09,1.87,3.17,5.07,3.17,9.79,0,4.89-1.26,8.38-3.38,10.26-1.62,1.58-4,2.34-7.41,2.34a35.3,35.3,0,0,1-3.89-.25Zm4.71,20.15a3.07,3.07,0,0,0,.83.07c2.27,0,4.25-2.23,4.25-8.92,0-5-1.3-8-4.14-8a2.69,2.69,0,0,0-.94.11Z"/><path class="cls-4" d="M1084.07,252.5c0,9.14-3.24,12.85-7.84,12.85-5.51,0-7.66-5.83-7.66-12.49s2.63-12.34,8-12.34C1082.42,240.52,1084.07,247,1084.07,252.5Zm-10.62.43c0,5.51,1,8.31,3,8.31s2.74-3.6,2.74-8.53c0-4.25-.65-8.09-2.77-8.09C1074.5,244.62,1073.46,247.71,1073.46,252.93Z"/><path class="cls-4" d="M1101.39,252.5c0,9.14-3.24,12.85-7.84,12.85-5.51,0-7.66-5.83-7.66-12.49s2.63-12.34,8-12.34C1099.73,240.52,1101.39,247,1101.39,252.5Zm-10.62.43c0,5.51,1,8.31,3,8.31s2.74-3.6,2.74-8.53c0-4.25-.65-8.09-2.77-8.09C1091.82,244.62,1090.77,247.71,1090.77,252.93Z"/><path class="cls-4" d="M1104.38,241.16a28.13,28.13,0,0,1,5.15-.47c2.59,0,4.89.36,6.48,1.8a6.18,6.18,0,0,1,1.91,5,6.46,6.46,0,0,1-3.74,6.08v.07c1.65.65,2.48,2.19,2.95,4.78a39.17,39.17,0,0,0,1.55,6.58h-4.93a33.42,33.42,0,0,1-1.19-5.79c-.43-3-1.19-3.89-2.77-3.89h-.68v9.68h-4.71Zm4.71,10.58h.83c2.05,0,3.24-1.66,3.24-3.78s-.83-3.53-3-3.6a3.37,3.37,0,0,0-1.11.14Z"/><path class="cls-4" d="M1131.38,246.09h-.07l-4,2.05-.79-3.71,5.36-2.77h4.14v23.39h-4.68Z"/><path class="cls-4" d="M1141.14,265.05v-3.17l2.34-3c3-3.85,5.51-7.05,5.51-10.4a2.88,2.88,0,0,0-3-3.2,6.63,6.63,0,0,0-3.53,1.19l-.83-3.67a10.47,10.47,0,0,1,5.22-1.44c5.11,0,6.76,3.42,6.76,6.76,0,4.39-2.74,7.92-5.43,11l-1.41,1.65v.07h7.16v4.14Z"/><path class="cls-4" d="M1087.61,1066.89a21.66,21.66,0,0,1,4.79-.47c3.06,0,5.18.72,6.73,2.16,2.08,1.87,3.16,5.07,3.16,9.79,0,4.89-1.26,8.38-3.38,10.26-1.62,1.58-4,2.34-7.41,2.34a35.3,35.3,0,0,1-3.89-.25Zm4.71,20.15a3.07,3.07,0,0,0,.83.07c2.27,0,4.25-2.23,4.25-8.92,0-5-1.3-8-4.14-8a2.69,2.69,0,0,0-.94.11Z"/><path class="cls-4" d="M1119.61,1078.22c0,9.14-3.24,12.85-7.84,12.85-5.51,0-7.66-5.83-7.66-12.49s2.63-12.34,8-12.34C1118,1066.24,1119.61,1072.68,1119.61,1078.22Zm-10.61.43c0,5.51,1,8.31,2.95,8.31s2.74-3.6,2.74-8.53c0-4.25-.65-8.09-2.77-8.09C1110,1070.34,1109,1073.44,1109,1078.65Z"/><path class="cls-4" d="M1136.92,1078.22c0,9.14-3.24,12.85-7.84,12.85-5.51,0-7.66-5.83-7.66-12.49s2.63-12.34,8-12.34C1135.27,1066.24,1136.92,1072.68,1136.92,1078.22Zm-10.61.43c0,5.51,1,8.31,2.95,8.31s2.74-3.6,2.74-8.53c0-4.25-.65-8.09-2.77-8.09C1127.35,1070.34,1126.31,1073.44,1126.31,1078.65Z"/><path class="cls-4" d="M1139.92,1066.89a28.08,28.08,0,0,1,5.14-.47c2.59,0,4.89.36,6.48,1.8a6.17,6.17,0,0,1,1.91,5,6.46,6.46,0,0,1-3.74,6.08v.07c1.66.65,2.49,2.19,3,4.78a39,39,0,0,0,1.55,6.58h-4.93a33.36,33.36,0,0,1-1.19-5.79c-.43-3-1.19-3.89-2.77-3.89h-.69v9.68h-4.71Zm4.71,10.58h.83c2,0,3.24-1.66,3.24-3.78s-.83-3.53-2.95-3.6a3.39,3.39,0,0,0-1.12.14Z"/><path class="cls-4" d="M1166.91,1071.82h-.07l-4,2.05-.79-3.71,5.36-2.77h4.14v23.39h-4.68Z"/><path class="cls-4" d="M1188.94,1071.5h-6.19l-.54,4.17h.72a7.46,7.46,0,0,1,4.39,1.76,7.14,7.14,0,0,1,2,5.36c0,4.57-3,8.28-8.13,8.28a10.47,10.47,0,0,1-4.39-.94l.72-3.74a7.8,7.8,0,0,0,3.35.83c2.3,0,3.81-1.48,3.81-4,0-3.13-2.38-4.17-5.07-4.17a11.42,11.42,0,0,0-1.66.07l1.29-11.73h9.68Z"/><path class="cls-4" d="M1087.7,1119.51l-1.62,7.27h-2.66l5.54-24.25H1092l5.4,24.25h-2.74l-1.62-7.27Zm5-2.23-1.26-6.15c-.36-1.73-.68-3.74-1-5.54h-.14c-.29,1.84-.65,3.92-1,5.54l-1.26,6.15Z"/><path class="cls-4" d="M1108.36,1126.35a6,6,0,0,1-2.88.65c-3.81,0-6.37-3.06-6.37-8.82,0-5,2.52-9.07,6.87-9.07a5.59,5.59,0,0,1,2.45.54l-.54,2.27a4.52,4.52,0,0,0-2-.47c-2.77,0-4,3.31-4,6.73,0,4.07,1.55,6.51,4.1,6.51a4.75,4.75,0,0,0,2-.47Z"/><path class="cls-4" d="M1119,1126.35a6,6,0,0,1-2.88.65c-3.81,0-6.37-3.06-6.37-8.82,0-5,2.52-9.07,6.87-9.07a5.58,5.58,0,0,1,2.44.54l-.54,2.27a4.52,4.52,0,0,0-2-.47c-2.77,0-4,3.31-4,6.73,0,4.07,1.55,6.51,4.1,6.51a4.77,4.77,0,0,0,2-.47Z"/><path class="cls-4" d="M1123.12,1118.32c0,5.32,2.12,6.48,4.14,6.48a5.85,5.85,0,0,0,2.88-.68l.43,2.05a8.4,8.4,0,0,1-3.81.83c-4.17,0-6.33-3.42-6.33-8.74,0-5.65,2.37-9.18,5.86-9.18s5,3.74,5,7.7c0,.65,0,1.11,0,1.55Zm5.47-2.05c.07-3.49-1.26-5-2.59-5-1.8,0-2.74,2.66-2.84,5Z"/><path class="cls-4" d="M1133.78,1123.9a5.51,5.51,0,0,0,2.81.9,2.35,2.35,0,0,0,2.56-2.52c0-1.33-.47-2.23-2.23-3.42-2.27-1.47-3.49-3-3.49-5a4.68,4.68,0,0,1,4.78-4.82,6,6,0,0,1,3.13.9l-.76,2.09a4.1,4.1,0,0,0-2.3-.76,2.13,2.13,0,0,0-2.27,2.2c0,1.19.43,1.84,2.16,3,2,1.3,3.6,2.88,3.6,5.29a4.86,4.86,0,0,1-5.22,5.18,6,6,0,0,1-3.46-1Z"/><path class="cls-4" d="M1144.18,1123.9a5.51,5.51,0,0,0,2.81.9,2.35,2.35,0,0,0,2.56-2.52c0-1.33-.47-2.23-2.23-3.42-2.27-1.47-3.49-3-3.49-5a4.68,4.68,0,0,1,4.78-4.82,6,6,0,0,1,3.13.9l-.76,2.09a4.1,4.1,0,0,0-2.3-.76,2.13,2.13,0,0,0-2.27,2.2c0,1.19.43,1.84,2.16,3,2,1.3,3.6,2.88,3.6,5.29A4.86,4.86,0,0,1,1147,1127a6,6,0,0,1-3.46-1Z"/><path class="cls-4" d="M1158,1104.87a1.64,1.64,0,1,1-3.27,0,1.66,1.66,0,0,1,1.62-1.8A1.63,1.63,0,0,1,1158,1104.87Zm-3,21.91v-17.41h2.77v17.41Z"/><path class="cls-4" d="M1161.49,1126.78c0-1,.14-3,.14-4.17v-20.72h2.77v9.53h.07a3.89,3.89,0,0,1,3.67-2.34c2.7,0,4.75,3.13,4.75,8.82,0,6.3-2.59,9.18-5.29,9.18-1.84,0-2.77-1.08-3.45-2.56H1164l-.18,2.27Zm2.91-6.15a3.3,3.3,0,0,0,.11,1.08c.65,2.59,1.84,3.06,2.59,3.06,2.23,0,3-3,3-6.73,0-3.49-.83-6.58-3.06-6.58-1.3,0-2.38,1.62-2.59,3.1a6.8,6.8,0,0,0-.07,1.22Z"/><path class="cls-4" d="M1176,1101.88h2.77v24.9H1176Z"/><path class="cls-4" d="M1184.86,1118.32c0,5.32,2.12,6.48,4.14,6.48a5.85,5.85,0,0,0,2.88-.68l.43,2.05a8.41,8.41,0,0,1-3.81.83c-4.17,0-6.33-3.42-6.33-8.74,0-5.65,2.37-9.18,5.86-9.18s5,3.74,5,7.7c0,.65,0,1.11,0,1.55Zm5.47-2.05c.07-3.49-1.26-5-2.59-5-1.8,0-2.74,2.66-2.84,5Z"/><path class="cls-4" d="M1487.24,876.22a21.63,21.63,0,0,1,4.78-.47c3.06,0,5.18.72,6.73,2.16,2.08,1.87,3.16,5.07,3.16,9.79,0,4.89-1.26,8.38-3.38,10.26-1.62,1.58-4,2.34-7.41,2.34a35.24,35.24,0,0,1-3.88-.25Zm4.71,20.15a3.1,3.1,0,0,0,.83.07c2.26,0,4.24-2.23,4.24-8.92,0-5-1.29-8-4.14-8a2.69,2.69,0,0,0-.94.11Z"/><path class="cls-4" d="M1519.23,887.55c0,9.14-3.24,12.85-7.84,12.85-5.51,0-7.66-5.83-7.66-12.49s2.63-12.34,8-12.34C1517.58,875.57,1519.23,882,1519.23,887.55Zm-10.61.43c0,5.51,1,8.31,2.95,8.31s2.74-3.6,2.74-8.53c0-4.25-.65-8.09-2.77-8.09C1509.66,879.67,1508.62,882.77,1508.62,888Z"/><path class="cls-4" d="M1536.55,887.55c0,9.14-3.24,12.85-7.84,12.85-5.51,0-7.66-5.83-7.66-12.49s2.63-12.34,8-12.34C1534.89,875.57,1536.55,882,1536.55,887.55Zm-10.61.43c0,5.51,1,8.31,2.95,8.31s2.74-3.6,2.74-8.53c0-4.25-.65-8.09-2.77-8.09C1527,879.67,1525.93,882.77,1525.93,888Z"/><path class="cls-4" d="M1539.54,876.22a28.08,28.08,0,0,1,5.14-.47c2.59,0,4.89.36,6.48,1.8a6.17,6.17,0,0,1,1.91,5,6.46,6.46,0,0,1-3.74,6.08v.07c1.66.65,2.49,2.19,3,4.78a39,39,0,0,0,1.55,6.58h-4.93a33.36,33.36,0,0,1-1.19-5.79c-.43-3-1.19-3.89-2.77-3.89h-.69v9.68h-4.71Zm4.71,10.58h.83c2,0,3.24-1.66,3.24-3.78s-.83-3.53-2.95-3.6a3.39,3.39,0,0,0-1.12.14Z"/><path class="cls-4" d="M1566.54,881.15h-.07l-4,2.05-.79-3.71,5.36-2.77h4.14v23.39h-4.68Z"/><path class="cls-4" d="M1588.21,880.25a14.45,14.45,0,0,0-1.94.25c-3.1.68-4.64,3.27-5.22,6.22h.11a4.4,4.4,0,0,1,3.6-1.87c3.16,0,5.29,2.84,5.29,7.27,0,4.1-2.08,8.28-6.66,8.28s-7.13-3.85-7.13-9.64c0-5.11,1.69-8.6,3.85-10.9a10.63,10.63,0,0,1,5.72-3.17,15.8,15.8,0,0,1,2.37-.25Zm-2.81,11.84c0-2-.69-3.85-2.19-3.85a2.14,2.14,0,0,0-1.91,1.58,5.41,5.41,0,0,0-.25,2.05c0,3.06.86,5.11,2.26,5.11C1584.9,897,1585.4,894.89,1585.4,892.08Z"/><path class="cls-4" d="M1837.5,876.22a21.63,21.63,0,0,1,4.78-.47c3.06,0,5.18.72,6.73,2.16,2.08,1.87,3.16,5.07,3.16,9.79,0,4.89-1.26,8.38-3.38,10.26-1.62,1.58-4,2.34-7.41,2.34a35.24,35.24,0,0,1-3.88-.25Zm4.71,20.15a3.1,3.1,0,0,0,.83.07c2.26,0,4.24-2.23,4.24-8.92,0-5-1.29-8-4.14-8a2.69,2.69,0,0,0-.94.11Z"/><path class="cls-4" d="M1869.5,887.55c0,9.14-3.24,12.85-7.84,12.85-5.51,0-7.66-5.83-7.66-12.49s2.63-12.34,8-12.34C1867.84,875.57,1869.5,882,1869.5,887.55Zm-10.61.43c0,5.51,1,8.31,2.95,8.31s2.74-3.6,2.74-8.53c0-4.25-.65-8.09-2.77-8.09C1859.93,879.67,1858.88,882.77,1858.88,888Z"/><path class="cls-4" d="M1886.81,887.55c0,9.14-3.24,12.85-7.84,12.85-5.51,0-7.66-5.83-7.66-12.49s2.63-12.34,8-12.34C1885.16,875.57,1886.81,882,1886.81,887.55Zm-10.61.43c0,5.51,1,8.31,2.95,8.31s2.74-3.6,2.74-8.53c0-4.25-.65-8.09-2.77-8.09C1877.24,879.67,1876.2,882.77,1876.2,888Z"/><path class="cls-4" d="M1889.81,876.22a28.08,28.08,0,0,1,5.14-.47c2.59,0,4.89.36,6.48,1.8a6.17,6.17,0,0,1,1.91,5,6.46,6.46,0,0,1-3.74,6.08v.07c1.66.65,2.49,2.19,3,4.78a39,39,0,0,0,1.55,6.58h-4.93a33.36,33.36,0,0,1-1.19-5.79c-.43-3-1.19-3.89-2.77-3.89h-.69v9.68h-4.71Zm4.71,10.58h.83c2,0,3.24-1.66,3.24-3.78s-.83-3.53-2.95-3.6a3.39,3.39,0,0,0-1.12.14Z"/><path class="cls-4" d="M1916.8,881.15h-.07l-4,2.05-.79-3.71,5.36-2.77h4.14v23.39h-4.68Z"/><path class="cls-4" d="M1939.84,876.72v3.1l-7.34,20.29h-4.61l7.2-19.18v-.07h-8v-4.14Z"/><path class="cls-4" d="M1837.86,1743.16a21.84,21.84,0,0,1,4.78-.47c3.06,0,5.18.72,6.73,2.16,2.08,1.87,3.16,5.07,3.16,9.79,0,4.89-1.26,8.38-3.38,10.26-1.62,1.58-4,2.34-7.41,2.34a35.73,35.73,0,0,1-3.88-.25Zm4.71,20.15a3.18,3.18,0,0,0,.83.07c2.26,0,4.24-2.23,4.24-8.92,0-5-1.29-8-4.14-8a2.65,2.65,0,0,0-.94.11Z"/><path class="cls-4" d="M1869.86,1754.5c0,9.14-3.24,12.85-7.84,12.85-5.51,0-7.66-5.83-7.66-12.48s2.63-12.34,8-12.34C1868.2,1742.52,1869.86,1749,1869.86,1754.5Zm-10.61.43c0,5.51,1,8.31,2.95,8.31s2.74-3.6,2.74-8.53c0-4.25-.65-8.1-2.77-8.1C1860.29,1746.62,1859.24,1749.71,1859.24,1754.93Z"/><path class="cls-4" d="M1887.17,1754.5c0,9.14-3.24,12.85-7.84,12.85-5.51,0-7.66-5.83-7.66-12.48s2.63-12.34,8-12.34C1885.51,1742.52,1887.17,1749,1887.17,1754.5Zm-10.61.43c0,5.51,1,8.31,2.95,8.31s2.74-3.6,2.74-8.53c0-4.25-.65-8.1-2.77-8.1C1877.6,1746.62,1876.56,1749.71,1876.56,1754.93Z"/><path class="cls-4" d="M1890.17,1743.16a28.39,28.39,0,0,1,5.14-.47c2.59,0,4.89.36,6.48,1.8a6.17,6.17,0,0,1,1.91,5,6.45,6.45,0,0,1-3.74,6.08v.07c1.66.65,2.49,2.19,3,4.78a38.94,38.94,0,0,0,1.55,6.58h-4.93a33.28,33.28,0,0,1-1.19-5.79c-.43-3-1.19-3.88-2.77-3.88h-.69v9.68h-4.71Zm4.71,10.58h.83c2,0,3.24-1.65,3.24-3.78s-.83-3.53-2.95-3.6a3.35,3.35,0,0,0-1.12.14Z"/><path class="cls-4" d="M1917.16,1748.09h-.07l-4,2.05-.79-3.71,5.36-2.77h4.14v23.39h-4.68Z"/><path class="cls-4" d="M1928.72,1763.42a10.26,10.26,0,0,0,2.16-.18,5.69,5.69,0,0,0,2.74-1.4,8.91,8.91,0,0,0,2.27-4.71h-.11a4.35,4.35,0,0,1-3.35,1.44c-3,0-5.5-2.7-5.5-7,0-4,2.48-8.2,7-8.2s6.62,4,6.62,9.6c0,5.29-1.69,9-3.85,11.3a10,10,0,0,1-5.76,2.95,15.08,15.08,0,0,1-2.2.11Zm2.84-12.23c0,2.26.76,4.14,2.19,4.14a2.05,2.05,0,0,0,1.8-1.22,6.92,6.92,0,0,0,.21-2.49c0-3.09-.86-4.82-2.12-4.82S1931.53,1748.34,1931.56,1751.19Z"/><path class="cls-4" d="M1125.26,1565.94a26.11,26.11,0,0,1,5.74-.56c3.67,0,6.22.86,8.07,2.59,2.51,2.25,3.8,6.09,3.8,11.75,0,5.87-1.51,10.06-4.06,12.3-1.94,1.9-4.84,2.81-8.89,2.81a42,42,0,0,1-4.67-.3Zm5.66,24.18a3.81,3.81,0,0,0,1,.08c2.72,0,5.09-2.68,5.09-10.71,0-6-1.55-9.59-5-9.59a3.19,3.19,0,0,0-1.12.13Z"/><path class="cls-4" d="M1163.66,1579.54c0,11-3.88,15.41-9.41,15.41-6.61,0-9.2-7-9.2-15s3.15-14.81,9.58-14.81C1161.67,1565.16,1163.66,1572.89,1163.66,1579.54Zm-12.74.52c0,6.61,1.25,10,3.54,10s3.28-4.32,3.28-10.23c0-5.1-.78-9.72-3.33-9.72C1152.17,1570.08,1150.92,1573.79,1150.92,1580.05Z"/><path class="cls-4" d="M1184.44,1579.54c0,11-3.88,15.41-9.41,15.41-6.61,0-9.2-7-9.2-15s3.15-14.81,9.58-14.81C1182.45,1565.16,1184.44,1572.89,1184.44,1579.54Zm-12.74.52c0,6.61,1.25,10,3.54,10s3.28-4.32,3.28-10.23c0-5.1-.78-9.72-3.33-9.72C1173,1570.08,1171.7,1573.79,1171.7,1580.05Z"/><path class="cls-4" d="M1188,1565.94a33.9,33.9,0,0,1,6.18-.56c3.11,0,5.87.43,7.77,2.16s2.29,3.54,2.29,6a7.76,7.76,0,0,1-4.49,7.3v.08c2,.78,3,2.63,3.54,5.74a47.08,47.08,0,0,0,1.86,7.9h-5.92a40.37,40.37,0,0,1-1.42-7c-.52-3.63-1.42-4.67-3.33-4.67h-.82v11.62H1188Zm5.66,12.69h1c2.46,0,3.88-2,3.88-4.54s-1-4.23-3.54-4.32a4.12,4.12,0,0,0-1.34.17Z"/><path class="cls-4" d="M1220.43,1571.85h-.08l-4.75,2.46-.95-4.45,6.43-3.33h5v28.07h-5.61Z"/><path class="cls-4" d="M1116.17,1629.08l-1.94,8.72H1111l6.65-29.1h3.67l6.48,29.1h-3.28l-1.94-8.72Zm6-2.68-1.51-7.38c-.43-2.07-.82-4.49-1.17-6.65h-.17c-.34,2.2-.78,4.71-1.16,6.65l-1.51,7.38Z"/><path class="cls-4" d="M1141,1637.29a7.2,7.2,0,0,1-3.46.78c-4.58,0-7.64-3.67-7.64-10.58,0-6,3-10.88,8.25-10.88a6.74,6.74,0,0,1,2.94.65l-.65,2.72a5.4,5.4,0,0,0-2.38-.56c-3.32,0-4.83,4-4.83,8.08,0,4.88,1.86,7.82,4.92,7.82a5.7,5.7,0,0,0,2.42-.56Z"/><path class="cls-4" d="M1153.75,1637.29a7.2,7.2,0,0,1-3.46.78c-4.58,0-7.64-3.67-7.64-10.58,0-6,3-10.88,8.25-10.88a6.74,6.74,0,0,1,2.94.65l-.65,2.72a5.4,5.4,0,0,0-2.38-.56c-3.32,0-4.83,4-4.83,8.08,0,4.88,1.86,7.82,4.92,7.82a5.7,5.7,0,0,0,2.42-.56Z"/><path class="cls-4" d="M1158.68,1627.66c0,6.39,2.55,7.77,5,7.77a7,7,0,0,0,3.45-.82l.52,2.46a10.1,10.1,0,0,1-4.58,1c-5,0-7.6-4.1-7.6-10.49,0-6.78,2.85-11,7-11s6,4.49,6,9.24c0,.78,0,1.34,0,1.86Zm6.56-2.46c.09-4.19-1.51-6-3.11-6-2.16,0-3.28,3.19-3.41,6Z"/><path class="cls-4" d="M1171.47,1634.35a6.57,6.57,0,0,0,3.36,1.08,2.82,2.82,0,0,0,3.07-3c0-1.6-.56-2.68-2.68-4.1-2.72-1.77-4.19-3.54-4.19-6a5.61,5.61,0,0,1,5.74-5.78,7.17,7.17,0,0,1,3.76,1.08l-.91,2.5a4.92,4.92,0,0,0-2.76-.91,2.56,2.56,0,0,0-2.72,2.63c0,1.42.52,2.2,2.59,3.63,2.42,1.55,4.32,3.45,4.32,6.35,0,4.19-2.85,6.22-6.26,6.22a7.14,7.14,0,0,1-4.14-1.21Z"/><path class="cls-4" d="M1184,1634.35a6.57,6.57,0,0,0,3.36,1.08,2.82,2.82,0,0,0,3.07-3c0-1.6-.56-2.68-2.68-4.1-2.72-1.77-4.19-3.54-4.19-6a5.61,5.61,0,0,1,5.74-5.78,7.17,7.17,0,0,1,3.76,1.08l-.91,2.5a4.92,4.92,0,0,0-2.76-.91,2.56,2.56,0,0,0-2.72,2.63c0,1.42.52,2.2,2.59,3.63,2.42,1.55,4.32,3.45,4.32,6.35,0,4.19-2.85,6.22-6.26,6.22a7.14,7.14,0,0,1-4.14-1.21Z"/><path class="cls-4" d="M1200.58,1611.51a2,2,0,1,1-3.93,0,2,2,0,0,1,1.94-2.16A2,2,0,0,1,1200.58,1611.51Zm-3.59,26.29v-20.9h3.33v20.9Z"/><path class="cls-4" d="M1204.73,1637.81c0-1.21.17-3.58.17-5v-24.87h3.33v11.44h.08a4.66,4.66,0,0,1,4.41-2.81c3.24,0,5.7,3.75,5.7,10.58,0,7.56-3.11,11-6.35,11-2.2,0-3.33-1.29-4.14-3.07h-.13l-.22,2.72Zm3.5-7.38a4.07,4.07,0,0,0,.13,1.29c.78,3.11,2.2,3.67,3.11,3.67,2.68,0,3.62-3.62,3.62-8.07,0-4.19-1-7.9-3.67-7.9-1.55,0-2.85,1.94-3.11,3.71a8.59,8.59,0,0,0-.08,1.47Z"/><path class="cls-4" d="M1222.18,1607.93h3.33v29.88h-3.33Z"/><path class="cls-4" d="M1232.76,1627.66c0,6.39,2.55,7.77,5,7.77a7,7,0,0,0,3.45-.82l.52,2.46a10.1,10.1,0,0,1-4.58,1c-5,0-7.6-4.1-7.6-10.49,0-6.78,2.85-11,7-11s6,4.49,6,9.24c0,.78,0,1.34,0,1.86Zm6.56-2.46c.09-4.19-1.51-6-3.11-6-2.16,0-3.28,3.19-3.41,6Z"/><path class="cls-4" d="M63.87,1496.77a21.66,21.66,0,0,1,4.79-.47c3.06,0,5.18.72,6.73,2.16,2.09,1.87,3.17,5.07,3.17,9.79,0,4.89-1.26,8.38-3.38,10.26-1.62,1.58-4,2.34-7.41,2.34a35.8,35.8,0,0,1-3.89-.25Zm4.71,20.15a3.14,3.14,0,0,0,.83.07c2.27,0,4.25-2.23,4.25-8.92,0-5-1.3-8-4.14-8a2.65,2.65,0,0,0-.94.11Z"/><path class="cls-4" d="M95.87,1508.1c0,9.14-3.24,12.85-7.84,12.85-5.51,0-7.66-5.83-7.66-12.48s2.63-12.34,8-12.34C94.22,1496.12,95.87,1502.56,95.87,1508.1Zm-10.62.43c0,5.51,1,8.31,3,8.31s2.74-3.6,2.74-8.53c0-4.25-.65-8.1-2.77-8.1C86.3,1500.23,85.26,1503.32,85.26,1508.54Z"/><path class="cls-4" d="M113.19,1508.1c0,9.14-3.24,12.85-7.84,12.85-5.51,0-7.66-5.83-7.66-12.48s2.63-12.34,8-12.34C111.53,1496.12,113.19,1502.56,113.19,1508.1Zm-10.62.43c0,5.51,1,8.31,3,8.31s2.74-3.6,2.74-8.53c0-4.25-.65-8.1-2.77-8.1C103.62,1500.23,102.57,1503.32,102.57,1508.54Z"/><path class="cls-4" d="M116.18,1496.77a28.13,28.13,0,0,1,5.15-.47c2.59,0,4.89.36,6.48,1.8a6.18,6.18,0,0,1,1.91,5,6.46,6.46,0,0,1-3.74,6.08v.07c1.65.65,2.48,2.19,2.95,4.78a39.12,39.12,0,0,0,1.55,6.58h-4.93a33.33,33.33,0,0,1-1.19-5.79c-.43-3-1.19-3.88-2.77-3.88h-.68v9.68h-4.71Zm4.71,10.58h.83c2.05,0,3.24-1.66,3.24-3.78s-.83-3.53-3-3.6a3.33,3.33,0,0,0-1.11.14Z"/><path class="cls-4" d="M89.6,1560.26v-3.17l2.34-3c3-3.85,5.5-7.05,5.5-10.4a2.88,2.88,0,0,0-3-3.2,6.63,6.63,0,0,0-3.53,1.19L90.1,1538a10.48,10.48,0,0,1,5.22-1.44c5.11,0,6.76,3.42,6.76,6.76,0,4.39-2.74,7.91-5.43,11l-1.4,1.66v.07h7.16v4.14Z"/><path class="cls-4" d="M171.85,1148.19a21.66,21.66,0,0,1,4.79-.47c3.06,0,5.18.72,6.73,2.16,2.09,1.87,3.17,5.07,3.17,9.79,0,4.89-1.26,8.38-3.38,10.26-1.62,1.58-4,2.34-7.41,2.34a35.3,35.3,0,0,1-3.89-.25Zm4.71,20.15a3.07,3.07,0,0,0,.83.07c2.27,0,4.25-2.23,4.25-8.92,0-5-1.3-8-4.14-8a2.69,2.69,0,0,0-.94.11Z"/><path class="cls-4" d="M203.84,1159.52c0,9.14-3.24,12.85-7.84,12.85-5.51,0-7.66-5.83-7.66-12.49s2.63-12.34,8-12.34C202.19,1147.54,203.84,1154,203.84,1159.52Zm-10.62.43c0,5.51,1,8.31,3,8.31s2.74-3.6,2.74-8.53c0-4.25-.65-8.09-2.77-8.09C194.27,1151.64,193.23,1154.74,193.23,1160Z"/><path class="cls-4" d="M221.16,1159.52c0,9.14-3.24,12.85-7.84,12.85-5.51,0-7.66-5.83-7.66-12.49s2.63-12.34,8-12.34C219.5,1147.54,221.16,1154,221.16,1159.52Zm-10.62.43c0,5.51,1,8.31,3,8.31s2.74-3.6,2.74-8.53c0-4.25-.65-8.09-2.77-8.09C211.59,1151.64,210.54,1154.74,210.54,1160Z"/><path class="cls-4" d="M224.15,1148.19a28.13,28.13,0,0,1,5.15-.47c2.59,0,4.89.36,6.48,1.8a6.18,6.18,0,0,1,1.91,5,6.46,6.46,0,0,1-3.74,6.08v.07c1.65.65,2.48,2.19,2.95,4.78a39.17,39.17,0,0,0,1.55,6.58h-4.93a33.42,33.42,0,0,1-1.19-5.79c-.43-3-1.19-3.89-2.77-3.89h-.68v9.68h-4.71Zm4.71,10.58h.83c2.05,0,3.24-1.66,3.24-3.78s-.83-3.53-3-3.6a3.37,3.37,0,0,0-1.11.14Z"/><path class="cls-4" d="M257.84,1152.8h-6.19l-.54,4.17h.72a7.45,7.45,0,0,1,4.39,1.76,7.13,7.13,0,0,1,2,5.36c0,4.57-3,8.28-8.13,8.28a10.48,10.48,0,0,1-4.39-.94l.72-3.74a7.78,7.78,0,0,0,3.35.83c2.3,0,3.81-1.48,3.81-4,0-3.13-2.37-4.17-5.07-4.17a11.41,11.41,0,0,0-1.66.07l1.3-11.73h9.68Z"/><path class="cls-4" d="M164.27,1204.41l-1.62,7.27H160l5.54-24.25h3.06l5.4,24.25h-2.74l-1.62-7.27Zm5-2.23L168,1196c-.36-1.73-.68-3.74-1-5.54h-.14c-.29,1.84-.65,3.92-1,5.54l-1.26,6.15Z"/><path class="cls-4" d="M184.93,1211.25a6,6,0,0,1-2.88.65c-3.81,0-6.37-3.06-6.37-8.82,0-5,2.52-9.07,6.87-9.07a5.6,5.6,0,0,1,2.45.54l-.54,2.27a4.53,4.53,0,0,0-2-.47c-2.77,0-4,3.31-4,6.73,0,4.07,1.55,6.51,4.1,6.51a4.75,4.75,0,0,0,2-.47Z"/><path class="cls-4" d="M195.59,1211.25a6,6,0,0,1-2.88.65c-3.81,0-6.37-3.06-6.37-8.82,0-5,2.52-9.07,6.87-9.07a5.6,5.6,0,0,1,2.45.54l-.54,2.27a4.53,4.53,0,0,0-2-.47c-2.77,0-4,3.31-4,6.73,0,4.07,1.55,6.51,4.1,6.51a4.75,4.75,0,0,0,2-.47Z"/><path class="cls-4" d="M199.69,1203.23c0,5.32,2.12,6.48,4.14,6.48a5.86,5.86,0,0,0,2.88-.68l.43,2.05a8.4,8.4,0,0,1-3.81.83c-4.17,0-6.33-3.42-6.33-8.74,0-5.65,2.37-9.18,5.87-9.18s5,3.74,5,7.7c0,.65,0,1.11,0,1.55Zm5.47-2.05c.07-3.49-1.26-5-2.59-5-1.8,0-2.74,2.66-2.84,5Z"/><path class="cls-4" d="M210.35,1208.8a5.5,5.5,0,0,0,2.81.9,2.35,2.35,0,0,0,2.55-2.52c0-1.33-.47-2.23-2.23-3.42-2.27-1.47-3.49-3-3.49-5a4.68,4.68,0,0,1,4.78-4.82,6,6,0,0,1,3.13.9l-.76,2.09a4.1,4.1,0,0,0-2.3-.76,2.13,2.13,0,0,0-2.27,2.2c0,1.19.43,1.84,2.16,3,2,1.3,3.6,2.88,3.6,5.29a4.86,4.86,0,0,1-5.22,5.18,6,6,0,0,1-3.45-1Z"/><path class="cls-4" d="M220.75,1208.8a5.5,5.5,0,0,0,2.81.9,2.35,2.35,0,0,0,2.55-2.52c0-1.33-.47-2.23-2.23-3.42-2.27-1.47-3.49-3-3.49-5a4.68,4.68,0,0,1,4.78-4.82,6,6,0,0,1,3.13.9l-.76,2.09a4.1,4.1,0,0,0-2.3-.76,2.13,2.13,0,0,0-2.27,2.2c0,1.19.43,1.84,2.16,3,2,1.3,3.6,2.88,3.6,5.29a4.86,4.86,0,0,1-5.22,5.18,6,6,0,0,1-3.45-1Z"/><path class="cls-4" d="M234.61,1189.77a1.62,1.62,0,0,1-1.69,1.8,1.63,1.63,0,0,1-1.58-1.8A1.66,1.66,0,0,1,233,1188,1.63,1.63,0,0,1,234.61,1189.77Zm-3,21.91v-17.41h2.77v17.41Z"/><path class="cls-4" d="M238.07,1211.68c0-1,.14-3,.14-4.17v-20.72H241v9.53h.07a3.89,3.89,0,0,1,3.67-2.34c2.7,0,4.75,3.13,4.75,8.82,0,6.3-2.59,9.18-5.29,9.18-1.84,0-2.77-1.08-3.45-2.56h-.11l-.18,2.27Zm2.91-6.15a3.35,3.35,0,0,0,.11,1.08c.65,2.59,1.84,3.06,2.59,3.06,2.23,0,3-3,3-6.73,0-3.49-.83-6.58-3.06-6.58-1.3,0-2.37,1.62-2.59,3.1a7,7,0,0,0-.07,1.22Z"/><path class="cls-4" d="M252.61,1186.78h2.77v24.9h-2.77Z"/><path class="cls-4" d="M261.43,1203.23c0,5.32,2.12,6.48,4.14,6.48a5.86,5.86,0,0,0,2.88-.68l.43,2.05a8.4,8.4,0,0,1-3.81.83c-4.17,0-6.33-3.42-6.33-8.74,0-5.65,2.37-9.18,5.87-9.18s5,3.74,5,7.7c0,.65,0,1.11,0,1.55Zm5.47-2.05c.07-3.49-1.26-5-2.59-5-1.8,0-2.73,2.66-2.84,5Z"/><path class="cls-4" d="M75.24,238.4l-1.08,5.54H69.59l5.25-24.25h5.65l4.71,24.25H80.64l-1-5.54Zm3.92-3.67-.79-5.07c-.25-1.47-.57-3.89-.79-5.51h-.11c-.25,1.62-.61,4.14-.86,5.54l-.9,5Z"/><path class="cls-4" d="M92.84,221.6v4.75H96.3v3.35H92.84v8c0,2.05.86,2.55,1.8,2.55a6.44,6.44,0,0,0,1.22-.11l0,3.67a11.15,11.15,0,0,1-2.88.32A4.75,4.75,0,0,1,89.64,243c-1-.94-1.51-2.27-1.51-5V229.7H86v-3.35h2.09v-3.64Z"/><path class="cls-4" d="M98.5,219h4.71v9.14h.07a5.48,5.48,0,0,1,1.51-1.51,4.76,4.76,0,0,1,2.37-.61c3.24,0,4.5,2.74,4.5,7.2v10.69H107V233.26c0-1.73-.33-3.24-1.73-3.24-.79,0-1.47.47-1.84,1.65a7,7,0,0,0-.18,1.33v10.94H98.5Z"/><path class="cls-4" d="M115,219h4.71v24.9H115Z"/><path class="cls-4" d="M127,236.82c.07,2.74,1.65,3.74,3.74,3.74a10.37,10.37,0,0,0,3.35-.58l.65,3.38a14.54,14.54,0,0,1-4.86.79c-4.78,0-7.41-3.17-7.41-8.67,0-5.9,3.06-9.43,7.05-9.43,3.78,0,6,3,6,8.31a12.4,12.4,0,0,1-.14,2.45Zm4.21-3.31c0-2.27-.57-4-2-4s-2.16,2.27-2.2,4Z"/><path class="cls-4" d="M143.71,221.6v4.75h3.45v3.35h-3.45v8c0,2.05.86,2.55,1.8,2.55a6.44,6.44,0,0,0,1.22-.11l0,3.67a11.15,11.15,0,0,1-2.88.32,4.75,4.75,0,0,1-3.38-1.12c-1-.94-1.51-2.27-1.51-5V229.7h-2.09v-3.35H139v-3.64Z"/><path class="cls-4" d="M154.08,221.67a2.4,2.4,0,0,1-2.48,2.55,2.56,2.56,0,1,1,2.48-2.55Zm-4.71,22.27V226.35h4.71v17.59Z"/><path class="cls-4" d="M167.15,243.66a8.3,8.3,0,0,1-3,.5c-4.46,0-7.38-3.1-7.38-8.85,0-5.43,3.2-9.21,8.06-9.21a6.9,6.9,0,0,1,2.59.47l-.61,3.71a4.94,4.94,0,0,0-1.76-.32c-2.27,0-3.6,2.16-3.6,5.22s1.33,5.15,3.52,5.15a3.86,3.86,0,0,0,1.76-.36Z"/><path class="cls-4" d="M75.26,269.29H69.72v6.55H76v4.1H65V255.69H75.54v4.1H69.72v5.58h5.54Z"/><path class="cls-4" d="M78.75,267.64c0-1.94-.11-3.64-.14-5.29h4.07l.21,2H83a5.05,5.05,0,0,1,4.28-2.3c3.35,0,4.68,2.66,4.68,6.58v11.3H87.21v-11c0-1.51-.36-2.91-1.73-2.91-.79,0-1.44.54-1.76,1.58a4.61,4.61,0,0,0-.25,1.62v10.72H78.75Z"/><path class="cls-4" d="M100.78,257.6v4.75h3.45v3.35h-3.45v8c0,2.05.86,2.55,1.8,2.55a6.44,6.44,0,0,0,1.22-.11l0,3.67a11.15,11.15,0,0,1-2.88.32A4.75,4.75,0,0,1,97.58,279c-1-.94-1.51-2.27-1.51-5V265.7H94v-3.35h2.09v-3.64Z"/><path class="cls-4" d="M106.4,267.64c0-1.76-.07-3.67-.14-5.29h4.1l.25,2.55h.11c.79-1.87,2.2-2.84,3.49-2.84a4,4,0,0,1,1,.07v4.68a4.26,4.26,0,0,0-1-.07,3.14,3.14,0,0,0-2.88,2.52,7.18,7.18,0,0,0-.18,1.76v8.92H106.4Z"/><path class="cls-4" d="M124.9,279.95l-.25-1.73h-.07a4.6,4.6,0,0,1-3.89,2c-2.66,0-4.64-2.23-4.64-5.36,0-4.61,4.07-6.51,8.06-6.55v-.4a2.24,2.24,0,0,0-2.48-2.37,6.57,6.57,0,0,0-3.6,1l-.86-3.17a11.48,11.48,0,0,1,5.47-1.33c5.36,0,6.22,3.74,6.22,7.3v6.55a23.54,23.54,0,0,0,.29,4Zm-.65-8.56c-1.58,0-3.74.54-3.74,3,0,1.76,1,2.41,1.69,2.41a2,2,0,0,0,1.94-1.51,3.06,3.06,0,0,0,.11-.83Z"/><path class="cls-4" d="M132.21,267.64c0-1.94-.11-3.64-.14-5.29h4.07l.21,2h.07a5.05,5.05,0,0,1,4.28-2.3c3.35,0,4.68,2.66,4.68,6.58v11.3h-4.71v-11c0-1.51-.36-2.91-1.73-2.91-.79,0-1.44.54-1.76,1.58a4.61,4.61,0,0,0-.25,1.62v10.72h-4.71Z"/><path class="cls-4" d="M158.45,279.66a8.3,8.3,0,0,1-3,.5c-4.46,0-7.38-3.1-7.38-8.85,0-5.43,3.2-9.21,8.06-9.21a6.9,6.9,0,0,1,2.59.47l-.61,3.71a4.94,4.94,0,0,0-1.76-.32c-2.27,0-3.6,2.16-3.6,5.22s1.33,5.15,3.52,5.15a3.86,3.86,0,0,0,1.76-.36Z"/><path class="cls-4" d="M164.25,272.82c.07,2.74,1.65,3.74,3.74,3.74a10.37,10.37,0,0,0,3.35-.58l.65,3.38a14.54,14.54,0,0,1-4.86.79c-4.78,0-7.41-3.17-7.41-8.67,0-5.9,3.06-9.43,7.05-9.43,3.78,0,6,3,6,8.31a12.4,12.4,0,0,1-.14,2.45Zm4.21-3.31c0-2.27-.57-4-2-4s-2.16,2.27-2.2,4Z"/><path class="cls-4" d="M1003,684a21.66,21.66,0,0,1,4.79-.47c3.06,0,5.18.72,6.73,2.16,2.09,1.87,3.17,5.07,3.17,9.79,0,4.89-1.26,8.38-3.38,10.26-1.62,1.58-4,2.34-7.41,2.34a35.3,35.3,0,0,1-3.89-.25Zm4.71,20.15a3.07,3.07,0,0,0,.83.07c2.27,0,4.25-2.23,4.25-8.92,0-5-1.3-8-4.14-8a2.69,2.69,0,0,0-.94.11Z"/><path class="cls-4" d="M1035,695.32c0,9.14-3.24,12.85-7.84,12.85-5.51,0-7.66-5.83-7.66-12.49s2.63-12.34,8-12.34C1033.3,683.34,1035,689.78,1035,695.32Zm-10.62.43c0,5.51,1,8.31,3,8.31s2.74-3.6,2.74-8.53c0-4.25-.65-8.09-2.77-8.09C1025.38,687.44,1024.34,690.54,1024.34,695.76Z"/><path class="cls-4" d="M1052.27,695.32c0,9.14-3.24,12.85-7.84,12.85-5.51,0-7.66-5.83-7.66-12.49s2.63-12.34,8-12.34C1050.61,683.34,1052.27,689.78,1052.27,695.32Zm-10.62.43c0,5.51,1,8.31,3,8.31s2.74-3.6,2.74-8.53c0-4.25-.65-8.09-2.77-8.09C1042.7,687.44,1041.65,690.54,1041.65,695.76Z"/><path class="cls-4" d="M1055.26,684a28.13,28.13,0,0,1,5.15-.47c2.59,0,4.89.36,6.48,1.8a6.18,6.18,0,0,1,1.91,5,6.46,6.46,0,0,1-3.74,6.08v.07c1.65.65,2.48,2.19,2.95,4.78a39.17,39.17,0,0,0,1.55,6.58h-4.93a33.42,33.42,0,0,1-1.19-5.79c-.43-3-1.19-3.89-2.77-3.89H1060v9.68h-4.71Zm4.71,10.58h.83c2.05,0,3.24-1.66,3.24-3.78s-.83-3.53-3-3.6a3.37,3.37,0,0,0-1.11.14Z"/><path class="cls-4" d="M1082.26,688.92h-.07l-4,2.05-.79-3.71,5.36-2.77h4.14v23.39h-4.68Z"/><path class="cls-4" d="M1092.7,703.42a7.28,7.28,0,0,0,3.49.9,3.21,3.21,0,0,0,3.53-3.38c0-2.59-2-3.71-4.39-3.71h-.65v-3.45h.47c1.73,0,4-.76,4-3a2.52,2.52,0,0,0-2.74-2.7,5.71,5.71,0,0,0-2.95.94l-.61-3.56a10,10,0,0,1,4.82-1.22c4.1,0,6.15,2.66,6.15,5.65a5.71,5.71,0,0,1-3.35,5.25v.07a5.87,5.87,0,0,1,4,5.94c0,3.56-2.73,7.05-7.8,7.05a9.87,9.87,0,0,1-4.61-1Z"/><path class="cls-4" d="M165.69,610.85a21.66,21.66,0,0,1,4.79-.47c3.06,0,5.18.72,6.73,2.16,2.09,1.87,3.17,5.07,3.17,9.79,0,4.89-1.26,8.38-3.38,10.26-1.62,1.58-4,2.34-7.41,2.34a35.3,35.3,0,0,1-3.89-.25ZM170.41,631a3.07,3.07,0,0,0,.83.07c2.27,0,4.25-2.23,4.25-8.92,0-5-1.3-8-4.14-8a2.69,2.69,0,0,0-.94.11Z"/><path class="cls-4" d="M197.69,622.18c0,9.14-3.24,12.85-7.84,12.85-5.51,0-7.66-5.83-7.66-12.49s2.63-12.34,8-12.34C196,610.2,197.69,616.64,197.69,622.18Zm-10.62.43c0,5.51,1,8.31,3,8.31s2.74-3.6,2.74-8.53c0-4.25-.65-8.09-2.77-8.09C188.12,614.3,187.08,617.4,187.08,622.61Z"/><path class="cls-4" d="M215,622.18c0,9.14-3.24,12.85-7.84,12.85-5.51,0-7.66-5.83-7.66-12.49s2.63-12.34,8-12.34C213.35,610.2,215,616.64,215,622.18Zm-10.62.43c0,5.51,1,8.31,3,8.31s2.74-3.6,2.74-8.53c0-4.25-.65-8.09-2.77-8.09C205.43,614.3,204.39,617.4,204.39,622.61Z"/><path class="cls-4" d="M218,610.85a28.13,28.13,0,0,1,5.15-.47c2.59,0,4.89.36,6.48,1.8a6.18,6.18,0,0,1,1.91,5,6.46,6.46,0,0,1-3.74,6.08v.07c1.65.65,2.48,2.19,2.95,4.78a39.17,39.17,0,0,0,1.55,6.58h-4.93a33.42,33.42,0,0,1-1.19-5.79c-.43-3-1.19-3.89-2.77-3.89h-.68v9.68H218Zm4.71,10.58h.83c2.05,0,3.24-1.66,3.24-3.78s-.83-3.53-3-3.6a3.37,3.37,0,0,0-1.11.14Z"/><path class="cls-4" d="M251.33,614.88a14.45,14.45,0,0,0-1.94.25c-3.1.68-4.64,3.27-5.22,6.22h.11a4.4,4.4,0,0,1,3.6-1.87c3.16,0,5.29,2.84,5.29,7.27,0,4.1-2.08,8.28-6.66,8.28s-7.13-3.85-7.13-9.64c0-5.11,1.69-8.6,3.85-10.9a10.63,10.63,0,0,1,5.72-3.17,15.8,15.8,0,0,1,2.37-.25Zm-2.81,11.84c0-2-.69-3.85-2.19-3.85a2.14,2.14,0,0,0-1.91,1.58,5.41,5.41,0,0,0-.25,2.05c0,3.06.86,5.11,2.26,5.11C248,631.61,248.52,629.52,248.52,626.71Z"/></g><text class="cls-70" transform="translate(1145.83 827.84)">1st <tspan class="cls-71" x="92.23" y="0">F</tspan><tspan x="121.64" y="0">loor</tspan></text></g><g id="Layer_6" data-name="Layer 6"><circle class="cls-72" cx="202.41" cy="1502.95" r="16.28"/><circle class="cls-72" cx="266.32" cy="1504.94" r="16.28"/><circle class="cls-72" cx="377.54" cy="1502.95" r="16.28"/><circle class="cls-72" cx="456.31" cy="1502.95" r="16.28"/><circle class="cls-72" cx="509.89" cy="1508.83" r="16.28"/><circle class="cls-72" cx="660.05" cy="1492.56" r="16.28"/><circle class="cls-72" cx="767.25" cy="1502.95" r="16.28"/><circle class="cls-72" cx="794.49" cy="1459.86" r="16.28"/><circle class="cls-72" cx="848.27" cy="1504.94" r="16.28"/><circle class="cls-72" cx="923.39" cy="1500.84" r="16.28"/><circle class="cls-72" cx="977.88" cy="1502.95" r="16.28"/><circle class="cls-72" cx="923.17" cy="1371.26" r="16.28"/><circle class="cls-72" cx="960.92" cy="1163.07" r="16.28"/><circle class="cls-72" cx="1105.34" cy="1240.46" r="16.28"/><circle class="cls-72" cx="1156.4" cy="1283.54" r="16.28"/><circle class="cls-72" cx="1158.04" cy="1384.89" r="16.28"/><circle class="cls-72" cx="1108.43" cy="1500.84" r="16.28"/><circle class="cls-72" cx="1158.93" cy="1452.16" r="16.28"/><circle class="cls-72" cx="1175.85" cy="1496.3" r="16.28"/><circle class="cls-72" cx="1261.71" cy="1441.06" r="16.28"/><circle class="cls-72" cx="1405.79" cy="1418.53" r="16.28"/><circle class="cls-72" cx="1402.94" cy="1298.97" r="16.28"/><circle class="cls-72" cx="1533.37" cy="1268.65" r="16.28"/><circle class="cls-72" cx="1533.37" cy="1406.69" r="16.28"/><circle class="cls-72" cx="1445.2" cy="1419.96" r="16.28"/><circle class="cls-72" cx="1445.2" cy="1523.92" r="16.28"/><circle class="cls-72" cx="1445.2" cy="1584.75" r="16.28"/><circle class="cls-72" cx="1537.69" cy="1588.29" r="16.28"/><circle class="cls-72" cx="1576.26" cy="1579.07" r="16.28"/><circle class="cls-72" cx="1621.11" cy="1576.52" r="16.28"/><circle class="cls-72" cx="1752.63" cy="1574.83" r="16.28"/><circle class="cls-72" cx="1814.16" cy="1574.83" r="16.28"/><circle class="cls-72" cx="1890.17" cy="1572.31" r="16.28"/><circle class="cls-72" cx="1890.17" cy="1429.71" r="16.28"/><circle class="cls-72" cx="1888.86" cy="1265.71" r="16.28"/><circle class="cls-72" cx="1886.81" cy="1068" r="16.28"/><circle class="cls-72" cx="1828.74" cy="1068" r="16.28"/><circle class="cls-72" cx="1778.57" cy="1068" r="16.28"/><circle class="cls-72" cx="1627.3" cy="1070.53" r="16.28"/><circle class="cls-72" cx="1713.11" cy="1068" r="16.28"/><circle class="cls-72" cx="1538.24" cy="1071.55" r="16.28"/><circle class="cls-72" cx="1889.81" cy="1006.89" r="16.28"/><circle class="cls-72" cx="1888.86" cy="1645.36" r="16.28"/><circle class="cls-72" cx="1142.65" cy="1204.17" r="16.28"/><circle class="cls-72" cx="1189.34" cy="1217.49" r="16.28"/><circle class="cls-72" cx="915.72" cy="1201.21" r="16.28"/><circle class="cls-72" cx="769.37" cy="1127.71" r="16.28"/><circle class="cls-72" cx="616.71" cy="1102.08" r="16.28"/><circle class="cls-72" cx="515.04" cy="1103.07" r="16.28"/><circle class="cls-72" cx="440.04" cy="1154.41" r="16.28"/><circle class="cls-72" cx="456.31" cy="1285.46" r="16.28"/><circle class="cls-72" cx="421.08" cy="820.7" r="16.28"/><circle class="cls-72" cx="423.76" cy="742.99" r="16.28"/><circle class="cls-72" cx="423.76" cy="662.46" r="16.28"/><circle class="cls-72" cx="425.97" cy="629.86" r="16.28"/><circle class="cls-72" cx="423.72" cy="407.6" r="16.28"/><circle class="cls-72" cx="425.97" cy="253.69" r="16.28"/><circle class="cls-72" cx="520.59" cy="253.83" r="16.28"/><circle class="cls-72" cx="590.53" cy="255.69" r="16.28"/><circle class="cls-72" cx="694.61" cy="253.83" r="16.28"/><circle class="cls-72" cx="752.58" cy="253.83" r="16.28"/><circle class="cls-72" cx="790.01" cy="252.88" r="16.28"/><circle class="cls-72" cx="790.01" cy="431.44" r="16.28"/><circle class="cls-72" cx="790.01" cy="591.7" r="16.28"/><circle class="cls-72" cx="787.65" cy="632.03" r="16.28"/><circle class="cls-72" cx="790.01" cy="836.98" r="16.28"/><circle class="cls-72" cx="790.01" cy="690.98" r="16.28"/><circle class="cls-72" cx="790.01" cy="1003.29" r="16.28"/><circle class="cls-72" cx="883.26" cy="255.69" r="16.28"/><circle class="cls-72" cx="343.82" cy="244.16" r="16.28"/><circle class="cls-72" cx="425.97" cy="523.36" r="16.28"/><circle class="cls-72" cx="461.45" cy="1078.6" r="16.28"/><circle class="cls-72" cx="753.1" cy="1070.53" r="16.28"/><circle class="cls-72" cx="679.4" cy="1105.22" r="16.28"/><circle class="cls-72" cx="421.08" cy="1465.21" r="16.28"/></g></svg>